<svg xmlns="http://www.w3.org/2000/svg" width="323.65" height="40" viewBox="0 0 323.65 40"><path d="M21,23.69V12c0-4-2.67-8.23-10.15-8.23A14.08,14.08,0,0,0,1.4,7.35l-.46.43,3.42,3.56.77-.58a8.48,8.48,0,0,1,5.79-2.23c3.33,0,4.81,2.1,4.81,4.18v.34H13.19C4.68,13.05,0,16.07,0,21.57,0,26,3.5,29,8.52,29A9.46,9.46,0,0,0,16,26c0,.61.06,1.23.11,1.84l.05.57H21.3l-.08-.7A34,34,0,0,1,21,23.69m-11.16.62c-4.28,0-4.28-2.32-4.28-3.08,0-3.1,4.6-3.75,8.46-3.75h1.68v.82c0,2.9-1.54,6-5.86,6" fill="#6fa765"/><path d="M40.3,21.4a6.16,6.16,0,0,1-5,2.33c-3.91,0-6.74-3-6.74-7.12,0-3.71,2-7.45,6.5-7.45a6.65,6.65,0,0,1,5.22,2.35l.42.45,4.19-3.83-.42-.46A12.32,12.32,0,0,0,35.2,3.86c-7.4,0-12.56,5.2-12.56,12.66S27.8,29,35.2,29a11.91,11.91,0,0,0,9.13-3.72l.4-.44-4-4Z" fill="#6fa765"/><path d="M61.1,21.4A6.17,6.17,0,0,1,56,23.73c-3.9,0-6.73-3-6.73-7.12,0-3.71,2-7.45,6.49-7.45A6.62,6.62,0,0,1,61,11.51l.43.45,4.19-3.83-.42-.46A12.32,12.32,0,0,0,56,3.86c-7.4,0-12.57,5.2-12.57,12.66S48.6,29,56,29a11.89,11.89,0,0,0,9.12-3.72l.4-.44-4-4Z" fill="#6fa765"/><path d="M77,3.81A12.61,12.61,0,1,0,89.74,16.42,12.55,12.55,0,0,0,77,3.81m0,19.92c-4.12,0-6.88-2.94-6.88-7.31S72.87,9.11,77,9.11s6.87,2.94,6.87,7.31S81.1,23.73,77,23.73" fill="#6fa765"/><path d="M107.4,16.76c0,4.49-2,7-5.72,7-1.71,0-4.57-.68-4.57-5.24V4.39H91.53v15.3c0,6.89,4.6,9.34,8.9,9.34a9.36,9.36,0,0,0,7-2.8v2.22H113V4.39H107.4Z" fill="#6fa765"/><path d="M127.39,3.81a9.4,9.4,0,0,0-7,2.8V4.39h-5.58V28.45h5.58V16.08c0-4.49,2-7,5.73-7,1.7,0,4.57.68,4.57,5.24v14.1h5.58V13.15c0-6.89-4.6-9.34-8.9-9.34" fill="#6fa765"/><path d="M150.59,23.73c-2.52,0-2.65-1.75-2.65-4.62V9.4h6.21v-5h-6.21V0l-5.58,1.11V4.39h-5v5h5V20.65c0,3.54,0,8.38,7.41,8.38a10.7,10.7,0,0,0,4.21-.85l.31-.18V22.57l-.95.58a5.62,5.62,0,0,1-2.75.58" fill="#6fa765"/><rect x="156.22" y="4.39" width="5.59" height="24.06" fill="#6fa765"/><path d="M176.54,3.81a9.4,9.4,0,0,0-7,2.8V4.39H164V28.45h5.58V16.08c0-4.49,2-7,5.73-7,1.7,0,4.57.68,4.57,5.24v14.1h5.58V13.15c0-6.89-4.6-9.34-8.9-9.34" fill="#6fa765"/><path d="M206.66,4.39v2.3a10.82,10.82,0,0,0-7.4-2.88C192.06,3.81,187,9,187,16.42a11.95,11.95,0,0,0,12.23,12.32,10,10,0,0,0,7.4-3v1.68c0,3.31-1.32,7.26-7.6,7.26a10,10,0,0,1-7.67-3.5l-.5-.53-3.75,4.68.43.39A16,16,0,0,0,199.16,40c7.71,0,13.09-5.09,13.09-12.37V4.39Zm0,12c0,4.33-2.63,7-6.88,7s-6.87-2.69-6.87-7,2.76-7.31,6.87-7.31,6.88,2.94,6.88,7.31" fill="#6fa765"/><polygon points="233.75 4.28 214.23 4.28 214.23 9.42 221.22 9.42 221.22 28.56 226.75 28.56 226.75 9.42 233.75 9.42 233.75 4.28" fill="#0093d0"/><path d="M246.62,3.69h-.29a12.86,12.86,0,0,0-9.17,3.51,12.72,12.72,0,0,0-3.61,9.3,12.6,12.6,0,0,0,3.61,9.15,13,13,0,0,0,9.18,3.48h0c7.58-.13,12.87-5.38,12.87-12.75a12.62,12.62,0,0,0-3.54-9.21,12.64,12.64,0,0,0-9.06-3.49M246.37,24c-4.17,0-7.09-3.19-7.1-7.74,0-4.3,3-7.42,7.1-7.42s7.12,3.12,7.12,7.42c0,4.55-2.93,7.73-7.12,7.74" fill="#0093d0"/><path d="M291.45,4.28l-.16.38-10.4,23.9h6.17l2.06-5.22H298l2.13,5.22h6.25L295.93,4.28Zm-.37,14.11,2.49-6.48L296,18.39Z" fill="#0093d0"/><polygon points="317.05 4.28 311.79 12.7 306.59 4.28 299.72 4.28 308.92 18.28 308.92 28.56 314.45 28.56 314.45 18.28 323.65 4.28 317.05 4.28" fill="#0093d0"/><path d="M279.18,7.26a12.9,12.9,0,0,0-8.53-3h-9.73V28.56h9.24c6.22,0,12.82-4.27,12.82-12.14a11.74,11.74,0,0,0-3.8-9.16M266.34,9.31h3.08c3.63,0,7.94,1.24,7.94,7.11,0,6.18-5.4,7.1-8.61,7.1h-2.41Z" fill="#0093d0"/></svg>