<svg width="238" height="28" viewBox="0 0 238 28" fill="none" xmlns="http://www.w3.org/2000/svg">
<path d="M53.2484 16.0458C52.1903 15.5698 51.7167 14.3256 52.1927 13.2652C52.6687 12.2071 53.9129 11.7335 54.9733 12.2095C56.0313 12.6855 56.505 13.9297 56.029 14.9901C55.553 16.0481 54.3088 16.5218 53.2484 16.0458ZM58.8967 17.5067C58.4137 18.1925 57.8034 18.7533 57.1106 19.1633L57.5654 20.5159L55.5412 21.1969L55.1052 19.9009C54.3088 20.0399 53.4793 20.014 52.6687 19.809L52.0348 21.0885L50.1237 20.1389L50.7317 18.9135C50.046 18.4305 49.4875 17.8202 49.0775 17.1274L47.7225 17.5845L47.0415 15.5603L48.3399 15.1244C48.2009 14.3279 48.2221 13.4985 48.4271 12.6878L47.1499 12.054L48.0996 10.1429L49.3249 10.7508C49.808 10.0651 50.4183 9.50665 51.1134 9.09663L50.6586 7.74168L52.6828 7.06067L53.1211 8.36142C53.9176 8.22475 54.7447 8.24595 55.5553 8.45096L56.1916 7.17142L58.1026 8.12106L57.4947 9.34641C58.1804 9.82948 58.7389 10.4398 59.1489 11.1326L60.5038 10.6754L61.1848 12.6996L59.8865 13.1356C60.0255 13.932 60.0043 14.7615 59.7993 15.5721L61.0764 16.206L60.1268 18.1171L58.9015 17.5091L58.8967 17.5067ZM52.188 18.0016C54.337 19.0738 56.9221 18.1878 57.9824 16.0528C59.0428 13.9179 58.1686 11.3187 56.0337 10.2584C55.9842 10.2324 55.9323 10.2089 55.8829 10.1853C53.7786 9.23801 51.2737 10.1217 50.2392 12.2071C49.1788 14.3421 50.053 16.9436 52.188 18.004V18.0016Z" fill="black"/>
<path d="M14.7442 21.2512H6.26812L5.05691 26.5932H0.141386L6.08903 1.65979H14.9233L20.871 26.5932H15.9554L14.7442 21.2512V21.2512ZM7.26489 16.7645H13.7121L10.8278 4.01387H10.1869L7.26725 16.7645H7.26489Z" fill="black"/>
<path d="M23.9697 1.66215H40.6391V6.15116H34.6561V22.1089H40.6391V26.5956H23.9697V22.1089H29.9527V6.1488H23.9697V1.65979V1.66215Z" fill="black"/>
<path d="M66.64 22.1066H68.9917V6.1488H66.64V1.65979H77.5739C78.7615 1.65979 79.8125 1.8271 80.7268 2.15935C81.6411 2.49161 82.4116 2.94169 83.0432 3.51195C83.6723 4.08221 84.1483 4.76557 84.4688 5.55969C84.7893 6.35616 84.9495 7.21626 84.9495 8.14234V8.56886C84.9495 9.9945 84.5513 11.1327 83.7572 11.988C82.9607 12.8434 81.9592 13.4373 80.748 13.7695V14.4105C81.9592 14.7427 82.963 15.3436 83.7572 16.2084C84.5536 17.0756 84.9495 18.2208 84.9495 19.6465V20.073C84.9495 20.9991 84.7893 21.8592 84.4688 22.6556C84.1483 23.4521 83.6723 24.1402 83.0432 24.7222C82.414 25.3043 81.6411 25.7614 80.7268 26.0937C79.8125 26.4259 78.7615 26.5932 77.5739 26.5932H66.64V22.1066V22.1066ZM73.6928 11.849H77.112C78.1088 11.849 78.917 11.6416 79.5344 11.2246C80.1518 10.8098 80.4605 10.1029 80.4605 9.10612V8.89169C80.4605 7.89492 80.1518 7.18799 79.5344 6.77325C78.917 6.35852 78.1088 6.1488 77.112 6.1488H73.6928V11.8467V11.849ZM73.6928 22.1066H77.112C78.1088 22.1066 78.917 21.8921 79.5344 21.4656C80.1518 21.0391 80.4605 20.3251 80.4605 19.3283V19.1139C80.4605 18.1171 80.1518 17.4055 79.5344 16.9766C78.917 16.5501 78.1088 16.3357 77.112 16.3357H73.6928V22.1066V22.1066Z" fill="black"/>
<path d="M106.676 1.66211V17.9757C106.676 20.8246 105.922 23.0585 104.414 24.6727C102.906 26.2869 100.667 27.0951 97.7002 27.0951C94.7334 27.0951 92.4925 26.2892 90.9867 24.6727C89.4786 23.0585 88.7245 20.827 88.7245 17.9757V1.66211H93.4256V17.9757C93.4256 19.4485 93.7697 20.6008 94.4577 21.4302C95.1458 22.2621 96.225 22.6768 97.6978 22.6768C99.1706 22.6768 100.25 22.2621 100.938 21.4302C101.626 20.5984 101.97 19.4485 101.97 17.9757V1.66211H106.671H106.676Z" fill="black"/>
<path d="M123.772 9.2852C123.772 8.28842 123.385 7.42125 122.615 6.68369C121.842 5.94848 120.756 5.57852 119.356 5.57852C118.168 5.57852 117.23 5.82123 116.542 6.30902C115.854 6.7968 115.51 7.45424 115.51 8.28607C115.51 8.71258 115.593 9.09904 115.76 9.44308C115.925 9.78712 116.217 10.0958 116.632 10.3692C117.047 10.6425 117.593 10.8852 118.27 11.0996C118.946 11.3141 119.806 11.5167 120.852 11.7053C123.463 12.1813 125.459 12.9754 126.835 14.0923C128.211 15.2093 128.902 16.8588 128.902 19.0432V19.4697C128.902 20.6338 128.694 21.6848 128.277 22.6226C127.863 23.5605 127.262 24.3617 126.479 25.0262C125.697 25.6907 124.745 26.202 123.63 26.5579C122.513 26.9137 121.255 27.0928 119.855 27.0928C118.218 27.0928 116.776 26.8618 115.527 26.3976C114.28 25.9358 113.241 25.2925 112.409 24.4748C111.577 23.6547 110.948 22.6933 110.522 21.5905C110.095 20.4853 109.881 19.2812 109.881 17.9757V16.9083H114.582V17.7636C114.582 19.26 115.015 20.4523 115.882 21.3431C116.75 22.2338 118.097 22.6792 119.926 22.6792C121.352 22.6792 122.407 22.3705 123.095 21.7531C123.784 21.1357 124.128 20.4005 124.128 19.5451C124.128 19.1422 124.057 18.7557 123.913 18.3881C123.772 18.0205 123.522 17.6882 123.166 17.3913C122.81 17.0944 122.323 16.8281 121.705 16.5901C121.088 16.3521 120.303 16.1518 119.353 15.9845C118.095 15.7701 116.943 15.492 115.899 15.148C114.853 14.804 113.945 14.3468 113.175 13.7766C112.402 13.2063 111.803 12.4947 111.377 11.6393C110.95 10.7839 110.736 9.73999 110.736 8.50522V8.29078C110.736 7.27044 110.943 6.32551 111.36 5.45834C111.775 4.59117 112.357 3.83712 113.107 3.19617C113.856 2.55521 114.756 2.05565 115.814 1.69983C116.87 1.34401 118.053 1.16492 119.358 1.16492C120.831 1.16492 122.136 1.37228 123.277 1.78937C124.417 2.20411 125.372 2.76965 126.145 3.48129C126.915 4.19294 127.497 5.01298 127.891 5.93906C128.282 6.86514 128.478 7.83834 128.478 8.85868V10.1406H123.777V9.2852H123.772Z" fill="black"/>
<path d="M132.962 1.66215H149.631V6.15116H143.648V22.1089H149.631V26.5956H132.962V22.1089H138.945V6.1488H132.962V1.65979V1.66215Z" fill="black"/>
<path d="M166.477 24.2438H167.118V1.66211H171.82V26.5956H162.629L159.71 4.01383H159.069V26.5956H154.368V1.66211H163.558L166.48 24.2438H166.477Z" fill="black"/>
<path d="M176.914 1.66211H192.657V6.15112H181.615V11.849H192.229V16.3356H181.615V22.1065H193.084V26.5932H176.914V1.66211V1.66211Z" fill="black"/>
<path d="M210.967 9.2852C210.967 8.28842 210.581 7.42125 209.81 6.68369C209.037 5.94848 207.951 5.57852 206.551 5.57852C205.363 5.57852 204.426 5.82123 203.737 6.30902C203.049 6.7968 202.705 7.45424 202.705 8.28607C202.705 8.71258 202.788 9.09904 202.955 9.44308C203.12 9.78712 203.412 10.0958 203.827 10.3692C204.242 10.6425 204.788 10.8852 205.465 11.0996C206.141 11.3141 207.001 11.5167 208.047 11.7053C210.658 12.1813 212.654 12.9754 214.03 14.0923C215.407 15.2093 216.097 16.8588 216.097 19.0432V19.4697C216.097 20.6338 215.89 21.6848 215.472 22.6226C215.058 23.5605 214.457 24.3617 213.675 25.0262C212.892 25.6907 211.94 26.202 210.826 26.5579C209.709 26.9137 208.45 27.0928 207.051 27.0928C205.413 27.0928 203.971 26.8618 202.722 26.3976C201.475 25.9358 200.436 25.2925 199.604 24.4748C198.772 23.6547 198.143 22.6933 197.717 21.5905C197.29 20.4853 197.076 19.2812 197.076 17.9757V16.9083H201.777V17.7636C201.777 19.26 202.21 20.4523 203.078 21.3431C203.945 22.2338 205.293 22.6792 207.121 22.6792C208.547 22.6792 209.603 22.3705 210.291 21.7531C210.979 21.1357 211.323 20.4005 211.323 19.5451C211.323 19.1422 211.252 18.7557 211.108 18.3881C210.967 18.0205 210.717 17.6882 210.361 17.3913C210.006 17.0944 209.518 16.8281 208.9 16.5901C208.283 16.3521 207.498 16.1518 206.549 15.9845C205.29 15.7701 204.138 15.492 203.094 15.148C202.048 14.804 201.141 14.3468 200.37 13.7766C199.597 13.2063 198.999 12.4947 198.572 11.6393C198.146 10.7839 197.931 9.73999 197.931 8.50522V8.29078C197.931 7.27044 198.139 6.32551 198.556 5.45834C198.97 4.59117 199.552 3.83712 200.302 3.19617C201.051 2.55521 201.951 2.05565 203.009 1.69983C204.065 1.34401 205.248 1.16492 206.553 1.16492C208.026 1.16492 209.332 1.37228 210.472 1.78937C211.613 2.20411 212.567 2.76965 213.34 3.48129C214.11 4.19294 214.693 5.01298 215.086 5.93906C215.477 6.86514 215.673 7.83834 215.673 8.85868V10.1406H210.972V9.2852H210.967Z" fill="black"/>
<path d="M232.764 9.2852C232.764 8.28842 232.378 7.42125 231.607 6.68369C230.834 5.94848 229.748 5.57852 228.348 5.57852C227.16 5.57852 226.223 5.82123 225.534 6.30902C224.846 6.7968 224.502 7.45424 224.502 8.28607C224.502 8.71258 224.585 9.09904 224.752 9.44308C224.917 9.78712 225.209 10.0958 225.624 10.3692C226.039 10.6425 226.585 10.8852 227.262 11.0996C227.938 11.3141 228.798 11.5167 229.844 11.7053C232.455 12.1813 234.451 12.9754 235.827 14.0923C237.204 15.2093 237.894 16.8588 237.894 19.0432V19.4697C237.894 20.6338 237.687 21.6848 237.27 22.6226C236.855 23.5605 236.254 24.3617 235.472 25.0262C234.689 25.6907 233.737 26.202 232.623 26.5579C231.506 26.9137 230.247 27.0928 228.848 27.0928C227.21 27.0928 225.768 26.8618 224.519 26.3976C223.272 25.9358 222.233 25.2925 221.401 24.4748C220.569 23.6547 219.94 22.6933 219.514 21.5905C219.087 20.4853 218.873 19.2812 218.873 17.9757V16.9083H223.574V17.7636C223.574 19.26 224.007 20.4523 224.875 21.3431C225.742 22.2338 227.09 22.6792 228.918 22.6792C230.344 22.6792 231.4 22.3705 232.088 21.7531C232.776 21.1357 233.12 20.4005 233.12 19.5451C233.12 19.1422 233.049 18.7557 232.905 18.3881C232.764 18.0205 232.514 17.6882 232.158 17.3913C231.803 17.0944 231.315 16.8281 230.697 16.5901C230.08 16.3521 229.295 16.1518 228.346 15.9845C227.087 15.7701 225.935 15.492 224.891 15.148C223.845 14.804 222.938 14.3468 222.167 13.7766C221.394 13.2063 220.796 12.4947 220.369 11.6393C219.943 10.7839 219.728 9.73999 219.728 8.50522V8.29078C219.728 7.27044 219.936 6.32551 220.353 5.45834C220.767 4.59117 221.349 3.83712 222.099 3.19617C222.848 2.55521 223.748 2.05565 224.806 1.69983C225.862 1.34401 227.045 1.16492 228.35 1.16492C229.823 1.16492 231.129 1.37228 232.269 1.78937C233.41 2.20411 234.364 2.76965 235.137 3.48129C235.907 4.19294 236.49 5.01298 236.883 5.93906C237.274 6.86514 237.47 7.83834 237.47 8.85868V10.1406H232.769V9.2852H232.764Z" fill="black"/>
</svg>
