<svg version="1.1" id="Layer_1" xmlns="http://www.w3.org/2000/svg" xmlns:xlink="http://www.w3.org/1999/xlink" x="0px" y="0px" viewBox="0 0 604.5 187.9" style="enable-background:new 0 0 604.5 187.9;" xml:space="preserve"> <g> <path d="M341.8,170.7c0-8.7,6.1-15.3,14.9-15.3c4.1,0,7.4,1.4,9.9,3.6c3.5,3.2,5.2,8.2,5.1,14.2h-20.9c0.6,3.9,2.7,6.4,6.5,6.4
    c2.4,0,4-1.1,4.8-2.9h9c-0.6,2.6-2.3,5.1-4.9,6.9c-2.4,1.7-5.4,2.7-9.1,2.7C347.7,186.1,341.8,179.5,341.8,170.7z M362.4,167.6
    c-0.3-3.5-2.5-5.7-5.5-5.7c-3.5,0-5.3,2.2-6,5.7H362.4z"></path> <path d="M373.2,175.9h8.8c0.3,2.9,2.3,4.3,5.3,4.3c2.8,0,4.5-1,4.5-2.9c0-2.6-3.5-2.9-7.4-3.6c-5.1-0.9-10.5-2.2-10.5-9
    c0-6.1,5.7-9.3,12.6-9.3c8.2,0,12.7,3.6,13.1,9.3h-8.5c-0.3-2.6-2.1-3.4-4.7-3.4c-2.3,0-4,0.9-4,2.7c0,2,3.3,2.3,7,3
    c5.1,0.9,11.1,2.2,11.1,9.6c0,6.4-5.6,9.7-13.2,9.7C378.8,186.2,373.5,182.3,373.2,175.9z"></path> <path d="M405,177.6V162h-3.9v-5.8h3.9V147h9v9.2h5.3v5.8h-5.3v13.6c0,2.3,1.2,2.8,3.2,2.8c0.8,0,1.7-0.1,2-0.1v6.8
    c-0.8,0.2-2.6,0.5-5.1,0.5C408.9,185.6,405,183.9,405,177.6z"></path> <path d="M422.9,175.7h9.7v9.5h-9.7V175.7z"></path> <path d="M453.1,160.4h-8.4v-6.5c5.2-0.2,9.4-2.6,10.3-7.9h7.6v39.3h-9.6V160.4z"></path> <path d="M468.7,175.6h9.1c0.6,1.9,2.2,3.7,5.5,3.7c2.2,0,3.9-0.7,5.1-2.2c1.4-1.6,2.1-4.3,2.2-7.7h-0.1c-2,2.2-4.7,3.8-8.7,3.8
    c-7.8,0-14.2-5.4-14.2-13.8c0-8.3,6.6-13.9,15.7-13.9c4.8,0,9,1.6,11.7,4.4c3.5,3.4,5.1,8.5,5.1,15.6c0,6-1.3,11.5-4,15.1
    c-2.8,3.6-6.8,5.5-12.5,5.5C475.1,186.2,469.8,181.9,468.7,175.6z M490.3,159.4c0-3.9-2.9-6.8-6.9-6.8c-4,0-6.8,2.9-6.8,6.7
    c0,3.9,2.6,6.8,6.8,6.8C487.4,166.1,490.3,163.4,490.3,159.4z"></path> <path d="M503.8,175.6h9.1c0.6,1.9,2.2,3.7,5.5,3.7c2.2,0,3.9-0.7,5.1-2.2c1.4-1.6,2.1-4.3,2.2-7.7h-0.1c-2,2.2-4.7,3.8-8.7,3.8
    c-7.8,0-14.2-5.4-14.2-13.8c0-8.3,6.6-13.9,15.7-13.9c4.8,0,9,1.6,11.7,4.4c3.5,3.4,5.1,8.5,5.1,15.6c0,6-1.3,11.5-4,15.1
    c-2.8,3.6-6.8,5.5-12.5,5.5C510.1,186.2,504.9,181.9,503.8,175.6z M525.4,159.4c0-3.9-2.9-6.8-6.9-6.8c-4,0-6.8,2.9-6.8,6.7
    c0,3.9,2.6,6.8,6.8,6.8C522.5,166.1,525.4,163.4,525.4,159.4z"></path> <path d="M544,171.8c3.5-3,8.1-5.9,11.1-8.6c1.6-1.4,2.6-2.9,2.6-4.8c0-3-1.8-5.1-5.1-5.1c-1.8,0-3.2,0.6-4.2,1.8
    c-1.1,1.3-1.7,3.1-1.8,5.7h-9c0-4.5,0.8-7.3,2.7-9.9c2.2-3.2,6.4-5.3,12.5-5.3c9.4,0,14.4,5.6,14.4,12.4c0,5.4-3,8.5-6.5,11.2
    c-3.5,2.8-7.7,5.2-10.4,8.1v0.1h16.9v7.9h-30.2C537.3,178.8,540.2,175,544,171.8z"></path> </g> <path d="M29.6,0h21l29.7,82.3H58.9l-4.8-14.8H25.3l-4.7,14.8H0L29.6,0z M49.4,52.9l-6.2-19.9c-1.4-4.3-3.2-11.6-3.2-11.6h-0.2
    c0,0-2,7.4-3.4,11.6l-6.3,19.9H49.4z"></path> <path d="M82.2,62.1V23.4h18.6v34.8c0,6.4,2.9,10,8.9,10c6,0,10.6-4.8,10.6-11.7V23.4h18.8v59h-18.2v-7.2h-0.3
    c-3.9,5.9-10.6,9.3-17.6,9C89.4,84.1,82.2,75.2,82.2,62.1z"></path> <path d="M152.5,66.8V35.1h-7.8V23.4h7.8V4.7h18.3v18.6h10.7v11.8h-10.7v27.7c0,4.6,2.5,5.8,6.5,5.8c1.6,0,3.4,0,4.2,0v13.7
    c-3.4,0.7-6.8,1-10.3,0.9C160.3,83.1,152.5,79.5,152.5,66.8z"></path> <path d="M185.1,53.1c-0.6-16.7,12.5-30.7,29.2-31.2c0.8,0,1.6,0,2.4,0c16.6-0.8,30.7,12,31.4,28.6c0,0.9,0,1.7,0,2.6
    c0.7,16.6-12.3,30.6-28.8,31.2c-0.9,0-1.7,0-2.6,0c-16.7,0.8-30.8-12.1-31.6-28.8C185.1,54.7,185.1,53.9,185.1,53.1z M229.1,53.1
    c0-10.7-4.4-18-12.6-18s-12.4,7.2-12.4,18S208.4,71,216.5,71C224.7,71,229.1,63.7,229.1,53.1z"></path> <path d="M254.4,23.4h18v8.4h0.3c3.5-6.5,10.4-10.5,17.9-10.3c7.1-0.2,13.6,3.8,16.6,10.3h0.2c3.9-6.5,11-10.5,18.5-10.3
    c13.4,0,20.1,9.1,20.1,22.3v38.5h-18.8v-35c0-6.3-2.7-10-8.3-10s-9.4,5-9.4,12v33h-18.8v-35c0-6.3-2.6-10-8.3-10
    c-5.7,0-9.3,5-9.3,12v33h-18.8V23.4z"></path> <path d="M351.9,53.1c0-17.4,14.1-31.6,31.6-31.6s31.6,14.1,31.6,31.6c-0.6,17.4-15.2,31.1-32.6,30.5C365.9,83,352.6,69.7,352,53.1
    H351.9z M395.9,53.1c0-10.7-4.4-18-12.5-18s-12.4,7.3-12.4,18S375.2,71,383.4,71S395.9,63.7,395.9,53.1z"></path> <path d="M424.7,66.8V35.1h-7.8V23.4h7.8V4.7h18.3v18.6h10.7v11.8h-10.7v27.7c0,4.6,2.5,5.8,6.5,5.8c1.6,0,3.4,0,4.2,0v13.7
    c-3.4,0.7-6.8,1-10.3,0.9C432.6,83.1,424.7,79.5,424.7,66.8z"></path> <path d="M460.6,0h18.8v15.4h-18.8V0z M460.6,23.4h18.8v59h-18.8V23.4z"></path> <path d="M483.6,23.4H503L511,50c1.7,5.9,3.2,11.9,3.2,11.9h0.2c0,0,1.5-6,3.2-11.9l8.2-26.6h18.8l-20.4,59H504L483.6,23.4z"></path> <path d="M543.8,52.8c0-17.7,12.3-31.1,30.3-31.1c7.4-0.2,14.6,2.5,20.2,7.4c6.9,6.4,10.5,16.7,10.3,28.7h-42.3
    c1.1,8,5.5,12.9,13.2,12.9c4.2,0.4,8.1-2,9.8-5.9h18.3c-1.5,5.7-5,10.7-9.9,14c-5.4,3.7-11.9,5.6-18.4,5.4
    C555.6,84.1,543.8,70.6,543.8,52.8z M585.6,46.5c-0.7-7-5.1-11.5-11.2-11.5c-7.1,0-10.8,4.5-12.1,11.5H585.6z"></path> <path d="M0.3,103.6h20.6l8.3,34.6c1.9,8,3.8,20.6,3.8,20.6h0.2c0,0,2.2-11.3,4-19.6l7.6-35.5h18.9l7.7,35.2
    c1.9,8.4,3.9,19.8,3.9,19.8h0.3c0,0,2.3-12.4,4.1-20.6l8.2-34.3h20.6L86,186H65.9l-8.6-39.5c-1.5-6.5-2.9-15.3-2.9-15.3h-0.2
    c0,0-1.4,8.8-2.8,15.3L42.8,186H22.7L0.3,103.6z"></path> <path d="M103.4,156.6c-0.6-16.7,12.5-30.7,29.2-31.2c0.8,0,1.6,0,2.4,0c16.6-0.8,30.7,12,31.5,28.6c0,0.9,0,1.8,0,2.6
    c0.7,16.6-12.2,30.6-28.8,31.2c-0.9,0-1.8,0-2.6,0c-16.7,0.7-30.8-12.2-31.6-28.8C103.4,158.2,103.4,157.4,103.4,156.6z
    M147.4,156.6c0-10.7-4.4-18-12.5-18c-8.2,0-12.4,7.3-12.4,18c0,10.7,4.3,17.9,12.4,17.9C143,174.5,147.4,167.3,147.4,156.6z"></path> <path d="M172.8,127h18v9.2h0.3c4.1-6.9,9-10.3,16.1-10.3c1.3-0.1,2.5,0.1,3.7,0.5v16.1h-0.5c-11.5-1.6-18.9,4-18.9,16.8v26.5h-18.8
    V127z"></path> <path d="M217,103.6h19v82.3h-19V103.6z"></path> <path d="M242.5,156.5c0-18.4,10.6-31.2,25.8-31.2c6.6-0.4,13,2.8,16.6,8.4h0.3v-30.1h18.8v82.3h-18V178h-0.2
    c-3.5,6.2-10.2,10-17.4,9.8C253.2,187.8,242.5,176.2,242.5,156.5z M285.6,156.5c0-9.9-4-17.1-12.2-17.1c-7.5,0-11.9,6.9-11.9,16.8
    s4.4,16.9,11.7,16.9C280.9,173.1,285.6,166.2,285.6,156.5z"></path> </svg>