<svg width="73" height="46" viewBox="0 0 73 46" fill="none" xmlns="http://www.w3.org/2000/svg">
<path d="M72.0397 1.12671V44.6062H64.7252V43.2418H70.6751V2.49074H2.32505V8.3183H0.96048V1.12671H72.0397ZM14.5621 33.8681C14.4666 37.6792 13.5138 39.2037 11.2269 39.2037C8.70152 39.2037 8.03312 37.7271 8.03312 31.9623V22.8151C8.03312 17.0507 8.65248 15.5738 11.0824 15.5738C13.1819 15.5738 13.8492 16.5751 14.1818 20.3387H20.615C20.5195 17.4803 20.1861 15.7654 19.3759 14.2884C17.8037 11.382 14.9925 9.90549 10.847 9.90549C7.36889 9.90549 4.84355 10.9057 3.17595 12.9088C1.60379 14.7667 0.984053 17.4328 0.984053 22.2943V32.4865C0.984053 36.8695 1.50836 39.4896 2.74708 41.3003C4.41467 43.6827 7.17828 44.8738 11.0379 44.8738C14.9449 44.8738 17.6608 43.6353 19.3283 41.0148C20.472 39.2999 20.9009 37.3466 20.9959 33.8677L14.5621 33.8681ZM23.3479 44.6062H30.4012V30.3424H38.6441V24.578H30.4012V16.0976H40.4071V10.3332H23.3494L23.3479 44.6062ZM42.3173 33.2488C42.3173 36.9649 42.7458 39.1562 43.7944 40.9661C45.4144 43.6816 48.0824 44.8727 52.7517 44.8727C57.0861 44.8727 59.6129 43.8725 61.2809 41.5379C62.6151 39.68 63.139 37.3454 63.139 33.2484V21.4336C63.139 17.7175 62.7101 15.5258 61.6619 13.7163C60.0422 11 57.3735 9.80816 52.7521 9.80816C48.3687 9.80816 45.8433 10.8088 44.1757 13.143C42.8416 15.002 42.3173 17.3354 42.3173 21.4336V33.2488ZM56.0873 32.6785C56.0873 37.9666 55.42 39.2052 52.7517 39.2052C50.0359 39.2052 49.3678 37.9666 49.3678 32.6785V22.005C49.3678 16.7169 50.0347 15.4783 52.7517 15.4783C55.42 15.4783 56.0873 16.7169 56.0873 22.005V32.6785Z" fill="#101316"/>
</svg>
