<?xml version="1.0" encoding="utf-8"?>
<svg xmlns="http://www.w3.org/2000/svg" id="Layer_1" viewBox="0 0 316.86 153.24">
  <defs>
    <style>.cls-1{fill:none;}.cls-1,.cls-2,.cls-3,.cls-4{stroke-width:0px;}.cls-2{fill:#50555e;}.cls-3{fill:#25c1f1;}.cls-4{fill:#231f20;}</style>
  </defs>
  <path class="cls-1" d="m98.91,83.75c2.29,0,4.54-.02,6.74-.07,2.2-.05,4.37-.1,6.52-.15,2.01-.04,4.2-.11,6.56-.2-2.3.03-4.36.06-5.33.08-2.46.06-4.94.11-7.46.17-2.4.05-4.96.08-7.62.08h-8.64c-.45,0-.87-.04-1.31-.06.97.1,1.97.15,3,.15h7.54Z"/>
  <path class="cls-2" d="m206.37,49.57c-4.81.27-9.51.59-14.11.94-.17.01-.26.02-.26.02h0c-49.84,3.86-86.23,12.06-114.29,21.74,0,0-.28.89.04,2.9.16.63.35,1.23.58,1.77.78,1.81,1.81,3.22,3.08,4.25,1.27,1.03,2.76,1.71,4.47,2.05.8.16,1.63.28,2.49.36.44.02.86.06,1.31.06h8.64c2.65,0,5.22-.03,7.62-.08,2.52-.05,5.01-.11,7.46-.17.97-.02,3.03-.05,5.33-.08.16,0,.31-.01.47-.02h0c3.36-.04,7.12-.09,8.78-.15l-10.21,26.69c2.63-2.74,5.54-5.6,8.32-7.92,1.07-.84,2.19-1.7,3.38-2.57.34-.23.62-.44.86-.63,26.08-18.89,80.51-46.21,186.54-46.35v-4.06c-29.59-1.29-84.49-.4-110.49,1.26Z"/>
  <path class="cls-2" d="m118.72,83.32c.16,0,.31,0,.47,0h0c-.16,0-.31,0-.47,0Z"/>
  <path class="cls-2" d="m31.73,95.3c-.2-.63-.39-1.32-.58-2.05C7.58,107.54,0,119.7,0,119.7h54.71c-5.34-2.26-9.87-5.17-13.47-8.72-4.42-4.36-7.62-9.63-9.51-15.68Z"/>
  <path class="cls-3" d="m109.26,119.03c-2.45.22-4.71.36-6.77.42-2.06.06-4.1.11-6.1.17-2.01.06-4.04.08-6.1.08h-6.94c-9.36,0-17.19-1.09-23.49-3.26-6.3-2.17-11.4-5.18-15.3-9.03-3.9-3.85-6.69-8.44-8.36-13.79-1.67-5.35-2.51-11.2-2.51-17.55,0-2.9.14-5.82.42-8.78.28-2.95.69-6.05,1.25-9.28,2.01-11.14,4.99-20.45,8.94-27.92,3.96-7.47,8.89-13.43,14.8-17.89,5.91-4.46,12.79-7.61,20.65-9.45C87.61.92,96.44,0,106.25,0h5.85C113.88,0,115.81.03,117.87.08c2.06.06,4.49.14,7.27.25,2.78.11,6.29.28,10.53.5l-12.2,31.6c-2.56-.11-4.76-.19-6.6-.25-1.84-.06-3.54-.11-5.1-.17-1.56-.06-3.07-.08-4.52-.08h-5.01c-7.47,0-13.32,2.15-17.55,6.44-4.24,4.29-7.47,11.34-9.7,21.15-1,4.91-1.5,9.03-1.5,12.37s.44,6.05,1.34,8.11c.89,2.06,2.06,3.68,3.51,4.85,1.45,1.17,3.15,1.95,5.1,2.34,1.95.39,4.04.59,6.27.59h8.61c2.62,0,5.18-.03,7.69-.08,2.51-.05,4.99-.11,7.44-.17,2.45-.05,5.12-.14,8.03-.25l-12.2,31.77Z"/>
  <path class="cls-3" d="m174.49,47.85c1.7-3.9,3.68-7.03,5.96-9.34,4.25-4.31,10.12-6.46,17.62-6.46h5.03c1.45,0,2.96.03,4.53.08,1.57.06,3.27.11,5.12.17,1.85.06,4.05.14,6.63.25L231.63.84c-4.25-.22-7.78-.39-10.57-.5-2.8-.11-5.23-.19-7.3-.25C211.69.03,209.76,0,207.97,0h-5.87C192.25,0,183.39.92,175.5,2.77c-7.89,1.85-14.8,5.01-20.72,9.48-5.93,4.48-10.88,10.46-14.85,17.96-3.4,6.41-6.08,14.19-8.04,23.31,13.01-2.26,27.18-4.18,42.61-5.66Z"/>
  <path class="cls-3" d="m256.64,73.67c-1.01,5.48-2.97,9.31-5.87,11.5-2.91,2.18-7.21,3.27-12.92,3.27h-6.21c-1.9,0-3.97-.06-6.21-.17l-11.91,31.38c2.57.22,6.41.36,11.49.42,5.09.06,10.99.08,17.7.08,7.83,0,14.68-.84,20.56-2.52,5.87-1.68,10.93-4.39,15.19-8.14,4.25-3.75,7.74-8.56,10.49-14.43,2.74-5.87,4.95-13,6.63-21.4l3.22-16.8c-14.14.45-27.27,1.41-39.47,2.77l-2.69,14.04Z"/>
  <path class="cls-3" d="m300.99,43.93L309.72.89h-38.93l-8.73,43c13.49-.16,27.09-.16,38.92.04Z"/>
  <path class="cls-3" d="m201.85,88.01c-2.52.06-5.09.08-7.72.08h-8.64c-2.24,0-4.34-.19-6.29-.59-1.96-.39-3.67-1.17-5.12-2.35-1.02-.82-1.89-1.88-2.63-3.14-13.01,6.03-26.7,14.29-35.62,20.46,1.44,2.46,2.29,3.29,4.36,5.33,3.91,3.86,9.03,6.88,15.35,9.06,6.32,2.18,14.18,3.27,23.58,3.27h6.96c2.07,0,4.11-.03,6.13-.08,2.01-.06,4.05-.11,6.13-.17,2.07-.06,4.33-.19,6.8-.42l12.25-31.88c-2.91.11-5.6.2-8.06.25-2.46.06-4.95.11-7.47.17Z"/>
  <path class="cls-4" d="m84.64,136.69h7.14c3.95,0,5.78,1.63,5.78,4.45,0,1.75-1.06,3.26-3.11,3.61v.02c2.27.32,3.53,1.85,3.53,3.76,0,2.82-2.08,4.47-5.95,4.47h-7.39v-16.31Zm6.67,6.84c1.83,0,2.72-.69,2.72-2.1s-.89-2.1-2.72-2.1h-3.36v4.2h3.36Zm.42,6.89c1.83,0,2.72-.77,2.72-2.15s-.89-2.12-2.72-2.12h-3.78v4.27h3.78Z"/>
  <path class="cls-4" d="m108.26,146.89v6.1h-3.41v-6.1l-5.78-10.2h3.63l2.62,4.87,1.23,2.57,1.26-2.57,2.62-4.87h3.61l-5.78,10.2Z"/>
  <path class="cls-4" d="m126.53,139.43v4.13h6.94v2.77h-6.94v6.67h-3.41v-16.31h12.2v2.74h-8.79Z"/>
  <path class="cls-4" d="m151.92,146.57c0,4.45-2.42,6.67-6.97,6.67s-6.97-2.22-6.97-6.67v-9.88h3.41v9.73c0,2.74,1.16,4.03,3.56,4.03s3.53-1.28,3.53-4.03v-9.73h3.43v9.88Z"/>
  <path class="cls-4" d="m168.62,139.58l-2.35,2.3c-.84-1.75-2.2-2.64-4.4-2.64-2.05,0-3.09.86-3.09,2.03,0,1.09.89,1.68,3.76,2.2,4.4.82,6.05,2.17,6.05,4.89,0,3.06-2.79,4.89-6.7,4.89s-5.81-1.06-7.19-3.04l2.03-2.42c1.28,2.12,2.84,2.67,5.04,2.67s3.24-.67,3.24-1.9c0-.89-.86-1.41-3.56-1.95-4.55-.91-6.28-2.3-6.28-5.01,0-2.89,2.45-5.14,6.67-5.14,3.04,0,5.11.96,6.77,3.14Z"/>
  <path class="cls-4" d="m180.92,149.02h-6.3l-1.34,3.98h-3.48l5.95-16.31h4.08l5.95,16.31h-3.53l-1.33-3.98Zm-.84-2.52l-1.56-4.6-.74-2.47h-.05l-.69,2.42-1.56,4.64h4.6Z"/>
  <path class="cls-4" d="m188.2,136.69h7.14c3.95,0,5.78,1.63,5.78,4.45,0,1.75-1.06,3.26-3.11,3.61v.02c2.27.32,3.53,1.85,3.53,3.76,0,2.82-2.08,4.47-5.95,4.47h-7.39v-16.31Zm6.67,6.84c1.83,0,2.72-.69,2.72-2.1s-.89-2.1-2.72-2.1h-3.36v4.2h3.36Zm.42,6.89c1.83,0,2.72-.77,2.72-2.15s-.89-2.12-2.72-2.12h-3.78v4.27h3.78Z"/>
  <path class="cls-4" d="m216.8,150.25v2.74h-12.01v-16.31h3.41v13.56h8.6Z"/>
  <path class="cls-4" d="m232.22,150.25v2.74h-12.57v-16.31h12.23v2.74h-8.82v4.05h6.94v2.62h-6.94v4.15h9.17Z"/>
</svg>