<svg id="Logo_-_Data_Center_Knowledge" data-name="Logo - Data Center Knowledge" xmlns="http://www.w3.org/2000/svg" xmlns:xlink="http://www.w3.org/1999/xlink" width="500.134" height="166.97" viewBox="0 0 500.134 166.97">
  <defs>
    <clipPath id="clip-path">
      <rect id="Rectangle_2153" data-name="Rectangle 2153" width="500.134" height="166.97" fill="none"/>
    </clipPath>
  </defs>
  <path id="Path_3042" data-name="Path 3042" d="M159.073,46.739h-2.868V45.27h7.329v1.469h-2.859V54.3h-1.6Z" transform="translate(326.034 94.421)" fill="#3f4246"/>
  <path id="Path_3043" data-name="Path 3043" d="M166.321,45.271l-2.757,4.268-2.748-4.268h-1.692V54.3H160.7V47.847l2.822,4.231h.046l2.853-4.258V54.3h1.59V45.271Z" transform="translate(332.127 94.422)" fill="#3f4246"/>
  <g id="Group_5448" data-name="Group 5448">
    <g id="Group_5447" data-name="Group 5447" clip-path="url(#clip-path)">
      <path id="Path_3044" data-name="Path 3044" d="M0,65.961V.358H25.855Q41.3.358,50.97,9.387t9.669,23.726A33.57,33.57,0,0,1,56.249,50.4,29.514,29.514,0,0,1,43.99,61.928a38.956,38.956,0,0,1-18.035,4.033ZM13.982,53.667H25.9a21.179,21.179,0,0,0,11.049-2.833,18.406,18.406,0,0,0,7.138-7.446,22.1,22.1,0,0,0,2.377-10.276q0-8.984-5.381-14.722T25.994,12.652H13.982Z" transform="translate(0 0.745)" fill="#3cb5a6"/>
      <path id="Path_3045" data-name="Path 3045" d="M20.69,30.714q0-11.382,5.887-18.129A19.184,19.184,0,0,1,41.736,5.837a17.815,17.815,0,0,1,14.655,7.3v-6.1H68.881v47.5H56.39v-6.1a17.978,17.978,0,0,1-14.655,7.3A19.3,19.3,0,0,1,26.6,49.059Q20.69,42.385,20.69,30.714m12.877,0a14.687,14.687,0,0,0,3.362,10.038,11.082,11.082,0,0,0,8.746,3.842,13.612,13.612,0,0,0,6.15-1.512,11.316,11.316,0,0,0,4.566-3.866V22.454a11.673,11.673,0,0,0-4.566-3.913,13.292,13.292,0,0,0-6.15-1.561,11.142,11.142,0,0,0-8.746,3.8,14.425,14.425,0,0,0-3.362,9.939" transform="translate(43.184 12.173)" fill="#3cb5a6"/>
      <path id="Path_3046" data-name="Path 3046" d="M37.822,25.926v-10.9H45.7V2.008H58.195V15.024h9.657v10.9H58.195V47.3a6.022,6.022,0,0,0,1.155,3.8A3.793,3.793,0,0,0,62.52,52.58a7.9,7.9,0,0,0,2.593-.432,4.052,4.052,0,0,0,1.778-1.055l2.643,9.557q-3.413,3.073-10.426,3.073-6.534,0-9.972-3.339T45.7,50.612V25.926Z" transform="translate(78.942 4.187)" fill="#3cb5a6"/>
      <path id="Path_3047" data-name="Path 3047" d="M48.543,30.714q0-11.382,5.887-18.129A19.184,19.184,0,0,1,69.589,5.837a17.815,17.815,0,0,1,14.655,7.3v-6.1H96.737v47.5H84.243v-6.1a17.978,17.978,0,0,1-14.655,7.3,19.3,19.3,0,0,1-15.137-6.678q-5.909-6.674-5.909-18.345m12.877,0a14.687,14.687,0,0,0,3.362,10.038,11.082,11.082,0,0,0,8.746,3.842,13.612,13.612,0,0,0,6.15-1.512,11.316,11.316,0,0,0,4.566-3.866V22.454a11.673,11.673,0,0,0-4.566-3.913,13.291,13.291,0,0,0-6.15-1.561,11.142,11.142,0,0,0-8.746,3.8,14.425,14.425,0,0,0-3.362,9.939" transform="translate(101.319 12.173)" fill="#3cb5a6"/>
      <path id="Path_3048" data-name="Path 3048" d="M68.079,33.931a34.028,34.028,0,0,1,4.612-17.706,31.506,31.506,0,0,1,12.59-12A37.472,37.472,0,0,1,103.106,0a33.969,33.969,0,0,1,9.635,1.311,26.341,26.341,0,0,1,7.737,3.62,33.787,33.787,0,0,1,5.714,5.005,32.312,32.312,0,0,1,4.254,5.983l-12.012,5.94A17.635,17.635,0,0,0,112.14,15a16.321,16.321,0,0,0-9.033-2.706,19.578,19.578,0,0,0-14.822,6.134q-5.839,6.133-5.838,15.5t5.838,15.528a19.543,19.543,0,0,0,14.822,6.159,16.2,16.2,0,0,0,9.033-2.731,17.8,17.8,0,0,0,6.295-6.881l12.012,5.841a35.83,35.83,0,0,1-4.254,6,32.566,32.566,0,0,1-5.693,5.042,26.672,26.672,0,0,1-7.758,3.681,33.311,33.311,0,0,1-9.635,1.339,37.978,37.978,0,0,1-13.815-2.5,33.994,33.994,0,0,1-11.145-6.9,31.177,31.177,0,0,1-7.375-10.766,35.148,35.148,0,0,1-2.692-13.818" transform="translate(142.095 -0.001)" fill="#3cb5a6"/>
      <path id="Path_3049" data-name="Path 3049" d="M88.784,30.714a25.57,25.57,0,0,1,3.121-12.537,23.421,23.421,0,0,1,8.8-9,24.56,24.56,0,0,1,12.682-3.336q10.669,0,17.227,7.227t6.56,18.851v2.928H101.852a11.923,11.923,0,0,0,4.276,7.64,14.167,14.167,0,0,0,9.416,3.024,20.6,20.6,0,0,0,6.8-1.274,15.459,15.459,0,0,0,5.792-3.385l5.572,8.261a23.732,23.732,0,0,1-8.672,4.9,34.4,34.4,0,0,1-10.885,1.728q-11,0-18.187-6.894T88.784,30.714M101.756,26.2h23.4a11,11,0,0,0-.861-3.505,12.653,12.653,0,0,0-2.044-3.218A9.28,9.28,0,0,0,118.622,17a13.789,13.789,0,0,0-5.239-.938,13,13,0,0,0-5,.913,9.537,9.537,0,0,0-3.556,2.425,12.693,12.693,0,0,0-2.115,3.215,11.478,11.478,0,0,0-.96,3.579" transform="translate(185.311 12.173)" fill="#3cb5a6"/>
      <path id="Path_3050" data-name="Path 3050" d="M106.586,54.536V7.037H119.08v6.1a21.37,21.37,0,0,1,6.94-5.162A21.7,21.7,0,0,1,135.7,5.837q7.645,0,11.555,4.011t3.918,11.164V54.536H138.684V25.817q0-4.707-2.285-6.77a9.359,9.359,0,0,0-6.511-2.067,12.463,12.463,0,0,0-6.2,1.561,14.988,14.988,0,0,0-4.612,3.913V54.536Z" transform="translate(222.467 12.173)" fill="#3cb5a6"/>
      <path id="Path_3051" data-name="Path 3051" d="M122.5,25.926v-10.9h7.879V2.008h12.494V15.024h9.657v10.9h-9.657V47.3a6.022,6.022,0,0,0,1.155,3.8A3.793,3.793,0,0,0,147.2,52.58a7.9,7.9,0,0,0,2.593-.432,4.052,4.052,0,0,0,1.778-1.055l2.643,9.557q-3.413,3.073-10.426,3.073-6.539,0-9.972-3.339t-3.436-9.773V25.926Z" transform="translate(255.694 4.187)" fill="#3cb5a6"/>
      <path id="Path_3052" data-name="Path 3052" d="M133.225,30.714a25.57,25.57,0,0,1,3.121-12.537,23.443,23.443,0,0,1,8.8-9,24.563,24.563,0,0,1,12.685-3.336q10.665,0,17.224,7.227t6.56,18.851v2.928H146.293a11.923,11.923,0,0,0,4.276,7.64,14.17,14.17,0,0,0,9.419,3.024,20.6,20.6,0,0,0,6.8-1.274,15.46,15.46,0,0,0,5.792-3.385l5.572,8.261a23.731,23.731,0,0,1-8.672,4.9A34.4,34.4,0,0,1,158.6,55.737q-11.008,0-18.19-6.894t-7.181-18.129M146.2,26.2h23.4a11,11,0,0,0-.861-3.505,12.569,12.569,0,0,0-2.044-3.218A9.258,9.258,0,0,0,163.063,17a13.784,13.784,0,0,0-5.236-.938,13,13,0,0,0-5,.913,9.537,9.537,0,0,0-3.556,2.425,12.693,12.693,0,0,0-2.115,3.215,11.564,11.564,0,0,0-.96,3.579" transform="translate(278.069 12.173)" fill="#3cb5a6"/>
      <path id="Path_3053" data-name="Path 3053" d="M151.027,54.536V7.037h12.494v6.388A22.462,22.462,0,0,1,170.365,8a17.769,17.769,0,0,1,8.339-2.16v12.2a16.683,16.683,0,0,0-3.461-.287,16.046,16.046,0,0,0-6.678,1.608,12.092,12.092,0,0,0-5.044,3.82v31.36Z" transform="translate(315.225 12.173)" fill="#3cb5a6"/>
      <path id="Path_3054" data-name="Path 3054" d="M0,92.212v-65.6H13.982v29.2l23.21-29.2H54.44L28.35,57.392l27.868,34.82H38.967L19.076,65.844l-5.094,6.2V92.212Z" transform="translate(0 55.499)" fill="#3f4246"/>
      <path id="Path_3055" data-name="Path 3055" d="M19.374,80.786v-47.5H31.868v6.1a21.352,21.352,0,0,1,6.943-5.162,21.628,21.628,0,0,1,9.681-2.138q7.641,0,11.555,4.008t3.915,11.167V80.786H51.472V52.067q0-4.707-2.285-6.773a9.375,9.375,0,0,0-6.508-2.064,12.466,12.466,0,0,0-6.2,1.561A15.06,15.06,0,0,0,31.868,48.7V80.786Z" transform="translate(40.438 66.924)" fill="#3f4246"/>
      <path id="Path_3056" data-name="Path 3056" d="M38.985,69.428A26.528,26.528,0,0,1,36.04,56.964,26.241,26.241,0,0,1,38.985,44.55a22.714,22.714,0,0,1,8.721-9.029,25.589,25.589,0,0,1,13.343-3.434,25.817,25.817,0,0,1,13.414,3.434,22.675,22.675,0,0,1,8.746,9.029,26.24,26.24,0,0,1,2.945,12.414,26.528,26.528,0,0,1-2.945,12.463,22.756,22.756,0,0,1-8.746,9.1,25.682,25.682,0,0,1-13.414,3.456,25.455,25.455,0,0,1-13.343-3.456,22.8,22.8,0,0,1-8.721-9.1m9.932-12.463a15.16,15.16,0,0,0,3.251,9.868,10.815,10.815,0,0,0,8.882,4.011,10.974,10.974,0,0,0,8.956-3.987,15.088,15.088,0,0,0,3.272-9.893,14.844,14.844,0,0,0-3.272-9.773,11,11,0,0,0-8.956-3.962,10.874,10.874,0,0,0-8.882,3.962,14.9,14.9,0,0,0-3.251,9.773" transform="translate(75.223 66.924)" fill="#3f4246"/>
      <path id="Path_3057" data-name="Path 3057" d="M52.535,32.476H65.412l8.934,32.1,10.478-32.1H95.9l10.416,31.9,8.876-31.9h13.071l-14.467,47.5H100.442L90.671,48.506,80.94,79.975H67Z" transform="translate(109.651 67.735)" fill="#3f4246"/>
      <path id="Path_3058" data-name="Path 3058" d="M78.434,80.3V26.609H90.928V76.987a6.021,6.021,0,0,0,1.152,3.8A3.793,3.793,0,0,0,95.25,82.27a7.718,7.718,0,0,0,2.572-.432,4.048,4.048,0,0,0,1.754-1.055l2.692,9.557q-3.418,3.073-10.429,3.073-6.534,0-9.969-3.339T78.434,80.3" transform="translate(163.708 55.499)" fill="#3f4246"/>
      <path id="Path_3059" data-name="Path 3059" d="M86.151,56.964a25.561,25.561,0,0,1,3.121-12.537,23.42,23.42,0,0,1,8.8-9,24.56,24.56,0,0,1,12.682-3.336q10.669,0,17.227,7.227t6.56,18.851v2.928H99.219a11.922,11.922,0,0,0,4.276,7.637,14.155,14.155,0,0,0,9.419,3.027,20.6,20.6,0,0,0,6.8-1.274A15.5,15.5,0,0,0,125.5,67.1l5.572,8.261a23.732,23.732,0,0,1-8.672,4.9,34.4,34.4,0,0,1-10.882,1.728q-11.007,0-18.19-6.894T86.151,56.964M99.123,52.45h23.4a11,11,0,0,0-.861-3.505,12.568,12.568,0,0,0-2.044-3.218,9.257,9.257,0,0,0-3.627-2.472,13.789,13.789,0,0,0-5.239-.938,12.994,12.994,0,0,0-5,.913,9.537,9.537,0,0,0-3.556,2.425,12.693,12.693,0,0,0-2.115,3.215,11.563,11.563,0,0,0-.96,3.579" transform="translate(179.815 66.924)" fill="#3f4246"/>
      <path id="Path_3060" data-name="Path 3060" d="M102.972,68.392q0-11.382,5.887-18.129a19.184,19.184,0,0,1,15.158-6.749,18.316,18.316,0,0,1,8.119,1.848,18.118,18.118,0,0,1,6.536,5.453V26.608h12.494V92.214H138.673v-6.1a17.978,17.978,0,0,1-14.655,7.3,19.3,19.3,0,0,1-15.137-6.678q-5.909-6.674-5.909-18.345m12.877,0a14.687,14.687,0,0,0,3.362,10.038,11.082,11.082,0,0,0,8.746,3.842,13.612,13.612,0,0,0,6.15-1.512,11.337,11.337,0,0,0,4.566-3.866V60.036a11.337,11.337,0,0,0-4.566-3.866,13.612,13.612,0,0,0-6.15-1.512,11.142,11.142,0,0,0-8.746,3.8,14.425,14.425,0,0,0-3.362,9.939" transform="translate(214.924 55.496)" fill="#3f4246"/>
      <path id="Path_3061" data-name="Path 3061" d="M120.851,56.292q0-11.382,5.838-17.792A19.5,19.5,0,0,1,141.8,32.087a17.914,17.914,0,0,1,14.754,7.3v-6.1h12.491v44.33a25.431,25.431,0,0,1-1.562,9.22,18,18,0,0,1-4.06,6.483,20.483,20.483,0,0,1-5.958,4.011,28.173,28.173,0,0,1-6.869,2.138,43.493,43.493,0,0,1-7.209.574,35.445,35.445,0,0,1-11.2-1.632,27.279,27.279,0,0,1-9.271-5.428l5.572-8.933q5.381,5.763,14.9,5.764A17.785,17.785,0,0,0,148,89.238a14.7,14.7,0,0,0,4.18-1.873,8.842,8.842,0,0,0,3.2-3.792,13.875,13.875,0,0,0,1.179-5.955v-4.61Q150.641,80.4,141.8,80.4a19.662,19.662,0,0,1-15.087-6.313q-5.863-6.313-5.863-17.8m16.192-9.569q-3.311,3.49-3.316,9.523t3.316,9.52a11.561,11.561,0,0,0,8.792,3.493,13.359,13.359,0,0,0,6.032-1.531,12.429,12.429,0,0,0,4.686-3.829v-15.4a12.552,12.552,0,0,0-4.662-3.758,13.514,13.514,0,0,0-6.057-1.506,11.561,11.561,0,0,0-8.792,3.493" transform="translate(252.242 66.924)" fill="#3f4246"/>
      <path id="Path_3062" data-name="Path 3062" d="M138.7,56.964a25.561,25.561,0,0,1,3.121-12.537,23.421,23.421,0,0,1,8.8-9A24.56,24.56,0,0,1,163.3,32.087q10.669,0,17.227,7.227t6.56,18.851v2.928H151.769a11.908,11.908,0,0,0,4.276,7.637,14.152,14.152,0,0,0,9.416,3.027,20.6,20.6,0,0,0,6.8-1.274,15.5,15.5,0,0,0,5.792-3.385l5.572,8.261a23.732,23.732,0,0,1-8.672,4.9,34.4,34.4,0,0,1-10.882,1.728q-11.007,0-18.19-6.894T138.7,56.964m12.972-4.514h23.4a11,11,0,0,0-.861-3.505,12.651,12.651,0,0,0-2.044-3.218,9.28,9.28,0,0,0-3.627-2.472,13.789,13.789,0,0,0-5.239-.938,12.994,12.994,0,0,0-5,.913,9.537,9.537,0,0,0-3.556,2.425,12.612,12.612,0,0,0-2.115,3.215,11.563,11.563,0,0,0-.96,3.579" transform="translate(289.498 66.924)" fill="#3f4246"/>
    </g>
  </g>
</svg>
