<svg id="Logo_-_Design_News" data-name="Logo - Design News" xmlns="http://www.w3.org/2000/svg" xmlns:xlink="http://www.w3.org/1999/xlink" width="573" height="113.469" viewBox="0 0 573 113.469">
  <defs>
    <clipPath id="clip-path">
      <rect id="Rectangle_2043" data-name="Rectangle 2043" width="573" height="113.469" fill="none"/>
    </clipPath>
  </defs>
  <g id="Group_5433" data-name="Group 5433" clip-path="url(#clip-path)">
    <path id="Path_3209" data-name="Path 3209" d="M0,0H25.643C54.7,0,68.379,17.9,68.379,45.414c0,26.723-11.176,48.308-39.843,48.308H0ZM23.671,77.138H26.3c16.569,0,16.569-20.272,16.569-32.645,0-10.8-1.577-27.908-17.227-27.908H23.671Z" transform="translate(0 0.001)" fill="#a80c1b"/>
    <path id="Path_3210" data-name="Path 3210" d="M51.966,51.311c0,5.79,1.181,15.664,9.6,15.664,5.129,0,9.468-3.688,10.782-9.079l14.333,5.263c-.919,3.027-7.5,18.03-26.431,18.03-20.381,0-29.588-16.451-29.588-34.747,0-18.693,9.732-34.49,29.325-34.49C80.5,11.951,87.6,29.591,87.6,46.835v4.475ZM67.877,38.674c-.131-6.187-.658-13.3-8.022-13.3-6.048,0-7.889,7.11-7.889,13.3Z" transform="translate(36.139 14.114)" fill="#a80c1b"/>
    <path id="Path_3211" data-name="Path 3211" d="M94.008,33.8c-1.974-3.948-4.734-8.425-9.993-8.425-4.34,0-6.312,2.107-6.312,4.214,0,10.663,32.346,7.241,32.346,29.092,0,14.215-10.782,22.505-26.429,22.505-14.728,0-24.327-7.9-27.747-18.689L72.18,57.365c2.5,5,5.259,9.609,11.44,9.609,3.943,0,6.706-1.976,6.706-4.87,0-11.057-32.349-6.713-32.349-29.617,0-6.979,6.839-20.536,25.643-20.536,10.649,0,21.434,5,25.246,17.9Z" transform="translate(65.855 14.114)" fill="#a80c1b"/>
    <path id="Path_3212" data-name="Path 3212" d="M81.308,0h21.3V18.955h-21.3Zm0,27.644h21.3V93.722h-21.3Z" transform="translate(95.834 0.001)" fill="#a80c1b"/>
    <path id="Path_3213" data-name="Path 3213" d="M156.4,26.988a11.583,11.583,0,0,0-3.288-2.369,9.057,9.057,0,0,0-4.209-1.053,4.491,4.491,0,0,0-3.551,1.448c2.5,2.9,3.157,6.977,3.157,10.794,0,13.033-14.333,19.483-26.035,19.483a37.976,37.976,0,0,1-9.072-1.053c-.527.661-2.237,2.5-2.237,3.817,0,4.741,5.786,4.741,13.281,4.741,12.625,0,29.588,1.579,29.588,18.163,0,13.555-13.281,20.534-32.745,20.534-7.492,0-30.636-1.056-30.636-13.688,0-7.108,6.442-10.534,12.492-11.585v-.262c-5.261-1.712-9.338-4.739-9.338-10.794,0-6.449,7.364-11.324,12.887-12.636v-.264c-8.285-3.555-12.359-9.873-12.359-17.376,0-15.009,16.174-20.8,26.954-20.8,6.314,0,13.283,1.448,18.279,4.741,1.58-3.688,10.521-8.689,16.832-8.689ZM107.22,84.644c0,5.4,9.861,5.79,14.068,5.79,5,0,14.6,0,14.6-5.79,0-6.054-10.651-6.054-14.6-6.054-3.022,0-14.068,0-14.068,6.054m6.837-49.362c0,4.737,1.71,10.53,7.231,10.53,5.919,0,7.5-6.054,7.5-11.452,0-5.134-1.974-10.794-7.5-10.794-5.915,0-7.231,6.713-7.231,11.716" transform="translate(106.846 11.976)" fill="#a80c1b"/>
    <path id="Path_3214" data-name="Path 3214" d="M120.327,13.53h21.3v8.82h.266c4.471-6.713,11.176-10.4,18.8-10.4,8.549,0,14.068,5.79,14.068,14.874V79.609h-21.3V32.879c0-3.553-1.183-5.923-5.133-5.923a6.734,6.734,0,0,0-5.521,2.765L141.63,31.3V79.609h-21.3Z" transform="translate(141.823 14.114)" fill="#a80c1b"/>
    <path id="Path_3215" data-name="Path 3215" d="M147.844,0H167.57l26.956,50.415h.264V0h18.935V93.722H194.79L167.045,41.464h-.261V93.722H147.844Z" transform="translate(174.256 0.001)" fill="#00111a"/>
    <path id="Path_3216" data-name="Path 3216" d="M200.229,51.311c0,5.79,1.185,15.664,9.6,15.664,5.126,0,9.466-3.688,10.782-9.079l14.336,5.263c-.924,3.027-7.5,18.03-26.431,18.03-20.381,0-29.588-16.451-29.588-34.747,0-18.693,9.732-34.49,29.322-34.49,20.514,0,27.617,17.64,27.617,34.884v4.475Zm15.913-12.636c-.131-6.187-.658-13.3-8.022-13.3-6.048,0-7.891,7.11-7.891,13.3Z" transform="translate(210.893 14.114)" fill="#00111a"/>
    <path id="Path_3217" data-name="Path 3217" d="M203.011,12.675h20.911L230.1,46.768h.261l7.362-34.093H255.61l6.05,34.093h.264l7.756-34.093h15.253L267.841,78.754H251.006L243.643,41.9h-.259l-8.813,36.856H218Z" transform="translate(239.279 14.969)" fill="#00111a"/>
    <path id="Path_3218" data-name="Path 3218" d="M276.272,33.8c-1.974-3.948-4.732-8.425-9.993-8.425-4.342,0-6.312,2.107-6.312,4.214,0,10.663,32.351,7.241,32.351,29.092,0,14.215-10.786,22.505-26.431,22.505-14.73,0-24.327-7.9-27.747-18.689l16.305-5.134c2.5,5,5.259,9.609,11.442,9.609,3.943,0,6.706-1.976,6.706-4.87,0-11.057-32.349-6.713-32.349-29.617,0-6.979,6.837-20.536,25.643-20.536,10.647,0,21.431,5,25.246,17.9Z" transform="translate(280.682 14.114)" fill="#00111a"/>
  </g>
</svg>
