<svg xmlns="http://www.w3.org/2000/svg" class="svg-logo" preserveAspectRatio="xMinYMax meet" viewBox="-384.3 760.4 342.8 159.8" role="image">
      <title>ENR logo</title>
      <path fill="#D91920" d="M-384.3 760.4h100.5v31.1h-63.1v15.1h57.2v28.9h-57.2v15.1h64.9v31.1h-102.3V760.4zm109.6 0h38.2l35.3 64.9h.3v-64.9h35.3v121.4H-202l-37.2-66.3h-.3v66.3h-35.3V760.4zm229.1 95.3c-1.4-15.1-7.7-26.4-17.9-30.3 12.4-4.6 18.2-17.9 18.2-30.4 0-22.9-18.5-34.6-39.6-34.6h-71.2v121.4h37.4v-42.3h19.8c14.8 0 15.9 12 16.9 23.6.5 6.3 1.1 12.6 3.1 18.7h37.4c-3.6-5.3-3.6-20.2-4.1-26.1zm-53.6-42.2h-19.5v-24.1h17.6c14.2 0 18.5 4.5 18.5 12-.1 10.8-9.6 12.1-16.6 12.1zm-285.1 80.2h16.1v4.5H-379v3.7h9.9v4.1h-9.9v4h11v4.7h-16.3m18-15.3h4.7v2.1h.1c.9-1.6 2.9-2.5 4.6-2.5 4.9 0 5.3 3.7 5.3 5.9v9.8h-4.8v-8.9c0-1.5-.5-2.6-2.4-2.6-1.8 0-2.6 1.6-2.6 3.2v8.3h-4.8v-15.3zm30.9 0h-4.6v2c-.8-1.6-2.2-2.3-3.9-2.3-4.1 0-6.4 3.4-6.4 7.5 0 4.2 2 7.6 6.4 7.6 1.6 0 3-.8 3.9-2.2h.1v1.5c0 1.8-.2 3.6-2.5 3.6-.8 0-1.4-.1-1.7-.3-.5-.2-.7-.7-.8-1.4h-4.8c.6 4.1 3.8 4.9 7.2 4.9 6.9 0 7.3-4.7 7.3-7.2l-.2-13.7zm-7.5 10.8c-2 0-2.8-1.8-2.8-3.6s.7-3.8 2.8-3.8c2.1 0 2.9 1.8 2.9 3.9 0 1.9-.8 3.5-2.9 3.5zm9.7-10.8h4.8v15.3h-4.8v-15.3zm0-5.7h4.8v3.8h-4.8v-3.8zm7.1 5.7h4.7v2.1c.9-1.6 2.9-2.5 4.6-2.5 4.9 0 5.3 3.7 5.3 5.9v9.8h-4.8v-8.9c0-1.5-.5-2.6-2.4-2.6-1.8 0-2.6 1.6-2.6 3.2v8.3h-4.8c-.1-.2 0-15.3 0-15.3zm23.8-.4c-4.4 0-7.9 3.3-7.9 8 0 5.2 3.2 8.1 8 8.1 3.3 0 6.4-1.5 7.2-5h-4.5c-.5 1.1-1.6 1.7-2.8 1.7-2.1 0-3.2-1.4-3.3-3.4h10.8c.4-5.3-2.2-9.4-7.5-9.4zm-3.1 6.5c.3-1.8 1.4-3.1 3.1-3.1 1.6 0 2.8 1.4 2.9 3.1h-6zm19.4-6.5c-4.4 0-7.9 3.3-7.9 8 0 5.2 3.2 8.1 8 8.1 3.3 0 6.4-1.5 7.2-5h-4.5c-.5 1.1-1.6 1.7-2.8 1.7-2.1 0-3.2-1.4-3.3-3.4h10.8c.3-5.3-2.2-9.4-7.5-9.4zm-3.1 6.5c.3-1.8 1.4-3.1 3.1-3.1 1.6 0 2.8 1.4 2.9 3.1h-6zm12.3-6.1h4.7v2.6c.7-2 2.3-3 4.4-3 .3 0 .8 0 1.1.1v4.6c-.7-.2-1.1-.3-1.8-.3-2.4 0-3.6 1.7-3.6 3.6v7.6h-4.8v-15.2zm10.9 0h4.8v15.3h-4.8v-15.3zm0-5.7h4.8v3.8h-4.8v-3.8zm7.1 5.7h4.7v2.1h.1c.9-1.6 2.9-2.5 4.6-2.5 4.9 0 5.3 3.7 5.3 5.9v9.8h-4.8v-8.9c0-1.5-.5-2.6-2.4-2.6-1.8 0-2.6 1.6-2.6 3.2v8.3h-4.8v-15.3zm30.9 0h-4.6v2c-.8-1.6-2.2-2.3-3.9-2.3-4.1 0-6.4 3.4-6.4 7.5 0 4.2 2 7.6 6.4 7.6 1.6 0 3-.8 3.9-2.2v1.5c0 1.8-.2 3.6-2.5 3.6-.8 0-1.4-.1-1.7-.3-.5-.2-.7-.7-.8-1.4h-4.8c.6 4.1 3.8 4.9 7.2 4.9 6.9 0 7.3-4.7 7.3-7.2l-.1-13.7zm-7.5 10.8c-2 0-2.8-1.8-2.8-3.6s.7-3.8 2.8-3.8 2.9 1.8 2.9 3.9c0 1.9-.8 3.5-2.9 3.5zm17.5-16.5h5.4l7 13h.1v-13h4.9v21h-5.4l-7-13.1h-.1v13.1h-4.9m26.6-15.7c-4.4 0-7.9 3.3-7.9 8 0 5.2 3.2 8.1 8 8.1 3.3 0 6.4-1.5 7.2-5h-4.5c-.5 1.1-1.6 1.7-2.8 1.7-2.1 0-3.2-1.4-3.3-3.4h10.8c.4-5.3-2.3-9.4-7.5-9.4zm-3.1 6.5c.3-1.8 1.4-3.1 3.1-3.1 1.6 0 2.8 1.4 2.9 3.1h-6zm29.3 9.2h-4.9l-2.3-10.1-2.3 10.1h-4.9l-4.5-15.3h4.8l2.4 9.9h.1l2.1-9.9h4.6l2.2 9.9 2.4-9.9h4.9m4.2 10.2c0 .8.3 1.4.8 1.7.5.3 1.1.6 1.7.6.9 0 2.3-.5 2.3-1.6s-1.5-1.4-2.3-1.6c-3-.8-6.8-.9-6.8-5 0-3.7 3.8-4.7 6.7-4.7 3.2 0 6.7.9 6.8 4.9h-4.5c0-.6-.2-1-.6-1.4-.3-.2-.9-.3-1.5-.3-.8 0-2.1.1-2.1 1.1 0 1.4 3.2 1.7 5.4 2.2 3 .6 3.7 2.9 3.7 4.1 0 4.1-3.7 5.4-7 5.4-3.6 0-7-1.1-7.1-5.5l4.5.1zm11-5h8.7v4.2h-8.7v-4.2zm28 5.4c-.1-2-.8-4.5-3-5 2.2-.8 3.2-3 3.2-5.3 0-4.2-3.6-5.9-7.1-5.9h-10.3v21h5.3v-7.7h4c2.5 0 2.8 2.2 3 4.2.1.6.1 2.6.6 3.3h5.2c-.8-.7-.8-3.7-.9-4.6zm-7.5-7.1h-4.4v-4.8h4.1c1.5 0 2.6.7 2.6 2.3.1 1.6-.7 2.5-2.3 2.5zm16.6-3.9c-4.4 0-7.9 3.3-7.9 8 0 5.2 3.2 8.1 8 8.1 3.3 0 6.4-1.5 7.2-5h-4.5c-.5 1.1-1.6 1.7-2.8 1.7-2.1 0-3.2-1.4-3.3-3.4h10.8c.5-5.3-2.2-9.4-7.5-9.4zm-3.1 6.5c.3-1.8 1.4-3.1 3.1-3.1 1.6 0 2.8 1.4 2.9 3.1h-6zm21.6-.4c0-1.3-1.1-2.2-2.3-2.2-2.6 0-3.1 2.4-3.1 4.5 0 2 .8 4 2.9 4 1.7 0 2.5-.9 2.8-2.6h4.7c-.5 4.1-3.4 6.4-7.3 6.4-4.4 0-7.7-3.1-7.7-7.8 0-4.8 3-8.3 7.7-8.3 3.7 0 6.9 2.1 7.2 6h-4.9zm13.1-6.1c-4.6 0-7.7 3.4-7.7 8s3.2 8 7.7 8c4.6 0 7.7-3.4 7.7-8s-3.1-8-7.7-8zm0 12.4c-2.2 0-2.9-2.3-2.9-4.2s.7-4.2 2.9-4.2c2.3 0 3 2.3 3 4.2s-.7 4.2-3 4.2zm8.8-12h4.7v2.6c.7-2 2.3-3 4.4-3 .3 0 .8 0 1.1.1v4.6c-.7-.2-1.1-.3-1.8-.3-2.4 0-3.6 1.7-3.6 3.6v7.6h-4.8v-15.2zm20.7-5.7v7.3h-.1c-1-1.4-2.4-2.1-4.1-2.1-4.1 0-6.2 3.8-6.2 7.7 0 4.4 2 8.4 6.5 8.4 1.7 0 3.1-.7 4-2.2v1.7h4.6v-20.9h-4.7zm-2.7 17.7c-2.2 0-3-2.3-3-4.4 0-2 .8-4.1 3-4.1 2.1 0 2.9 2.1 2.9 4.2 0 1.9-.6 4.3-2.9 4.3z"></path>
    </svg>