<?xml version="1.0" encoding="utf-8"?>
<!-- Generator: Adobe Illustrator 26.5.0, SVG Export Plug-In . SVG Version: 6.00 Build 0)  -->
<svg version="1.1" id="Layer_1" xmlns="http://www.w3.org/2000/svg" xmlns:xlink="http://www.w3.org/1999/xlink" x="0px" y="0px"
	 viewBox="0 0 1067.6 248.3" style="enable-background:new 0 0 1067.6 248.3;" xml:space="preserve">
<style type="text/css">
	.st0{fill:#011E41;}
	.st1{fill:#EA0029;}
	.st2{fill:#758592;}
</style>
<g>
	<path class="st0" d="M38.2,17.3c-0.3,0-0.6,0.1-0.9,0.1c-0.3,0.1-0.7,0.2-1.2,0.3l-4.1,0.7v74.3l4.1,0.7c0.5,0.1,0.9,0.2,1.2,0.3
		s0.6,0.1,0.9,0.1L39,94c2.4,0.6,3.5,2,3.5,4.4v8.4H2.1v-8.4c0-2.4,1.2-3.8,3.5-4.4l0.8-0.1l2.1-0.4l4.2-0.7V18.4l-4.2-0.7
		c-0.5-0.1-0.9-0.2-1.2-0.3c-0.3-0.1-0.6-0.1-0.9-0.1l-0.8-0.1c-2.4-0.6-3.5-2-3.5-4.4V4.4h40.5v8.3c0,2.4-1.2,3.8-3.5,4.4
		L38.2,17.3z"/>
	<path class="st0" d="M160.1,12.8c0,2.4-1.2,3.8-3.5,4.4l-0.9,0.1c-0.3,0-0.6,0.1-0.9,0.1c-0.3,0.1-0.7,0.2-1.2,0.3l-4.1,0.7v88.3
		h-9.9c-1.3,0-2.6-0.2-3.7-0.7c-0.9-0.4-1.9-1.2-3-2.6l-53.5-68c0.2,2.1,0.3,3.5,0.3,4.4l0.1,4.1v48.8l9.2,1.3
		c2.4,0.6,3.5,2,3.5,4.4v8.4H52.4v-8.4c0-2.4,1.2-3.8,3.5-4.4l0.9-0.1l2.1-0.4l4.2-0.7V18.4l-4.2-0.7c-0.5-0.1-0.9-0.2-1.2-0.3
		s-0.6-0.1-0.9-0.1L56,17.2c-2.4-0.6-3.5-2-3.5-4.4V4.4h20.6l2.1,0.1c0.7,0,1.2,0.1,1.6,0.4c0.4,0.1,0.8,0.4,1.3,0.8l1.4,1.7
		l53.7,68.3l-0.4-4.8c-0.1-1-0.1-2.6-0.1-4.5V18.4l-9.2-1.3c-2.4-0.6-3.5-2-3.5-4.4V4.4h40.2L160.1,12.8L160.1,12.8z"/>
	<path class="st0" d="M248.1,31.3h-8.2c-1.7,0-2.8-0.9-3.2-2.7c-0.5-3.7-0.8-6.7-1-9.1h-36.5v30.3h35.8V65h-35.8v27.7l4.2,0.7
		c0.5,0.1,0.9,0.2,1.2,0.3c0.3,0.1,0.6,0.1,0.9,0.1l0.9,0.1c2.4,0.6,3.5,2,3.5,4.4v8.4h-40.6v-8.4c0-2.4,1.2-3.8,3.5-4.4l0.9-0.1
		c0.3,0,0.6-0.1,0.9-0.1c0.3-0.1,0.7-0.2,1.2-0.3l4.2-0.7V18.4l-4.2-0.7c-0.5-0.1-0.9-0.2-1.2-0.3c-0.3-0.1-0.6-0.1-0.9-0.1
		l-0.9-0.1c-2.4-0.6-3.5-2-3.5-4.4V4.4h78.8L248.1,31.3L248.1,31.3z"/>
	<path class="st0" d="M465.5,98.3v8.4h-19.1c-1.8,0-3.2-0.3-4.2-1c-1-0.7-2-1.6-2.8-2.8l-21.5-32.8c-0.8-1.1-1.7-2-2.7-2.6
		s-2.5-0.9-4.2-0.9h-7.2v26l4.2,0.7c0.5,0.1,0.9,0.2,1.2,0.3s0.6,0.1,0.9,0.1l0.8,0.1c2.4,0.6,3.5,2,3.5,4.4v8.4H374v-8.4
		c0-2.4,1.2-3.8,3.5-4.4l0.9-0.1l2.1-0.4l4.2-0.7V18.4l-4.2-0.7c-0.5-0.1-0.9-0.2-1.2-0.3c-0.3-0.1-0.6-0.1-0.9-0.1l-0.9-0.1
		c-2.4-0.6-3.5-2-3.5-4.4V4.4h40.9c7,0,13,0.7,18,2.1c4.8,1.4,8.9,3.4,12.2,6.1c3.3,2.7,5.7,5.8,7.1,9.3c1.5,3.6,2.3,7.6,2.3,11.9
		c0,3.2-0.5,6.5-1.6,9.8c-0.8,2.7-2.3,5.5-4.4,8.4c-1.7,2.4-4.1,4.5-7.1,6.5c-2.9,1.9-6.1,3.4-9.6,4.5c2.5,1.4,4.5,3.4,6.2,5.9
		L454,92.7l4.4,0.7c0.5,0.1,0.9,0.2,1.3,0.3c0.4,0.1,0.8,0.1,1.1,0.1l1.1,0.1C464.3,94.5,465.5,96,465.5,98.3L465.5,98.3z M430.5,48
		c1.6-1.5,2.9-3.4,3.8-5.7c0.8-2.2,1.3-4.5,1.3-7.1c0-5.2-1.7-9.2-5.1-12c-3.3-2.7-8.5-4.1-15.7-4.1h-11.2v34h10.9
		c3.2,0,6.3-0.5,9.3-1.4C426.5,50.8,428.8,49.6,430.5,48L430.5,48z"/>
	<path class="st0" d="M600.1,17.3c-0.3,0-0.6,0.1-0.9,0.1c-0.3,0.1-0.7,0.2-1.2,0.3l-4.1,0.7v74.3l4.1,0.7c0.5,0.1,0.9,0.2,1.2,0.3
		s0.6,0.1,0.9,0.1L601,94c2.4,0.6,3.5,2,3.5,4.4v8.4h-40.2v-8.4c0-2.4,1.2-3.8,3.5-4.4l9.2-1.3V40.6l0.1-4c0-0.9,0.1-2.4,0.3-4.5
		l-30.8,58c-0.8,1.4-1.7,2.4-2.8,3.1c-1.2,0.8-2.5,1.1-4,1.1h-2.5c-1.4,0-2.7-0.4-4-1.1c-1.1-0.7-2.1-1.7-2.8-3.1L499.3,32l0.3,4.5
		c0.1,0.9,0.1,2.3,0.1,4.1v52.1l9.2,1.3c2.4,0.6,3.5,2,3.5,4.4v8.4h-40.2v-8.4c0-2.4,1.2-3.8,3.5-4.4l0.8-0.1l2.1-0.4l4.2-0.7V18.4
		l-4.2-0.7c-0.5-0.1-0.9-0.2-1.2-0.3s-0.6-0.1-0.9-0.1l-0.8-0.1c-2.4-0.6-3.5-2-3.5-4.4V4.4h25l2.3,0.1c0.6,0,1.1,0.1,1.7,0.3
		c0.3,0.1,0.7,0.4,1.3,1c0.4,0.4,0.8,0.9,1.3,1.7l30.6,56.7c0.6,1,1,2,1.3,2.8c0.3,0.8,0.6,1.4,0.8,1.9l2.1,4.9l2-4.9
		c0.8-1.9,1.5-3.5,2.3-4.8l30.3-56.6c0.6-0.9,0.9-1.5,1.1-1.7c0.6-0.6,1-0.9,1.4-1c0.8-0.2,1.3-0.3,1.7-0.3l2.1-0.1h25v8.3
		c0,2.4-1.2,3.8-3.5,4.4L600.1,17.3L600.1,17.3z"/>
	<path class="st0" d="M720.9,99.5v7.2h-34.5v-7.2c0-1.6,0.9-2.8,2.8-3.7l2.8-1.1l-5.7-15.4h-40.7L640,94.7l2.8,1.1
		c1.9,0.9,2.8,2.1,2.8,3.7v7.2h-34.5v-7.2c0-1.6,0.9-2.8,2.8-3.7l7.8-3.2l34.5-88.1h19.5l34.7,88.1l7.8,3.2
		C720.1,96.5,721,97.7,720.9,99.5L720.9,99.5z M681.6,65.8L669.9,34c-1.1-3.1-2.4-7.1-3.8-12l-1.3,4.4c-0.8,2.6-1.6,5.1-2.5,7.8
		l-11.6,31.7L681.6,65.8L681.6,65.8z"/>
	<path class="st0" d="M795.3,28.6h-8.1c-1.8,0-2.9-0.9-3.4-2.7c-0.3-1.6-0.5-3.5-0.7-5.8h-20.8v72.6l4.1,0.7
		c0.5,0.1,0.9,0.2,1.2,0.3s0.6,0.1,0.9,0.1l0.8,0.1c2.5,0.6,3.7,2,3.7,4.4v8.4h-40.5v-8.4c0-2.4,1.2-3.8,3.5-4.4l0.8-0.1
		c0.3,0,0.6-0.1,0.9-0.1c0.3-0.1,0.7-0.2,1.2-0.3l4.1-0.7V20h-20.8c-0.2,2.5-0.4,4.4-0.7,5.9c-0.5,1.8-1.6,2.7-3.2,2.7h-8.2V4.4h85
		L795.3,28.6L795.3,28.6z"/>
	<path class="st0" d="M837.9,17.3c-0.3,0-0.6,0.1-0.9,0.1c-0.3,0.1-0.7,0.2-1.2,0.3l-4.1,0.7v74.3l4.1,0.7c0.5,0.1,0.9,0.2,1.2,0.3
		s0.6,0.1,0.9,0.1l0.8,0.1c2.4,0.6,3.5,2,3.5,4.4v8.4h-40.5v-8.4c0-2.4,1.2-3.8,3.5-4.4l0.8-0.1l2.1-0.4l4.2-0.7V18.4l-4.2-0.7
		c-0.5-0.1-0.9-0.2-1.2-0.3s-0.6-0.1-0.9-0.1l-0.8-0.1c-2.4-0.6-3.5-2-3.5-4.4V4.4h40.5v8.3c0,2.4-1.2,3.8-3.5,4.4L837.9,17.3z"/>
	<path class="st0" d="M945.6,82.5c-4.4,7.9-10.5,14.1-18.4,18.6c-7.9,4.5-16.8,6.7-26.8,6.7s-18.9-2.2-26.8-6.6
		c-7.9-4.4-14-10.6-18.5-18.5s-6.7-17-6.7-27.2s2.2-19.2,6.7-27.2c4.4-7.9,10.6-14.1,18.5-18.5c7.9-4.4,16.8-6.6,26.8-6.6
		s19.1,2.3,27,6.8c7.9,4.5,14,10.8,18.3,18.7s6.5,16.8,6.5,26.7S950,74.6,945.6,82.5L945.6,82.5z M924.3,29.4
		c-5.6-6.6-13.6-9.8-23.8-9.8s-18.5,3.3-24.1,9.9c-5.6,6.6-8.4,15.3-8.4,26s2.8,19.7,8.5,26.2c5.7,6.6,13.7,9.8,24,9.8
		c10.4,0,18.3-3.3,23.9-9.9c5.6-6.6,8.3-15.3,8.3-26.2S929.9,35.9,924.3,29.4L924.3,29.4z"/>
	<path class="st0" d="M1066.2,12.8c0,2.4-1.2,3.8-3.5,4.4l-0.8,0.1c-0.3,0-0.6,0.1-0.9,0.1c-0.3,0.1-0.7,0.2-1.2,0.3l-4.1,0.7v88.3
		h-9.9c-1.3,0-2.6-0.2-3.7-0.7c-0.9-0.4-1.9-1.2-3-2.6l-53.5-68c0.2,2.1,0.3,3.5,0.3,4.4l0.1,4.1v48.8l9.2,1.3
		c2.4,0.6,3.5,2,3.5,4.4v8.4h-40.2v-8.4c0-2.4,1.2-3.8,3.5-4.4l0.8-0.1l2.1-0.4l4.2-0.7V18.4l-4.2-0.7c-0.5-0.1-0.9-0.2-1.2-0.3
		s-0.6-0.1-0.9-0.1l-0.8-0.1c-2.4-0.6-3.5-2-3.5-4.4V4.4h20.7l2.1,0.1c0.7,0,1.2,0.1,1.6,0.4c0.4,0.1,0.8,0.4,1.3,0.8l1.4,1.7
		l53.7,68.3l-0.4-4.8c-0.1-1-0.1-2.6-0.1-4.5V18.4l-9.2-1.3c-2.4-0.6-3.5-2-3.5-4.4V4.4h40.2L1066.2,12.8L1066.2,12.8z"/>
	<path class="st0" d="M157.4,153c0,2.4-1.2,3.8-3.5,4.4l-1.6,0.3l-4,0.7l-27.6,88.5h-17.1L81.3,177l-0.9-2.8l-1-3.4l-0.9,3.4
		l-0.9,2.8l-22.6,69.9H38l-27.4-88.5l-4.1-0.7l-1.6-0.3c-2.4-0.6-3.5-2-3.5-4.4v-8.4h38.2v8.4c0,2.4-1.2,3.8-3.5,4.4
		c-0.3,0-0.5,0-0.7,0.1l-1.6,0.4c-1.1,0.2-1.9,0.4-2.4,0.6l14.6,51.6l1.3,5l1,5.7l1.3-5.7c0.5-2,0.9-3.6,1.4-5L71,149
		c0.5-1.2,1.2-2.2,2.3-3c1.2-0.9,2.6-1.4,4-1.4h5.7c1.7,0,3.1,0.4,4.1,1.1c1,0.8,1.8,1.8,2.3,3.2l19.9,61.1c1.2,3.6,2.1,6.9,2.7,10
		c0.4-2.2,0.7-3.9,1-5.2c0.3-1.6,0.7-3.2,1.1-4.8l14.6-51.5l-5.8-1.3c-2.4-0.6-3.5-2-3.5-4.4v-8.4h38.2L157.4,153L157.4,153z"/>
	<path class="st0" d="M239,171.5h-8.2c-1.7,0-2.8-0.9-3.2-2.7c-0.5-3.7-0.8-6.7-1-9h-33v28.3h34.7v14.7h-34.7v28.9h33
		c0.2-2.4,0.5-5.4,1-9c0.5-1.8,1.6-2.7,3.2-2.7h8.2v27h-75.2v-8.4c0-2.4,1.2-3.8,3.5-4.4l0.9-0.1c0.3,0,0.6,0,0.9-0.1
		c0.3-0.1,0.7-0.2,1.2-0.3l4.2-0.7v-74.3l-4.2-0.7c-0.5-0.1-0.9-0.2-1.2-0.3c-0.3-0.1-0.6-0.1-0.9-0.1l-0.9-0.1
		c-2.4-0.6-3.5-2-3.5-4.4v-8.4H239V171.5L239,171.5z"/>
	<path class="st0" d="M321.6,171.5h-8.2c-1.7,0-2.8-0.9-3.2-2.7c-0.5-3.7-0.8-6.7-1-9h-33v28.3h34.7v14.7h-34.7v28.9h33
		c0.2-2.4,0.5-5.4,1-9c0.5-1.8,1.6-2.7,3.2-2.7h8.2v27h-75.2v-8.4c0-2.4,1.2-3.8,3.5-4.4l0.9-0.1c0.3,0,0.6,0,0.9-0.1
		c0.3-0.1,0.7-0.2,1.2-0.3l4.2-0.7v-74.3l-4.2-0.7c-0.5-0.1-0.9-0.2-1.2-0.3c-0.3-0.1-0.6-0.1-0.9-0.1l-0.9-0.1
		c-2.4-0.6-3.5-2-3.5-4.4v-8.4h75.2V171.5L321.6,171.5z"/>
	<path class="st0" d="M427.6,238.6v8.4H388v-8.4c0-2.4,1.2-3.8,3.5-4.4l1.1-0.1l2-0.4L373,205.3c-0.8-1-1.8-1.9-3.2-2.5
		c-1.1-0.6-2.8-0.9-5-0.9h-6.1v31l4.2,0.7c0.5,0.1,0.9,0.2,1.2,0.3c0.3,0.1,0.6,0.1,0.9,0.1l0.9,0.1c2.4,0.6,3.5,2,3.5,4.4v8.4H329
		v-8.4c0-2.4,1.2-3.8,3.5-4.4l0.9-0.1l2.1-0.4l4.2-0.7v-74.3l-4.2-0.9l-2.1-0.3l-0.9-0.1c-2.4-0.6-3.5-2.1-3.5-4.5v-8.2h40.5v8.2
		c0,2.5-1.2,4-3.5,4.5l-0.9,0.1c0.1,0-0.6,0.1-2.1,0.3l-4.2,0.9v28.9h4.5c2,0,3.4-0.2,4.4-0.7c1.4-0.7,2.5-1.5,3.1-2.4l21.1-26.7
		l-1-0.1l-0.9-0.1c-2.4-0.6-3.5-2-3.5-4.4v-8.4H424v8.4c0,2.4-1.2,3.8-3.5,4.4l-1.1,0.1c-0.4,0-0.8,0-1.2,0.1
		c-0.4,0.1-0.9,0.2-1.3,0.3l-4.2,0.7l-23.1,28.6c-1.4,1.6-2.5,2.7-3.1,3.2c-1.2,1-2.3,1.8-3.2,2.3c1.4,0.6,2.8,1.4,4.2,2.4
		c1.2,0.9,2.5,2.3,3.7,4l25.2,33.8l4.1,0.7c0.5,0.1,0.9,0.2,1.3,0.3c0.4,0.1,0.8,0.1,1.2,0.1l1.1,0.1
		C426.4,234.7,427.6,236.2,427.6,238.6L427.6,238.6z"/>
</g>
<g>
	<path class="st0" d="M302,1.4c-9.1,1.4-17.5,5-24.6,10.3c-0.5,0.4-0.6,1.2-0.1,1.7l11.5,11.5c0.4,0.4,1,0.4,1.4,0.1
		c3.7-2.4,7.8-4.1,12.2-5.1c0.5-0.1,0.9-0.6,0.9-1.1V2.5C303.3,1.8,302.7,1.3,302,1.4L302,1.4z"/>
	<path class="st1" d="M317.7,2.5v16.3c0,0.5,0.4,1,0.9,1.1c17.3,3.8,30.1,19.6,29.4,38.1c-0.8,18.9-15.7,34.4-34.5,35.9
		c-7.6,0.6-14.8-1.1-20.9-4.5c-0.4-0.2-1-0.2-1.3,0.2l-11.7,11.7c-0.5,0.5-0.4,1.3,0.2,1.7c8.3,5.5,18.1,8.8,28.6,9.2
		c32.1,1.2,58.6-24.7,58-56.9c-0.5-27.4-20.9-50-47.3-54.1C318.3,1.3,317.7,1.8,317.7,2.5L317.7,2.5z"/>
	<path class="st2" d="M280.2,80.3c0.4-0.4,0.4-1,0.1-1.5c-4.6-6.2-7.4-13.9-7.4-22.3c0-7.4,2.1-14.2,5.8-20c0.3-0.4,0.2-1-0.1-1.4
		l-11.5-11.5c-0.5-0.5-1.3-0.4-1.7,0.1c-6.8,9.2-10.7,20.6-10.7,32.9c0,13.3,4.7,25.5,12.5,35.1c0.4,0.5,1.2,0.6,1.7,0.1L280.2,80.3
		L280.2,80.3z"/>
</g>
</svg>
