<svg version="1.1" id="Layer_1" xmlns="http://www.w3.org/2000/svg" xmlns:xlink="http://www.w3.org/1999/xlink" x="0px" y="0px"
	 width="207.6px" height="31.5px" viewBox="0 0 103.791 15.75" enable-background="new 0 0 103.791 15.75" xml:space="preserve">
<path fill="#231F20" d="M18.87,2.933c0-0.493,0.298-0.71,0.583-0.767c0.08-0.029,0.172-0.044,0.218-0.204l0.068-0.23
	c0.057-0.189-0.057-0.218-0.148-0.218h-2.399c-0.103,0-0.159,0.044-0.194,0.101l-0.092,0.261c-0.046,0.116-0.022,0.233,0.127,0.261
	c0.559,0.144,0.73,0.23,0.73,0.795v8.703c0,0.608-0.08,1.23-0.206,1.564c-0.103,0.274-0.32,0.55-0.571,0.622v0.595
	c0.902,0,1.885-0.667,1.885-3.143V2.933z"/>
<path fill="#231F20" d="M22.227,2.295h1.666c0.766,0,0.938,1.16,1.11,0.984l0.204-0.216c0.036-0.042,0.059-0.086,0.059-0.13V1.876
	c0.021-0.204-0.114-0.362-0.333-0.362h-4.466c-0.068,0-0.148,0.029-0.196,0.158l-0.09,0.248c-0.057,0.159,0.046,0.202,0.218,0.246
	c0.491,0.101,0.717,0.318,0.717,0.883v7.602c0,1.014,0.254,1,0.608,1h3.53c0.31,0,0.523-0.131,0.523-0.363V9.97
	c0-0.058-0.021-0.114-0.068-0.131l-0.283-0.115c-0.16-0.058-0.321,1.145-1.498,1.145h-1.006c-0.489,0-0.695-0.13-0.695-1.346V6.538
	h2.261c0.184,0,0.296-0.043,0.365-0.202l0.16-0.361c0.059-0.131,0-0.218-0.149-0.218h-2.637V2.295z"/>
<path fill-rule="evenodd" clip-rule="evenodd" fill="#231F20" d="M27.959,2.295h1.017c0.786,0,1.369,0.421,1.393,1.868
	c0.021,1.594-0.743,2.318-1.621,2.29h-0.788V2.295z M32.506,11.23c-0.516-0.305-1.348-2.101-2.436-4.416
	c0.8-0.579,1.405-1.667,1.405-2.78c-0.01-1.767-0.892-2.52-2.271-2.52h-3.008c-0.065,0-0.146,0.029-0.191,0.158L25.913,1.92
	c-0.057,0.159,0.046,0.202,0.218,0.246c0.49,0.101,0.72,0.318,0.72,0.883v7.182c0,0.492-0.298,0.71-0.583,0.767
	c-0.08,0.03-0.172,0.044-0.217,0.204l-0.069,0.231c-0.057,0.188,0.058,0.218,0.149,0.218h2.397c0.104,0,0.161-0.044,0.195-0.101
	l0.09-0.263c0.048-0.114,0.022-0.231-0.124-0.26c-0.56-0.146-0.73-0.231-0.73-0.797V7.233h1.186l1.737,4.069
	c0.045,0.117,0.127,0.349,0.309,0.349h1.315V11.23z"/>
<path fill="#231F20" d="M33.907,2.933c0-0.493,0.298-0.71,0.583-0.767c0.08-0.029,0.172-0.044,0.217-0.204l0.068-0.23
	c0.058-0.189-0.057-0.218-0.148-0.218h-2.397c-0.104,0-0.162,0.044-0.196,0.101l-0.092,0.261c-0.045,0.116-0.021,0.233,0.126,0.261
	c0.561,0.144,0.731,0.23,0.731,0.795v4.851c0,2.187,0.687,4.041,3.005,4.041c1.463,0,2.846-1,2.846-4.085V2.933
	c0-0.493,0.297-0.71,0.583-0.767c0.08-0.029,0.171-0.044,0.216-0.204l0.069-0.23c0.058-0.189-0.058-0.218-0.148-0.218h-2
	c-0.103,0-0.159,0.044-0.194,0.101l-0.091,0.261c-0.046,0.116-0.023,0.233,0.126,0.261c0.56,0.144,0.731,0.23,0.731,0.795V7.77
	c0,2.026-0.617,3.07-2.114,3.07c-1.428,0-1.92-1.681-1.92-3.101V2.933z"/>
<path fill="#231F20" d="M43.892,3.411c0.035-0.057,0.068-0.103,0.068-0.16V2.18c0.023-0.246-0.159-0.375-0.502-0.549
	c-0.344-0.175-0.754-0.292-1.279-0.292c-1.509,0-2.435,1.39-2.435,2.404c0,1.419,0.937,2.086,1.611,2.693
	c0.708,0.639,1.873,1.535,1.794,2.84c-0.035,1.013-0.605,1.809-1.531,1.809c-0.548,0-1.063-0.289-1.279-0.928
	c-0.286-0.606-0.286-1.243-0.445-1.186l-0.31,0.129c-0.114,0.059-0.068,0.276-0.068,0.434v1.406c0,0.377,0,0.39,0.594,0.623
	c0.366,0.144,0.834,0.261,1.475,0.261c1.291,0,2.708-0.956,2.662-2.81c-0.045-1.622-0.755-2.361-1.999-3.418
	c-0.938-0.796-1.531-1.39-1.406-2.433c0.092-0.738,0.687-1.172,1.246-1.172c0.514,0,0.856,0.218,1.085,0.812
	c0.148,0.375,0.366,0.97,0.457,0.869L43.892,3.411z"/>
<path fill-rule="evenodd" clip-rule="evenodd" fill="#231F20" d="M46.861,7.784l1.348-4.373l1.325,4.373H46.861z M52.494,11.215
	c0.022-0.086-0.035-0.188-0.16-0.23c-0.628-0.218-0.663-0.145-0.892-0.869c-0.766-2.36-1.726-5.299-2.514-8.196
	c-0.034-0.217-0.126-0.406-0.286-0.406h-1.645c-0.126,0-0.229,0.014-0.274,0.145l-0.057,0.202c-0.161,0.349,0.377,0.26,0.64,0.55
	c0.125,0.144,0.411,0.361,0.205,1.013l-2.103,6.691c-0.239,0.665-0.319,0.753-0.8,0.882c-0.171,0.059-0.263,0.088-0.297,0.204
	l-0.055,0.188c-0.105,0.303,0.136,0.261,0.352,0.261h1.714c0.161,0,0.194-0.159,0.229-0.231l0.067-0.146
	c0.149-0.333-0.754-0.204-0.536-0.898l0.56-1.809h3.131l0.479,1.664c0.24,0.854-0.376,0.725-0.468,0.942l-0.103,0.274
	c-0.069,0.159,0.045,0.203,0.147,0.203h2.263c0.091,0,0.217-0.016,0.263-0.116L52.494,11.215z"/>
<path fill="#231F20" d="M52.96,11.433c-0.057,0.188,0.057,0.218,0.148,0.218h4.856c0.309,0,0.526-0.131,0.526-0.363V9.97
	c0-0.058-0.023-0.114-0.069-0.131l-0.286-0.115c-0.159-0.058-0.319,1.145-1.496,1.145h-1.006c-0.491,0-0.697-0.13-0.697-1.346v-6.59
	c0-0.493,0.297-0.71,0.583-0.767c0.08-0.029,0.171-0.044,0.218-0.204l0.068-0.23c0.057-0.189-0.057-0.218-0.148-0.218h-2.399
	c-0.104,0-0.16,0.044-0.194,0.101l-0.092,0.261c-0.046,0.116-0.023,0.233,0.126,0.261c0.56,0.144,0.731,0.23,0.731,0.795v7.298
	c0,0.492-0.297,0.71-0.583,0.767c-0.08,0.03-0.171,0.044-0.218,0.204L52.96,11.433z"/>
<path fill="#231F20" d="M60.075,2.295h1.668c0.766,0,0.937,1.16,1.108,0.984l0.205-0.216c0.035-0.042,0.058-0.086,0.058-0.13V1.876
	C63.137,1.672,63,1.514,62.783,1.514h-4.468c-0.068,0-0.149,0.029-0.192,0.158L58.029,1.92c-0.057,0.159,0.046,0.202,0.218,0.246
	c0.491,0.101,0.72,0.318,0.72,0.883v7.602c0,1.014,0.251,1,0.605,1h3.53c0.309,0,0.526-0.131,0.526-0.363V9.97
	c0-0.058-0.023-0.114-0.069-0.131l-0.285-0.115c-0.16-0.058-0.32,1.145-1.497,1.145h-1.006c-0.491,0-0.696-0.13-0.696-1.346V6.538
	h2.262c0.184,0,0.298-0.043,0.366-0.202l0.159-0.361c0.058-0.131,0-0.218-0.147-0.218h-2.64V2.295z"/>
<path fill="#231F20" d="M72.697,3.049c0-0.579,0.239-0.739,0.582-0.827c0.126-0.043,0.24-0.073,0.285-0.217l0.069-0.261
	c0.057-0.202-0.046-0.23-0.16-0.23H72.16c-0.161,0-0.332,0.073-0.48,0.462l-2.948,7.706l-2.775-7.573
	c-0.194-0.538-0.274-0.595-0.65-0.595h-1.521c-0.103,0-0.16,0.044-0.192,0.101L63.5,1.876c-0.047,0.13-0.023,0.233,0.206,0.29
	c0.229,0.057,0.629,0.274,1.016,0.796v7.269c0,0.492-0.298,0.71-0.583,0.767c-0.078,0.03-0.172,0.044-0.215,0.204l-0.07,0.231
	c-0.058,0.188,0.059,0.218,0.148,0.218h2.001c0.101,0,0.158-0.044,0.194-0.101l0.09-0.263c0.045-0.114,0.022-0.231-0.126-0.26
	c-0.561-0.144-0.731-0.231-0.731-0.797V3.975h0.022l2.628,7.212c0.092,0.261,0.183,0.464,0.252,0.464h0.229
	c0.092,0,0.148-0.146,0.218-0.32l2.787-7.355h0.023v6.256c0,0.492-0.298,0.71-0.584,0.767c-0.079,0.03-0.171,0.044-0.216,0.204
	l-0.069,0.231c-0.057,0.188,0.058,0.218,0.149,0.218h2.399c0.102,0,0.159-0.044,0.193-0.101l0.091-0.263
	c0.047-0.114,0.023-0.231-0.125-0.26c-0.56-0.144-0.73-0.231-0.73-0.797V3.049z"/>
<path fill="#231F20" d="M78.599,2.295h0.971c0.879,0,1.61,0.609,1.61,2.085c0,1.435-0.662,2.391-1.919,2.391
	c-0.103,0-0.172,0.043-0.103,0.188l0.16,0.333c1.439,0.13,2.948-0.767,2.97-3.084c0.023-1.896-1.153-2.693-2.354-2.693h-3.096
	c-0.068,0-0.148,0.029-0.194,0.158L76.553,1.92c-0.057,0.159,0.046,0.202,0.218,0.246c0.49,0.101,0.72,0.318,0.72,0.883v7.182
	c0,0.492-0.298,0.71-0.583,0.767c-0.08,0.03-0.172,0.044-0.217,0.204l-0.069,0.231c-0.057,0.188,0.058,0.218,0.149,0.218h2.398
	c0.103,0,0.161-0.044,0.194-0.101l0.092-0.263c0.046-0.114,0.022-0.231-0.125-0.26c-0.561-0.146-0.731-0.231-0.731-0.797V2.295z"/>
<path fill-rule="evenodd" clip-rule="evenodd" fill="#231F20" d="M86.469,11.825c2.409,0,4.306-2.23,4.306-5.445
	c0-2.796-1.646-5.041-3.907-5.041c-2.695,0-4.306,2.607-4.306,5.446C82.562,10.057,84.695,11.825,86.469,11.825 M86.767,11.042
	c-1.897,0-2.995-2.013-2.995-4.706c0-2.607,1.224-4.214,2.857-4.214c1.746,0,2.935,1.695,2.935,4.416
	C89.563,8.595,88.684,11.042,86.767,11.042"/>
<path fill="#231F20" d="M95.265,3.411c0.034-0.057,0.066-0.103,0.066-0.16V2.18c0.025-0.246-0.157-0.375-0.501-0.549
	c-0.343-0.175-0.753-0.292-1.279-0.292c-1.508,0-2.434,1.39-2.434,2.404c0,1.419,0.938,2.086,1.61,2.693
	c0.709,0.639,1.875,1.535,1.795,2.84c-0.035,1.013-0.606,1.809-1.531,1.809c-0.548,0-1.063-0.289-1.279-0.928
	c-0.286-0.606-0.286-1.243-0.446-1.186l-0.309,0.129c-0.114,0.059-0.068,0.276-0.068,0.434v1.406c0,0.377,0,0.39,0.594,0.623
	c0.366,0.144,0.835,0.261,1.475,0.261c1.291,0,2.707-0.956,2.662-2.81c-0.046-1.622-0.754-2.361-1.999-3.418
	c-0.938-0.796-1.532-1.39-1.406-2.433c0.092-0.738,0.687-1.172,1.245-1.172c0.515,0,0.857,0.218,1.086,0.812
	c0.148,0.375,0.366,0.97,0.457,0.869L95.265,3.411z"/>
<path fill="#231F20" d="M99.674,2.412h2.067c0.183,0,0.31-0.014,0.435-0.173l0.217-0.421c0.16-0.23,0-0.303-0.159-0.303h-5.737
	c-0.183,0-0.308,0.014-0.434,0.173l-0.217,0.421c-0.16,0.23,0,0.303,0.162,0.303h2.558v7.819c0,0.492-0.298,0.71-0.583,0.767
	c-0.08,0.03-0.172,0.044-0.217,0.204l-0.069,0.231c-0.057,0.188,0.058,0.218,0.149,0.218h2.398c0.104,0,0.161-0.044,0.194-0.101
	l0.092-0.263c0.046-0.114,0.022-0.231-0.125-0.26c-0.561-0.146-0.731-0.231-0.731-0.797V2.412z"/>
<path fill="#231F20" d="M3.792,2.07h1.503c0.134,0,0.225-0.01,0.316-0.11l0.157-0.268c0.117-0.147,0-0.192-0.115-0.192H1.484
	c-0.134,0-0.226,0.007-0.316,0.11L1.01,1.876c-0.116,0.149,0,0.194,0.117,0.194h1.859v4.982c0,0.314-0.214,0.453-0.424,0.49
	C2.505,7.561,2.438,7.571,2.406,7.671L2.356,7.82C2.315,7.939,2.397,7.958,2.463,7.958h1.744c0.075,0,0.117-0.027,0.142-0.065
	l0.066-0.166C4.448,7.655,4.433,7.58,4.324,7.561C3.916,7.467,3.792,7.412,3.792,7.052V2.07z"/>
<path fill="#231F20" d="M7.308,2.402c0-0.313,0.216-0.452,0.423-0.488c0.058-0.019,0.124-0.029,0.158-0.13l0.05-0.148
	C7.98,1.517,7.896,1.5,7.83,1.5H6.085c-0.073,0-0.115,0.026-0.141,0.062L5.878,1.73C5.846,1.804,5.862,1.876,5.97,1.896
	C6.377,1.987,6.5,2.044,6.5,2.402v4.65c0,0.314-0.215,0.453-0.423,0.49C6.021,7.561,5.953,7.571,5.92,7.671L5.871,7.82
	c-0.043,0.118,0.04,0.138,0.107,0.138h1.742c0.077,0,0.117-0.027,0.143-0.063l0.067-0.168c0.032-0.071,0.015-0.148-0.093-0.165
	c-0.406-0.094-0.53-0.149-0.53-0.509V4.636h2.832v2.417c0,0.314-0.217,0.453-0.425,0.49C9.658,7.561,9.591,7.571,9.558,7.671
	L9.507,7.82C9.466,7.938,9.549,7.958,9.616,7.958h1.742c0.076,0,0.118-0.027,0.143-0.063l0.067-0.168
	c0.031-0.071,0.015-0.148-0.092-0.165c-0.407-0.094-0.533-0.149-0.533-0.509v-4.65c0-0.313,0.218-0.452,0.424-0.488
	c0.059-0.019,0.124-0.029,0.159-0.13l0.05-0.148c0.042-0.12-0.043-0.137-0.109-0.137H9.725c-0.076,0-0.118,0.026-0.143,0.062
	L9.516,1.73C9.482,1.804,9.5,1.876,9.606,1.896c0.408,0.091,0.533,0.148,0.533,0.506v1.707H7.308V2.402z"/>
<path fill="#231F20" d="M13.205,1.997h1.214c0.556,0,0.68,0.739,0.806,0.628l0.148-0.14c0.023-0.028,0.042-0.055,0.042-0.083V1.73
	c0.017-0.129-0.084-0.23-0.242-0.23h-3.247c-0.05,0-0.106,0.017-0.141,0.101l-0.066,0.155c-0.04,0.103,0.033,0.129,0.157,0.159
	C12.234,1.979,12.4,2.116,12.4,2.476v4.845c0,0.646,0.183,0.637,0.439,0.637h2.567c0.223,0,0.381-0.082,0.381-0.231v-0.84
	c0-0.035-0.015-0.074-0.05-0.084L15.53,6.73c-0.115-0.038-0.232,0.73-1.087,0.73h-0.731c-0.356,0-0.507-0.084-0.507-0.859V4.7h1.646
	c0.132,0,0.216-0.029,0.265-0.129l0.117-0.23c0.042-0.084,0-0.14-0.109-0.14h-1.918V1.997z"/>
<g>
	<polygon fill="#BB2026" points="2.276,8.627 15.788,8.627 15.788,11.672 2.276,11.672 2.276,8.627 	"/>
</g>
</svg>
