<svg xmlns="http://www.w3.org/2000/svg" viewBox="0 0 470.8 151.5" preserveAspectRatio="xMinYMax meet" class="svg-logo" role="image">
    <title>Security Magazine logo</title>
    <path fill="#C52026" d="M123.8 147.6v-15.3H89.4V88.2l28.4.1V73.1H89.5V34.4h34.4V19H73.4v128.6"></path>
    <path fill="#FFF" d="M124.5 147.6v-16.1H89.4l.8.8V88.2l-.8.8h29.2V72.3H89.5l.8.8V34.4l-.7.8h35.1v-17H72.6V148.4H124.6v-.8zm-50.4 0V19l-.8.8h50.6l-.8-.8v15.3l.7-.8H88.7v40.2h29.1l-.8-.8V88l.8-.8H88.6V132.9H123.8l-.8-.8v15.3l.8-.8H73.4l.7 1z"></path>
    <path fill="#C52026" d="M128.6 116.2c0 12 1.6 18.2 6.2 23.8 5.2 6.2 12.4 9.3 21.3 9.3 13 0 28.5-5 28.5-28.7V98.1h-16.3v22.5c0 9-3.3 13-10.8 13-11.7 0-12.9-7.5-12.9-25.9V49c0-13.9 6.4-15.8 12.7-15.8 3.7 0 6.7 1.7 8.2 4.5 1.6 3.1 1.6 6.1 1.6 24.1v3.9h16.2V44.9c0-11-3.8-18.8-11.3-23.2-4.2-2.6-9.6-4-15.5-4-8.8 0-15.6 2.7-20.5 8.1 0 0-7.6 6.3-7.3 24.9v65.5z"></path>
    <path fill="#FFF" d="M127.9 116.2c0 12.2 1.7 18.5 6.3 24.3 5.4 6.4 12.7 9.6 21.9 9.6 13.4 0 29.3-5.1 29.3-29.5V97.3H167.5v23.3c0 8.6-3 12.3-10.1 12.3-10.5 0-12.1-5.7-12.1-25.1V49c0-13.2 5.7-15 12-15 3.4 0 6.2 1.5 7.5 4.1 1.5 2.9 1.6 6 1.6 23.8v4.7h17.8V44.9c0-11.2-3.9-19.3-11.7-23.8-4.4-2.7-9.9-4.1-15.9-4.1-9.1 0-16 2.7-21.1 8.4l.1-.1c-.3.3-7.9 6.8-7.6 25.4-.1 0-.1 65.5-.1 65.5zm1.5-65.5c-.3-17.9 7-24.2 7.1-24.3h.1v-.1c4.8-5.3 11.3-7.8 19.9-7.8 5.7 0 11 1.3 15.1 3.9 7.3 4.3 11 11.9 11 22.6v20.8l.8-.8h-16.2l.8.8v-3.9c0-18.1 0-21.2-1.7-24.4-1.5-3.1-4.8-4.9-8.8-4.9-6.3 0-13.5 1.9-13.5 16.5V108c0 18.5 1.3 26.6 13.6 26.6 7.9 0 11.6-4.4 11.6-13.8V98.1l-.8.8h16.3l-.8-.8v22.5c0 23.1-15.1 28-27.8 28-8.7 0-15.7-3-20.8-9-4.4-5.5-6-11.6-6-23.4.1 0 .1-65.5.1-65.5z"></path>
    <path fill="#C52026" d="M276.3 73.8V34h11.8c6.4 0 10.3.8 10.3 12.2v18.7c0 5.4-1.8 8.9-10.8 8.9h-11.3zm23.2 13.1c10.4-3.5 15.7-11.5 15.7-24.1V44c0-16.5-9.4-24.9-27.8-24.9h-27.2v128.6h16.2V88.8h6.6l22.1 58.9h17.2l-22.8-60.8z"></path>
    <path fill="#FFF" d="M277.1 73.8V34l-.8.8h11.8c6.1 0 9.6.5 9.6 11.4v18.7c0 5.1-1.7 8.2-10.1 8.2h-11.3l.8.7zm10.6.7c10.2 0 11.6-4.7 11.6-9.7V46.2c0-12-4.6-12.9-11.1-12.9H275.6v41.3H287.7z"></path>
    <path fill="#FFF" d="M299.7 87.6c10.7-3.6 16.2-11.9 16.2-24.8V44c0-17-9.6-25.7-28.6-25.7h-28v130.1h17.8V88.8l-.8.8h6.6l-.7-.5 22.1 58.9.2.5h18.8l-.4-1-22.7-60.8-.5.9zm22.5 59.3H305l.7.5-22.1-58.9-.2-.5H275.5V147.7l.8-.8h-16.2l.8.8V19l-.8.8h27.2c18 0 27.1 8.1 27.1 24.2v18.8c0 12.1-5.1 20-15.2 23.3l-.7.2.3.7 22.7 60.8.7-.9z"></path>
    <path fill="#C52026" d="M325.9 19h16.5v128.6h-16.5z"></path>
    <path fill="#FFF" d="M325.9 148.4h17.3V18.2h-18.1V148.4h.8zm0-128.6h16.5l-.8-.8v128.6l.8-.8h-16.5l.8.8V19l-.8.8z"></path>
    <g>
      <path fill="#C52026" d="M469.7 19h-17.5l-16.5 48.6L419.2 19h-69.5v15.5h21V147.8h16.2V34.5h20.6l19.9 55.9v57.2h16V90.9"></path>
      <path fill="#FFF" d="M469.7 18.3h-18.1l-.2.5L435 67.4h1.4L420 18.8l-.2-.5H348.9v17h21.8l-.8-.8V148.6h17.8V34.5l-.8.8h20.7l-.7-.5 19.9 55.9v-.3V148.5h17.6V91v.3l26.3-71.9.4-1h-1.4zm-27 72.6v56.7l.8-.8h-16l.8.8V90.2l-19.9-55.9-.2-.5h-22v114.1l.8-.8h-16.2l.8.8V33.8h-21.8l.8.8V19l-.8.8h69.6l-.7-.5L435 67.9l.7 2.1.7-2.1 16.5-48.6-.7.5h17.6l-.7-1-26.3 71.9v.2z"></path>
    </g>
    <g>
      <path fill="#C52026" d="M.8 95.9v22.5c0 19.5 12 31.2 32.1 31.2 31.4 0 31.4-26.2 31.4-36.1 0-20.1-7.2-27.6-21.7-42.4-20.6-21-22.7-26-22.7-38.2 0-14.7 5.2-17.7 13.6-17.7 12.2 0 13.2 7.9 13.2 18.3V49h15.6V35.8c0-13.1 0-35.1-29-35.1C4.1.8 4.1 26.1 4.1 34.5c0 20.7 9.4 30.1 25 45.8 15.6 15.4 19.3 20.5 19.3 35.1 0 14.2-4 19.4-14.7 19.4-4.3 0-10.2-.9-13.6-5.3-3.4-4.4-3.4-9.4-3.4-19.4V95.9H.8z"></path>
      <path fill="#FFF" d="M0 95.9v22.5c0 20 12.3 31.9 32.9 31.9 32.1 0 32.1-26.7 32.1-36.8 0-20.4-7.3-27.9-21.9-42.9-20.4-20.8-22.4-25.7-22.4-37.7 0-14.2 4.7-16.9 12.8-16.9 11.5 0 12.4 7.3 12.4 17.5v16.3H63v-14C63 22.4 63 0 33.3 0c-30 0-30 25.9-30 34.5 0 21 9.5 30.5 25.3 46.3C44.1 96 47.7 101 47.7 115.3c0 13.8-3.7 18.7-14 18.7-4.1 0-9.8-.9-13.1-5-3.3-4.2-3.3-9.2-3.3-19V95.1H0v.8zm15.8 0V110c0 10.2 0 15.3 3.6 19.9 3.7 4.6 9.8 5.6 14.2 5.6 11.1 0 15.5-5.7 15.5-20.2 0-14.8-3.7-20-19.5-35.6C14.2 64.2 4.8 54.9 4.8 34.5c0-8.2 0-33 28.5-33 28.3 0 28.3 21.5 28.3 34.3v13.1l.8-.8H46.6l.8.8V33.5c0-10.4-1-19-13.9-19-8.6 0-14.3 3.1-14.3 18.4 0 12.5 2.1 17.6 22.9 38.8 14.3 14.7 21.5 22 21.5 41.9 0 9.7 0 35.3-30.6 35.3-19.7 0-31.4-11.4-31.4-30.4V95.9l-.8.8h15.8l-.8-.8z"></path>
    </g>
    <g>
      <path fill="#C52026" d="M194.4 115.3c0 10.1 0 21.6 9.9 29.1 4.5 3.4 11 5.4 17.7 5.4 17.9 0 28.2-11 28.2-30.1V19H234v92.7c0 12.6-.4 15.9-2.1 18.2l-.1.1-.1.1c-2.4 3.6-6.9 4.1-9.3 4.1-11.3 0-12.2-7.2-12.2-17.5V19h-16v96.3z"></path>
      <path fill="#FFF" d="M193.6 115.3c0 10.3 0 22 10.2 29.7 4.6 3.5 11.3 5.6 18.2 5.6 18.4 0 28.9-11.2 28.9-30.8V18.2h-17.8v93.5c0 12.3-.4 15.6-2 17.7l-.1.1-.1.1c-2.2 3.3-6.4 3.8-8.7 3.8-10.6 0-11.4-6.6-11.4-16.7V18.2h-17.6v97.1zm.8-95.5h16l-.8-.8v97.7c0 10.3 1 18.2 12.9 18.2 2.6 0 7.3-.6 9.9-4.4v-.1-.1c1.9-2.5 2.3-5.8 2.3-18.6V19l-.8.8h16.2l-.8-.8v100.7c0 18.6-10 29.3-27.4 29.3-6.6 0-12.9-1.9-17.3-5.3-9.6-7.3-9.6-18.6-9.6-28.5V19l-.6.8z"></path>
    </g>
  </svg>