<?xml version="1.0" encoding="utf-8"?>
<!-- Generator: Adobe Illustrator 22.0.0, SVG Export Plug-In . SVG Version: 6.00 Build 0)  -->
<svg version="1.1" id="Layer_1" xmlns="http://www.w3.org/2000/svg" xmlns:xlink="http://www.w3.org/1999/xlink" x="0px" y="0px"
	 viewBox="0 0 193 22" style="enable-background:new 0 0 193 22;" xml:space="preserve">
<style type="text/css">
	.st0{fill:#0E4F97;}
	.st1{filter:url(#Adobe_OpacityMaskFilter);}
	.st2{fill:#FFFFFF;}
	.st3{mask:url(#mask-2_1_);fill:#0E4F97;}
	.st4{filter:url(#Adobe_OpacityMaskFilter_1_);}
	.st5{mask:url(#mask-4_1_);fill:#0E4F97;}
	.st6{filter:url(#Adobe_OpacityMaskFilter_2_);}
	.st7{mask:url(#mask-6_1_);fill:#0E4F97;}
	.st8{filter:url(#Adobe_OpacityMaskFilter_3_);}
	.st9{mask:url(#mask-6_2_);fill:#0E4F97;}
	.st10{filter:url(#Adobe_OpacityMaskFilter_4_);}
	.st11{mask:url(#mask-6_3_);fill:#0E4F97;}
	.st12{filter:url(#Adobe_OpacityMaskFilter_5_);}
	.st13{mask:url(#mask-6_4_);fill:#0E4F97;}
	.st14{filter:url(#Adobe_OpacityMaskFilter_6_);}
	.st15{mask:url(#mask-6_5_);fill:#0E4F97;}
	.st16{filter:url(#Adobe_OpacityMaskFilter_7_);}
	.st17{mask:url(#mask-6_6_);fill:#0E4F97;}
</style>
<g id="Home-Page-module" transform="translate(-53.000000, -39.000000)">
	<g id="Page-1-Copy" transform="translate(53.000000, 39.000000)">
		<polygon id="Fill-1" class="st0" points="0,0.2 0,4.3 2.8,4.3 2.8,21.8 7,21.8 7,4.3 9.8,4.3 9.8,0.2 		"/>
		<polygon id="Fill-2" class="st0" points="18.4,0.2 18.4,8.8 15.9,8.8 15.9,0.2 11.7,0.2 11.7,21.8 15.9,21.8 15.9,12.6 18.4,12.6 
			18.4,21.8 22.5,21.8 22.5,0.2 		"/>
		<polygon id="Fill-3" class="st0" points="25,0.2 25,21.8 34.6,21.8 34.6,17.7 29.2,17.7 29.2,12.6 33.3,12.6 33.3,8.7 29.2,8.7 
			29.2,4.3 34.3,4.3 34.3,0.2 		"/>
		<polygon id="Fill-4" class="st0" points="39.4,0.2 39.4,4.3 42.3,4.3 42.3,21.8 46.5,21.8 46.5,4.3 49.3,4.3 49.3,0.2 		"/>
		<polygon id="Fill-5" class="st0" points="51.4,21.8 55.6,21.8 55.6,0.2 51.4,0.2 		"/>
		<polygon id="Fill-6" class="st0" points="67.2,0.2 65.2,11.3 65.1,11.3 63.3,0.2 58.1,0.2 58.1,21.8 61.6,21.8 61.6,8.6 61.7,8.6 
			64,21.8 66.4,21.8 68.6,8.6 68.7,8.6 68.7,21.8 72.2,21.8 72.2,0.2 		"/>
		<polygon id="Fill-7" class="st0" points="74.7,0.2 74.7,21.8 84.3,21.8 84.3,17.7 78.9,17.7 78.9,12.6 83,12.6 83,8.7 78.9,8.7 
			78.9,4.3 84,4.3 84,0.2 		"/>
		<g id="Group-23" transform="translate(0.000000, 0.002671)">
			<g id="Group-10" transform="translate(85.123984, 0.000000)">
				<defs>
					<filter id="Adobe_OpacityMaskFilter" filterUnits="userSpaceOnUse" x="0.4" y="0" width="10.6" height="22">
						<feColorMatrix  type="matrix" values="1 0 0 0 0  0 1 0 0 0  0 0 1 0 0  0 0 0 1 0"/>
					</filter>
				</defs>
				<mask maskUnits="userSpaceOnUse" x="0.4" y="0" width="10.6" height="22" id="mask-2_1_">
					<g class="st1">
						<polygon id="path-1_1_" class="st2" points="0.4,0 11,0 11,22 0.4,22 						"/>
					</g>
				</mask>
				<path id="Fill-8" class="st3" d="M7,6C6.9,4.9,6.7,3.7,5.6,3.7c-0.8,0-1,0.5-1,1.2c0,4,6.4,5.2,6.4,11.6c0,3.4-2,5.5-5.4,5.5
					c-3.8,0-5-2.1-5.2-5.8l3.9-0.3c0.1,1.6,0.4,2.5,1.4,2.5c0.7,0,1.2-0.5,1.2-1.6c0-4.1-6.2-5.3-6.2-11.5c0-3.1,1.7-5.3,5-5.3
					c3.9,0,4.9,2.7,5.2,5.7L7,6z"/>
			</g>
			<g id="Group-13" transform="translate(101.207317, 0.000000)">
				<defs>
					<filter id="Adobe_OpacityMaskFilter_1_" filterUnits="userSpaceOnUse" x="0.1" y="0" width="11.4" height="22">
						<feColorMatrix  type="matrix" values="1 0 0 0 0  0 1 0 0 0  0 0 1 0 0  0 0 0 1 0"/>
					</filter>
				</defs>
				<mask maskUnits="userSpaceOnUse" x="0.1" y="0" width="11.4" height="22" id="mask-4_1_">
					<g class="st4">
						<polygon id="path-3_1_" class="st2" points="0.1,0 11.5,0 11.5,22 0.1,22 						"/>
					</g>
				</mask>
				<path id="Fill-11" class="st5" d="M7.1,11c0-5.8-0.3-7.1-1.3-7.1c-1,0-1.3,1.3-1.3,7.1c0,6.3,0.5,7.2,1.3,7.2
					C6.6,18.2,7.1,17.4,7.1,11 M0.1,11c0-8.1,1.4-11,5.7-11c4.3,0,5.7,2.9,5.7,11c0,7.2-1.2,11-5.7,11C1.2,22,0.1,18.2,0.1,11"/>
			</g>
			<polygon id="Fill-14" class="st0" points="114.6,21.8 114.6,0.2 123.9,0.2 123.9,4.3 118.8,4.3 118.8,8.7 122.9,8.7 122.9,12.6 
				118.8,12.6 118.8,21.8 			"/>
			<defs>
				<filter id="Adobe_OpacityMaskFilter_2_" filterUnits="userSpaceOnUse" x="129.3" y="0.2" width="4.2" height="21.5">
					<feColorMatrix  type="matrix" values="1 0 0 0 0  0 1 0 0 0  0 0 1 0 0  0 0 0 1 0"/>
				</filter>
			</defs>
			<mask maskUnits="userSpaceOnUse" x="129.3" y="0.2" width="4.2" height="21.5" id="mask-6_1_">
				<g class="st6">
					<polygon id="path-5_1_" class="st2" points="0,22 193,22 193,0 0,0 					"/>
				</g>
			</mask>
			<polygon id="Fill-16" class="st7" points="129.3,21.8 133.5,21.8 133.5,0.2 129.3,0.2 			"/>
			<defs>
				<filter id="Adobe_OpacityMaskFilter_3_" filterUnits="userSpaceOnUse" x="135.2" y="0" width="10.6" height="22">
					<feColorMatrix  type="matrix" values="1 0 0 0 0  0 1 0 0 0  0 0 1 0 0  0 0 0 1 0"/>
				</filter>
			</defs>
			<mask maskUnits="userSpaceOnUse" x="135.2" y="0" width="10.6" height="22" id="mask-6_2_">
				<g class="st8">
					<polygon id="path-5_2_" class="st2" points="0,22 193,22 193,0 0,0 					"/>
				</g>
			</mask>
			<path id="Fill-18" class="st9" d="M141.9,6c-0.1-1.1-0.3-2.3-1.4-2.3c-0.8,0-1,0.5-1,1.2c0,4,6.4,5.2,6.4,11.6
				c0,3.4-2,5.5-5.4,5.5c-3.8,0-5-2.1-5.2-5.8l3.9-0.3c0.1,1.6,0.4,2.5,1.4,2.5c0.7,0,1.2-0.5,1.2-1.6c0-4.1-6.2-5.3-6.2-11.5
				c0-3.1,1.7-5.3,5-5.3c3.9,0,4.9,2.7,5.2,5.7L141.9,6z"/>
			<defs>
				<filter id="Adobe_OpacityMaskFilter_4_" filterUnits="userSpaceOnUse" x="147.4" y="0.2" width="11.2" height="21.5">
					<feColorMatrix  type="matrix" values="1 0 0 0 0  0 1 0 0 0  0 0 1 0 0  0 0 0 1 0"/>
				</filter>
			</defs>
			<mask maskUnits="userSpaceOnUse" x="147.4" y="0.2" width="11.2" height="21.5" id="mask-6_3_">
				<g class="st10">
					<polygon id="path-5_3_" class="st2" points="0,22 193,22 193,0 0,0 					"/>
				</g>
			</mask>
			<path id="Fill-19" class="st11" d="M151.9,9.8c1.3,0,1.8-0.7,1.8-3c0-2.9-1.1-2.9-1.8-2.9h-0.4v5.9H151.9z M154.2,21.8l-1.6-8.3
				h-1v8.3h-4.2V0.2h5.1c3.6,0,5.6,1.4,5.6,6c0,2.6-0.8,4.1-2,4.9l2.5,10.6H154.2z"/>
			<defs>
				<filter id="Adobe_OpacityMaskFilter_5_" filterUnits="userSpaceOnUse" x="159" y="0.2" width="12" height="21.5">
					<feColorMatrix  type="matrix" values="1 0 0 0 0  0 1 0 0 0  0 0 1 0 0  0 0 0 1 0"/>
				</filter>
			</defs>
			<mask maskUnits="userSpaceOnUse" x="159" y="0.2" width="12" height="21.5" id="mask-6_4_">
				<g class="st12">
					<polygon id="path-5_4_" class="st2" points="0,22 193,22 193,0 0,0 					"/>
				</g>
			</mask>
			<path id="Fill-20" class="st13" d="M164.1,13.3h1.8L165,5.2h-0.1L164.1,13.3z M166.8,21.8l-0.5-4.6h-2.6l-0.4,4.6H159l3.2-21.5
				h5.4l3.4,21.5H166.8z"/>
			<defs>
				<filter id="Adobe_OpacityMaskFilter_6_" filterUnits="userSpaceOnUse" x="172.5" y="0.2" width="9.6" height="21.5">
					<feColorMatrix  type="matrix" values="1 0 0 0 0  0 1 0 0 0  0 0 1 0 0  0 0 0 1 0"/>
				</filter>
			</defs>
			<mask maskUnits="userSpaceOnUse" x="172.5" y="0.2" width="9.6" height="21.5" id="mask-6_5_">
				<g class="st14">
					<polygon id="path-5_5_" class="st2" points="0,22 193,22 193,0 0,0 					"/>
				</g>
			</mask>
			<polygon id="Fill-21" class="st15" points="172.5,21.8 172.5,0.2 181.7,0.2 181.7,4.3 176.6,4.3 176.6,8.7 180.7,8.7 180.7,12.6 
				176.6,12.6 176.6,17.7 182,17.7 182,21.8 			"/>
			<defs>
				<filter id="Adobe_OpacityMaskFilter_7_" filterUnits="userSpaceOnUse" x="183.6" y="0.2" width="9.4" height="21.5">
					<feColorMatrix  type="matrix" values="1 0 0 0 0  0 1 0 0 0  0 0 1 0 0  0 0 0 1 0"/>
				</filter>
			</defs>
			<mask maskUnits="userSpaceOnUse" x="183.6" y="0.2" width="9.4" height="21.5" id="mask-6_6_">
				<g class="st16">
					<polygon id="path-5_6_" class="st2" points="0,22 193,22 193,0 0,0 					"/>
				</g>
			</mask>
			<polygon id="Fill-22" class="st17" points="183.6,21.8 183.6,0.2 187.8,0.2 187.8,17.7 193,17.7 193,21.8 			"/>
		</g>
	</g>
</g>
</svg>
