<svg width="2000px" height="275px" viewBox="0 0 2000 275" version="1.1" xmlns="http://www.w3.org/2000/svg" xmlns:xlink="http://www.w3.org/1999/xlink">
    <defs>
        <polygon id="path-1" points="0 0 705.10397 0 705.10397 274.102079 0 274.102079"></polygon>
    </defs>
    <path d="M83.6729164,172.167034 L169.609197,172.167034 L126.624797,54.0461153 L83.6729164,172.167034 Z M2.27637161,268.013236 C0.747950671,266.498529 0,264.557606 0,262.275709 L0.747950671,258.820079 L92.04346,11.4769465 C94.5604766,5.10337407 99.1197237,1.89035917 105.740713,1.89035917 L147.554408,1.89035917 C154.149381,1.89035917 158.734644,5.10337407 161.251661,11.4769465 L252.534162,258.820079 L253.308129,262.275709 C253.308129,264.557606 252.456115,266.498529 250.830135,268.013236 C249.171636,269.573843 247.324523,270.321361 245.308308,270.321361 L211.468418,270.321361 C206.128701,270.321361 202.447483,267.882093 200.424764,263.01667 L182.909711,216.631226 L70.3593944,216.631226 L52.8443409,263.01667 C50.83463,267.882093 47.1664197,270.321361 41.8201984,270.321361 L7.96730063,270.321361 C5.70393686,270.321361 3.78528079,269.573843 2.27637161,268.013236 L2.27637161,268.013236 Z" id="Fill-1" fill="#0d0f27"></path>
    <path d="M569.795837,267.626363 C567.999409,265.862483 567.10775,263.685502 567.10775,261.121647 L567.10775,11.4769465 C567.10775,8.6770335 567.940402,6.37546568 569.612261,4.58535738 C571.251338,2.80836343 573.493595,1.89035917 576.325921,1.89035917 L745.406575,1.89035917 C748.18645,1.89035917 750.487715,2.80836343 752.297256,4.58535738 C754.087128,6.37546568 754.97223,8.6770335 754.97223,11.4769465 L754.97223,37.1876228 C754.97223,40.0006502 754.087128,42.2300891 752.297256,43.8824967 C750.487715,45.5611331 748.18645,46.3742226 745.406575,46.3742226 L619.643455,46.3742226 L619.643455,113.480334 L736.94238,113.480334 C739.761593,113.480334 742.062858,114.385224 743.859286,116.168775 C745.636046,117.958883 746.547373,120.267008 746.547373,123.066921 L746.547373,147.223547 C746.547373,150.043132 745.636046,152.285685 743.859286,153.938093 C742.062858,155.610172 739.761593,156.436376 736.94238,156.436376 L619.643455,156.436376 L619.643455,225.850612 L748.481484,225.850612 C751.254803,225.850612 753.562624,226.670259 755.352496,228.309552 C757.1227,230.001303 758.034026,232.230742 758.034026,235.050326 L758.034026,261.121647 C758.034026,263.941231 757.1227,266.17067 755.352496,267.809964 C753.562624,269.501714 751.254803,270.321361 748.481484,270.321361 L576.325921,270.321361 C573.749292,270.321361 571.572597,269.423028 569.795837,267.626363" id="Fill-2" fill="#0d0f27"></path>
    <path d="M888.084272,267.632789 C886.291937,265.836035 885.425099,263.658948 885.425099,261.127755 L885.425099,174.831139 L795.097945,14.1659873 C794.322353,11.851192 793.950851,10.4610033 793.950851,9.94296135 C793.950851,7.65439607 794.765548,5.72649294 796.434049,4.19203943 C798.089515,2.67070091 799.93399,1.89035917 801.95444,1.89035917 L836.262986,1.89035917 C841.072961,1.89035917 845.022615,4.32318931 848.07936,9.18884958 L912.09504,120.390827 L976.521327,9.18884958 C977.512,7.38553883 978.99149,5.72649294 980.875071,4.19203943 C982.784722,2.67070091 985.137569,1.89035917 987.953164,1.89035917 L1022.24867,1.89035917 C1024.54286,1.89035917 1026.42644,2.67070091 1027.95156,4.19203943 C1029.50926,5.72649294 1030.24575,7.65439607 1030.24575,9.94296135 C1030.24575,11.4774149 1029.86121,12.8938335 1029.09865,14.1659873 L939.169071,174.831139 L939.169071,261.127755 C939.169071,263.94092 938.28268,266.170468 936.483828,267.836071 C934.717563,269.501674 932.41034,270.321361 929.63385,270.321361 L894.575782,270.321361 C892.020891,270.321361 889.857054,269.422984 888.084272,267.632789" id="Fill-3" fill="#0d0f27"></path>
    <path d="M1072.62672,267.632789 C1070.83995,265.836035 1069.94329,263.658948 1069.94329,261.127755 L1069.94329,11.0970802 C1069.94329,8.29047295 1070.83995,6.04125264 1072.62672,4.38220675 C1074.39386,2.72971835 1076.54061,1.89035917 1079.12587,1.89035917 L1115.09699,1.89035917 C1117.90478,1.89035917 1120.13007,2.72971835 1121.81867,4.38220675 C1123.45491,6.04125264 1124.27303,8.29047295 1124.27303,11.0970802 L1124.27303,224.313986 L1245.61012,224.313986 C1248.39827,224.313986 1250.7021,225.212362 1252.48887,226.982886 C1254.27565,228.773081 1255.19849,230.950169 1255.19849,233.514149 L1255.19849,261.127755 C1255.19849,263.658948 1254.27565,265.836035 1252.48887,267.632789 C1250.7021,269.422984 1248.39827,270.321361 1245.61012,270.321361 L1079.12587,270.321361 C1076.54061,270.321361 1074.39386,269.422984 1072.62672,267.632789" id="Fill-4" fill="#0d0f27"></path>
    <g id="Group-9" transform="translate(1294.896030, 0.000000)">
        <mask id="mask-2" fill="white">
            <use xlink:href="#path-1"></use>
        </mask>
        <g id="Clip-6"></g>
        <path d="M2.68028285,267.993683 C0.895606707,266.207449 0,264.043108 0,261.526735 L0,13.3380786 C0,10.5479038 0.843308506,8.26621882 2.50377642,6.48650452 C4.11194612,4.70027111 6.36076881,3.80715441 9.19140898,3.80715441 L177.7812,3.80715441 C180.592228,3.80715441 182.8672,4.70027111 184.651876,6.48650452 C186.416941,8.26621882 187.332159,10.5479038 187.332159,13.3380786 L187.332159,38.8864316 C187.332159,41.6831255 186.416941,43.9061386 184.651876,45.56199 C182.8672,47.2048032 180.592228,48.0262098 177.7812,48.0262098 L52.3766492,48.0262098 L52.3766492,114.742679 L169.354652,114.742679 C172.139532,114.742679 174.460264,115.635796 176.225329,117.42203 C178.010005,119.208263 178.905611,121.47691 178.905611,124.273604 L178.905611,148.303006 C178.905611,151.093181 178.010005,153.316194 176.225329,154.972046 C174.460264,156.614859 172.139532,157.449304 169.354652,157.449304 L52.3766492,157.449304 L52.3766492,226.460496 L180.821033,226.460496 C183.605912,226.460496 185.926645,227.275384 187.691709,228.931235 C189.476385,230.587087 190.398141,232.797062 190.398141,235.600275 L190.398141,261.526735 C190.398141,264.323429 189.476385,266.539923 187.691709,268.195775 C185.926645,269.851626 183.605912,270.666514 180.821033,270.666514 L9.19140898,270.666514 C6.61572254,270.666514 4.44534716,269.773397 2.68028285,267.993683" id="Fill-5" fill="#0d0f27" mask="url(#mask-2)"></path>
        <path d="M279.697321,264.199566 C263.354133,257.321916 251.018295,248.306001 242.617896,237.132263 C234.191348,225.952007 229.752538,213.728694 229.209944,200.534036 C229.209944,198.500076 230.007492,196.66169 231.511065,195.012358 C233.040788,193.356507 234.982358,192.515543 237.25733,192.515543 L272.035634,192.515543 C274.820514,192.515543 277.121635,193.147895 278.93246,194.425639 C280.690987,195.696863 282.377604,197.476578 283.887714,199.745225 C286.437252,208.402589 292.235815,215.63879 301.276867,221.492942 C310.344067,227.327537 322.751816,230.254613 338.585096,230.254613 C356.386097,230.254613 369.839809,227.275384 378.880861,221.29085 C387.948062,215.332393 392.465319,207.131365 392.465319,196.713843 C392.465319,189.842712 390.170735,184.138499 385.568493,179.549053 C380.998938,174.992202 374.056352,170.969917 364.760346,167.560428 C355.438192,164.118343 341.59878,159.991753 323.287872,155.1611 C293.209869,148.042242 271.146565,138.635181 257.12411,126.946435 C243.101654,115.264207 236.10677,98.484044 236.10677,76.6189825 C236.10677,61.8988547 240.166418,48.7237535 248.338012,37.1719083 C256.509606,25.613544 268.15903,16.5324376 283.325509,9.90903203 C298.491987,3.30518371 316.136093,0 336.257826,0 C357.432061,0 375.690671,3.68981061 391.112103,11.0629127 C406.533535,18.4360149 418.281019,27.6409841 426.302255,38.6973777 C434.316955,49.7472522 438.611945,60.744974 439.095703,71.6709856 C439.095703,73.7114639 438.330842,75.5563692 436.794582,77.1926633 C435.26486,78.8615529 433.349438,79.6829595 431.074466,79.6829595 L394.76644,79.6829595 C389.144383,79.6829595 385.339689,77.3882363 383.300059,72.805309 C382.018753,64.6890295 377.043887,57.87657 368.388534,52.4200833 C359.700495,46.9505583 349.005513,44.2255745 336.257826,44.2255745 C322.241908,44.2255745 311.233137,46.8984055 303.192288,52.2245103 C295.171051,57.5636532 291.163702,65.3213822 291.163702,75.4846591 C291.163702,82.3427523 293.209869,88.0600031 297.269517,92.6364113 C301.329165,97.2193386 307.709545,101.222066 316.391047,104.638074 C325.052937,108.086678 337.663341,111.945986 354.235333,116.268149 C376.913141,121.366085 394.969095,127.076817 408.324749,133.42642 C421.706551,139.789062 431.590911,147.787997 437.945143,157.449304 C444.332061,167.097572 447.496102,179.42519 447.496102,194.425639 C447.496102,210.951558 443.004994,225.234906 433.937793,237.308279 C424.870592,249.375133 412.155592,258.619217 395.707807,264.936225 C379.26656,271.305385 360.21694,274.486706 338.585096,274.486706 C315.626186,274.486706 295.988211,271.051141 279.697321,264.199566" id="Fill-7" fill="#0d0f27" mask="url(#mask-2)"></path>
        <path d="M537.27904,264.199566 C520.962001,257.321916 508.606551,248.306001 500.206152,237.132263 C491.779604,225.952007 487.334257,213.728694 486.82435,200.534036 C486.82435,198.500076 487.589211,196.66169 489.118933,195.012358 C490.655193,193.356507 492.544465,192.515543 494.839049,192.515543 L529.623891,192.515543 C532.428382,192.515543 534.729503,193.147895 536.514179,194.425639 C538.305392,195.696863 539.96586,197.476578 541.495582,199.745225 C544.025508,208.402589 549.843683,215.63879 558.884735,221.492942 C567.925786,227.327537 580.333535,230.254613 596.166815,230.254613 C613.993965,230.254613 627.428065,227.275384 636.488729,221.29085 C645.529781,215.332393 650.047038,207.131365 650.047038,196.713843 C650.047038,189.842712 647.752454,184.138499 643.15675,179.549053 C638.606806,174.992202 631.638071,170.969917 622.342065,167.560428 C613.04606,164.118343 599.206648,159.991753 580.849979,155.1611 C550.791588,148.042242 528.728284,138.635181 514.731978,126.946435 C500.716059,115.264207 493.695026,98.484044 493.695026,76.6189825 C493.695026,61.8988547 497.780823,48.7237535 505.952417,37.1719083 C514.097862,25.613544 525.740749,16.5324376 540.907228,9.90903203 C556.073706,3.30518371 573.724349,0 593.872232,0 C615.01378,0 633.298539,3.68981061 648.693822,11.0629127 C664.14794,18.4360149 675.869275,27.6409841 683.883974,38.6973777 C691.905211,49.7472522 696.167515,60.744974 696.677422,71.6709856 C696.677422,73.7114639 695.93871,75.5563692 694.408987,77.1926633 C692.872728,78.8615529 690.957306,79.6829595 688.662723,79.6829595 L652.348159,79.6829595 C646.758788,79.6829595 642.927945,77.3882363 640.881778,72.805309 C639.607009,64.6890295 634.625605,57.87657 625.996402,52.4200833 C617.288751,46.9505583 606.587232,44.2255745 593.872232,44.2255745 C579.849776,44.2255745 568.821393,46.8984055 560.774007,52.2245103 C552.759308,57.5636532 548.745421,65.3213822 548.745421,75.4846591 C548.745421,82.3427523 550.791588,88.0600031 554.851236,92.6364113 C558.937033,97.2193386 565.297802,101.222066 573.979303,104.638074 C582.634655,108.086678 595.251597,111.945986 611.823589,116.268149 C634.501397,121.366085 652.550814,127.076817 665.932617,133.42642 C679.28827,139.789062 689.198779,147.787997 695.533399,157.449304 C701.913779,167.097572 705.10397,179.42519 705.10397,194.425639 C705.10397,210.951558 700.586713,225.234906 691.519512,237.308279 C682.504609,249.375133 669.737311,258.619217 653.315675,264.936225 C636.874428,271.305385 617.798659,274.486706 596.166815,274.486706 C573.214442,274.486706 553.602616,271.051141 537.27904,264.199566" id="Fill-8" fill="#0d0f27" mask="url(#mask-2)"></path>
    </g>
    <path d="M368.620038,117.202268 L368.620038,177.745173 L467.92775,263.424399 C468.196592,263.705508 469.462118,264.90839 471.770227,267.052659 C474.045551,269.249227 477.888028,270.321361 483.271431,270.321361 L523.5322,270.321361 C525.558353,270.321361 527.361563,269.556485 528.87626,268.020195 C530.410628,266.490442 531.190926,264.574982 531.190926,262.299966 C531.190926,260.744063 530.67947,259.109712 529.656558,257.318463 L368.620038,117.202268 Z" id="Fill-10" fill="#066DE3" class="k-letter"></path>
    <path d="M530.791967,6.08041093 C529.285322,4.54728253 527.491697,3.78071834 525.46327,3.78071834 L485.416511,3.78071834 C480.074769,3.78071834 476.239672,4.86832224 473.989488,7.03697822 C471.680603,9.19908237 470.421804,10.4242747 470.154391,10.6666925 L376.181474,92.636647 L410.919103,122.873346 L531.555073,16.8123097 C532.585593,15.0236599 533.081285,13.3529431 533.081285,11.8263665 C533.081285,9.52012208 532.318179,7.61353933 530.791967,6.08041093" id="Fill-11" fill="#066DE3" class="k-letter"></path>
    <path d="M345.935728,11.2421534 C345.868306,8.55236167 344.998569,6.31634899 343.205157,4.57357439 C341.378035,2.79134075 339.004798,1.89035917 336.112416,1.89035917 L300.635227,1.89035917 C297.722618,1.89035917 295.443772,2.79134075 293.731266,4.57357439 C292.032244,6.38211406 291.182733,8.69704485 291.182733,11.5117902 L291.115312,130.434783 L345.868306,83.8336476 L345.935728,11.2421534" id="Fill-12" fill="#066DE3" class="k-letter"></path>
    <path d="M291.115312,163.551266 L291.115312,261.147032 C291.115312,263.703812 292.019872,265.874787 293.869496,267.659956 C295.698868,269.425507 297.940018,270.321361 300.579445,270.321361 L336.10032,270.321361 C338.996264,270.321361 341.372423,269.425507 343.201795,267.659956 C344.997415,265.953256 345.868223,263.834594 345.935728,261.402056 L345.935728,117.202268 L291.115312,163.551266" id="Fill-13" fill="#066DE3" class="k-letter"></path>
</svg>