<svg class="nav-logo" width="240" height="68" xmlns="http://www.w3.org/2000/svg" viewBox="0 0 723.11 173.15" aria-labelledby="anywordlogo" role="img"> <title id="anywordlogo">AnyWord - Copywriting AI</title> <path class="logo-1" d="M0,106.7A25.34,25.34,0,0,1,2.94,94.11a28.56,28.56,0,0,1,7.63-8.82,39.52,39.52,0,0,1,10.66-5.75,79.11,79.11,0,0,1,12-3.3,92.16,92.16,0,0,1,11.49-1.52c3.67-.24,6.8-.37,9.37-.37h6.07V71.14a19.43,19.43,0,0,0-1.38-7.77A13.1,13.1,0,0,0,55,58.27a15,15,0,0,0-5.61-2.8,26.21,26.21,0,0,0-7-.88A36.4,36.4,0,0,0,32.08,56a61.12,61.12,0,0,0-8.64,3.17,55.49,55.49,0,0,0-8.18,4.59L6.43,47.24a54.59,54.59,0,0,1,10.3-5.88,81.52,81.52,0,0,1,12-4.09,60.75,60.75,0,0,1,15.76-1.89q19.4,0,29.46,9.7T84,73.25v38.32q0,4.14,4.14,4.14h8.64v17.92H74.17a16.79,16.79,0,0,1-5.65-.83,10.13,10.13,0,0,1-3.77-2.2,8.65,8.65,0,0,1-2.12-3.22,11.12,11.12,0,0,1-.69-3.95v-1.1a18.36,18.36,0,0,1,.28-3.59,5.94,5.94,0,0,1,.28-1.28h-.37a33,33,0,0,1-6.8,9.28,40.42,40.42,0,0,1-4.14,3.4A28.72,28.72,0,0,1,46,133.08a35,35,0,0,1-14.15,2.85,39.54,39.54,0,0,1-11.9-1.8,29.24,29.24,0,0,1-10.16-5.46,27.16,27.16,0,0,1-7.07-9.15A28.89,28.89,0,0,1,0,106.7Zm24.08-1.83a14,14,0,0,0,.92,5,11.74,11.74,0,0,0,2.71,4.18A12.92,12.92,0,0,0,32.12,117,15.83,15.83,0,0,0,38.05,118a17.47,17.47,0,0,0,9-2.39,25.09,25.09,0,0,0,7-6.11,29.46,29.46,0,0,0,4.6-8.37A27.15,27.15,0,0,0,60.29,92V88.87H56.34c-1.6,0-3.49.06-5.7.19s-4.5.36-6.89.73a52.5,52.5,0,0,0-7.08,1.61,24.58,24.58,0,0,0-6.29,2.85,15.22,15.22,0,0,0-4.55,4.41A10.88,10.88,0,0,0,24.08,104.87Z"></path><path class="logo-1" d="M103.63,115.71h14V59.65a4,4,0,0,0-1.1-3.08,4.18,4.18,0,0,0-3-1.06H102.71V37.68H127.9q6.42,0,9.46,2.8t3,7.86v4.32a12.79,12.79,0,0,1-.1,1.56c-.06.5-.12.92-.18,1.29l-.18,1.29h.46a21.18,21.18,0,0,1,1.33-2.62,30.63,30.63,0,0,1,3-4.27A41.94,41.94,0,0,1,149.45,45a36.47,36.47,0,0,1,6.66-4.69,39.47,39.47,0,0,1,19.67-4.92,40.87,40.87,0,0,1,13.69,2.12,24.38,24.38,0,0,1,10.07,6.61,30.23,30.23,0,0,1,6.25,11.4A55.35,55.35,0,0,1,208,71.87v43.84h13.87v17.92H184.23V76.83a42.44,42.44,0,0,0-.68-8,16.38,16.38,0,0,0-2.44-6.16,11.74,11.74,0,0,0-4.69-4A17,17,0,0,0,169,57.26a23.44,23.44,0,0,0-11.63,2.85,27.61,27.61,0,0,0-8.64,7.53,34.16,34.16,0,0,0-5.37,10.66,41.25,41.25,0,0,0-1.84,12.23v25.18h13.69v17.92H103.63Z"></path><path class="logo-1" d="M225.79,149.07a18.75,18.75,0,0,0,4,2.3,28.1,28.1,0,0,0,4.55,1.51,24.35,24.35,0,0,0,6,.69,18,18,0,0,0,10.2-2.94,18.5,18.5,0,0,0,6.71-8.18l2.66-6-33-81H215.4V37.68h47.33V55.51h-11.3L268.89,104a39.94,39.94,0,0,1,1.75,6.8,30.91,30.91,0,0,1,.36,3.21h.55c.13-1,.31-2.11.56-3.21a36.79,36.79,0,0,1,2-6.8L291.5,55.51H280.38V37.68h45.4V55.51H314.84L279.46,146a47.14,47.14,0,0,1-6.76,12.27,39,39,0,0,1-8.91,8.41,36.37,36.37,0,0,1-10.57,4.87,44.23,44.23,0,0,1-11.81,1.56,41.6,41.6,0,0,1-9.51-1,49.85,49.85,0,0,1-7.4-2.3,34.48,34.48,0,0,1-6.43-3.31Z"></path><path class="logo-1" d="M320.81,80.17l6,22.21a30.42,30.42,0,0,1,.69,3.63c.15,1.2.29,2.32.41,3.36s.25,2.3.37,3.4h.55c.06-1.1.19-2.24.37-3.4s.28-2.16.46-3.36.43-2.4.74-3.63l18-64.52h21.14l17.83,64.52a35,35,0,0,1,.69,3.63c.15,1.2.29,2.32.41,3.36s.24,2.3.37,3.4h.64a21.06,21.06,0,0,1,.28-3.4c.12-1,.27-2.16.46-3.36s.42-2.4.73-3.63l12.78-46.87H392.07V37.68h46.14V55.51H426.72l-22.24,78.12h-27L360.83,77.38q-.46-1.83-.78-3.72c-.22-1.25-.39-2.4-.51-3.44s-.31-2.3-.37-3.4h-.55a32.06,32.06,0,0,1-.37,3.4c-.12,1-.3,2.19-.55,3.44s-.52,2.5-.83,3.72l-16.35,56.25H313.4l-5.74-20.27"></path><path class="logo-1" d="M434.77,85.66a49.76,49.76,0,0,1,4.07-20.27,48.82,48.82,0,0,1,11.09-15.9A50.35,50.35,0,0,1,466.4,39.11a54.71,54.71,0,0,1,20.22-3.73A55.42,55.42,0,0,1,507,39.11a51,51,0,0,1,16.56,10.38,48.62,48.62,0,0,1,11.13,15.9,49.76,49.76,0,0,1,4.07,20.27,49.75,49.75,0,0,1-4.07,20.26,48.62,48.62,0,0,1-11.13,15.9A51.13,51.13,0,0,1,507,132.21a57.08,57.08,0,0,1-40.54,0A51,51,0,0,1,450,121.82a48.62,48.62,0,0,1-11.13-15.9A49.75,49.75,0,0,1,434.77,85.66Zm23.89,0a32.46,32.46,0,0,0,2.22,12.22,28.08,28.08,0,0,0,6.06,9.42,27.28,27.28,0,0,0,9,6.07,27.89,27.89,0,0,0,10.9,2.15,27.37,27.37,0,0,0,19.69-8.22,28.39,28.39,0,0,0,6.06-9.42,34.52,34.52,0,0,0,0-24.36,28.88,28.88,0,0,0-6.06-9.46,28,28,0,0,0-8.92-6.16,26.68,26.68,0,0,0-10.77-2.21,27.23,27.23,0,0,0-10.9,2.21,27.69,27.69,0,0,0-9,6.16,28.56,28.56,0,0,0-6.06,9.46A32.22,32.22,0,0,0,458.66,85.66Z"></path><path class="logo-1" d="M541.62,115.71h14V59.65a4.08,4.08,0,0,0-1.1-3.08,4.2,4.2,0,0,0-3-1.06H540.7V37.68h25q6.43,0,9.65,2.76t3.22,8.82V55c0,.92,0,1.75-.05,2.48s-.08,1.35-.14,1.84-.12,1.16-.18,1.65h.37a41,41,0,0,1,4.55-9.65,34.84,34.84,0,0,1,6.8-7.81,31.64,31.64,0,0,1,8.73-5.24A27.71,27.71,0,0,1,609,36.3c.55,0,1.08,0,1.61.05s1,.08,1.42.14l1.29.18V60.2L611.65,60c-.49-.06-1.09-.1-1.79-.13s-1.49-.05-2.34-.05A25.42,25.42,0,0,0,595,62.77a26.21,26.21,0,0,0-8.73,7.81,34.06,34.06,0,0,0-5.1,11.22,51.52,51.52,0,0,0-1.65,13v20.86h13.69v17.92H541.62Z"></path><path class="logo-1" d="M615.12,85.66a64.24,64.24,0,0,1,3.17-20.73,45.63,45.63,0,0,1,9-15.85A40,40,0,0,1,641.13,39,43.49,43.49,0,0,1,659,35.38a35.24,35.24,0,0,1,13,2.12,33.55,33.55,0,0,1,8.54,4.68,28.7,28.7,0,0,1,6.16,6.71H687q-.09-.82-.18-1.83c-.07-.62-.11-1.32-.14-2.12s0-1.71,0-2.76V17.83H671.73V0h38.6V111.57q0,4.14,4.14,4.14h8.64v17.92H700.59a16.41,16.41,0,0,1-5.6-.83,11.16,11.16,0,0,1-3.82-2.2,8.2,8.2,0,0,1-2.21-3.22,11.34,11.34,0,0,1-.68-3.95v-1.1a14,14,0,0,1,.27-3.13c.12-.43.24-.83.37-1.19h-.46a28.72,28.72,0,0,1-6.71,9,36.94,36.94,0,0,1-4.23,3.27,29.75,29.75,0,0,1-5.46,2.85,42,42,0,0,1-6.81,2,43,43,0,0,1-25.55-2.9,37.8,37.8,0,0,1-13.23-10.34,47.32,47.32,0,0,1-8.41-15.9A66.79,66.79,0,0,1,615.12,85.66Zm24.08,0A41.29,41.29,0,0,0,640.94,98a29.34,29.34,0,0,0,4.88,9.51,21.26,21.26,0,0,0,7.49,6.07,21.83,21.83,0,0,0,9.6,2.11A24.42,24.42,0,0,0,672,114a21.25,21.25,0,0,0,7.77-5.33,26.54,26.54,0,0,0,5.37-9.14,38.93,38.93,0,0,0,2-13.28,43.51,43.51,0,0,0-1.47-11.35,31.45,31.45,0,0,0-4.36-9.7A21.74,21.74,0,0,0,674,58.41a20.51,20.51,0,0,0-10.33-2.53,23.35,23.35,0,0,0-9.52,2,22,22,0,0,0-7.76,5.79A28.3,28.3,0,0,0,641.13,73,38.29,38.29,0,0,0,639.2,85.66Z"></path> </svg>