<?xml version="1.0" encoding="UTF-8"?> <svg xmlns="http://www.w3.org/2000/svg" width="209" height="52" viewBox="0 0 209 52" fill="none"><g clip-path="url(#clip0_68_2)"><path fill-rule="evenodd" clip-rule="evenodd" d="M63.5596 11.3486C67.5752 11.3486 70.5458 12.8918 72.5252 15.3712V12.1194H79.6216V39.6722H72.5252V36.4221C70.5458 38.9015 67.5752 40.4447 63.5596 40.4447C56.2429 40.4447 50.1929 34.1066 50.1929 25.8958C50.1929 17.6851 56.2429 11.3486 63.5596 11.3486ZM57.2962 25.8958C57.2962 30.5253 60.5424 33.6669 64.8884 33.6669C69.2808 33.6669 72.5338 30.5236 72.5338 25.8958C72.5338 21.268 69.2894 18.1265 64.8884 18.1265C60.5338 18.1265 57.2962 21.2663 57.2962 25.8958Z" fill="#131619"></path><path fill-rule="evenodd" clip-rule="evenodd" d="M92.0537 15.3712C94.0331 12.8366 96.9487 11.3486 100.964 11.3486C108.336 11.3486 114.389 17.6835 114.389 25.8958C114.389 34.1082 108.336 40.4447 100.964 40.4447C96.9487 40.4447 94.0331 38.9567 92.0537 36.4221V50.6917H84.9573V12.1194H92.0537V15.3712ZM92.0537 25.8958C92.0537 30.5253 95.2981 33.6669 99.6441 33.6669C104.045 33.6669 107.291 30.5236 107.291 25.8958C107.291 21.268 104.045 18.1265 99.6441 18.1265C95.2981 18.1265 92.0537 21.2663 92.0537 25.8958Z" fill="#131619"></path><path fill-rule="evenodd" clip-rule="evenodd" d="M116.861 25.8958C116.861 17.6851 123.295 11.3486 131.384 11.3486C139.47 11.3486 145.956 17.6835 145.956 25.8958C145.956 34.1082 139.473 40.4447 131.384 40.4447C123.296 40.4447 116.861 34.1066 116.861 25.8958ZM123.957 25.8958C123.957 30.3598 127.204 33.5013 131.384 33.5013C135.618 33.5013 138.865 30.358 138.865 25.8958C138.865 21.4336 135.618 18.292 131.384 18.292C127.204 18.292 123.957 21.4318 123.957 25.8958Z" fill="#131619"></path><path d="M156.971 16.8592V12.1193H149.867V39.6723H156.971V26.5027C156.971 20.7162 161.646 19.0628 165.331 19.5041V11.5728C161.857 11.5693 158.393 13.1039 156.971 16.8592Z" fill="#131619"></path><path d="M171.868 0.0517578C169.503 0.0517578 167.522 2.08977 167.522 4.46056C167.522 6.88024 169.48 8.84178 171.895 8.84178C174.311 8.84178 176.269 6.88024 176.269 4.46056C176.243 2.03655 174.288 0.0778749 171.868 0.0517578Z" fill="#131619"></path><path d="M175.445 12.1194H168.349V39.6723H175.445V12.1194Z" fill="#131619"></path><path fill-rule="evenodd" clip-rule="evenodd" d="M201.737 15.3712V12.1194H208.833V39.6722H201.737V36.4221C199.758 38.9015 196.788 40.4447 192.772 40.4447C185.455 40.4447 179.404 34.1066 179.404 25.8958C179.404 17.6851 185.455 11.3486 192.772 11.3486C196.788 11.3486 199.758 12.8918 201.737 15.3712ZM186.5 25.901C186.5 30.5305 189.746 33.6719 194.091 33.6719V33.6669C198.493 33.6669 201.737 30.5288 201.737 25.901C201.737 21.2732 198.493 18.1317 194.091 18.1317C189.746 18.1317 186.5 21.2715 186.5 25.901Z" fill="#131619"></path><path d="M34.606 14.2869L20.3391 0L6.07745 14.2869C0.590076 19.7826 -1.26315 27.9447 1.31151 35.2773C2.02509 31.4365 3.88566 27.9029 6.64716 25.1442L20.3357 11.4263L34.0294 25.1442C36.7946 27.9002 38.6558 31.435 39.3651 35.2773C41.9414 27.9459 40.091 19.7841 34.606 14.2869Z" fill="#48CFAD"></path><path fill-rule="evenodd" clip-rule="evenodd" d="M11.2186 29.7098L20.3409 20.5715L29.4734 29.7098C31.8945 32.135 33.2546 35.4242 33.2546 38.8542C33.2546 42.284 31.8945 45.5733 29.4734 47.9985C24.4324 53.0479 16.2596 53.0479 11.2186 47.9985C8.79754 45.5733 7.43738 42.284 7.43738 38.8542C7.43738 35.4242 8.79754 32.135 11.2186 29.7098ZM18.4875 43.3492C20.297 44.0998 22.3798 43.6843 23.7643 42.2966V42.288C25.6489 40.3954 25.6489 37.3318 23.7643 35.4393C22.3798 34.0516 20.297 33.6361 18.4875 34.3867C16.6779 35.1371 15.498 36.906 15.498 38.8679C15.498 40.8299 16.6779 42.5987 18.4875 43.3492Z" fill="#48CFAD"></path></g><defs><clipPath id="clip0_68_2"><rect width="209" height="52" fill="white"></rect></clipPath></defs></svg> 