<svg width="120" height="52" viewBox="0 0 120 52" fill="none" xmlns="http://www.w3.org/2000/svg">
<path d="M20.176 32.2378C18.9369 32.1014 17.7736 31.7452 16.724 31.2148C15.9548 30.4266 15.3068 29.4944 14.8142 28.4448C15.7956 30.4759 17.766 31.9726 20.1722 32.2416L20.176 32.2378Z" fill="#088036"/>
<path d="M23.7682 31.9954C22.6276 32.7419 21.3544 33.2421 20.0396 33.4846C18.8081 32.9617 17.6751 32.1963 16.7278 31.2148C17.7774 31.7453 18.9407 32.1015 20.1798 32.2379C21.4189 32.3743 22.6314 32.2834 23.772 31.9954H23.7682Z" fill="#009739"/>
<path d="M24.7647 34.2651C23.1354 34.3864 21.5136 34.1097 20.0396 33.4845C21.3582 33.2458 22.6276 32.7456 23.7682 31.9954C25.0944 31.6619 26.3221 31.0632 27.3945 30.2599C26.8564 31.768 25.9621 33.1473 24.7647 34.2651Z" fill="#6EB42C"/>
<path d="M28.0728 33.4353C26.9928 33.909 25.8788 34.178 24.7686 34.2614C25.966 33.1436 26.8602 31.7643 27.3983 30.2562C28.679 29.2937 29.7287 28.0281 30.4372 26.5541C30.6873 27.6378 30.7631 28.7821 30.6343 29.953C30.5471 30.7525 30.3653 31.5218 30.1076 32.2493C29.4937 32.7116 28.8155 33.1132 28.0766 33.4353H28.0728Z" fill="#A9C817"/>
<path d="M30.1001 32.2492C30.3578 31.5217 30.5396 30.7563 30.6268 29.953C30.7556 28.7821 30.6798 27.6377 30.4298 26.554C30.911 25.5499 31.2369 24.4472 31.3657 23.2801C31.4529 22.4806 31.4453 21.6886 31.3543 20.9232C32.8094 22.6322 33.6279 24.7503 33.7491 26.9216C33.1542 29.0132 31.8962 30.9003 30.1001 32.2492Z" fill="#DBDA05"/>
<path d="M33.355 20.2412C34.2758 22.4428 34.3629 24.7883 33.7529 26.9254C33.6316 24.7542 32.8169 22.636 31.3581 20.9271C31.089 18.699 30.0811 16.6642 28.573 15.103C30.604 16.1261 32.3054 17.8351 33.2868 20.0821C33.3095 20.1351 33.3323 20.1882 33.355 20.2412Z" fill="#F0E63C"/>
<path d="M33.355 20.2412C33.3323 20.1881 33.3096 20.1351 33.2868 20.082C32.3016 17.835 30.6041 16.1261 28.573 15.103C27.0498 13.5304 25.0112 12.4391 22.6846 12.1208C27.5878 12.765 31.5476 15.9745 33.355 20.2412Z" fill="#FEF07C"/>
<path d="M8.67954 31.1656C8.64165 31.0822 8.60375 31.0026 8.56965 30.9193C8.53176 30.8359 8.49766 30.7526 8.46355 30.6692C7.57687 28.4942 7.50109 26.1827 8.09979 24.0759C8.22104 26.2472 9.03573 28.3653 10.4946 30.0743C10.7674 32.3024 11.7716 34.341 13.2835 35.8983C11.3282 34.9131 9.6799 33.2913 8.67954 31.1656Z" fill="#F1A4C8"/>
<path d="M13.2835 35.8983C11.7716 34.3371 10.7637 32.3023 10.4946 30.0742C10.9948 30.6615 11.5708 31.1996 12.2187 31.6771C13.166 32.3743 14.1967 32.882 15.2615 33.2079C15.8905 34.1287 16.6824 34.9585 17.6298 35.6558C18.2777 36.1332 18.9636 36.5197 19.6721 36.8228C17.4668 37.2283 15.2236 36.8759 13.2835 35.8983Z" fill="#50C1F0"/>
<path d="M10.4946 30.0743C9.03958 28.3654 8.2249 26.2434 8.09985 24.0759C8.69476 21.9881 9.95658 20.101 11.7527 18.7521C11.4912 19.4796 11.3131 20.245 11.226 21.0446C11.0971 22.2116 11.1691 23.3598 11.423 24.4435C10.938 25.4476 10.6159 26.5503 10.4871 27.7212C10.3961 28.5207 10.4037 29.3089 10.4984 30.0743H10.4946Z" fill="#EA67A2"/>
<path d="M8.67944 31.1655C9.6798 33.2913 11.3281 34.9131 13.2834 35.8983C14.8673 37.5314 17.0044 38.6417 19.4409 38.9145C19.4977 38.9221 19.5545 38.9259 19.6114 38.9335C14.9961 38.4787 10.7522 35.6558 8.67944 31.1693V31.1655Z" fill="#F6C5DD"/>
<path d="M8.09978 24.0759C7.50108 26.1827 7.57308 28.4942 8.45976 30.6692C6.59167 26.16 7.34572 21.1923 10.055 17.5016C8.60375 19.4796 7.97095 21.8024 8.09978 24.0759Z" fill="#FAD6C8"/>
<path d="M13.2834 35.8983C15.2235 36.8759 17.463 37.2283 19.6721 36.8229C21.7372 37.702 24.0032 37.8498 26.11 37.3193C24.2533 38.5394 21.9873 39.1533 19.6115 38.9335C19.5546 38.9259 19.4978 38.9221 19.4409 38.9145C17.0045 38.6455 14.8673 37.5315 13.2834 35.8983Z" fill="#9CD7F6"/>
<path d="M11.7526 18.7482C9.95653 20.0972 8.69851 21.9842 8.09981 24.0759C7.97097 21.8061 8.60377 19.4795 10.0551 17.5053C11.5063 15.5312 13.5411 14.2352 15.7465 13.682C13.9276 14.8718 12.5029 16.6376 11.7526 18.752V18.7482Z" fill="#F5AA90"/>
<path d="M12.2188 31.6771C11.5708 31.1997 10.9949 30.6616 10.4947 30.0743C10.4 29.3089 10.3924 28.5207 10.4833 27.7212C10.6121 26.5503 10.938 25.4476 11.4193 24.4435C11.7868 26.0387 12.5371 27.5014 13.5715 28.7253C13.7686 30.3168 14.337 31.859 15.2577 33.208C14.193 32.8821 13.1623 32.3743 12.215 31.6771H12.2188Z" fill="#1CABE3"/>
<path d="M13.5715 28.7252C12.5332 27.5051 11.7867 26.0387 11.4192 24.4434C12.1278 22.9694 13.1774 21.7038 14.4582 20.7413C14.0072 22.0031 13.8026 23.3559 13.8822 24.72C13.5071 26.0311 13.4123 27.3952 13.5753 28.7252H13.5715Z" fill="#189CD9"/>
<path d="M11.4191 24.4435C11.1652 23.3598 11.0932 22.2116 11.222 21.0446C11.313 20.245 11.4911 19.4758 11.7488 18.7521C12.3626 18.286 13.0447 17.8881 13.7798 17.566C14.8597 17.0924 15.9737 16.8234 17.084 16.74C15.8866 17.854 14.9923 19.2371 14.4543 20.7452C13.1735 21.7077 12.1239 22.9733 11.4153 24.4473L11.4191 24.4435Z" fill="#E7378B"/>
<path d="M10.0549 17.5054C11.4115 15.6524 13.2606 14.1254 15.5114 13.1402C17.7622 12.1512 20.1381 11.8291 22.4192 12.083C19.9827 11.8139 17.6523 12.4316 15.7501 13.6782C13.5448 14.2315 11.51 15.5274 10.0587 17.5016L10.0549 17.5054Z" fill="#FEF07C"/>
<path d="M13.8821 24.72C13.8063 23.3559 14.0071 22.0031 14.4581 20.7413C15.5266 19.9342 16.7581 19.3393 18.0806 19.0059C17.1522 19.6159 16.3072 20.3889 15.591 21.3211C15.5494 21.3741 15.5077 21.431 15.466 21.4878C15.4167 21.5522 15.3713 21.6204 15.3258 21.6848C14.6589 22.6359 14.1777 23.6628 13.8783 24.7238L13.8821 24.72Z" fill="#0286C0"/>
<path d="M14.458 20.7414C14.9961 19.2333 15.8903 17.854 17.0877 16.7362C18.7171 16.6111 20.3389 16.8915 21.8129 17.5168C20.4943 17.7555 19.2249 18.2595 18.0805 19.0059C16.7581 19.3394 15.5266 19.9381 14.458 20.7414Z" fill="#E40D7E"/>
<path d="M13.7837 17.5622C13.0486 17.8842 12.3665 18.2859 11.7527 18.7482C12.503 16.6338 13.9277 14.868 15.7465 13.6782C17.8534 13.1477 20.1193 13.2955 22.1844 14.1746C21.4266 14.311 20.6725 14.5421 19.9336 14.8642C18.8575 15.3379 17.8988 15.9745 17.0879 16.7361C15.9777 16.8195 14.8636 17.0885 13.7837 17.5622Z" fill="#EF7C5B"/>
<path d="M19.6116 38.9297C21.9874 39.1532 24.2534 38.5356 26.1101 37.3155C28.2662 36.7736 30.2555 35.5269 31.6992 33.6285C30.354 35.4171 28.5428 36.8911 26.3488 37.8535C24.1549 38.816 21.8396 39.1494 19.6116 38.9259V38.9297Z" fill="#D2EBFB"/>
<path d="M20.3883 32.2568C21.4682 32.3478 22.5899 32.1734 23.6508 31.7074C24.7005 31.2489 25.5758 30.5517 26.2389 29.7104C25.5303 30.6274 24.6929 31.3891 23.7721 31.9916C22.6922 32.2644 21.5516 32.3591 20.3845 32.253L20.3883 32.2568Z" fill="#9A3315"/>
<path d="M18.2095 19.2901C17.1448 19.7562 16.2619 20.4648 15.595 21.3173C16.3073 20.3852 17.1523 19.6122 18.0845 19.0021C19.1493 18.7331 20.2785 18.6346 21.4342 18.7369C20.3656 18.6573 19.2629 18.8316 18.2133 19.2901H18.2095Z" fill="#096E9A"/>
<path d="M15.7463 13.6782C17.6485 12.4316 19.9789 11.8139 22.4154 12.0867C24.8519 12.3558 26.989 13.4698 28.5729 15.0992C26.6328 14.1216 24.3896 13.7692 22.1842 14.1784C20.1191 13.2993 17.8532 13.1515 15.7463 13.682V13.6782Z" fill="#FFDC37"/>
<path d="M27.3984 30.2562C26.3298 31.0633 25.0983 31.6582 23.7759 31.9916C24.6967 31.3891 25.5341 30.6275 26.2427 29.7105C26.2578 29.6916 26.273 29.6726 26.2881 29.6499C26.3867 29.5248 26.4814 29.3922 26.5685 29.2596C26.5685 29.2596 26.5685 29.2558 26.5723 29.252C27.2165 28.3199 27.6826 27.3119 27.9743 26.2775C28.0501 27.6416 27.8493 28.9943 27.3984 30.2562Z" fill="#C13E18"/>
<path d="M18.0806 19.0021C19.2249 18.2556 20.4943 17.7555 21.813 17.5129C23.0483 18.0359 24.1774 18.8051 25.1323 19.7865C24.1699 19.2977 23.1089 18.9566 21.9835 18.8013C21.9721 18.8013 21.9607 18.7975 21.9494 18.7975C21.8584 18.7823 21.7675 18.771 21.6765 18.7634C21.5932 18.752 21.5098 18.7444 21.4302 18.7407C20.2745 18.6383 19.1453 18.7407 18.0806 19.0059V19.0021Z" fill="#C00B6C"/>
<path d="M17.0879 16.7362C17.9026 15.9784 18.8575 15.338 19.9336 14.8643C20.6687 14.5422 21.4228 14.3111 22.1844 14.1747C22.8968 14.474 23.5788 14.8643 24.2306 15.3418C25.1779 16.039 25.9699 16.8688 26.5989 17.7896C25.0339 17.3122 23.3932 17.2288 21.8169 17.5168C20.3428 16.8916 18.7211 16.6149 17.0917 16.7362H17.0879Z" fill="#E8452E"/>
<path d="M26.5762 29.2558C27.8077 27.3991 28.0994 24.9702 27.1408 22.78C27.6409 23.9206 27.9138 25.1066 27.9782 26.2813C27.6864 27.3195 27.2203 28.3237 26.5762 29.2558Z" fill="#981915"/>
<path d="M27.137 22.7762C26.1745 20.5784 24.1852 19.1499 21.9836 18.8013C23.109 18.9566 24.1662 19.2977 25.1325 19.7865C25.9548 20.6315 26.6368 21.6356 27.137 22.7762Z" fill="#9C1258"/>
<path d="M27.3983 30.2561C27.8492 28.9943 28.0539 27.6416 27.9743 26.2774C28.3494 24.9664 28.4479 23.6022 28.2812 22.2722C29.3195 23.4923 30.0659 24.9588 30.4335 26.5503C29.7249 28.0243 28.6753 29.2899 27.3945 30.2561H27.3983Z" fill="#EE7806"/>
<path d="M25.1324 19.7865C24.1813 18.8051 23.0483 18.0397 21.813 17.5129C23.3893 17.225 25.03 17.3121 26.595 17.7858C27.5196 19.1347 28.088 20.677 28.285 22.2684C27.4173 21.2491 26.3487 20.3966 25.1324 19.7827V19.7865Z" fill="#E20E17"/>
<path d="M27.9782 26.2775C27.9137 25.1028 27.6409 23.9168 27.1407 22.7762C26.6406 21.6356 25.9547 20.6315 25.1362 19.7865C26.3526 20.4004 27.4249 21.2529 28.2889 22.2722C28.4518 23.6023 28.3533 24.9626 27.9819 26.2775H27.9782Z" fill="#BE1818"/>
<path d="M24.2269 15.3418C23.5789 14.8643 22.893 14.4778 22.1807 14.1747C24.3898 13.7692 26.6292 14.1216 28.5693 15.0955C30.0812 16.6566 31.0891 18.6914 31.3582 20.9195C30.858 20.3322 30.282 19.7941 29.6341 19.3167C28.6868 18.6194 27.6561 18.1117 26.5875 17.7858C25.9623 16.865 25.1704 16.0352 24.2193 15.338L24.2269 15.3418Z" fill="#FEC905"/>
<path d="M30.4373 26.554C30.0697 24.9626 29.3194 23.4961 28.285 22.276C28.0917 20.6845 27.5195 19.1423 26.595 17.7933C27.6597 18.1192 28.6904 18.627 29.6415 19.3242C30.2895 19.8016 30.8654 20.3397 31.3656 20.927C31.4603 21.6925 31.4679 22.4806 31.377 23.2801C31.2481 24.451 30.9223 25.5499 30.441 26.554H30.4373Z" fill="#F6A207"/>
<path d="M13.8821 24.7124C14.2042 23.5795 14.7309 22.4844 15.4698 21.4802C14.0488 23.4127 13.8025 25.8492 14.6058 27.9333C14.1776 26.8799 13.9427 25.7924 13.8859 24.7124H13.8821Z" fill="#40277F"/>
<path d="M13.5714 28.7215C13.4085 27.3915 13.507 26.0274 13.8783 24.7125C13.9352 25.7925 14.1739 26.88 14.5983 27.9334C14.5983 27.941 14.5983 27.9447 14.6059 27.9485C14.6627 28.0925 14.7233 28.2327 14.7878 28.3729C14.7916 28.3843 14.7991 28.3957 14.8029 28.4032C15.2955 29.468 15.9511 30.4077 16.7241 31.2073C15.5077 30.5896 14.4392 29.7408 13.5714 28.7177V28.7215Z" fill="#682F88"/>
<path d="M15.2614 33.2041C14.3406 31.8551 13.7684 30.3129 13.5752 28.7214C14.4429 29.7407 15.5115 30.5933 16.7278 31.211C17.6789 32.1886 18.8119 32.9578 20.0434 33.4807C18.4671 33.7687 16.8264 33.6853 15.2614 33.2041Z" fill="#854E99"/>
<path d="M17.6297 35.6557C16.6824 34.9585 15.8905 34.1249 15.2615 33.2079C16.8264 33.6853 18.4672 33.7687 20.0435 33.4845C21.5175 34.1097 23.1393 34.3863 24.7724 34.2651C23.9578 35.0267 23.0029 35.6633 21.9229 36.137C21.1878 36.459 20.4338 36.6864 19.6759 36.8266C18.9673 36.5273 18.2777 36.137 17.6297 35.6595V35.6557Z" fill="#A37BB4"/>
<path d="M33.2907 20.0782C35.1247 24.2691 34.7761 29.2823 31.9607 33.2724C33.3021 31.3436 33.878 29.1042 33.7568 26.9178C34.3782 24.7314 34.2721 22.3253 33.2907 20.0782Z" fill="#E7E4F3"/>
<path d="M19.6758 36.8229C20.4336 36.6827 21.1877 36.4553 21.9228 36.1332C23.0027 35.6596 23.9576 35.023 24.7723 34.2614C25.8825 34.178 27.0004 33.909 28.0765 33.4353C28.8116 33.1132 29.4937 32.7116 30.1075 32.2493C29.3535 34.3637 27.9287 36.1294 26.1099 37.3193C24.0031 37.846 21.7371 37.702 19.6758 36.8229Z" fill="#C4A2CD"/>
<path d="M26.1101 37.3193C27.9289 36.1295 29.3537 34.3599 30.1077 32.2493C31.9038 30.9003 33.1619 29.0095 33.7568 26.9216C33.8818 29.108 33.3021 31.3475 31.9607 33.2762C31.9076 33.3482 31.8546 33.424 31.8015 33.4959C31.7485 33.5679 31.6916 33.6399 31.6386 33.7119C30.1987 35.5649 28.2321 36.785 26.1101 37.3193Z" fill="#DAC6E1"/>
<path d="M20.176 32.2378C18.9369 32.1014 17.7736 31.7452 16.724 31.2148C15.9548 30.4266 15.3068 29.4944 14.8142 28.4448C15.7956 30.4759 17.766 31.9726 20.1722 32.2416L20.176 32.2378Z" fill="#0C9856"/>
<path d="M23.7682 31.9954C22.6276 32.7419 21.3544 33.2421 20.0396 33.4846C18.8081 32.9617 17.6751 32.1963 16.7278 31.2148C17.7774 31.7453 18.9407 32.1015 20.1798 32.2379C21.4189 32.3743 22.6314 32.2834 23.772 31.9954H23.7682Z" fill="#68B058"/>
<path d="M24.7647 34.2651C23.1354 34.3864 21.5136 34.1097 20.0396 33.4845C21.3582 33.2458 22.6276 32.7456 23.7682 31.9954C25.0944 31.6619 26.3221 31.0632 27.3945 30.2599C26.8564 31.768 25.9621 33.1473 24.7647 34.2651Z" fill="#9DC658"/>
<path d="M28.0728 33.4353C26.9928 33.909 25.8788 34.178 24.7686 34.2614C25.966 33.1436 26.8602 31.7643 27.3983 30.2562C28.679 29.2937 29.7287 28.0281 30.4372 26.5541C30.6873 27.6378 30.7631 28.7821 30.6343 29.953C30.5471 30.7525 30.3653 31.5218 30.1076 32.2493C29.4937 32.7116 28.8155 33.1132 28.0766 33.4353H28.0728Z" fill="#C6D551"/>
<path d="M30.1001 32.2492C30.3578 31.5217 30.5396 30.7563 30.6268 29.953C30.7556 28.7821 30.6798 27.6377 30.4298 26.554C30.911 25.5499 31.2369 24.4472 31.3657 23.2801C31.4529 22.4806 31.4453 21.6886 31.3543 20.9232C32.8094 22.6322 33.6279 24.7503 33.7491 26.9216C33.1542 29.0132 31.8962 30.9003 30.1001 32.2492Z" fill="#EAE44D"/>
<path d="M33.355 20.2412C34.2758 22.4428 34.3629 24.7883 33.7529 26.9254C33.6316 24.7542 32.8169 22.636 31.3581 20.9271C31.089 18.699 30.0811 16.6642 28.573 15.103C30.604 16.1261 32.3054 17.8351 33.2868 20.0821C33.3095 20.1351 33.3323 20.1882 33.355 20.2412Z" fill="#FAEF7D"/>
<path d="M33.355 20.2412C33.3323 20.1881 33.3096 20.1351 33.2868 20.082C32.3016 17.835 30.6041 16.1261 28.573 15.103C27.0498 13.5304 25.0112 12.4391 22.6846 12.1208C27.5878 12.765 31.5476 15.9745 33.355 20.2412Z" fill="#FEF4A5"/>
<path d="M8.67954 31.1656C8.64165 31.0822 8.60375 31.0026 8.56965 30.9193C8.53176 30.8359 8.49766 30.7526 8.46355 30.6692C7.57687 28.4942 7.50109 26.1827 8.09979 24.0759C8.22104 26.2472 9.03573 28.3653 10.4946 30.0743C10.7674 32.3024 11.7716 34.341 13.2835 35.8983C11.3282 34.9131 9.6799 33.2913 8.67954 31.1656Z" fill="#F6C0D9"/>
<path d="M13.2835 35.8983C11.7716 34.3371 10.7637 32.3023 10.4946 30.0742C10.9948 30.6615 11.5708 31.1996 12.2187 31.6771C13.166 32.3743 14.1967 32.882 15.2615 33.2079C15.8905 34.1287 16.6824 34.9585 17.6298 35.6558C18.2777 36.1332 18.9636 36.5197 19.6721 36.8228C17.4668 37.2283 15.2236 36.8759 13.2835 35.8983Z" fill="#90D2F5"/>
<path d="M10.4946 30.0743C9.03958 28.3654 8.2249 26.2434 8.09985 24.0759C8.69476 21.9881 9.95658 20.101 11.7527 18.7521C11.4912 19.4796 11.3131 20.245 11.226 21.0446C11.0971 22.2116 11.1691 23.3598 11.423 24.4435C10.938 25.4476 10.6159 26.5503 10.4871 27.7212C10.3961 28.5207 10.4037 29.3089 10.4984 30.0743H10.4946Z" fill="#F094BD"/>
<path d="M8.67944 31.1655C9.6798 33.2913 11.3281 34.9131 13.2834 35.8983C14.8673 37.5314 17.0044 38.6417 19.4409 38.9145C19.4977 38.9221 19.5545 38.9259 19.6114 38.9335C14.9961 38.4787 10.7522 35.6558 8.67944 31.1693V31.1655Z" fill="#F8D8E9"/>
<path d="M8.09978 24.0759C7.50108 26.1827 7.57308 28.4942 8.45976 30.6692C6.59167 26.16 7.34572 21.1923 10.055 17.5016C8.60375 19.4796 7.97095 21.8024 8.09978 24.0759Z" fill="#FDE6DD"/>
<path d="M13.2834 35.8983C15.2235 36.8759 17.463 37.2283 19.6721 36.8229C21.7372 37.702 24.0032 37.8498 26.11 37.3193C24.2533 38.5394 21.9873 39.1533 19.6115 38.9335C19.5546 38.9259 19.4978 38.9221 19.4409 38.9145C17.0045 38.6455 14.8673 37.5315 13.2834 35.8983Z" fill="#BCE3F9"/>
<path d="M11.7526 18.7482C9.95653 20.0972 8.69851 21.9842 8.09981 24.0759C7.97097 21.8061 8.60377 19.4795 10.0551 17.5053C11.5063 15.5312 13.5411 14.2352 15.7465 13.682C13.9276 14.8718 12.5029 16.6376 11.7526 18.752V18.7482Z" fill="#F8C4AE"/>
<path d="M12.2188 31.6771C11.5708 31.1997 10.9949 30.6616 10.4947 30.0743C10.4 29.3089 10.3924 28.5207 10.4833 27.7212C10.6121 26.5503 10.938 25.4476 11.4193 24.4435C11.7868 26.0387 12.5371 27.5014 13.5715 28.7253C13.7686 30.3168 14.337 31.859 15.2577 33.208C14.193 32.8821 13.1623 32.3743 12.215 31.6771H12.2188Z" fill="#50C1F0"/>
<path d="M13.5715 28.7252C12.5332 27.5051 11.7867 26.0387 11.4192 24.4434C12.1278 22.9694 13.1774 21.7038 14.4582 20.7413C14.0072 22.0031 13.8026 23.3559 13.8822 24.72C13.5071 26.0311 13.4123 27.3952 13.5753 28.7252H13.5715Z" fill="#1DAFE6"/>
<path d="M11.4191 24.4435C11.1652 23.3598 11.0932 22.2116 11.222 21.0446C11.313 20.245 11.4911 19.4758 11.7488 18.7521C12.3626 18.286 13.0447 17.8881 13.7798 17.566C14.8597 17.0924 15.9737 16.8234 17.084 16.74C15.8866 17.854 14.9923 19.2371 14.4543 20.7452C13.1735 21.7077 12.1239 22.9733 11.4153 24.4473L11.4191 24.4435Z" fill="#EC77AB"/>
<path d="M10.0549 17.5054C11.4115 15.6524 13.2606 14.1254 15.5114 13.1402C17.7622 12.1512 20.1381 11.8291 22.4192 12.083C19.9827 11.8139 17.6523 12.4316 15.7501 13.6782C13.5448 14.2315 11.51 15.5274 10.0587 17.5016L10.0549 17.5054Z" fill="#FEF4A5"/>
<path d="M13.8821 24.72C13.8063 23.3559 14.0071 22.0031 14.4581 20.7413C15.5266 19.9342 16.7581 19.3393 18.0806 19.0059C17.1522 19.6159 16.3072 20.3889 15.591 21.3211C15.5494 21.3741 15.5077 21.431 15.466 21.4878C15.4167 21.5522 15.3713 21.6204 15.3258 21.6848C14.6589 22.6359 14.1777 23.6628 13.8783 24.7238L13.8821 24.72Z" fill="#019FD3"/>
<path d="M14.458 20.7414C14.9961 19.2333 15.8903 17.854 17.0877 16.7362C18.7171 16.6111 20.3389 16.8915 21.8129 17.5168C20.4943 17.7555 19.2249 18.2595 18.0805 19.0059C16.7581 19.3394 15.5266 19.9381 14.458 20.7414Z" fill="#E85699"/>
<path d="M13.7837 17.5622C13.0486 17.8842 12.3665 18.2859 11.7527 18.7482C12.503 16.6338 13.9277 14.868 15.7465 13.6782C17.8534 13.1477 20.1193 13.2955 22.1844 14.1746C21.4266 14.311 20.6725 14.5421 19.9336 14.8642C18.8575 15.3379 17.8988 15.9745 17.0879 16.7361C15.9777 16.8195 14.8636 17.0885 13.7837 17.5622Z" fill="#F4A183"/>
<path d="M19.6116 38.9297C21.9874 39.1532 24.2534 38.5356 26.1101 37.3155C28.2662 36.7736 30.2555 35.5269 31.6992 33.6285C30.354 35.4171 28.5428 36.8911 26.3488 37.8535C24.1549 38.816 21.8396 39.1494 19.6116 38.9259V38.9297Z" fill="#E2F2FD"/>
<path d="M20.3883 32.2568C21.4682 32.3478 22.5899 32.1734 23.6508 31.7074C24.7005 31.2489 25.5758 30.5517 26.2389 29.7104C25.5303 30.6274 24.6929 31.3891 23.7721 31.9916C22.6922 32.2644 21.5516 32.3591 20.3845 32.253L20.3883 32.2568Z" fill="#B8612E"/>
<path d="M18.2095 19.2901C17.1448 19.7562 16.2619 20.4648 15.595 21.3173C16.3073 20.3852 17.1523 19.6122 18.0845 19.0021C19.1493 18.7331 20.2785 18.6346 21.4342 18.7369C20.3656 18.6573 19.2629 18.8316 18.2133 19.2901H18.2095Z" fill="#028AB6"/>
<path d="M15.7463 13.6782C17.6485 12.4316 19.9789 11.8139 22.4154 12.0867C24.8519 12.3558 26.989 13.4698 28.5729 15.0992C26.6328 14.1216 24.3896 13.7692 22.1842 14.1784C20.1191 13.2993 17.8532 13.1515 15.7463 13.682V13.6782Z" fill="#FFEB7B"/>
<path d="M27.3984 30.2562C26.3298 31.0633 25.0983 31.6582 23.7759 31.9916C24.6967 31.3891 25.5341 30.6275 26.2427 29.7105C26.2578 29.6916 26.273 29.6726 26.2881 29.6499C26.3867 29.5248 26.4814 29.3922 26.5685 29.2596C26.5685 29.2596 26.5685 29.2558 26.5723 29.252C27.2165 28.3199 27.6826 27.3119 27.9743 26.2775C28.0501 27.6416 27.8493 28.9943 27.3984 30.2562Z" fill="#D66E35"/>
<path d="M18.0806 19.0021C19.2249 18.2556 20.4943 17.7555 21.813 17.5129C23.0483 18.0359 24.1774 18.8051 25.1323 19.7865C24.1699 19.2977 23.1089 18.9566 21.9835 18.8013C21.9721 18.8013 21.9607 18.7975 21.9494 18.7975C21.8584 18.7823 21.7675 18.771 21.6765 18.7634C21.5932 18.752 21.5098 18.7444 21.4302 18.7407C20.2745 18.6383 19.1453 18.7407 18.0806 19.0059V19.0021Z" fill="#D34D89"/>
<path d="M17.0879 16.7362C17.9026 15.9784 18.8575 15.338 19.9336 14.8643C20.6687 14.5422 21.4228 14.3111 22.1844 14.1747C22.8968 14.474 23.5788 14.8643 24.2306 15.3418C25.1779 16.039 25.9699 16.8688 26.5989 17.7896C25.0339 17.3122 23.3932 17.2288 21.8169 17.5168C20.3428 16.8916 18.7211 16.6149 17.0917 16.7362H17.0879Z" fill="#EF7C5B"/>
<path d="M26.5762 29.2558C27.8077 27.3991 28.0994 24.9702 27.1408 22.78C27.6409 23.9206 27.9138 25.1066 27.9782 26.2813C27.6864 27.3195 27.2203 28.3237 26.5762 29.2558Z" fill="#B44229"/>
<path d="M27.137 22.7762C26.1745 20.5784 24.1852 19.1499 21.9836 18.8013C23.109 18.9566 24.1662 19.2977 25.1325 19.7865C25.9548 20.6315 26.6368 21.6356 27.137 22.7762Z" fill="#B64378"/>
<path d="M27.3983 30.2561C27.8492 28.9943 28.0539 27.6416 27.9743 26.2774C28.3494 24.9664 28.4479 23.6022 28.2812 22.2722C29.3195 23.4923 30.0659 24.9588 30.4335 26.5503C29.7249 28.0243 28.6753 29.2899 27.3945 30.2561H27.3983Z" fill="#F59C43"/>
<path d="M25.1324 19.7865C24.1813 18.8051 23.0483 18.0397 21.813 17.5129C23.3893 17.225 25.03 17.3121 26.595 17.7858C27.5196 19.1347 28.088 20.677 28.285 22.2684C27.4173 21.2491 26.3487 20.3966 25.1324 19.7827V19.7865Z" fill="#E95238"/>
<path d="M27.9782 26.2775C27.9137 25.1028 27.6409 23.9168 27.1407 22.7762C26.6406 21.6356 25.9547 20.6315 25.1362 19.7865C26.3526 20.4004 27.4249 21.2529 28.2889 22.2722C28.4518 23.6023 28.3533 24.9626 27.9819 26.2775H27.9782Z" fill="#D24C31"/>
<path d="M24.2269 15.3418C23.5789 14.8643 22.893 14.4778 22.1807 14.1747C24.3898 13.7692 26.6292 14.1216 28.5693 15.0955C30.0812 16.6566 31.0891 18.6914 31.3582 20.9195C30.858 20.3322 30.282 19.7941 29.6341 19.3167C28.6868 18.6194 27.6561 18.1117 26.5875 17.7858C25.9623 16.865 25.1704 16.0352 24.2193 15.338L24.2269 15.3418Z" fill="#FFD948"/>
<path d="M30.4373 26.554C30.0697 24.9626 29.3194 23.4961 28.285 22.276C28.0917 20.6845 27.5195 19.1423 26.595 17.7933C27.6597 18.1192 28.6904 18.627 29.6415 19.3242C30.2895 19.8016 30.8654 20.3397 31.3656 20.927C31.4603 21.6925 31.4679 22.4806 31.377 23.2801C31.2481 24.451 30.9223 25.5499 30.441 26.554H30.4373Z" fill="#FABC45"/>
<path d="M13.8821 24.7124C14.2042 23.5795 14.7309 22.4844 15.4698 21.4802C14.0488 23.4127 13.8025 25.8492 14.6058 27.9333C14.1776 26.8799 13.9427 25.7924 13.8859 24.7124H13.8821Z" fill="#6A4997"/>
<path d="M13.5714 28.7215C13.4085 27.3915 13.507 26.0274 13.8783 24.7125C13.9352 25.7925 14.1739 26.88 14.5983 27.9334C14.5983 27.941 14.5983 27.9447 14.6059 27.9485C14.6627 28.0925 14.7233 28.2327 14.7878 28.3729C14.7916 28.3843 14.7991 28.3957 14.8029 28.4032C15.2955 29.468 15.9511 30.4077 16.7241 31.2073C15.5077 30.5896 14.4392 29.7408 13.5714 28.7177V28.7215Z" fill="#8B5DA3"/>
<path d="M15.2614 33.2041C14.3406 31.8551 13.7684 30.3129 13.5752 28.7214C14.4429 29.7407 15.5115 30.5933 16.7278 31.211C17.6789 32.1886 18.8119 32.9578 20.0434 33.4807C18.4671 33.7687 16.8264 33.6853 15.2614 33.2041Z" fill="#A279B2"/>
<path d="M17.6297 35.6557C16.6824 34.9585 15.8905 34.1249 15.2615 33.2079C16.8264 33.6853 18.4672 33.7687 20.0435 33.4845C21.5175 34.1097 23.1393 34.3863 24.7724 34.2651C23.9578 35.0267 23.0029 35.6633 21.9229 36.137C21.1878 36.459 20.4338 36.6864 19.6759 36.8266C18.9673 36.5273 18.2777 36.137 17.6297 35.6595V35.6557Z" fill="#BB9ECA"/>
<path d="M33.2907 20.0782C35.1247 24.2691 34.7761 29.2823 31.9607 33.2724C33.3021 31.3436 33.878 29.1042 33.7568 26.9178C34.3782 24.7314 34.2721 22.3253 33.2907 20.0782Z" fill="#F3F1F9"/>
<path d="M19.6758 36.8229C20.4336 36.6827 21.1877 36.4553 21.9228 36.1332C23.0027 35.6596 23.9576 35.023 24.7723 34.2614C25.8825 34.178 27.0004 33.909 28.0765 33.4353C28.8116 33.1132 29.4937 32.7116 30.1075 32.2493C29.3535 34.3637 27.9287 36.1294 26.1099 37.3193C24.0031 37.846 21.7371 37.702 19.6758 36.8229Z" fill="#D5BEDC"/>
<path d="M26.1101 37.3193C27.9289 36.1295 29.3537 34.3599 30.1077 32.2493C31.9038 30.9003 33.1619 29.0095 33.7568 26.9216C33.8818 29.108 33.3021 31.3475 31.9607 33.2762C31.9076 33.3482 31.8546 33.424 31.8015 33.4959C31.7485 33.5679 31.6916 33.6399 31.6386 33.7119C30.1987 35.5649 28.2321 36.785 26.1101 37.3193Z" fill="#E7D8EB"/>
<path d="M20.9263 32.3554C24.712 32.3554 27.781 29.2865 27.781 25.5007C27.781 21.715 24.712 18.646 20.9263 18.646C17.1405 18.646 14.0715 21.715 14.0715 25.5007C14.0715 29.2865 17.1405 32.3554 20.9263 32.3554Z" fill="white"/>
<path d="M17.5578 30.3282L17.0766 29.9758C16.8947 29.8394 16.6332 29.881 16.4968 30.0629L15.7882 31.0254C15.7579 31.0633 15.7049 31.0747 15.667 31.0443L15.6442 31.0292C15.4624 30.8928 15.2009 30.9345 15.0645 31.1163L12.6129 34.4509C12.4764 34.6327 12.5181 34.8942 12.7 35.0306L14.0338 36.012C14.2157 36.1484 14.4772 36.1068 14.6136 35.9249L17.0652 32.5903C17.2016 32.4085 17.1599 32.147 16.9781 32.0106L16.9553 31.9954C16.9174 31.9651 16.9061 31.9121 16.9364 31.8742L17.645 30.9117C17.7814 30.7298 17.7397 30.4684 17.5578 30.332V30.3282Z" fill="white"/>
<path d="M53.0901 20.9429L52.9062 20.7713C52.6548 20.5444 52.385 20.336 52.1091 20.1336C51.7596 19.8823 51.3918 19.6677 50.9994 19.4837C50.607 19.2998 50.2146 19.1527 49.8038 19.0484C49.393 18.9442 48.9761 18.8951 48.5592 18.8951C47.6456 18.8951 46.7873 19.0607 45.9841 19.3918C45.1809 19.7228 44.482 20.1888 43.875 20.7897C43.2741 21.3905 42.802 22.1079 42.4525 22.9478C42.1031 23.7878 41.9314 24.7075 41.9314 25.7069C41.9314 26.7798 42.1031 27.7363 42.4525 28.5824C42.802 29.4285 43.2741 30.1336 43.875 30.716C44.4758 31.2985 45.1809 31.7399 45.9841 32.0465C46.7873 32.353 47.6456 32.5002 48.5592 32.5002C48.9761 32.5002 49.393 32.4511 49.7977 32.3469C50.2023 32.2427 50.6009 32.1017 50.9871 31.9177C51.3734 31.7399 51.7413 31.5253 52.0969 31.2801C52.3789 31.0839 52.6487 30.8754 52.9062 30.6608L53.0962 30.4953L54.3776 32.2611H55.1747V19.4163H54.3776L53.0962 20.9429H53.0901ZM48.3936 29.1219C46.4501 29.1219 44.8744 27.5585 44.8744 25.6272C44.8744 23.6958 46.4501 22.1324 48.3936 22.1324C50.3372 22.1324 51.9129 23.6958 51.9129 25.6272C51.9129 27.5585 50.3372 29.1219 48.3936 29.1219Z" fill="#0B2839"/>
<path d="M100.698 20.9429L100.515 20.7713C100.263 20.5444 99.9934 20.336 99.7175 20.1336C99.368 19.8823 99.0002 19.6677 98.6078 19.4837C98.2154 19.2998 97.823 19.1527 97.4122 19.0484C97.0014 18.9442 96.5845 18.8951 96.1676 18.8951C95.254 18.8951 94.3957 19.0607 93.5925 19.3918C92.7893 19.7228 92.0904 20.1888 91.4834 20.7897C90.8825 21.3905 90.4104 22.1079 90.0609 22.9478C89.7115 23.7878 89.5398 24.7075 89.5398 25.7069C89.5398 26.7798 89.7115 27.7363 90.0609 28.5824C90.4104 29.4285 90.8825 30.1336 91.4834 30.716C92.0842 31.2985 92.7893 31.7399 93.5925 32.0465C94.3957 32.353 95.254 32.5002 96.1676 32.5002C96.5845 32.5002 97.0014 32.4511 97.4061 32.3469C97.8107 32.2427 98.2093 32.1017 98.5955 31.9177C98.9818 31.7399 99.3496 31.5253 99.7053 31.2801C99.9873 31.0839 100.257 30.8754 100.515 30.6608L100.705 30.4953L101.986 32.2611H102.783V19.4163H101.986L100.705 20.9429H100.698ZM96.0327 29.1219C94.0891 29.1219 92.5134 27.5585 92.5134 25.6272C92.5134 23.6958 94.0891 22.1324 96.0327 22.1324C97.9763 22.1324 99.552 23.6958 99.552 25.6272C99.552 27.5585 97.9763 29.1219 96.0327 29.1219Z" fill="#0B2839"/>
<path d="M67.6761 25.4187C67.3021 25.0815 66.8668 24.8178 66.3701 24.6339C65.9226 24.4622 65.4443 24.3702 64.9416 24.3518H61.269C61.0728 24.3334 60.9011 24.2476 60.754 24.1005C60.5946 23.9349 60.5149 23.7387 60.5149 23.5057C60.5149 23.2728 60.5946 23.0888 60.754 22.9294C60.895 22.7884 61.0667 22.7087 61.2629 22.6903H68.0317V19.4163H61.1832C60.6682 19.4347 60.1838 19.5389 59.7301 19.7351C59.2273 19.9497 58.792 20.2378 58.4241 20.6057C58.0501 20.9736 57.762 21.4089 57.5474 21.9055C57.3328 22.4021 57.2286 22.9355 57.2286 23.5057C57.2286 24.0759 57.3328 24.6094 57.5474 25.106C57.762 25.6026 58.0563 26.0379 58.4241 26.4119C58.7981 26.7859 59.2335 27.0802 59.7301 27.2948C60.1899 27.491 60.6804 27.6014 61.1954 27.6198H64.868C65.0519 27.632 65.2175 27.6688 65.3524 27.7301C65.5118 27.8037 65.5915 27.957 65.5915 28.1899C65.5915 28.4229 65.5118 28.6069 65.3524 28.7663C65.2113 28.9073 65.0397 28.987 64.8435 29.0054H57.2163V32.2794H64.9232C65.4321 32.261 65.9103 32.1568 66.3701 31.9606C66.8729 31.746 67.3082 31.4579 67.6761 31.0839C68.0501 30.7099 68.3444 30.2807 68.559 29.784C68.7797 29.2936 68.8839 28.7601 68.8839 28.1899C68.8839 27.6198 68.7735 27.1109 68.559 26.6388C68.3382 26.1667 68.0439 25.762 67.6761 25.4248V25.4187Z" fill="#0B2839"/>
<path d="M108.596 19.3917H105.266V32.2672H108.596V19.3917Z" fill="#0B2839"/>
<path d="M78.8595 19.4163L73.9362 25.621V14.2722H70.6069V32.2672H73.9362V30.624L76.2353 27.5952L78.8595 32.2672H82.6608L78.3629 24.781L82.6608 19.4163H78.8595Z" fill="#0B2839"/>
<path fill-rule="evenodd" clip-rule="evenodd" d="M108.988 15.0508C108.871 14.7811 108.712 14.5481 108.51 14.3519C108.307 14.1557 108.074 13.9963 107.798 13.8859C107.529 13.7694 107.24 13.7142 106.934 13.7142C106.627 13.7142 106.339 13.7694 106.069 13.8859C105.8 14.0024 105.567 14.1557 105.364 14.3519C105.168 14.5481 105.009 14.7811 104.892 15.0508C104.776 15.3206 104.714 15.6026 104.714 15.8969C104.714 16.1912 104.776 16.4855 104.892 16.7492C105.009 17.0128 105.168 17.2458 105.364 17.442C105.56 17.6382 105.793 17.7976 106.069 17.9079C106.339 18.0244 106.627 18.0796 106.934 18.0796C107.24 18.0796 107.529 18.0244 107.798 17.9079C108.068 17.7915 108.307 17.6382 108.51 17.442C108.712 17.2458 108.871 17.0128 108.988 16.7492C109.104 16.4855 109.166 16.1974 109.166 15.8969C109.166 15.5965 109.104 15.3206 108.988 15.0508Z" fill="#0B2839"/>
<path d="M85.7938 23.6283H83.3597C82.4217 23.6283 81.6614 24.3887 81.6614 25.3266V25.5228C81.6614 26.4608 82.4217 27.2212 83.3597 27.2212H85.7938C86.7317 27.2212 87.4921 26.4608 87.4921 25.5228V25.3266C87.4921 24.3887 86.7317 23.6283 85.7938 23.6283Z" fill="#0B2839"/>
</svg>
