<svg xmlns="http://www.w3.org/2000/svg" width="318" height="82" viewBox="0 0 159 41" fill="none"><path d="M58.3088 27.1135L67.139 39.6339H57.8939L52.8529 32.4123L47.8154 39.6339H38.5156L47.3475 27.0623L38.5156 14.4395H48.1262L52.8529 21.089L57.5285 14.4395H67.139L58.3601 27.0623L58.3088 27.1135Z" fill="#383874"/><path d="M70.5195 5.76283C70.5195 3.01012 72.7019 0.981445 75.4546 0.981445C78.1561 0.981445 80.3897 3.0067 80.3897 5.76283C80.3897 8.46431 78.1561 10.4913 75.4546 10.4913C72.7019 10.4913 70.5195 8.46431 70.5195 5.76283ZM79.7152 14.4393V39.6338H71.2999V14.4393H79.7152Z" fill="#383874"/><path d="M112.594 27.0628C112.594 34.8547 106.88 40.3089 98.7757 40.3089C90.6712 40.3089 84.9062 34.8547 84.9062 27.0628C84.9062 19.322 90.6729 13.7637 98.7757 13.7637C106.878 13.7637 112.594 19.322 112.594 27.0628ZM104.698 27.0628C104.698 23.4255 102.258 20.8299 98.7757 20.8299C95.2443 20.8299 92.7989 23.4255 92.7989 27.0628C92.7989 30.7512 95.2409 33.2973 98.7757 33.2973C102.258 33.2973 104.698 30.7512 104.698 27.0628Z" fill="#383874"/><path d="M158.616 25.0377V39.6346H150.208V26.0743C150.208 22.6453 148.442 21.3988 146.053 21.3988C144.545 21.3988 143.195 21.8667 141.897 23.3216C141.94 23.8047 141.957 24.2898 141.948 24.7748V39.6312H133.533V25.8164C133.533 22.3875 131.765 21.4005 129.636 21.4005C127.974 21.4005 126.519 22.0238 125.273 23.5299V39.6346H116.805V14.4401H125.273V15.9992C127.039 14.5972 128.961 13.7656 131.762 13.7656C134.984 13.7656 137.633 14.8056 139.446 16.8821C141.939 14.7526 144.537 13.7656 147.814 13.7656C154.357 13.7639 158.616 17.7649 158.616 25.0377Z" fill="#383874"/><path d="M17.0163 0.213867C18.4866 0.213867 19.8219 1.19064 20.4316 2.71385L32.7266 33.26C33.594 35.4117 32.7641 37.9578 30.8755 38.9465C28.9868 39.9352 26.7532 38.9875 25.8875 36.8358L17.0078 14.78L8.1195 36.8376C7.25373 38.9909 5.01843 39.9335 3.12979 38.9448C1.24114 37.9561 0.414644 35.41 1.28212 33.2566L13.5976 2.71214C14.2038 1.18893 15.546 0.213867 17.0163 0.213867Z" fill="#383874"/><path d="M11.2769 8.45996L0.986701 33.3573C0.0560387 35.5294 0.94401 38.0994 2.96927 39.0967C4.99453 40.094 7.39205 39.1445 8.32271 36.9707L17.0095 14.7799L11.2769 8.45996Z" fill="url(#paint0_linear_32_5)"/><path d="M23.9425 11.4385L17.0078 14.7803L25.6604 36.9694C26.6013 39.1415 29.0279 40.0943 31.0805 39.0988C33.133 38.1032 34.033 35.5332 33.0921 33.3594L23.9425 11.4385Z" fill="url(#paint1_linear_32_5)"/><path d="M4.69943 9.69636C5.68369 9.69042 6.6339 10.0564 7.35993 10.7209L31.9619 33.5367C32.3085 33.8476 32.5857 34.228 32.7755 34.6531C32.9653 35.0783 33.0634 35.5386 33.0634 36.0042C33.0634 36.4698 32.9653 36.9302 32.7755 37.3554C32.5857 37.7805 32.3085 38.1609 31.9619 38.4718C31.2316 39.1298 30.2835 39.494 29.3005 39.494C28.3175 39.494 27.3694 39.1298 26.6392 38.4718L2.03893 15.6526C1.69236 15.3419 1.41514 14.9617 1.22536 14.5366C1.03559 14.1116 0.9375 13.6514 0.9375 13.1859C0.9375 12.7205 1.03559 12.2602 1.22536 11.8352C1.41514 11.4102 1.69236 11.0299 2.03893 10.7192C2.7654 10.0556 3.71546 9.69029 4.69943 9.69636Z" fill="url(#paint2_linear_32_5)"/><path d="M29.3066 9.69636C30.2913 9.69083 31.2419 10.0567 31.9688 10.7209C32.3154 11.0316 32.5926 11.4119 32.7824 11.8369C32.9721 12.2619 33.0702 12.7222 33.0702 13.1876C33.0702 13.6531 32.9721 14.1133 32.7824 14.5383C32.5926 14.9634 32.3154 15.3436 31.9688 15.6543L7.36003 38.4718C6.63009 39.1297 5.68224 39.4939 4.69953 39.4939C3.71682 39.4939 2.76897 39.1297 2.03903 38.4718C1.69242 38.1609 1.41518 37.7805 1.22538 37.3553C1.03559 36.9302 0.9375 36.4698 0.9375 36.0042C0.9375 35.5386 1.03559 35.0783 1.22538 34.6531C1.41518 34.2279 1.69242 33.8476 2.03903 33.5367L26.6461 10.7192C27.3727 10.0558 28.3227 9.69062 29.3066 9.69636Z" fill="url(#paint3_linear_32_5)"/><defs><linearGradient id="paint0_linear_32_5" x1="14.4565" y1="7.09044" x2="3.46107" y2="41.2329" gradientUnits="userSpaceOnUse"><stop offset="0.19" stop-color="#383874"/><stop offset="0.66" stop-color="#5740FF"/></linearGradient><linearGradient id="paint1_linear_32_5" x1="18.2032" y1="4.63013" x2="31.7755" y2="43.1271" gradientUnits="userSpaceOnUse"><stop offset="0.24" stop-color="#383874"/><stop offset="0.8" stop-color="#ED1E79"/></linearGradient><linearGradient id="paint2_linear_32_5" x1="31.1456" y1="38.3386" x2="3.32479" y2="11.2981" gradientUnits="userSpaceOnUse"><stop stop-color="#ED1E78"/><stop offset="1" stop-color="#FF3B86"/></linearGradient><linearGradient id="paint3_linear_32_5" x1="1.39867" y1="35.5722" x2="29.006" y2="16.1512" gradientUnits="userSpaceOnUse"><stop stop-color="#5740FF"/><stop offset="1" stop-color="#7B71FF"/></linearGradient></defs></svg>