<svg xmlns="http://www.w3.org/2000/svg" width="198" height="40" viewBox="0 0 198 40" fill="none"><g clip-path="url(#clip0_515_21220)"><path d="M31.6426 31.1981C31.6426 27.9685 33.2569 25.7064 34.594 24.4145C37.8199 20.998 38.8824 20.9073 42.1084 20.9073H45.8889V19.3378H32.0571V13.6152H57.2745V38.7238H50.0374V32.0309H48.6536C48.1018 36.83 44.6425 39.3697 39.9861 39.3697C35.0058 39.3697 31.6426 35.769 31.6426 31.2008V31.1981ZM50.0374 24.4118V19.1977L42.6602 24.5987C40.1234 26.4457 39.3876 28.0152 39.3876 29.7688C39.3876 32.3085 41.1859 33.8312 43.7667 33.8312C47.3633 33.8312 50.0374 30.7391 50.0374 24.4145V24.4118Z" fill="black"></path><path d="M60.0391 26.1191C60.0391 17.9503 65.5712 12.7334 74.0081 12.7334C80.0949 12.7334 84.7046 15.548 86.7774 20.4872L80.8773 24.8713C80.1855 20.7648 77.7887 18.5027 74.1454 18.5027C69.9036 18.5027 67.0922 21.5482 67.0922 26.1191C67.0922 30.6901 69.9036 33.6888 74.1454 33.6888C77.7887 33.6888 80.1855 31.4267 80.8773 27.3203L86.7774 31.7043C84.7018 36.6435 80.0921 39.4581 74.0081 39.4581C65.5712 39.4581 60.0391 34.2413 60.0391 26.1191Z" fill="black"></path><path d="M106.971 38.722L96.3675 27.5516V38.722H89.1743V2.7207H96.3675V24.7838L106.971 13.6134H116.377L107.662 22.2908C105.356 24.6436 103.514 25.4297 100.101 25.4297H98.3498V26.9992H100.516C103.835 26.9524 105.68 27.6918 108.077 30.1381L116.745 38.7687L106.971 38.722Z" fill="black"></path><path d="M118.172 2.7207H125.456V38.722H118.172V2.7207Z" fill="black"></path><path d="M128.638 5.35053C128.638 2.58268 130.757 0.458008 133.618 0.458008C136.479 0.458008 138.596 2.57993 138.596 5.35053C138.596 8.12113 136.476 10.3365 133.618 10.3365C130.76 10.3365 128.638 8.21458 128.638 5.35053ZM129.975 13.6128H137.259V38.7214H129.975V13.6128Z" fill="black"></path><path d="M141.547 13.5658H148.831V20.1652H150.168C150.445 15.4101 153.995 12.9639 158.374 12.9639C163.585 12.9639 166.718 16.1935 166.718 22.103V38.7183H159.434V23.5323C159.434 20.2092 157.498 18.593 154.962 18.593C151.274 18.593 148.831 21.9628 148.831 28.1472V38.7156H141.547V13.5658Z" fill="black"></path><path d="M169.345 26.2596C169.345 18.044 174.787 12.7832 183.408 12.7832C192.627 12.7832 197.885 18.646 197.053 28.1067L181.332 28.06C178.842 28.06 177.829 27.3673 177.598 25.2454H176.215L176.168 26.1222C176.168 31.2923 178.842 34.2911 183.361 34.2911C186.958 34.2911 189.448 32.2131 190.368 28.7526L195.716 33.0459C193.41 37.1991 189.077 39.4612 183.405 39.4612C174.784 39.4612 169.343 34.3845 169.343 26.2596H169.345ZM190.23 23.489C189.816 20.0725 187.188 18.088 183.408 18.088C179.627 18.088 177.23 20.0258 176.445 23.489H190.23Z" fill="black"></path><path d="M16.4681 13.6134H2.73517V11.9615H3.86632C6.0682 11.9175 7.42447 10.8071 7.42447 8.87758V2.7207H0.137939V38.722H16.4681C23.3648 38.722 28.9738 33.1066 28.9738 26.2021C28.9738 19.2976 23.3648 13.6134 16.4681 13.6134ZM20.0977 30.4954C20.0977 30.4816 20.1004 30.4652 20.1032 30.4514C19.1148 31.3062 17.8326 31.8257 16.4242 31.8257H8.87684C5.7662 31.8257 3.24309 29.2997 3.24309 26.1856C3.24309 23.0714 5.7662 20.5454 8.87684 20.5454H16.4242C17.8107 20.5454 19.0791 21.0484 20.062 21.8813C20.062 21.8758 20.062 21.873 20.062 21.8675C21.3029 22.901 22.0964 24.4567 22.0964 26.1966C22.0964 27.9364 21.3194 29.4564 20.1004 30.4899L20.0977 30.4954Z" fill="black"></path><path d="M16.8992 24.2998C15.8641 24.2998 15.0212 25.1436 15.0212 26.1799C15.0212 27.2161 15.8641 28.0599 16.8992 28.0599C17.9342 28.0599 18.7771 27.2161 18.7771 26.1799C18.7771 25.1436 17.9342 24.2998 16.8992 24.2998Z" fill="black"></path><path d="M8.36888 24.2998C7.33383 24.2998 6.49097 25.1436 6.49097 26.1799C6.49097 27.2161 7.33383 28.0599 8.36888 28.0599C9.40393 28.0599 10.2468 27.2161 10.2468 26.1799C10.2468 25.1436 9.40393 24.2998 8.36888 24.2998Z" fill="black"></path></g><defs><clipPath id="clip0_515_21220"><rect width="197" height="39" fill="white" transform="translate(0.137939 0.458008)"></rect></clipPath></defs></svg>