<svg width="554" height="150" viewBox="0 0 554 150" fill="none" xmlns="http://www.w3.org/2000/svg">
<rect width="148.571" height="148.571" transform="translate(-0.00976562 0.885742)" fill="#3662FC"/>
<path d="M62.7123 97.9805C60.3674 96.2562 57.1131 96.8981 54.6851 98.5062C53.5995 99.2195 52.4081 99.7902 51.1543 100.203C48.2135 101.141 45.0567 101.097 42.1347 100.072C39.2273 99.0468 36.702 97.1094 34.9591 94.5396C33.2163 91.9699 32.3466 88.8964 32.4647 85.7812C32.5828 82.6659 33.693 79.6689 35.6187 77.2457C37.544 74.808 40.2013 73.0773 43.1897 72.2827C45.5863 71.6498 48.088 71.6684 50.4753 72.2863C48.873 69.5382 47.9424 66.3645 47.9217 62.9623C47.9058 62.3811 47.9488 61.8273 48.0059 61.2586C45.5013 61.1383 42.9919 61.3671 40.5375 62.0162C35.369 63.3796 30.7839 66.3993 27.4529 70.6061C24.078 74.7995 22.1699 79.9852 21.9687 85.3712C21.7675 90.7573 23.2802 96.0672 26.2964 100.521C29.3125 104.976 33.6508 108.332 38.7018 110.099C43.7381 111.865 49.2078 111.933 54.2965 110.31C57.6987 109.228 60.819 107.412 63.4438 105.028C65.6003 103.064 65.0424 99.6906 62.6978 97.9809L62.7123 97.9805Z" fill="white"/>
<path d="M108.614 60.1186C103.698 58.4939 98.6652 58.443 94.002 59.6762C94.002 59.6762 94.002 59.6762 94.0016 59.6617C90.5797 60.5554 87.4676 62.1387 84.7468 64.2056C87.078 61.1896 90.1827 58.8067 93.7481 57.3129C92.5466 49.5659 87.2116 42.7467 79.3311 40.1419C68.1338 36.4357 56.0881 42.6122 52.4142 53.9249C51.4222 56.9914 51.1738 60.1247 51.5183 63.14C51.6125 63.9227 51.7652 64.7183 51.9462 65.484C51.9788 65.614 52.0115 65.744 52.0441 65.874C52.1582 66.3216 52.2723 66.7693 52.415 67.2016C52.5271 67.5767 52.6679 67.9363 52.7941 68.2964C52.8723 68.4979 52.9506 68.6993 53.0284 68.8862C53.1998 69.3032 53.3854 69.7053 53.5709 70.1074C53.6943 70.3658 53.8319 70.6092 53.9553 70.8676C54.0933 71.1255 54.2163 71.3694 54.3684 71.6124C55.3765 73.3734 56.5695 74.9839 57.9156 76.343C59.2593 77.6149 60.7992 78.6196 62.4062 79.4189C65.6844 81.2339 69.4786 82.2495 73.5473 82.1378C73.9832 82.1259 74.361 82.1155 74.6658 82.0926C81.2517 81.5047 86.4192 78.5126 88.7281 75.7444C92.5061 70.871 99.0324 68.6414 105.196 70.6826C113.077 73.2874 117.369 81.8657 114.795 89.818C112.222 97.785 103.747 102.118 95.8662 99.5136C87.9857 96.9088 83.693 88.3305 86.2668 80.3781C86.3605 80.0847 86.4837 79.8051 86.5924 79.5258C86.5928 79.5403 86.5787 79.5552 86.5646 79.5702C83.6381 83.6786 79.568 86.9168 74.8069 88.8216C76.1753 98.4109 82.719 106.884 92.4484 110.092C106.111 114.618 120.81 107.089 125.273 93.2823C129.737 79.4758 122.291 64.6147 108.628 60.0891L108.614 60.1186ZM83.0266 64.0492C82.5704 65.4432 81.8769 66.6693 80.9898 67.7261C80.9191 67.8007 80.8489 67.8899 80.7782 67.9646C77.9852 71.1096 73.5436 72.4676 69.3172 71.0712C63.6084 69.1775 60.5008 62.9807 62.3639 57.2145C64.227 51.4484 70.3648 48.3134 76.0587 50.193C81.7675 52.0867 84.8751 58.2835 83.012 64.0496L83.0266 64.0492Z" fill="white"/>
<path d="M245.954 66.8116H233.01C232.773 65.137 232.291 63.6495 231.562 62.3492C230.833 61.0292 229.897 59.9062 228.754 58.9802C227.611 58.0542 226.291 57.3449 224.794 56.8524C223.316 56.3599 221.711 56.1136 219.977 56.1136C216.844 56.1136 214.116 56.8918 211.791 58.4482C209.466 59.985 207.663 62.231 206.383 65.1862C205.102 68.1218 204.462 71.6878 204.462 75.8843C204.462 80.199 205.102 83.8241 206.383 86.7597C207.683 89.6952 209.496 91.9117 211.82 93.409C214.145 94.9063 216.835 95.655 219.888 95.655C221.602 95.655 223.188 95.4284 224.646 94.9753C226.124 94.5222 227.434 93.8621 228.577 92.9953C229.72 92.1087 230.665 91.0349 231.414 89.774C232.182 88.5131 232.714 87.0749 233.01 85.4593L245.954 85.5184C245.619 88.2964 244.782 90.9758 243.442 93.5568C242.122 96.118 240.339 98.4132 238.093 100.443C235.866 102.452 233.207 104.048 230.114 105.23C227.04 106.392 223.563 106.974 219.681 106.974C214.283 106.974 209.456 105.752 205.201 103.309C200.965 100.866 197.616 97.3297 195.153 92.6997C192.71 88.0698 191.488 82.4647 191.488 75.8843C191.488 69.2842 192.729 63.6692 195.212 59.0393C197.694 54.4094 201.063 50.8828 205.319 48.4595C209.574 46.0164 214.362 44.7949 219.681 44.7949C223.188 44.7949 226.439 45.2875 229.434 46.2726C232.448 47.2576 235.118 48.6959 237.443 50.5872C239.767 52.4589 241.659 54.7542 243.117 57.473C244.594 60.1918 245.54 63.3047 245.954 66.8116Z" fill="#3662FC"/>
<path d="M273.192 106.974C268.641 106.974 264.593 106.235 261.046 104.757C257.52 103.26 254.752 101.221 252.742 98.6398C250.732 96.0589 249.728 93.1332 249.728 89.8627C249.728 87.3409 250.299 85.0259 251.442 82.9178C252.604 80.79 254.18 79.0267 256.17 77.6279C258.16 76.2094 260.386 75.3031 262.849 74.9091V74.4953C259.618 73.8452 256.998 72.2789 254.988 69.7964C252.978 67.2943 251.974 64.3883 251.974 61.0784C251.974 57.9458 252.89 55.158 254.722 52.715C256.554 50.2523 259.066 48.3215 262.258 46.9227C265.469 45.5042 269.114 44.7949 273.192 44.7949C277.271 44.7949 280.906 45.5042 284.097 46.9227C287.309 48.3412 289.831 50.2819 291.663 52.7446C293.495 55.1876 294.421 57.9655 294.441 61.0784C294.421 64.408 293.397 67.314 291.367 69.7964C289.338 72.2789 286.737 73.8452 283.565 74.4953V74.9091C285.989 75.3031 288.185 76.2094 290.156 77.6279C292.146 79.0267 293.722 80.79 294.884 82.9178C296.066 85.0259 296.667 87.3409 296.687 89.8627C296.667 93.1332 295.652 96.0589 293.643 98.6398C291.633 101.221 288.855 103.26 285.309 104.757C281.782 106.235 277.744 106.974 273.192 106.974ZM273.192 97.5759C275.222 97.5759 276.995 97.2114 278.512 96.4825C280.029 95.7338 281.211 94.7093 282.058 93.409C282.925 92.089 283.359 90.5719 283.359 88.8579C283.359 87.1044 282.915 85.5579 282.029 84.2181C281.142 82.8587 279.94 81.7948 278.423 81.0265C276.906 80.2384 275.163 79.8443 273.192 79.8443C271.242 79.8443 269.498 80.2384 267.962 81.0265C266.425 81.7948 265.213 82.8587 264.327 84.2181C263.46 85.5579 263.026 87.1044 263.026 88.8579C263.026 90.5719 263.45 92.089 264.297 93.409C265.144 94.7093 266.336 95.7338 267.873 96.4825C269.41 97.2114 271.183 97.5759 273.192 97.5759ZM273.192 70.5353C274.887 70.5353 276.394 70.1905 277.714 69.5009C279.034 68.8114 280.068 67.8558 280.817 66.6343C281.566 65.4128 281.94 64.0041 281.94 62.4083C281.94 60.8321 281.566 59.453 280.817 58.2709C280.068 57.0691 279.044 56.1333 277.744 55.4634C276.443 54.7739 274.926 54.4291 273.192 54.4291C271.478 54.4291 269.961 54.7739 268.641 55.4634C267.321 56.1333 266.287 57.0691 265.538 58.2709C264.809 59.453 264.445 60.8321 264.445 62.4083C264.445 64.0041 264.819 65.4128 265.568 66.6343C266.317 67.8558 267.351 68.8114 268.671 69.5009C269.991 70.1905 271.498 70.5353 273.192 70.5353Z" fill="#3662FC"/>
<path d="M316.927 106.146V45.6224H329.724V70.5944H355.7V45.6224H368.467V106.146H355.7V81.1447H329.724V106.146H316.927Z" fill="#3662FC"/>
<path d="M395.307 107.033C390.638 107.033 386.618 106.087 383.249 104.196C379.9 102.285 377.319 99.5855 375.507 96.0983C373.694 92.5914 372.788 88.4442 372.788 83.6566C372.788 78.9873 373.694 74.8894 375.507 71.3627C377.319 67.8361 379.871 65.0877 383.161 63.1176C386.471 61.1474 390.352 60.1623 394.804 60.1623C397.799 60.1623 400.587 60.645 403.168 61.6104C405.768 62.5561 408.034 63.9844 409.965 65.8955C411.915 67.8066 413.432 70.2102 414.516 73.1063C415.6 75.9828 416.141 79.3518 416.141 83.2133V86.671H377.812V78.8691H404.291C404.291 77.0565 403.897 75.4509 403.109 74.052C402.321 72.6532 401.227 71.5598 399.828 70.7717C398.449 69.9639 396.844 69.56 395.011 69.56C393.1 69.56 391.406 70.0033 389.928 70.8899C388.47 71.7568 387.328 72.929 386.5 74.4067C385.673 75.8646 385.249 77.49 385.229 79.2828V86.7006C385.229 88.9466 385.643 90.8872 386.471 92.5224C387.318 94.1577 388.51 95.4186 390.046 96.3052C391.583 97.1917 393.406 97.635 395.514 97.635C396.913 97.635 398.193 97.438 399.356 97.044C400.518 96.6499 401.513 96.0589 402.34 95.2708C403.168 94.4827 403.798 93.5174 404.232 92.3747L415.876 93.143C415.284 95.9407 414.073 98.3837 412.241 100.472C410.428 102.541 408.083 104.156 405.207 105.319C402.35 106.461 399.05 107.033 395.307 107.033Z" fill="#3662FC"/>
<path d="M433.14 107.003C430.244 107.003 427.663 106.501 425.397 105.496C423.132 104.472 421.339 102.964 420.019 100.974C418.718 98.9649 418.068 96.4628 418.068 93.4681C418.068 90.9463 418.531 88.8283 419.457 87.1143C420.383 85.4002 421.644 84.0211 423.24 82.9769C424.836 81.9327 426.648 81.1447 428.678 80.6127C430.727 80.0808 432.874 79.7064 435.12 79.4897C437.76 79.2139 439.888 78.9578 441.504 78.7213C443.119 78.4652 444.291 78.0909 445.02 77.5983C445.749 77.1058 446.114 76.3768 446.114 75.4114V75.2341C446.114 73.3625 445.523 71.9144 444.341 70.8899C443.178 69.8654 441.523 69.3532 439.376 69.3532C437.11 69.3532 435.307 69.8556 433.968 70.8603C432.628 71.8454 431.741 73.0866 431.308 74.584L419.664 73.6383C420.255 70.88 421.418 68.4961 423.151 66.4866C424.885 64.4573 427.121 62.9008 429.86 61.8172C432.618 60.7139 435.81 60.1623 439.435 60.1623C441.957 60.1623 444.37 60.4578 446.675 61.0489C449 61.6399 451.059 62.5561 452.852 63.7973C454.664 65.0385 456.093 66.6343 457.137 68.5848C458.181 70.5156 458.703 72.8305 458.703 75.5297V106.146H446.764V99.8515H446.409C445.68 101.27 444.705 102.521 443.484 103.605C442.262 104.669 440.794 105.506 439.08 106.117C437.366 106.708 435.386 107.003 433.14 107.003ZM436.746 98.3147C438.598 98.3147 440.233 97.9503 441.651 97.2213C443.07 96.4726 444.183 95.4678 444.991 94.2069C445.799 92.946 446.202 91.5176 446.202 89.9218V85.1047C445.808 85.3608 445.267 85.5973 444.577 85.814C443.907 86.011 443.149 86.1982 442.301 86.3755C441.454 86.5331 440.607 86.6809 439.76 86.8188C438.913 86.937 438.144 87.0453 437.455 87.1438C435.977 87.3606 434.687 87.7053 433.583 88.1782C432.48 88.651 431.623 89.2913 431.012 90.0991C430.402 90.8872 430.096 91.8723 430.096 93.0544C430.096 94.7684 430.717 96.0786 431.958 96.9849C433.219 97.8714 434.815 98.3147 436.746 98.3147Z" fill="#3662FC"/>
<path d="M476.899 45.6224V106.146H464.309V45.6224H476.899Z" fill="#3662FC"/>
<path d="M506.967 60.7533V70.2102H479.631V60.7533H506.967ZM485.837 49.878H498.426V92.1973C498.426 93.3597 498.604 94.266 498.958 94.9162C499.313 95.5466 499.805 95.9899 500.436 96.2461C501.086 96.5022 501.835 96.6302 502.682 96.6302C503.273 96.6302 503.864 96.581 504.455 96.4825C505.046 96.3643 505.499 96.2756 505.814 96.2165L507.794 105.585C507.164 105.782 506.277 106.008 505.135 106.264C503.992 106.54 502.603 106.708 500.968 106.767C497.934 106.885 495.274 106.481 492.989 105.555C490.723 104.629 488.96 103.191 487.699 101.24C486.438 99.29 485.817 96.8273 485.837 93.8523V49.878Z" fill="#3662FC"/>
<path d="M524.572 79.9035V106.146H511.982V45.6224H524.217V68.7621H524.749C525.773 66.0827 527.428 63.9844 529.714 62.4674C531.999 60.9307 534.866 60.1623 538.314 60.1623C541.466 60.1623 544.214 60.8519 546.559 62.231C548.923 63.5904 550.755 65.5507 552.055 68.1119C553.375 70.6535 554.026 73.6974 554.006 77.2437V106.146H541.417V79.4897C541.436 76.6921 540.727 74.515 539.289 72.9586C537.87 71.4021 535.88 70.6239 533.319 70.6239C531.605 70.6239 530.088 70.9884 528.768 71.7174C527.468 72.4463 526.443 73.5102 525.695 74.9091C524.966 76.2882 524.591 77.953 524.572 79.9035Z" fill="#3662FC"/>
</svg>
