<svg width="200" height="27" viewBox="0 0 200 27" fill="none" xmlns="http://www.w3.org/2000/svg">
<g clip-path="url(#clip0_1411_1300)">
<path d="M178.82 22.1577C178.545 21.6993 178.3 21.1797 178.086 20.6907C177.842 20.8435 177.628 21.0269 177.383 21.1186C176.986 21.2714 176.619 21.3325 176.283 21.3325C175.764 21.3325 175.336 21.2408 174.969 21.088C174.602 20.9352 174.358 20.6602 174.174 20.324C174.021 19.9572 173.93 19.5599 173.93 19.1015V8.49633H178.606V4.24817H173.93V0H169.101V4.24817H165.861V8.49633H169.101V19.2543C169.101 20.5073 169.376 21.6381 169.926 22.6161C170.446 23.5941 171.21 24.3888 172.188 24.9389C173.166 25.489 174.297 25.7641 175.58 25.7641C176.436 25.7641 177.292 25.6113 178.056 25.3056C178.728 25.0306 179.523 24.6027 180.256 24.0526C179.737 23.4413 179.278 22.8301 178.85 22.1271L178.82 22.1577Z" fill="#181A20"/>
<path d="M38.3867 9.65585C37.4698 8.03604 36.1862 6.75243 34.5664 5.83556C32.9466 4.91868 31.0823 4.42969 29.0652 4.42969C27.048 4.42969 25.1532 4.91868 23.5334 5.83556C21.9136 6.75243 20.63 8.03604 19.6825 9.65585C18.7351 11.2757 18.2461 13.14 18.2461 15.1876C18.2461 17.2353 18.7351 19.0996 19.6825 20.7194C20.63 22.3392 21.883 23.6228 23.5334 24.5397C25.1837 25.4566 27.0175 25.9456 29.0652 25.9456C31.1128 25.9456 32.916 25.4566 34.5664 24.5397C36.2167 23.6228 37.4698 22.3392 38.3867 20.7194C39.3035 19.0996 39.7925 17.2353 39.7925 15.1876C39.7925 13.14 39.3035 11.2757 38.3867 9.65585ZM34.1691 18.4884C33.6801 19.4664 32.9771 20.2304 32.0908 20.8111C31.2351 21.3918 30.2265 21.6669 29.0957 21.6669C27.9649 21.6669 26.9564 21.3918 26.0395 20.8111C25.1532 20.2304 24.4502 19.4664 23.9307 18.4884C23.4417 17.5104 23.1666 16.4101 23.1666 15.1876C23.1666 13.9651 23.4111 12.8649 23.9307 11.8563C24.4197 10.8783 25.1226 10.0837 26.0395 9.5336C26.9258 8.98348 27.9649 8.70842 29.0957 8.70842C30.2265 8.70842 31.2351 8.98348 32.0908 9.5336C32.9466 10.0837 33.6495 10.8783 34.1691 11.8258C34.6581 12.8038 34.9331 13.904 34.9026 15.1571C34.9026 16.3796 34.6886 17.4798 34.1691 18.4578V18.4884Z" fill="#181A20"/>
<path d="M42.0239 25.5816V25.5508H41.9316L42.0239 25.5816Z" fill="#181A20"/>
<path d="M72.6462 8.31317C72.1267 7.06011 71.332 6.08212 70.2929 5.47087C69.2538 4.82906 67.9396 4.52344 66.3809 4.52344C65.678 4.52344 64.9751 4.61512 64.2416 4.82906C63.5081 5.043 62.8051 5.31806 62.1633 5.74593C61.5215 6.14324 60.9408 6.60168 60.3907 7.12124C59.9323 7.57967 59.5655 8.09923 59.2905 8.64935C59.0154 7.91586 58.7098 7.27405 58.3125 6.75449C57.7318 5.95987 56.9677 5.44031 56.112 5.07356C55.2563 4.70681 54.2477 4.554 53.1169 4.554C52.3528 4.554 51.6193 4.67625 50.8858 4.92075C50.1523 5.16525 49.4494 5.532 48.8076 5.95987C48.1658 6.4183 47.6157 6.9073 47.1267 7.48799C47.0044 7.6408 46.9127 7.79361 46.821 7.94642L46.7599 4.92075H41.9922V25.6115H46.7905V13.2031C46.7905 12.5613 46.9433 12.0112 47.1572 11.4611C47.3712 10.9415 47.7073 10.4831 48.1352 10.0858C48.5631 9.68847 49.0215 9.38285 49.6328 9.16891C50.2135 8.95498 50.8247 8.83273 51.4665 8.83273C52.2611 8.83273 52.9335 8.98554 53.4836 9.35229C54.0338 9.71904 54.4616 10.208 54.7367 10.8804C55.0117 11.5528 55.1646 12.378 55.1646 13.356V25.5809H60.024V13.2031C60.024 12.5613 60.1768 12.0112 60.3907 11.4611C60.6047 10.9415 60.9408 10.4831 61.3687 10.0552C61.7966 9.62735 62.2856 9.32173 62.8663 9.10779C63.447 8.89385 64.0888 8.7716 64.7306 8.7716C65.5558 8.7716 66.2587 8.92442 66.8394 9.2606C67.3895 9.59679 67.8174 10.0858 68.0924 10.7582C68.3675 11.4611 68.5203 12.3168 68.5203 13.356V25.5198H73.3797V13.0503C73.3797 11.1555 73.1352 9.56623 72.5851 8.28261L72.6462 8.31317Z" fill="#181A20"/>
<path d="M76.1929 25.5816V25.5508H76.1006L76.1929 25.5816Z" fill="#181A20"/>
<path d="M106.815 8.31317C106.296 7.06011 105.501 6.08212 104.462 5.47087C103.423 4.82906 102.109 4.52344 100.55 4.52344C99.847 4.52344 99.144 4.61512 98.4105 4.82906C97.677 5.043 96.9741 5.31806 96.3323 5.74593C95.6905 6.14324 95.1098 6.60168 94.5597 7.12124C94.1012 7.57967 93.7345 8.09923 93.4594 8.64935C93.1844 7.91586 92.8787 7.27405 92.4814 6.75449C91.9007 5.95987 91.1367 5.44031 90.2809 5.07356C89.4252 4.70681 88.4166 4.554 87.2858 4.554C86.5218 4.554 85.7883 4.67625 85.0548 4.92075C84.3213 5.16525 83.6183 5.532 82.9765 5.95987C82.3347 6.4183 81.7846 6.9073 81.2956 7.48799C81.1734 7.6408 81.0817 7.79361 80.99 7.94642L80.9289 4.92075H76.1611V25.6115H80.9594V13.2031C80.9594 12.5613 81.1122 12.0112 81.3262 11.4611C81.5401 10.9415 81.8763 10.4831 82.3042 10.0858C82.732 9.68847 83.1905 9.38285 83.8017 9.16891C84.3824 8.95498 84.9937 8.83273 85.6355 8.83273C86.4301 8.83273 87.1025 8.98554 87.6526 9.35229C88.2027 9.71904 88.6306 10.208 88.9056 10.8804C89.1807 11.5528 89.3335 12.378 89.3335 13.356V25.5809H94.1929V13.2031C94.1929 12.5613 94.3457 12.0112 94.5597 11.4611C94.7736 10.9415 95.1098 10.4831 95.5377 10.0552C95.9655 9.62735 96.4545 9.32173 97.0352 9.10779C97.6159 8.89385 98.2577 8.7716 98.8995 8.7716C99.7247 8.7716 100.428 8.92442 101.008 9.2606C101.558 9.59679 101.986 10.0858 102.261 10.7582C102.536 11.4611 102.689 12.3168 102.689 13.356V25.5198H107.549V13.0503C107.549 11.1555 107.304 9.56623 106.754 8.28261L106.815 8.31317Z" fill="#181A20"/>
<path d="M120.507 25.9782C118.582 25.9782 116.839 25.4892 115.281 24.5723C113.753 23.6249 112.5 22.3413 111.613 20.7215C110.727 19.1017 110.269 17.2679 110.269 15.2508C110.269 13.2337 110.727 11.4 111.613 9.78016C112.5 8.16036 113.722 6.87674 115.281 5.9293C116.809 4.98187 118.551 4.52344 120.507 4.52344C122.463 4.52344 124.052 4.89019 125.58 5.59312C127.078 6.29605 128.27 7.27405 129.095 8.5271L126.436 11.7361C126.039 11.186 125.55 10.697 124.938 10.2386C124.327 9.78016 123.716 9.41341 123.013 9.16891C122.341 8.92441 121.638 8.7716 120.965 8.7716C119.804 8.7716 118.795 9.04666 117.879 9.59679C116.992 10.1469 116.259 10.9415 115.739 11.9195C115.22 12.8975 114.945 14.0283 114.945 15.2508C114.945 16.4733 115.22 17.5736 115.77 18.5515C116.289 19.5295 117.023 20.2936 117.94 20.8743C118.857 21.455 119.865 21.73 120.996 21.73C121.668 21.73 122.341 21.6078 122.982 21.3938C123.624 21.1799 124.236 20.8743 124.816 20.4464C125.397 20.0185 125.947 19.499 126.436 18.8877L129.095 22.1579C128.209 23.3193 126.956 24.2667 125.427 24.9696C123.899 25.6726 122.249 26.0699 120.507 26.0699V25.9782Z" fill="#181A20"/>
<path d="M144.041 4.55194C143.613 4.46025 143.215 4.42969 142.757 4.42969C141.718 4.42969 140.74 4.67419 139.823 5.16318C138.906 5.65218 138.05 6.32455 137.347 7.14974C137.011 7.54705 136.736 7.97492 136.492 8.40279V4.827H131.693V25.5177H131.754H136.614V14.4847C136.614 13.7512 136.736 13.0788 136.981 12.4981C137.225 11.8869 137.561 11.3673 138.02 10.9395C138.448 10.481 138.967 10.1448 139.548 9.90035C140.129 9.65585 140.77 9.5336 141.412 9.5336C141.84 9.5336 142.237 9.59472 142.665 9.68641C143.093 9.80866 143.46 9.90035 143.735 10.0837L145.019 4.79644C144.743 4.67419 144.438 4.61306 144.01 4.52137L144.041 4.55194Z" fill="#181A20"/>
<path d="M165.098 14.6102C165.098 13.1432 164.914 11.7984 164.456 10.5454C163.967 9.32288 163.325 8.22264 162.469 7.33633C161.644 6.45002 160.605 5.74709 159.413 5.19696C158.221 4.6774 156.968 4.40234 155.593 4.40234C154.065 4.40234 152.628 4.6774 151.345 5.22753C150.061 5.74709 148.93 6.51115 148.013 7.48914C147.097 8.46714 146.363 9.62851 145.843 10.9732C145.324 12.318 145.049 13.785 145.049 15.4354C145.049 17.483 145.538 19.2556 146.455 20.8755C147.372 22.4647 148.686 23.6872 150.336 24.6346C152.017 25.5515 153.912 26.0099 156.082 26.0099C157.029 26.0099 158.007 25.8571 159.016 25.6126C160.024 25.3376 160.972 24.9708 161.858 24.5124C162.744 24.0234 163.57 23.4732 164.273 22.8314L161.858 19.5001C160.911 20.3253 160.024 20.8755 159.23 21.1811C158.435 21.4867 157.549 21.6701 156.571 21.6701C155.165 21.6701 153.973 21.395 152.934 20.8449C151.895 20.3253 151.1 19.5613 150.519 18.5527C150.153 17.8803 149.939 17.1163 149.817 16.3217H165.067V14.6407L165.098 14.6102ZM152.353 9.44513C153.24 8.95613 154.309 8.68107 155.593 8.68107C156.418 8.68107 157.182 8.83388 157.885 9.20063C158.588 9.56738 159.138 10.0258 159.597 10.6676C160.055 11.2789 160.299 11.9818 160.391 12.807V12.9904H149.908C150.03 12.4708 150.153 11.9818 150.367 11.5539C150.825 10.6371 151.497 9.93413 152.353 9.41457V9.44513Z" fill="#181A20"/>
<path d="M200 14.6102C200 13.1432 199.817 11.7984 199.358 10.5454C198.869 9.32288 198.227 8.22264 197.372 7.33633C196.547 6.45002 195.507 5.74709 194.315 5.19696C193.124 4.64684 191.87 4.40234 190.495 4.40234C188.967 4.40234 187.531 4.6774 186.247 5.22753C184.963 5.74709 183.833 6.51115 182.916 7.48914C181.999 8.46714 181.265 9.62851 180.746 10.9732C180.226 12.318 179.951 13.785 179.951 15.4354C179.951 17.483 180.44 19.2556 181.357 20.8755C182.274 22.4953 183.588 23.6872 185.238 24.6346C186.919 25.5515 188.814 26.0099 190.984 26.0099C191.932 26.0099 192.91 25.8571 193.918 25.6126C194.927 25.3376 195.874 24.9708 196.76 24.5124C197.647 24.0234 198.472 23.4732 199.175 22.8314L196.76 19.5001C195.813 20.3253 194.927 20.8755 194.132 21.1811C193.307 21.4867 192.451 21.6701 191.473 21.6701C190.067 21.6701 188.875 21.395 187.836 20.8449C186.797 20.3253 186.003 19.5613 185.422 18.5527C185.055 17.8803 184.841 17.1163 184.719 16.3217H199.97V14.6407L200 14.6102ZM187.256 9.44513C188.142 8.95613 189.212 8.68107 190.495 8.68107C191.32 8.68107 192.084 8.83388 192.787 9.20063C193.49 9.56738 194.04 10.0258 194.499 10.6676C194.957 11.2789 195.202 11.9818 195.293 12.807V12.9904H184.811C184.933 12.4708 185.055 11.9818 185.269 11.5539C185.727 10.6371 186.4 9.93413 187.256 9.41457V9.44513Z" fill="#181A20"/>
<path d="M15.923 19.0392C15.4951 19.5282 15.0367 19.9866 14.5477 20.3228C13.967 20.7507 13.3863 21.0563 12.7139 21.2702C12.0721 21.4842 11.3998 21.6064 10.7274 21.6064C9.59658 21.6064 8.55746 21.3314 7.67115 20.7507C6.75428 20.17 6.02078 19.4059 5.50122 18.4279C4.98166 17.4499 4.67604 16.3497 4.67604 15.1272C4.67604 13.9047 4.92054 12.8045 5.47066 11.7959C5.99022 10.8179 6.72372 10.115 7.64059 9.56485C8.5269 9.01473 9.56602 8.73967 10.7274 8.73967C11.1553 8.73967 11.5831 8.80079 12.0416 8.92304C11.9804 8.64798 11.8888 8.40348 11.8888 8.12842C11.8888 6.78368 12.6223 5.65287 13.6614 4.9805C12.5917 4.67487 11.4609 4.46094 10.2384 4.46094C8.40465 4.46094 6.57091 4.94993 5.01223 5.86681C3.48411 6.81424 2.23105 8.09786 1.34474 9.71766C0.458435 11.3375 0 13.1712 0 15.1883C0 17.2054 0.458435 19.0392 1.34474 20.659C2.23105 22.2788 3.45355 23.5624 5.01223 24.5098C6.54035 25.4573 8.2824 25.9157 10.2384 25.9157C11.9804 25.9157 13.6003 25.549 15.1589 24.8155C16.2286 24.3265 17.0538 23.7152 17.8179 23.0123C17.6039 22.7067 17.39 22.4316 17.2066 22.126C16.6259 21.148 16.2286 20.1089 15.923 19.0392Z" fill="#181A20"/>
<path d="M15.6789 10.4203C16.9448 10.4203 17.9711 9.39405 17.9711 8.12811C17.9711 6.86218 16.9448 5.83594 15.6789 5.83594C14.413 5.83594 13.3867 6.86218 13.3867 8.12811C13.3867 9.39405 14.413 10.4203 15.6789 10.4203Z" fill="#EF7946"/>
</g>
<defs>
<clipPath id="clip0_1411_1300">
<rect width="200" height="26.0391" fill="white"/>
</clipPath>
</defs>
</svg>
