<svg xmlns="http://www.w3.org/2000/svg" width="526" height="110" fill="none"><path fill="#12111C" d="M166.512 89.44c-5.867-.017-10.963-1.293-15.287-3.828-4.269-2.59-7.603-6.192-10.002-10.805-2.344-4.667-3.506-10.154-3.487-16.46.018-6.25 1.241-11.702 3.667-16.356 2.481-4.653 5.947-8.262 10.396-10.825 4.449-2.564 9.579-3.838 15.391-3.82 4.771.014 9.045.904 12.823 2.67 3.778 1.766 6.896 4.242 9.354 7.43 2.458 3.133 4.01 6.866 4.655 11.2l-11.104-.034c-1.031-3.512-2.969-6.232-5.815-8.16-2.79-1.982-6.214-2.979-10.272-2.99-3.619-.012-6.802.829-9.548 2.52-2.692 1.692-4.783 4.099-6.272 7.22-1.49 3.12-2.242 6.847-2.254 11.178-.013 4.167.716 7.843 2.187 11.028 1.472 3.13 3.548 5.576 6.229 7.339 2.737 1.707 5.915 2.567 9.533 2.578 4.113.012 7.625-.965 10.537-2.93 2.967-1.965 4.948-4.618 5.945-7.96l10.939.032c-.78 4.165-2.463 7.834-5.05 11.007-2.531 3.172-5.746 5.63-9.645 7.373-3.843 1.743-8.15 2.608-12.92 2.594Zm33.192-21.285c.012-4.222.955-7.92 2.829-11.095 1.874-3.23 4.458-5.744 7.754-7.544 3.295-1.8 7.026-2.693 11.193-2.68 4.222.012 7.948.928 11.178 2.747 3.284 1.82 5.854 4.35 7.708 7.59 1.855 3.185 2.776 6.89 2.764 11.111-.013 4.222-.956 7.948-2.83 11.178-1.874 3.174-4.458 5.661-7.753 7.461-3.241 1.8-6.972 2.693-11.194 2.68-4.167-.012-7.893-.927-11.177-2.747-3.285-1.819-5.855-4.321-7.709-7.507-1.855-3.24-2.776-6.972-2.763-11.194Zm10.034.03c-.008 2.467.479 4.635 1.461 6.502 1.036 1.867 2.402 3.324 4.099 4.371 1.752 1.047 3.779 1.574 6.082 1.581 2.303.007 4.333-.508 6.091-1.545 1.757-1.036 3.132-2.485 4.125-4.346.992-1.862 1.492-4.026 1.5-6.494.007-2.522-.48-4.689-1.461-6.501-.982-1.868-2.348-3.325-4.1-4.372-1.751-1.047-3.778-1.574-6.081-1.58-2.303-.007-4.334.508-6.091 1.544-1.703 1.037-3.078 2.486-4.126 4.347-.992 1.806-1.492 3.97-1.499 6.493Zm51.319 20.55-10.034-.03.121-40.63 9.293.028.807 5.266c1.267-2.025 3.054-3.61 5.36-4.754 2.362-1.145 4.913-1.713 7.655-1.705 5.099.016 8.933 1.535 11.501 4.558 2.623 3.024 3.926 7.14 3.911 12.35l-.075 25.002-10.034-.03.068-22.618c.01-3.4-.75-5.924-2.281-7.573-1.53-1.704-3.611-2.56-6.243-2.568-3.125-.01-5.568.97-7.329 2.939-1.76 1.968-2.645 4.598-2.655 7.888l-.065 21.877Zm49.109.146-15.999-40.678 10.692.032 7.018 18.691a118.23 118.23 0 0 1 2.2 6.669c.653 1.976 1.114 3.513 1.385 4.61.278-1.26.749-2.876 1.413-4.848a198.58 198.58 0 0 1 2.404-6.409l7.458-18.647 10.363.03-17.064 40.58-9.87-.03Zm48.827 1.215c-4.003-.012-7.564-.927-10.684-2.746-3.065-1.873-5.47-4.403-7.216-7.588-1.745-3.24-2.611-6.944-2.598-11.111.012-4.222.873-7.948 2.583-11.178 1.709-3.23 4.102-5.745 7.178-7.546 3.076-1.855 6.588-2.776 10.535-2.765 4.113.013 7.647.9 10.602 2.664 2.956 1.708 5.225 4.1 6.806 7.175 1.635 3.076 2.447 6.752 2.434 11.029l-.009 3.043-34.873-.021.184-6.415 24.756.073c.008-2.796-.89-5.047-2.694-6.752-1.749-1.705-4.132-2.562-7.148-2.57-2.358-.008-4.36.48-6.008 1.462-1.593.982-2.804 2.459-3.632 4.43-.829 1.972-1.247 4.383-1.256 7.234-.013 4.387.91 7.707 2.767 9.96 1.913 2.254 4.733 3.387 8.462 3.398 2.741.008 4.991-.506 6.748-1.543 1.813-1.036 2.996-2.513 3.55-4.43l9.294.027c-.89 4.439-3.094 7.914-6.611 10.426-3.462 2.512-7.852 3.76-13.17 3.744Zm53.226-41.706-.028 9.294-3.701-.01c-3.673-.011-6.555.967-8.644 2.935-2.09 1.913-3.14 4.843-3.152 8.79l-.059 19.74-10.034-.03.121-40.548 9.458.029.798 8.391-.987-.003c.556-2.685 1.851-4.874 3.885-6.568s4.668-2.536 7.903-2.526c.713.002 1.426.032 2.138.088.713.057 1.48.197 2.302.419Zm3.386 19.586c.012-3.948.818-7.455 2.417-10.52 1.654-3.121 3.937-5.582 6.848-7.383 2.912-1.8 6.287-2.695 10.125-2.684 3.454.01 6.413.787 8.876 2.33 2.463 1.487 4.184 3.576 5.163 6.266l-1.072.901.847-8.222 9.294.028-.115 38.573c-.014 4.497-.903 8.387-2.667 11.672-1.71 3.339-4.157 5.882-7.343 7.627-3.13 1.8-6.917 2.693-11.358 2.68-5.812-.017-10.578-1.594-14.297-4.731-3.719-3.136-5.9-7.42-6.541-12.85l10.034.03c.321 2.633 1.411 4.692 3.271 6.178 1.915 1.487 4.435 2.234 7.56 2.244 3.455.01 6.199-.996 8.234-3.019 2.09-1.968 3.139-4.651 3.149-8.05l.031-10.117L449.209 80c-.995 2.575-2.81 4.625-5.447 6.153-2.636 1.527-5.682 2.286-9.136 2.276-3.838-.012-7.18-.9-10.026-2.662-2.846-1.763-5.06-4.183-6.641-7.258-1.581-3.075-2.365-6.587-2.354-10.534Zm10.118-.217c-.007 2.303.425 4.36 1.297 6.172.927 1.758 2.211 3.16 3.853 4.207 1.642 1.046 3.56 1.573 5.753 1.58 2.303.006 4.278-.481 5.926-1.464 1.703-1.036 2.996-2.43 3.878-4.183.938-1.806 1.41-3.888 1.417-6.246.007-2.358-.426-4.388-1.298-6.09a9.647 9.647 0 0 0-3.853-4.124c-1.642-.992-3.642-1.491-6-1.498-2.248-.007-4.196.508-5.844 1.545-1.648.982-2.913 2.349-3.796 4.1-.882 1.753-1.327 3.753-1.333 6Zm60.816 22.717c-4.002-.012-7.564-.927-10.684-2.746-3.065-1.874-5.47-4.403-7.215-7.588-1.745-3.24-2.611-6.944-2.599-11.111.013-4.223.874-7.949 2.583-11.179 1.71-3.23 4.102-5.745 7.178-7.545 3.076-1.855 6.588-2.777 10.536-2.765 4.112.012 7.646.9 10.602 2.664 2.956 1.708 5.224 4.1 6.805 7.175 1.636 3.076 2.448 6.752 2.435 11.029l-.009 3.043-34.873-.022.184-6.414 24.756.073c.008-2.796-.89-5.047-2.694-6.752-1.75-1.705-4.132-2.562-7.148-2.571-2.358-.007-4.361.48-6.009 1.463-1.593.982-2.803 2.459-3.632 4.43-.828 1.972-1.246 4.383-1.255 7.234-.013 4.387.909 7.707 2.767 9.96 1.912 2.254 4.733 3.387 8.461 3.398 2.742.008 4.991-.506 6.749-1.543 1.813-1.036 2.996-2.513 3.55-4.43l9.294.027c-.891 4.439-3.094 7.914-6.611 10.426-3.462 2.512-7.852 3.76-13.171 3.744ZM77.936 1.161a48.577 48.577 0 0 0-6.068-.396C59.2.728 46.544 5.535 37.488 14.07c-2.208 2.095-4.639 4.815-6.359 7.297-.28.458-.454 1.055-.436 1.586.948 5.735 19.033 8.129 24.262 8.698 5.79.595 11.636.925 17.484.942 7.98.024 15.957-.532 23.802-1.784 4.783-.879 11.752-2.18 15.389-5.356 2.061-2.051 1.04-3.37-.386-5.21l-.245-.317C103.283 9.702 90.962 2.788 77.936 1.16Z"/><path fill="#12111C" d="m96.78 33.867.04-.007.039-.006.009-.002c1.059-.195 2.232-.41 3.464-.665 1.634 3.864 5.283 13.633 2.739 18.799-4.757 9.228-15.142 13.483-23.96 17.781-9.103 4.321-18.803 7.846-28.848 10.484-7.968 2.051-27.877 7.497-36.83.869a1.781 1.781 0 0 1-.283-.262c-6.038-7.03-9.9-17.19-10.331-27.175-.179-3.389-.758-20.789 9.917-27.263 2.357-1.822 6.346-2.965 8.46-3.565a91.808 91.808 0 0 1 6.45-1.395 5.741 5.741 0 0 0-.181 1.589c.005.13.018.259.039.386.022.134.049.268.08.4-1.966.367-3.87.786-5.732 1.261-1.441.41-3.825 1.089-5.816 2.069-1.832.9-2.598 1.716-2.728 2.197.144.515.942 1.34 2.82 2.265 1.996.983 4.453 1.698 5.929 2.127l.099.029c8.991 2.304 19.182 3.396 32.06 3.434a213.7 213.7 0 0 0 2.257-.004c13.32-.26 27.146-1.246 40.308-3.346Z"/><path fill="#12111C" fill-rule="evenodd" d="M10.258 81.316c-1.46 1.095-2.958 2.318-4.244 3.639-1.896 1.95-2.883 3.682-2.863 5.012.069.43.376 1.425 2.918 2.165 2.048.596 4.586.725 6.326.77 10.126.011 20.076-2.485 28.475-4.929 15.934-4.907 31.16-10.877 45.618-18.808-2.808 15.5-13.997 29.204-29.3 35.255-18.707 7.647-41.109 2.955-54.86-11.409l-.635-.695.115.112a3.965 3.965 0 0 1-1.08-2.266C.537 86.2 5.276 82.086 8.894 79.386c.44.661.894 1.305 1.364 1.93Z" clip-rule="evenodd"/></svg>