<svg xmlns="http://www.w3.org/2000/svg" xmlns:xlink="http://www.w3.org/1999/xlink" version="1.1" id="Layer_1" x="0px" y="0px" viewBox="0 0 356.7 94.8" style="enable-background:new 0 0 356.7 94.8;" xml:space="preserve">
<style type="text/css">
	.st0{fill:#28284d;}
	
		.st1{clip-path:url(#SVGID_00000070120907213146357990000003005645592641928612_);fill:url(#SVGID_00000106833086016970665410000018012667049035368833_);}
	
		.st2{clip-path:url(#SVGID_00000073681231157857821210000011277106550762717343_);fill:url(#SVGID_00000114073196290326786500000009334167506256870547_);}
	
		.st3{clip-path:url(#SVGID_00000048464454970940638460000016184849077959476135_);fill:url(#SVGID_00000165194143648362288000000015361336942259979708_);}
	.st4{fill-rule:evenodd;clip-rule:evenodd;fill:#00ADEE;}
</style>
<g>
	<path class="st0" d="M151.4,39.8c-2.7,0-5.4,0.9-7.5,2.7c-2.1,1.7-3.5,4.1-4.1,6.8c-0.5,2.7-0.1,5.4,1.2,7.8   c1.3,2.4,3.4,4.3,5.9,5.3c2.5,1,5.3,1.2,7.9,0.4c2.6-0.8,4.9-2.5,6.4-4.7c1.5-2.3,2.2-5,1.9-7.7c-0.3-2.7-1.5-5.2-3.4-7.2   c-1.1-1.1-2.4-2-3.8-2.6C154.5,40.1,153,39.8,151.4,39.8z M151.4,33.1c2.4,0,4.8,0.4,7.1,1.3c2.2,0.9,4.3,2.3,6,4   c1.7,1.7,3.1,3.8,4,6c0.9,2.2,1.4,4.7,1.4,7.1c0,2.4-0.5,4.8-1.4,7.1c-0.9,2.2-2.3,4.3-4,6c-1.7,1.7-3.8,3.1-6,4   c-3.1,1.3-6.5,1.7-9.8,1.2c-3.3-0.5-6.5-1.9-9-4v16h-6.7V51.7c0-2.5,0.5-4.9,1.4-7.2c0.9-2.2,2.3-4.3,4-6c1.7-1.7,3.8-3.1,6-4   c2.3-1,4.7-1.4,7.1-1.4V33.1z"/>
	<path class="st0" d="M196.4,40.7c-2.9-1.2-6.1-1.2-9,0c-1.4,0.6-2.7,1.5-3.8,2.6c-1.1,1.1-2,2.4-2.6,3.8c-1.2,2.9-1.2,6.1,0,9   c1.2,2.9,3.5,5.2,6.4,6.4c2.9,1.2,6.1,1.2,9,0c2.9-1.2,5.2-3.5,6.4-6.4c0.6-1.4,0.9-3,0.9-4.5v-0.1c0-1.5-0.3-3-0.9-4.4   c-0.6-1.4-1.5-2.7-2.6-3.8C199.1,42.1,197.8,41.3,196.4,40.7z M191.9,33c4.3,0,8.5,1.5,11.8,4.2v-16h6.7v30.3   c0,2.4-0.5,4.8-1.4,7.1c-0.9,2.2-2.3,4.3-4,6c-1.7,1.7-3.8,3.1-6,4c-2.2,0.9-4.6,1.4-7.1,1.4c-2.4,0-4.8-0.5-7.1-1.4   c-3.4-1.4-6.3-3.8-8.3-6.8c-2-3-3.1-6.6-3.1-10.3c0-3.7,1.1-7.2,3.1-10.3c2-3,4.9-5.4,8.3-6.8C187,33.5,189.4,33,191.9,33z"/>
	<path class="st0" d="M272.7,39.8c-2.7,0-5.4,0.9-7.5,2.7c-2.1,1.7-3.5,4.1-4.1,6.8c-0.5,2.7-0.1,5.4,1.2,7.8   c1.3,2.4,3.4,4.3,5.9,5.3c2.5,1,5.3,1.2,7.9,0.4c2.6-0.8,4.9-2.5,6.4-4.7c1.5-2.3,2.2-5,1.9-7.7c-0.3-2.7-1.5-5.2-3.4-7.2   c-1.1-1.1-2.4-2-3.8-2.6C275.8,40.1,274.2,39.8,272.7,39.8z M272.7,33.1c2.4,0,4.8,0.4,7.1,1.3c2.2,0.9,4.3,2.3,6,4   c1.7,1.7,3.1,3.8,4,6c0.9,2.2,1.4,4.7,1.4,7.1s-0.5,4.8-1.4,7.1c-0.9,2.2-2.3,4.3-4,6c-1.7,1.7-3.8,3.1-6,4   c-2.2,0.9-4.7,1.4-7.1,1.4c-2.4,0-4.8-0.5-7.1-1.4c-3.4-1.4-6.3-3.8-8.3-6.8c-2-3-3.1-6.6-3.1-10.3V21.3h6.7v16   c1.4-1.2,3-2.1,4.7-2.8c2.2-0.9,4.6-1.4,7.1-1.4V33.1z"/>
	<path class="st0" d="M323.2,39.8c-2.7,0-5.4,0.9-7.5,2.7c-2.1,1.7-3.5,4.1-4.1,6.8c-0.5,2.7-0.1,5.4,1.2,7.8   c1.3,2.4,3.4,4.3,5.9,5.3c2.5,1,5.3,1.2,7.9,0.4c2.6-0.8,4.9-2.5,6.4-4.7c1.5-2.3,2.2-5,1.9-7.7c-0.3-2.7-1.5-5.2-3.4-7.2   c-1.1-1.1-2.4-2-3.8-2.6C326.3,40.1,324.8,39.8,323.2,39.8z M323.2,33.1c2.4,0,4.8,0.4,7.1,1.3c2.2,0.9,4.3,2.3,6,4   c1.7,1.7,3.1,3.8,4,6c1,2.2,1.5,4.7,1.5,7.1v18.5H335v-4.2c-1.4,1.2-3,2.1-4.7,2.8c-2.2,0.9-4.7,1.4-7.1,1.4   c-2.4,0-4.8-0.5-7.1-1.4c-2.2-0.9-4.3-2.3-6-4c-1.7-1.7-3.1-3.8-4-6c-0.9-2.2-1.4-4.7-1.4-7.1s0.5-4.8,1.4-7.1c0.9-2.2,2.3-4.3,4-6   c1.7-1.7,3.8-3.1,6-4c2.2-0.9,4.6-1.4,7.1-1.5V33.1z"/>
	<path class="st0" d="M220.5,33v18.5c0,3.1,1.2,6.1,3.5,8.3c2.2,2.2,5.2,3.5,8.3,3.5s6.1-1.2,8.3-3.5c2.2-2.2,3.5-5.2,3.5-8.3V33   h6.7v18.5c0,2.4-0.5,4.8-1.4,7.1c-0.9,2.2-2.3,4.3-4,6c-1.7,1.7-3.8,3.1-6,4c-2.2,0.9-4.7,1.4-7.1,1.4c-2.4,0-4.8-0.5-7.1-1.4   c-2.2-0.9-4.3-2.3-6-4c-1.7-1.7-3.1-3.7-4-6c-0.9-2.2-1.4-4.7-1.4-7.1V33H220.5z"/>
	<path class="st0" d="M301.3,63.4h-6.7v6.7h6.7V63.4z"/>
	<path class="st0" d="M345.1,21.3h6.7v6.7h-6.7V21.3z M351.8,33v37h-6.7V33H351.8z"/>
	<path class="st0" d="M59.3,48.2H82c-0.1-0.4-0.3-0.8-0.4-1.1c-0.6-1.4-1.5-2.7-2.6-3.8c-1.1-1.1-2.4-2-3.8-2.6   c-2.9-1.2-6.1-1.2-9,0c-2.9,1.2-5.2,3.5-6.4,6.4C59.6,47.4,59.5,47.8,59.3,48.2L59.3,48.2z M88.2,54.9H59.3   c0.1,0.4,0.3,0.8,0.4,1.1c0.6,1.4,1.5,2.7,2.6,3.8c1.1,1.1,2.4,2,3.8,2.6c2.9,1.2,6.1,1.2,9,0c0.5-0.2,1.1-0.5,1.6-0.8h9.4   c-0.7,1.1-1.5,2.1-2.4,3c-1.7,1.7-3.8,3.1-6,4c-2.2,0.9-4.7,1.4-7.1,1.4c-2.4,0-4.8-0.5-7.1-1.4c-2.2-0.9-4.3-2.3-6-4   c-1.7-1.7-3.1-3.8-4-6c-0.9-2.2-1.4-4.7-1.4-7.1c0-2.4,0.5-4.8,1.4-7.1c0.9-2.2,2.3-4.3,4-6c1.7-1.7,3.8-3.1,6-4   c2.3-1,4.7-1.4,7.1-1.4c2.4,0,4.8,0.4,7.1,1.3c2.2,0.9,4.3,2.3,6,4c1.7,1.7,3.1,3.8,4,6c0.9,2.2,1.4,4.7,1.4,7.1   c0,1.1-0.1,2.3-0.3,3.4L88.2,54.9z"/>
	<path class="st0" d="M99.7,48.2h22.6c-0.1-0.4-0.3-0.8-0.4-1.1c-0.6-1.4-1.5-2.7-2.6-3.8c-1.1-1.1-2.4-2-3.8-2.6   c-2.9-1.2-6.1-1.2-9,0c-1.4,0.6-2.7,1.5-3.8,2.6c-1.1,1.1-2,2.4-2.6,3.8C100,47.4,99.9,47.8,99.7,48.2L99.7,48.2z M128.6,54.9H99.7   c0.1,0.4,0.2,0.8,0.4,1.1c1.2,2.9,3.5,5.2,6.4,6.4c2.9,1.2,6.1,1.2,9,0c0.5-0.2,1.1-0.5,1.6-0.8h9.4c-0.7,1.1-1.5,2.1-2.4,3   c-1.7,1.7-3.8,3.1-6,4c-2.2,0.9-4.7,1.4-7.1,1.4s-4.8-0.5-7.1-1.4c-3.4-1.4-6.3-3.8-8.3-6.8c-2-3-3.1-6.6-3.1-10.3   c0-3.7,1.1-7.2,3.1-10.3c2-3,4.9-5.4,8.3-6.8c2.2-0.9,4.7-1.4,7.1-1.4c2.4,0,4.8,0.4,7.1,1.3c2.2,0.9,4.3,2.3,6,4   c1.7,1.7,3.1,3.8,4,6c1.4,3.3,1.8,6.9,1.1,10.5L128.6,54.9z"/>
</g>
<g>
	<g>
		<defs>
			<path id="SVGID_1_" d="M43.5,51.1c0-3.1-1.2-5.9-3.4-8.1c-2.2-2.2-5-3.4-8.1-3.4c-3.1,0-5.9,1.2-8.1,3.4c-2.2,2.2-3.3,5-3.4,8     c0,3.1,1.1,6,3.4,8.2c2.2,2.2,5,3.4,8.1,3.4c3.1,0,5.9-1.2,8.1-3.4C42.4,57,43.5,54.2,43.5,51.1 M50.1,21.6V51     c0,2.4-0.4,4.8-1.4,7c-0.9,2.2-2.3,4.2-3.9,5.9c-1.6,1.6-3.6,3-5.9,3.9c-2.1,0.9-4.5,1.4-6.9,1.4c-2.4,0-4.8-0.5-6.9-1.4     c-2.2-0.9-4.2-2.3-5.9-3.9c-1.6-1.6-3-3.6-3.9-5.9c-0.9-2.1-1.4-4.5-1.4-6.9V51c0-2.4,0.5-4.7,1.4-6.8c0.9-2.2,2.3-4.2,3.9-5.9     c0.1-0.1,0.6-0.6,1.3-1.2c1.4-1.1,2.9-2.1,4.6-2.7c2.1-0.9,4.5-1.4,6.9-1.4c2.4,0,4.8,0.5,6.9,1.4c1.7,0.7,3.2,1.6,4.6,2.8V21.6     H50.1z M14,21.6c0-2.4,0.5-4.8,1.4-6.9c0.9-2.2,2.3-4.2,3.9-5.9c1.6-1.6,3.6-3,5.9-3.9c2.1-0.9,4.5-1.4,6.9-1.4     c2.4,0,4.8,0.5,6.9,1.4c2.2,0.9,4.2,2.3,5.9,3.9c1.6,1.6,3,3.6,3.9,5.9l0.1,0.3h-7.4c-0.4-0.5-0.8-1.1-1.3-1.6     c-2.2-2.2-5-3.4-8.1-3.4c-3.1,0-5.9,1.2-8.1,3.4c-2.2,2.2-3.4,5-3.4,8.1v9.3c-1.8,1-3.5,2.3-5,3.8c-0.6,0.6-1.1,1.1-1.6,1.7V21.6     z"/>
		</defs>
		<clipPath id="SVGID_00000096746976984226076360000017897460679719280304_">
			<use xlink:href="#SVGID_1_" style="overflow:visible;"/>
		</clipPath>
		
			<linearGradient id="SVGID_00000115507226437840872970000000960380087849704355_" gradientUnits="userSpaceOnUse" x1="32.0688" y1="69.1093" x2="32.0688" y2="3.5316">
			<stop offset="0" style="stop-color:#933B95"/>
			<stop offset="0.5" style="stop-color:#DB3D95"/>
			<stop offset="1" style="stop-color:#F05F67"/>
		</linearGradient>
		
			<rect x="14" y="3.5" style="clip-path:url(#SVGID_00000096746976984226076360000017897460679719280304_);fill:url(#SVGID_00000115507226437840872970000000960380087849704355_);" width="36.1" height="65.6"/>
	</g>
	<g>
		<defs>
			<path id="SVGID_00000078022125057275806710000013699722279168790699_" d="M43.5,51.1V37.2c-1.4-1.1-2.9-2.1-4.6-2.8     c-0.2-0.1-0.4-0.2-0.7-0.3v7.3c0.7,0.4,1.3,1,1.9,1.5c1.1,1.1,1.9,2.3,2.5,3.7v0C43.2,48,43.5,49.5,43.5,51.1"/>
		</defs>
		<clipPath id="SVGID_00000063609354023598425060000007141625210626714298_">
			<use xlink:href="#SVGID_00000078022125057275806710000013699722279168790699_" style="overflow:visible;"/>
		</clipPath>
		
			<linearGradient id="SVGID_00000129206810087971775560000016902453312304284848_" gradientUnits="userSpaceOnUse" x1="43.6351" y1="43.8996" x2="37.4207" y2="40.9573">
			<stop offset="0" style="stop-color:#933B95"/>
			<stop offset="1" style="stop-color:#DB3D95"/>
		</linearGradient>
		
			<rect x="38.3" y="34.2" style="clip-path:url(#SVGID_00000063609354023598425060000007141625210626714298_);fill:url(#SVGID_00000129206810087971775560000016902453312304284848_);" width="5.2" height="16.9"/>
	</g>
	<g>
		<defs>
			<path id="SVGID_00000132767883271242050590000006621655734351773842_" d="M55.7,66.4c-1.1,1.7-2.3,3.2-3.7,4.6     c-5.1,5.1-12.1,8.2-19.9,8.2c-7.8,0-14.8-3.2-19.9-8.2c-5.1-5.1-8.2-12.1-8.2-19.9h6.6c0,6,2.4,11.4,6.3,15.3     c3.9,3.9,9.3,6.3,15.3,6.3c6,0,11.4-2.4,15.3-6.3c1.7-1.7,3.1-3.7,4.2-5.9C52.6,62.6,54,64.7,55.7,66.4"/>
		</defs>
		<clipPath id="SVGID_00000041982219801682538300000000683430871662574208_">
			<use xlink:href="#SVGID_00000132767883271242050590000006621655734351773842_" style="overflow:visible;"/>
		</clipPath>
		
			<linearGradient id="SVGID_00000150805854769091511150000009353095042274066315_" gradientUnits="userSpaceOnUse" x1="30.3303" y1="84.4321" x2="29.731" y2="62.6174">
			<stop offset="0" style="stop-color:#00ADEE"/>
			<stop offset="1" style="stop-color:#903191"/>
		</linearGradient>
		
			<rect x="3.9" y="51.1" style="clip-path:url(#SVGID_00000041982219801682538300000000683430871662574208_);fill:url(#SVGID_00000150805854769091511150000009353095042274066315_);" width="51.8" height="28.1"/>
	</g>
	<path class="st4" d="M32.1,85.4c7.9,0,14.3,1.3,14.3,2.8c0,1.6-6.4,2.8-14.3,2.8c-7.9,0-14.3-1.3-14.3-2.8   C17.7,86.6,24.1,85.4,32.1,85.4"/>
</g>
</svg>