<svg width="136" height="80" viewBox="0 0 68 40" fill="none" xmlns="http://www.w3.org/2000/svg">
<path d="M17.5018 5.30469C25.0334 6.29772 29.8498 11.4117 29.8498 18.6107C29.8498 26.5014 24.067 31.8747 15.2886 32.0863L15.0216 32.0912L14.7453 32.0928H3.94737L3.94727 17.1483C5.96667 17.82 8.13647 17.8511 10.1536 17.2682L10.1536 26.918H14.4946L14.6582 26.917C19.9878 26.8524 23.53 23.6315 23.6004 18.7589L23.6014 18.6107L23.6004 18.4688L23.5974 18.3248C23.4854 14.3381 21.0256 11.4653 17.1368 10.5858C17.7066 8.89898 17.8279 7.10512 17.5162 5.38187L17.5018 5.30469Z" fill="#002225"></path>
<path d="M55.3863 11.4087C57.8898 11.4087 59.8761 12.0083 61.3391 13.165L61.3973 13.2115L62.1313 13.8179L62.1312 12.0287H68.0001V30.3485L67.9987 30.5265C67.9106 36.3182 63.5142 39.8319 56.7313 39.9016L56.5251 39.9027L56.3109 39.9016L56.0985 39.8983C51.7693 39.8085 48.5041 38.3414 46.5507 35.5798L46.4919 35.4957L46.4301 35.4049L51.4181 32.7574L51.5404 32.8935C53.1152 34.6219 54.3826 35.224 56.4829 35.224C59.8031 35.224 62.0244 33.2726 62.1275 30.0491L62.13 29.9511L62.1313 29.8143L62.1313 28.4275L61.5092 28.9527L61.3881 29.0525C59.9205 30.2348 57.918 30.8479 55.3863 30.8479C49.9396 30.8479 45.5561 26.5872 45.5561 21.0456C45.5561 15.6175 49.9489 11.4087 55.3863 11.4087ZM40.9651 12.0287V32.0467H34.9697V12.0287H40.9651ZM56.8203 15.9633C53.6566 15.9633 51.3827 18.0744 51.3827 21.0456C51.3827 24.0242 53.6648 26.1692 56.8203 26.1692C59.786 26.1692 62.1313 23.9647 62.1313 21.0456C62.1313 18.1332 59.7942 15.9633 56.8203 15.9633Z" fill="#002225"></path>
<path fill-rule="evenodd" clip-rule="evenodd" d="M1.69874 2.59362C4.27615 -0.478007 8.85559 -0.878657 11.9272 1.69874C14.9988 4.27615 15.3995 8.85559 12.8221 11.9272C10.2447 14.9988 5.66525 15.3995 2.59362 12.8221C-0.478007 10.2447 -0.878657 5.66525 1.69874 2.59362ZM7.25433 3.42983C5.00951 3.42983 3.42983 5.2243 3.42983 7.31784C3.42983 9.49684 5.00951 11.1204 7.25433 11.1204C9.49915 11.1204 11.1204 9.49684 11.1204 7.31784C11.1204 5.2243 9.49915 3.42983 7.25433 3.42983Z" fill="#00E1D3"></path>
<path fill-rule="evenodd" clip-rule="evenodd" d="M10.4485 0.735696L10.4691 0.81741C10.8041 2.18525 10.7764 3.63071 10.3724 4.99745C9.68671 4.0548 8.5791 3.42983 7.25432 3.42983C5.0095 3.42983 3.42982 5.2243 3.42982 7.31784C3.42982 8.6235 3.99699 9.72974 4.93459 10.4068C3.57894 10.7997 2.13298 10.8304 0.753577 10.4852C-0.486333 7.97991 -0.213035 4.87198 1.69873 2.59362C3.8879 -0.0153235 7.52139 -0.697352 10.4485 0.735696Z" fill="#43F8BC"></path>
</svg>