<svg width="264" height="50" viewBox="0 0 132 25" fill="none" xmlns="http://www.w3.org/2000/svg">
<g clip-path="url(#clip0_975_529)">
<path d="M40.8466 16.9443C42.204 16.9443 43.2221 16.3377 43.765 15.5517L45.778 16.7207C44.7368 18.2481 43.0401 19.1689 40.8235 19.1689C37.0906 19.1689 34.6704 16.6303 34.6704 13.2597C34.6704 9.88921 37.0906 7.35059 40.643 7.35059C44.1954 7.35059 46.321 10.047 46.321 13.2827C46.321 13.6198 46.2762 13.9798 46.23 14.2939H37.2263C37.6104 16.0466 39.0357 16.9443 40.8451 16.9443H40.8466ZM43.8545 12.316C43.5151 10.3841 42.0899 9.55216 40.6199 9.55216C38.7874 9.55216 37.5441 10.6307 37.2047 12.316H43.8545Z" fill="#2C4546"/>
<path d="M55.033 18.8777L52.2288 15.0353L49.4013 18.8777H46.5508L50.8035 13.1033L46.7775 7.64307H49.6049L52.2056 11.1928L54.8078 7.64307H57.6584L53.6324 13.1248L57.862 18.8761H55.0346L55.033 18.8777Z" fill="#2C4546"/>
<path d="M72.374 2.47559H74.8174V18.8778H72.374V2.47559Z" fill="#2C4546"/>
<path d="M76.3938 13.2597C76.3938 9.91219 79.0623 7.35059 82.3664 7.35059C85.6704 7.35059 88.339 9.91219 88.339 13.2597C88.339 16.6073 85.692 19.1689 82.3664 19.1689C79.0407 19.1689 76.3938 16.5843 76.3938 13.2597ZM85.8941 13.2597C85.8941 11.2144 84.3562 9.70996 82.3648 9.70996C80.3735 9.70996 78.8356 11.216 78.8356 13.2597C78.8356 15.3035 80.3735 16.8095 82.3648 16.8095C84.3562 16.8095 85.8941 15.3035 85.8941 13.2597Z" fill="#2C4546"/>
<path d="M89.7119 13.5522V18.8777H92.1552V13.5522C92.1552 11.5069 93.6931 10.0024 95.6845 10.0024V7.64307C92.382 7.64307 89.7119 10.2047 89.7119 13.5522Z" fill="#2C4546"/>
<path d="M97.21 7.64307H99.6533V18.8777H97.21V7.64307Z" fill="#2C4546"/>
<path d="M64.7573 7.35065C61.4547 7.35065 58.7847 9.91226 58.7847 13.2598V23.3699H61.228V18.0444C62.2167 18.7538 63.4353 19.1674 64.7573 19.1674C68.0829 19.1674 70.7298 16.5828 70.7298 13.2583C70.7298 9.93371 68.0829 7.34912 64.7573 7.34912V7.35065ZM64.7573 16.8096C62.7659 16.8096 61.228 15.3036 61.228 13.2598C61.228 11.216 62.7659 9.71003 64.7573 9.71003C66.7486 9.71003 68.2865 11.216 68.2865 13.2598C68.2865 15.3036 66.7486 16.8096 64.7573 16.8096Z" fill="#2C4546"/>
<path d="M109.319 7.64307V14.0578C109.319 15.5408 108.108 16.7435 106.615 16.7435C105.121 16.7435 103.911 15.5408 103.911 14.0578V7.64307H101.469V14.0578C101.469 16.8814 103.773 19.1688 106.615 19.1688C109.457 19.1688 111.76 16.8799 111.76 14.0578V7.64307H109.317H109.319Z" fill="#2C4546"/>
<path d="M126.422 7.36289C124.856 7.36289 123.456 8.05845 122.512 9.15234C121.568 8.04313 120.158 7.33838 118.581 7.33838C115.739 7.33838 113.436 9.62728 113.436 12.4493V18.8641H115.879V12.4493C115.879 10.9663 117.09 9.76363 118.583 9.76363C120.076 9.76363 121.216 10.902 121.281 12.3283C121.281 12.3758 121.278 12.4248 121.278 12.4738V18.8886H123.721V18.8656H123.73V12.4509C123.73 12.4156 123.729 12.3789 123.727 12.3436C123.797 10.9219 124.975 9.78814 126.423 9.78814C127.872 9.78814 129.127 10.9908 129.127 12.4738V18.8886H131.569V12.4738C131.569 9.65026 129.265 7.36289 126.423 7.36289H126.422Z" fill="#2C4546"/>
</g>
<path d="M0.460205 0.811035L11.7129 12.083V0.811035H0.460205Z" fill="#54B092"/>
<path d="M25.3753 4.99731L25.3718 8.38923L28.7637 8.38573L25.3753 4.99731Z" fill="#F8AA60"/>
<path d="M12.5886 1.34009V12.6261C14.0631 12.5753 15.5025 12.2636 16.8701 11.6962C18.2395 11.1288 19.4775 10.3303 20.5545 9.31994L12.5886 1.34009Z" fill="#62CCA9"/>
<path d="M12.5886 14.1985V24.8506L17.905 19.5254L12.5886 14.1985Z" fill="#62CCA9"/>
<path d="M21.1742 9.9395L21.1532 9.95876C19.9992 11.0392 18.6701 11.8972 17.2044 12.5049C15.8893 13.0495 14.5112 13.3752 13.1016 13.4733L18.4915 18.872L24.2912 13.0617L21.1725 9.93774L21.1742 9.9395Z" fill="#54B092"/>
<path d="M21.041 4.99731L19.2742 6.76595L24.5923 12.0911L24.5906 4.99731H21.041Z" fill="#62CCA9"/>
<defs>
<clipPath id="clip0_975_529">
<rect width="96.8972" height="20.8958" fill="white" transform="translate(34.6704 2.47559)"/>
</clipPath>
</defs>
</svg>
