<svg width="103" height="28" viewBox="0 0 103 28" fill="none" xmlns="http://www.w3.org/2000/svg">
<path d="M88.0361 2.13379H85.8701C84.5128 2.1339 84.0607 2.65078 84.0605 3.91113V6.14258H89.8428L95.0801 20.4961L100.22 6.14258H103L95.2412 27.8027H92.4609L95.0156 20.6904H92.3643L87.8398 8.27637H84.0605V22.3066H81.377V8.27637H78.4346V6.14258H81.377V3.62109C81.377 1.29342 82.4113 1.29364e-05 85.127 0H88.0361V2.13379ZM39.3662 5.81934C42.9547 5.81937 45.8965 7.59786 45.8965 12.4795V22.3076H43.3105V19.1387H43.2451C42.4046 21.3694 40.4972 22.6309 37.9756 22.6309C34.8722 22.6307 32.3506 20.7549 32.3506 17.6191C32.3508 14.2896 35.2608 13.2228 38.6875 12.8672L43.2129 12.3818V11.8652C43.2129 9.44059 41.8878 7.95316 39.3662 7.95312C36.9092 7.95312 35.681 9.34357 35.584 11.251H32.9004C33.0944 8.27671 35.2604 5.81934 39.3662 5.81934ZM55.5391 5.81934C59.4509 5.81934 61.9079 7.82416 62.6191 11.542H59.9365C59.4516 8.92344 57.8348 7.95319 55.7012 7.95312C52.63 7.95312 50.9806 10.7979 50.9805 14.2246C50.9805 17.7483 52.7265 20.4968 55.8945 20.4971C57.9636 20.4971 59.6127 19.4623 60.0977 16.8438H62.7812C62.07 20.5615 59.5806 22.6307 55.6689 22.6309C51.0136 22.6309 48.0713 18.7183 48.0713 14.2246C48.0715 9.92508 50.981 5.81948 55.5391 5.81934ZM32.3154 2.13379H30.1494C28.7918 2.13379 28.339 2.65064 28.3389 3.91113V6.14258H32.4443V8.27637H28.3389V22.3066H25.6553V8.27637H22.7139V6.14258H25.6553V3.62109C25.6553 1.29341 26.6906 0 29.4062 0H32.3154V2.13379ZM68.4766 6.1416H72.583V8.27539H68.4766V18.3945C68.4766 19.6553 68.9296 20.1728 70.2871 20.1729H72.4531V22.3066H69.5439C66.8283 22.3066 65.7939 21.0132 65.7939 18.6855V8.27539H62.8516V6.1416H65.7939V2.45703H68.4766V6.1416ZM76.873 22.3066H74.1895V6.14258H76.873V22.3066ZM18.8584 6.6748V20.8096C18.8584 21.5535 18.2556 22.1571 17.5117 22.1572H6.70117L0 15.6133V1.35254C0.000127333 0.608819 0.602973 0.00605463 1.34668 0.00585938H12.1641L18.8584 6.6748ZM38.9131 14.9043C36.4887 15.163 35.2607 16.0357 35.2607 17.749C35.2608 19.3653 36.7149 20.4969 38.6221 20.4971C41.467 20.4971 43.2129 18.7835 43.2129 15.292V14.4189L38.9131 14.9043ZM12.7783 14.873C12.7783 15.6169 12.1755 16.2197 11.4316 16.2197H8.1748V20.0615H16.7627V8.1582H12.7783V14.873ZM6.08008 18.6221V16.2197H3.62012L6.08008 18.6221ZM2.0957 14.125H6.08008V7.40918C6.08025 6.66545 6.68301 6.06262 7.42676 6.0625H10.6836V2.10156H2.0957V14.125ZM8.1748 14.125H10.6836V8.1582H8.1748V14.125ZM12.7783 6.0625H15.2744L12.7783 3.57617V6.0625ZM77.0996 3.13574H73.9639V0H77.0996V3.13574Z" fill="#222222"/>
</svg>
