<svg width="1573" height="247" viewBox="0 0 1573 247" fill="none" xmlns="http://www.w3.org/2000/svg">
<path d="M0 4.04883C3.02734e-08 4.39512 5.04559e-08 4.62598 8.07293e-08 4.97227C0.231145 73.1909 0.462299 141.41 0.693444 209.628C0.693446 225.788 12.3661 238.832 26.697 238.832L27.3904 238.832C41.8368 238.832 53.394 225.673 53.394 209.513L53.3939 4.85682C53.3939 4.62597 53.3939 4.39511 53.3939 4.04882L0 4.04883Z" fill="black"/>
<path d="M510.594 4.51025C528.276 4.51025 545.959 4.62569 563.641 4.62569C563.757 83.5793 563.872 162.417 563.988 241.371C546.19 241.371 528.392 241.371 510.594 241.371C510.594 162.417 510.594 83.4639 510.594 4.51025Z" fill="black"/>
<path d="M605.478 4.62598C605.478 75.7304 605.478 146.95 605.478 218.055C607.674 231.444 619.462 241.256 632.868 240.91C646.044 240.563 657.37 230.521 659.103 217.362C659.45 162.071 659.796 106.665 660.259 51.3748L719.431 51.3748C722.205 51.4902 733.531 52.1828 743.123 61.1863C753.294 70.7669 754.449 82.7715 754.565 85.4264C754.796 89.5819 756.299 100.086 750.404 110.475C740.812 127.327 720.703 129.405 718.507 129.636C714.577 130.213 710.532 130.906 706.603 131.483C704.985 132.06 700.709 133.676 697.935 138.062C692.734 146.027 697.126 155.146 697.357 155.607C716.427 183.31 735.496 211.013 754.565 238.716L813.738 238.716L761.268 165.188C767.509 162.533 777.795 157.223 787.503 147.066C797.673 136.446 802.643 125.25 804.839 118.901C807.035 112.091 809.577 101.471 809.23 88.3122C808.768 71.6904 803.798 59.5703 802.412 56.4537C799.06 49.0662 791.548 35.2147 776.639 23.3255C758.61 9.01227 739.888 5.66482 731.682 4.62597C689.614 4.62597 647.546 4.62597 605.478 4.62598Z" fill="black"/>
<path d="M945.027 2.31739C934.972 4.27969 901.918 12.2443 875.684 42.9485C850.374 72.6138 847.138 105.049 846.56 115.438C845.52 125.48 843.786 153.876 860.544 183.541C879.035 216.323 908.044 229.367 916.943 232.945C923.299 235.715 930.811 238.601 939.479 240.91C947.338 242.987 954.619 244.257 960.975 245.065C966.638 245.873 973.341 246.335 980.738 246.219C988.944 246.104 996.109 245.18 1002.23 244.026C1011.36 242.526 1022.46 239.871 1034.71 235.254C1048.69 229.828 1059.9 223.364 1068.23 217.708C1067.99 189.89 1067.88 162.071 1067.65 134.138C1066.95 131.944 1064.76 126.057 1058.52 121.556C1052.97 117.516 1047.31 116.823 1045 116.592C1043.49 116.477 1035.06 115.9 1027.89 122.133C1021.65 127.558 1020.38 134.599 1020.15 136.446C1019.8 154.222 1019.45 171.998 1018.99 189.774C1012.17 193.468 996.918 200.509 976.577 199.932C960.397 199.471 948.031 194.276 941.328 190.813C935.55 188.274 926.073 183.426 917.174 174.076C906.541 162.879 902.034 150.99 900.069 144.642C898.913 139.332 897.989 132.868 897.873 125.365C897.758 114.053 899.722 104.703 901.687 97.8928C903.652 91.8905 908.275 80.2321 919.023 69.2663C929.771 58.416 941.328 53.6834 947.338 51.7211C953.81 49.2971 965.598 45.7188 980.391 46.7576C998.651 48.0273 1011.71 55.4148 1017.84 59.3394C1029.97 48.3736 1041.99 37.4078 1054.13 26.3266C1048.92 21.594 1041.07 15.7071 1030.43 10.9745C1022.57 7.39622 1015.29 5.43391 1009.52 4.39506C1000.04 2.20191 988.019 0.239607 974.035 0.00874935C963.287 -0.106679 953.348 0.932238 945.027 2.31739Z" fill="black"/>
<path d="M373.873 4.62596L319.786 4.62597C290.084 73.1909 260.498 141.64 230.796 210.205C227.675 219.324 230.102 229.367 236.921 235.6C245.011 242.987 256.568 242.41 263.734 238.832C268.01 236.639 270.668 233.522 279.105 216.785C284.19 206.743 288.35 197.97 291.355 191.39C327.876 191.39 364.281 191.39 400.801 191.39L421.488 241.602L480.661 241.602L373.873 4.62596ZM309.5 149.259L346.598 59.8011L384.852 148.682L309.5 149.259Z" fill="black"/>
<path d="M1113.99 4.62598L1294.86 4.62596C1306.3 7.62713 1314.39 17.9003 1314.62 29.5587C1314.85 41.5633 1306.65 52.2982 1294.86 55.4148C1251.75 55.4148 1208.53 55.4148 1165.42 55.4148L1165.42 96.1614L1250.83 96.1613L1250.83 148.566L1164.84 148.566L1164.84 186.427C1171.08 186.427 1181.02 186.427 1193.39 186.427C1195.01 186.427 1217.89 186.427 1230.37 186.427C1249.56 186.427 1252.68 186.542 1256.03 186.427C1257.07 186.427 1257.65 186.427 1258.34 186.427C1265.39 186.312 1270.13 186.427 1281.22 186.427C1286.31 186.427 1286.08 186.427 1286.31 186.427C1296.83 187.12 1314.62 196.238 1315.43 212.86C1316.13 225.211 1307 237.562 1293.24 241.487C1280.88 241.487 1268.51 241.487 1256.14 241.487C1233.61 241.487 1210.96 241.487 1188.42 241.487C1178.94 241.487 1169.47 241.487 1159.99 241.487C1154.9 241.487 1149.82 241.602 1144.73 241.487C1143.92 241.487 1141.61 241.487 1138.49 241.487C1135.72 241.487 1135.83 241.602 1134.91 241.602C1131.44 241.371 1128.78 240.332 1127.51 239.755C1124.97 238.716 1123.01 237.331 1121.5 236.062C1120.69 235.254 1119.77 234.099 1118.85 232.83C1118.04 231.791 1117.46 230.752 1117 229.713C1117 229.713 1115.15 226.019 1114.69 221.517C1113.99 215.631 1113.76 126.519 1113.99 4.62598Z" fill="black"/>
<path d="M1357.96 4.6256C1357.85 74.5757 1357.85 144.641 1357.73 214.591C1357.62 229.251 1369.4 241.14 1383.39 241.371C1396.68 241.486 1408.35 231.098 1409.62 217.362C1409.74 177.423 1409.74 137.6 1409.85 97.6616L1528.2 238.716L1572.81 238.716C1572.81 169.112 1572.81 99.393 1572.81 29.7892C1571.89 15.7068 1560.21 4.6256 1546.23 4.51018C1532.36 4.39475 1520.46 15.1297 1519.3 28.9812C1519.3 68.8043 1519.3 108.512 1519.3 148.335L1404.31 4.5102L1357.96 4.5102L1357.96 4.6256Z" fill="black"/>
<path d="M184.452 56.4534L111.295 56.4534C96.9642 56.4534 85.2914 44.7951 85.2914 30.4818C85.2914 16.1686 96.9642 4.51025 111.295 4.51025L184.452 4.51025C198.782 4.51024 210.455 16.1686 210.455 30.4818C210.34 44.9105 198.782 56.4534 184.452 56.4534Z" fill="#38B36D"/>
<path d="M184.452 153.53L111.295 153.53C96.9642 153.53 85.2914 141.871 85.2914 127.558C85.2914 113.245 96.9642 101.586 111.295 101.586L184.452 101.586C198.782 101.586 210.455 113.245 210.455 127.558C210.34 141.871 198.782 153.53 184.452 153.53Z" fill="#38B36D"/>
</svg>
