<svg width="130" height="34" viewBox="0 0 130 34" fill="none" xmlns="http://www.w3.org/2000/svg">
<g clip-path="url(#clip0_10920_216006)">
<path d="M32.7124 9.17466C32.7124 9.17466 32.7124 9.11154 32.7124 9.08348C32.6895 9.02608 32.6638 8.96988 32.6351 8.91513L32.572 8.82394C32.5384 8.77641 32.5008 8.73182 32.4596 8.69067L32.3684 8.61351L32.2771 8.54337H32.228C32.2165 8.5404 32.2044 8.5404 32.1929 8.54337L19.6204 2.23042C18.6208 1.73207 17.5189 1.47266 16.4018 1.47266C15.2847 1.47266 14.1828 1.73207 13.1832 2.23042L0.624769 8.54337H0.575631L0.491391 8.62053L0.400136 8.69769C0.358976 8.73884 0.321403 8.78343 0.287821 8.83096C0.262828 8.85844 0.241582 8.88909 0.22464 8.92214C0.193163 8.97545 0.167285 9.03187 0.147422 9.09049C0.147422 9.09049 0.147422 9.14661 0.147422 9.18168C0.119646 9.27982 0.105476 9.3813 0.105304 9.48329V20.1241C0.0983502 21.7548 0.545571 23.3553 1.39695 24.7466C2.24011 26.1322 3.45643 27.2528 4.90686 27.9802L15.9771 33.5917C16.0202 33.6099 16.0648 33.624 16.1105 33.6338L16.1877 33.6689C16.2787 33.6792 16.3705 33.6792 16.4615 33.6689C16.5501 33.6796 16.6396 33.6796 16.7282 33.6689L16.8125 33.6338L16.9458 33.5917L28.0161 27.9802C29.4665 27.2528 30.6828 26.1322 31.526 24.7466C32.3774 23.3553 32.8246 21.7548 32.8177 20.1241V9.46225C32.828 9.36667 32.828 9.27024 32.8177 9.17466H32.7124ZM14.1098 4.10326C14.8104 3.75269 15.5832 3.57015 16.3667 3.57015C17.1502 3.57015 17.923 3.75269 18.6236 4.10326L29.2656 9.46225L20.1399 14.0707L18.6446 14.8212C17.9453 15.1717 17.1737 15.3543 16.3913 15.3543C15.6089 15.3543 14.8373 15.1717 14.1379 14.8212L12.6427 14.0707L5.50354 10.5144L6.20552 10.5846C7.06519 10.6547 7.92915 10.6547 8.78881 10.5846C9.64523 10.5144 10.5087 10.4302 11.3721 10.3811C13.0943 10.2923 14.8165 10.1847 16.5387 10.0585C18.2585 9.91118 19.9784 9.79193 21.7053 9.62358C21.73 9.62033 21.7526 9.60779 21.7685 9.58851C21.7749 9.56796 21.7749 9.54593 21.7685 9.52538C21.7757 9.50016 21.7757 9.47343 21.7685 9.44822C21.7495 9.42785 21.7252 9.41326 21.6983 9.40614C19.9714 9.23078 18.2515 9.10452 16.5317 8.97125C14.8118 8.83797 13.0849 8.71873 11.3651 8.63456C10.5017 8.58546 9.63822 8.50128 8.7818 8.42413C7.92186 8.36099 7.05844 8.36099 6.19851 8.42413C5.95281 8.42413 5.7001 8.47322 5.49652 8.49426L14.1098 4.10326ZM2.17615 20.1171V11.2158L11.688 16.0207C12.7796 16.572 13.6964 17.4155 14.336 18.4572C14.9756 19.4989 15.3129 20.6977 15.3102 21.9198V29.2779C15.1067 28.843 14.875 28.4292 14.6644 28.0153C14.2868 27.3213 13.8524 26.6598 13.3657 26.0373C12.8673 25.42 12.3619 24.8097 11.8775 24.1714C10.9369 22.9088 9.98219 21.6533 8.99941 20.4047C8.01664 19.1561 7.04088 17.9076 6.01599 16.6871C6.00912 16.6765 5.99977 16.6678 5.98876 16.6617C5.97775 16.6556 5.96541 16.6523 5.95281 16.652C5.9418 16.647 5.92983 16.6443 5.91771 16.6443C5.9056 16.6443 5.89362 16.647 5.88261 16.652C5.85903 16.6663 5.84154 16.6888 5.83347 16.7151C5.82254 16.7421 5.82254 16.7723 5.83347 16.7993C6.53545 18.2022 7.33571 19.6051 8.08683 21.0079C8.83795 22.4108 9.63822 23.8137 10.4385 25.1464C10.8386 25.8479 11.2036 26.5493 11.5757 27.2507C11.95 27.9473 12.382 28.6113 12.8673 29.2358C13.0293 29.4529 13.2027 29.6613 13.3868 29.8601L5.79136 26.0443C4.69329 25.4955 3.77147 24.6498 3.13084 23.6033C2.48607 22.5548 2.1458 21.3477 2.14807 20.1171H2.17615ZM26.9842 26.0443L17.4513 30.8561V21.9268C17.4437 20.701 17.7805 19.4977 18.4233 18.4536C19.0661 17.4096 19.9892 16.5667 21.0875 16.0207L25.7136 13.6779L28.697 12.1768C28.4934 12.4153 28.2969 12.6538 28.1003 12.8783C27.5997 13.5169 27.1513 14.1949 26.7595 14.9054C26.3805 15.6069 26.0014 16.3083 25.5943 17.0448C24.78 18.4477 23.9774 19.8506 23.1865 21.2534C22.4213 22.6563 21.6281 24.1013 20.8699 25.5392C20.8647 25.5514 20.862 25.5646 20.862 25.5778C20.862 25.5911 20.8647 25.6042 20.8699 25.6164C20.8704 25.6307 20.8745 25.6446 20.8819 25.6569C20.8892 25.6692 20.8996 25.6794 20.912 25.6865H20.9542H20.9963C22.0352 24.438 23.025 23.1543 24.0148 21.8847C25.0046 20.6151 25.9944 19.3245 26.9631 18.0268C27.4405 17.3745 27.9599 16.7502 28.4513 16.1189C28.9582 15.4857 29.4091 14.8098 29.7991 14.0988C30.0448 13.6709 30.2765 13.2009 30.5011 12.6959V20.075C30.5129 21.3002 30.1829 22.5043 29.5481 23.5525C28.9132 24.6007 27.9987 25.4514 26.907 26.0092L26.9842 26.0443Z" fill="#49A57F"/>
<path d="M40.5324 26.5074H45.5726V13.2572H49.6862V8.58561H45.5726V7.47033C45.5726 5.78687 46.5063 4.85396 48.0015 4.85396C48.4945 4.85196 48.9855 4.91565 49.4616 5.04334C49.6569 5.11525 49.8561 5.17614 50.0583 5.22572V0.561148C49.7564 0.491004 49.4265 0.413849 49.0896 0.301619C48.3062 0.107577 47.5028 0.00634068 46.6958 0C42.9613 0 40.5324 2.3919 40.5324 6.71978V8.58561H37.7245V13.2572H40.5324V26.5074Z" fill="#1B1F1D"/>
<path d="M51.5536 26.5077H56.6008V8.5859H51.5536V26.5077ZM51.1815 2.98841C51.1963 3.7401 51.5064 4.45579 52.045 4.98081C52.5836 5.50583 53.3072 5.798 54.0596 5.79417C54.8159 5.79999 55.5445 5.50954 56.089 4.98507C56.6336 4.4606 56.9509 3.74384 56.9729 2.98841C56.9581 2.23673 56.6479 1.52104 56.1094 0.99602C55.5708 0.471001 54.8471 0.178829 54.0947 0.182659C53.339 0.178627 52.6115 0.46967 52.0673 0.993767C51.5231 1.51786 51.2053 2.23358 51.1815 2.98841Z" fill="#1B1F1D"/>
<path d="M58.6435 26.5076H63.6837V17.2136C63.6837 14.2605 65.3685 12.6963 67.6078 12.6963C69.7137 12.6963 70.9703 14.976 70.9703 17.2136V26.5076H75.9895V16.2035C75.9895 11.5389 72.999 8.55078 69.2645 8.55078C67.184 8.63428 65.1979 9.44051 63.6486 10.8305V8.58586H58.6084L58.6435 26.5076Z" fill="#1B1F1D"/>
<path d="M87.2212 22.0814C86.3164 22.1192 85.4209 21.8858 84.6499 21.4113C83.8788 20.9367 83.2673 20.2427 82.8939 19.4183C82.5205 18.5939 82.4023 17.6768 82.5544 16.7847C82.7065 15.8927 83.122 15.0665 83.7476 14.4122C84.3731 13.7578 85.1802 13.3053 86.065 13.1127C86.9499 12.9202 87.8721 12.9963 88.7133 13.3313C89.5546 13.6664 90.2764 14.2451 90.786 14.9931C91.2957 15.7411 91.5699 16.6242 91.5735 17.5291C91.599 18.1166 91.5054 18.7032 91.2984 19.2537C91.0913 19.8041 90.775 20.3071 90.3684 20.7323C89.9619 21.1575 89.4736 21.4962 88.9327 21.728C88.3919 21.9599 87.8097 22.0801 87.2212 22.0814ZM78.1446 17.5291C78.1069 19.3288 78.6065 21.0989 79.5796 22.6138C80.5527 24.1287 81.9552 25.3197 83.6084 26.0349C85.2616 26.7502 87.0905 26.9573 88.8619 26.6299C90.6333 26.3025 92.2671 25.4553 93.5548 24.1965C94.8425 22.9376 95.7258 21.3241 96.0922 19.5616C96.4586 17.7991 96.2914 15.9676 95.612 14.3004C94.9325 12.6333 93.7716 11.2061 92.2772 10.2008C90.7828 9.1955 89.0227 8.65768 87.2212 8.6559C86.0419 8.642 84.8714 8.8606 83.7767 9.29919C82.682 9.73777 81.6846 10.3877 80.8415 11.2119C79.9985 12.036 79.3264 13.0182 78.8636 14.1022C78.4008 15.1861 78.1565 16.3507 78.1446 17.5291Z" fill="#1B1F1D"/>
<path d="M120.446 19.7871C120.446 24.115 122.875 26.5069 126.609 26.5069C127.415 26.5121 128.218 26.4251 129.003 26.2474C129.34 26.1351 129.705 26.058 129.972 25.9458V21.653C129.781 21.7381 129.581 21.8016 129.375 21.8423C128.899 21.9675 128.408 22.0288 127.915 22.0247C126.427 22.0247 125.486 21.0918 125.486 19.4154V13.2567H130V8.58514H125.486V2.97363H121.008V6.33353C121.008 7.82759 120.306 8.57111 118.951 8.57111H117.273V13.2427H120.446V19.7871Z" fill="#1B1F1D"/>
<path d="M115.42 8.58594H110.387V17.88C110.387 20.8331 108.709 22.4043 106.463 22.4043C104.357 22.4043 103.1 20.1246 103.1 17.88V8.58594H98.0598V18.8901C98.0598 23.5617 101.05 26.5428 104.785 26.5428C106.865 26.4636 108.852 25.6595 110.401 24.2701V26.5077H115.448L115.42 8.58594Z" fill="#1B1F1D"/>
</g>
<defs>
<clipPath id="clip0_10920_216006">
<rect width="130" height="33.6691" fill="white"/>
</clipPath>
</defs>
</svg>
