<svg viewBox="0 0 97 23" width="291" xmlns="http://www.w3.org/2000/svg"><g fill="#8d2df2" fill-rule="nonzero"><path d="M11.747.407c1.088 0 2.095.577 2.62 1.5l5.284 8.99.061.11c.742 1.415.197 3.162-1.233 3.928a3.048 3.048 0 01-2.271.247A2.97 2.97 0 0114.42 13.8l-2.651-4.43-5.975 10.523a3.014 3.014 0 01-2.516 1.511l-.113.003a3.042 3.042 0 01-1.836-.613c-1.175-.882-1.495-2.521-.76-3.816L9.118 1.92A3.018 3.018 0 0111.747.407zm8.565 15.272a2.866 2.866 0 012.864 2.864 2.866 2.866 0 01-2.864 2.864 2.866 2.866 0 01-2.864-2.864 2.866 2.866 0 012.864-2.864zM11.747 2.207c-.446 0-.853.233-1.063.601l-8.55 15.059c-.292.515-.167 1.155.275 1.487.222.166.48.253.756.253.447 0 .854-.234 1.063-.602l6.738-11.866a.9.9 0 011.555-.018l3.453 5.773c.155.271.408.467.721.555.316.09.646.054.934-.1.574-.308.779-.997.477-1.53l-5.297-9.01a1.218 1.218 0 00-1.062-.602zm8.565 15.272c-.586 0-1.064.478-1.064 1.064 0 .586.478 1.064 1.064 1.064.586 0 1.064-.478 1.064-1.064 0-.586-.478-1.064-1.064-1.064zM40.499 21.29c2.124 0 4.3-.486 6.067-2.252 2.355-2.33 2.509-5.914 2.509-7.066v-.205H41.24v2.868h4.403c-.281 1.228-.947 2.099-1.613 2.61-.947.718-2.227 1.025-3.353 1.025-1.818 0-3.021-.717-3.789-1.46-.717-.69-1.69-2.047-1.69-4.326 0-1.92.743-3.558 1.716-4.505 1.05-1.024 2.585-1.51 3.942-1.51.794 0 1.69.178 2.406.537.538.281 1.408.87 1.997 2.022l2.893-1.561c-.896-1.536-2.1-2.56-3.2-3.124-1.306-.69-2.662-.896-3.942-.896-3.303 0-5.453 1.306-6.733 2.612-1.024 1.024-2.509 3.046-2.509 6.348 0 3.84 1.946 5.99 2.534 6.58 1.87 1.868 4.07 2.304 6.196 2.304zm19.292-1.817v1.434h3.123V9.822h-3.123v1.433c-1.05-1.638-2.713-1.792-3.558-1.792-3.277 0-5.504 2.612-5.504 5.888 0 3.252 2.253 5.914 5.657 5.914.794 0 2.279-.18 3.405-1.792zm-2.765-.973c-1.792 0-3.072-1.382-3.072-3.149 0-1.766 1.28-3.123 3.072-3.123s3.072 1.357 3.072 3.123c0 1.767-1.28 3.15-3.072 3.15zm15.12 2.765c3.277 0 5.53-2.534 5.53-5.914 0-3.353-2.176-5.888-5.453-5.888-.947 0-2.509.256-3.61 1.792v-9.01H65.49v18.662h3.123v-1.434c1.204 1.664 2.816 1.792 3.533 1.792zm-.768-2.765c-1.792 0-3.072-1.382-3.072-3.149 0-1.766 1.28-3.123 3.072-3.123s3.072 1.357 3.072 3.123c0 1.767-1.28 3.15-3.072 3.15zm11.434 2.407V2.244h-3.124v18.663h3.124zm8.002.358c3.866 0 5.12-2.637 5.453-3.456l-2.867-.46c-.512.895-1.408 1.458-2.586 1.458-1.203 0-1.894-.588-2.227-1.05-.358-.486-.537-1.202-.537-1.868h8.294v-.256c0-1.203-.154-2.944-1.331-4.352-.768-.922-2.074-1.818-4.327-1.818-1.33 0-2.867.282-4.172 1.562-.794.794-1.69 2.15-1.69 4.352 0 1.74.512 3.174 1.74 4.326 1.102 1.05 2.458 1.562 4.25 1.562zm2.586-7.373h-5.248c.256-1.485 1.46-2.227 2.611-2.227 1.152 0 2.381.717 2.637 2.227z"></path></g></svg>