<svg xmlns="http://www.w3.org/2000/svg" width="300" height="100" viewBox="0 0 150 50" fill="none"><g clip-path="url(#clip0_658_3222)"><g clip-path="url(#clip1_658_3222)"><mask id="mask0_658_3222" style="mask-type:luminance" maskUnits="userSpaceOnUse" x="0" y="0" width="25" height="50"><path d="M25 0H0V50H25V0Z" fill="white"></path></mask><g mask="url(#mask0_658_3222)"><mask id="mask1_658_3222" style="mask-type:alpha" maskUnits="userSpaceOnUse" x="0" y="0" width="25" height="50"><path d="M12.5 0L25 40.6257L12.5 50L0 40.6257L12.5 0ZM18.7955 40.6257L12.5 34.3516L6.28977 40.5974L18.7955 40.6257Z" fill="url(#paint0_radial_658_3222)"></path></mask><g mask="url(#mask1_658_3222)"><path d="M-1.875 46.875L12.5 51.25L26.25 46.25L12.5 35.625L-1.875 46.875Z" fill="url(#paint1_linear_658_3222)"></path><path d="M12.5 34.375L17.5 16.25L28.75 50.625L12.5 34.375Z" fill="url(#paint2_linear_658_3222)"></path><path d="M12.5 34.375L7.5 16.25L-3.75 50.625L12.5 34.375Z" fill="url(#paint3_linear_658_3222)"></path><path d="M6.875 14.375L12.5 34.375L18.125 14.375L12.5 -1.875L6.875 14.375Z" fill="url(#paint4_linear_658_3222)"></path></g></g></g></g><path d="M39.2627 14.289C39.2627 14.7564 39.1852 15.1978 39.0173 15.6003C38.8495 16.0028 38.63 16.3533 38.3459 16.6519C38.0618 16.9505 37.739 17.1842 37.3516 17.353C36.9642 17.5218 36.551 17.6127 36.1378 17.6127C35.2468 17.6127 34.5108 17.2881 33.9039 16.6389C33.3099 15.9898 33 15.2108 33 14.302C33 13.8606 33.0775 13.4321 33.2324 13.0297C33.3874 12.6272 33.6069 12.2767 33.9039 11.978C34.188 11.6794 34.5237 11.4457 34.8982 11.264C35.2726 11.0822 35.6859 10.9913 36.1249 10.9913C36.5639 10.9913 36.9513 11.0822 37.3387 11.251C37.7261 11.4198 38.0618 11.6535 38.333 11.9521C38.6041 12.2507 38.8366 12.6012 39.0044 13.0037C39.1723 13.4062 39.2498 13.8476 39.2498 14.315L39.2627 14.289ZM33.4003 38.5153V20.1444H38.8624V38.5153H33.4003Z" fill="#252A30"></path><path d="M42.4909 38.5153V12.3026H48.0563V38.5153H42.4909Z" fill="#252A30"></path><path d="M51.6589 38.5153V12.3026H57.2243V38.5153H51.6589Z" fill="#252A30"></path><path d="M72.6421 38.4893V35.9447H72.5776C72.371 36.3601 72.0869 36.7496 71.7512 37.1261C71.4154 37.4896 71.0151 37.8142 70.5632 38.0869C70.1112 38.3595 69.6076 38.5802 69.0524 38.749C68.4971 38.9178 67.929 39.0087 67.3221 39.0087C66.147 39.0087 65.1657 38.7879 64.3521 38.3465C63.5516 37.9051 62.893 37.3338 62.3894 36.6328C61.8858 35.9317 61.5243 35.1397 61.3047 34.2439C61.0852 33.3481 60.969 32.4393 60.969 31.5045V20.1573H66.7539V30.1023C66.7539 30.6216 66.7927 31.115 66.8572 31.5694C66.9218 32.0368 67.0638 32.4522 67.2575 32.8158C67.4512 33.1793 67.7224 33.4779 68.0452 33.6856C68.368 33.8934 68.807 33.9972 69.3365 33.9972C70.3437 33.9972 71.1055 33.6077 71.6349 32.8158C72.1644 32.0238 72.4226 31.115 72.4226 30.0504V20.1444H78.1817V38.4764H72.6421V38.4893Z" fill="#252A30"></path><path d="M103.878 38.5153V28.5314C103.878 28.0121 103.839 27.5187 103.775 27.0513C103.71 26.5709 103.581 26.1685 103.4 25.8179C103.22 25.4804 102.974 25.1947 102.664 24.987C102.354 24.7793 101.954 24.6754 101.45 24.6754C100.947 24.6754 100.547 24.7793 100.198 25C99.8493 25.2207 99.5523 25.5193 99.3069 25.8828C99.0616 26.2464 98.8937 26.6748 98.7775 27.1552C98.6613 27.6355 98.6097 28.1289 98.6097 28.6352V38.5153H92.9926V28.0899C92.9926 27.0383 92.7989 26.2074 92.4115 25.5972C92.0242 24.987 91.4044 24.6754 90.565 24.6754C89.674 24.6754 88.9897 25.0519 88.4861 25.8179C87.9825 26.5839 87.75 27.5057 87.75 28.6093V38.5153H82.0943V20.2352H87.5434V22.7669H87.608C87.8146 22.3774 88.0729 22.0009 88.3828 21.6244C88.6927 21.2609 89.0671 20.9363 89.4933 20.6507C89.9194 20.3651 90.4101 20.1443 90.9524 19.9756C91.4947 19.8068 92.0758 19.7159 92.7215 19.7159C93.9611 19.7159 95.007 19.9886 95.8592 20.5209C96.7115 21.0661 97.383 21.8321 97.8607 22.8318C98.4289 21.8711 99.1649 21.1181 100.056 20.5598C100.947 20.0015 102.032 19.7159 103.31 19.7159C104.472 19.7159 105.453 19.9366 106.241 20.391C107.029 20.8454 107.661 21.4297 108.139 22.1567C108.617 22.8838 108.966 23.6887 109.185 24.5845C109.405 25.4804 109.508 26.3502 109.508 27.2071V38.5153H103.878Z" fill="#252A30"></path><path d="M129.781 30.2192C129.781 30.4529 129.781 30.6736 129.742 30.8813H117.721C117.759 31.3617 117.901 31.8031 118.134 32.1926C118.366 32.5821 118.663 32.9326 119.038 33.2182C119.399 33.5039 119.812 33.7376 120.264 33.8934C120.716 34.0491 121.194 34.14 121.685 34.14C122.55 34.14 123.286 33.9712 123.88 33.6337C124.474 33.2961 124.965 32.8677 125.339 32.3354L129.135 34.8281C128.361 36.0096 127.328 36.9184 126.049 37.5546C124.771 38.1907 123.286 38.5023 121.607 38.5023C120.368 38.5023 119.18 38.2946 118.082 37.8921C116.972 37.4896 116.003 36.9054 115.164 36.1264C114.337 35.3474 113.679 34.3997 113.201 33.2702C112.723 32.1406 112.491 30.8423 112.491 29.3882C112.491 27.9342 112.723 26.7008 113.188 25.5583C113.653 24.4158 114.286 23.442 115.086 22.6501C115.887 21.8581 116.83 21.2349 117.914 20.7935C118.999 20.3521 120.174 20.1314 121.439 20.1314C122.705 20.1314 123.777 20.3521 124.81 20.7675C125.843 21.183 126.708 21.8192 127.444 22.6241C128.18 23.429 128.748 24.4158 129.161 25.5712C129.574 26.7267 129.781 28.051 129.781 29.5181V30.2192ZM124.745 27.3499C124.745 26.4541 124.474 25.6751 123.932 25.026C123.389 24.3768 122.576 24.0522 121.478 24.0522C120.949 24.0522 120.458 24.1431 120.006 24.3119C119.567 24.4807 119.18 24.7273 118.844 25.026C118.508 25.3246 118.25 25.6751 118.043 26.0776C117.85 26.4801 117.733 26.9085 117.708 27.3369H124.732L124.745 27.3499Z" fill="#252A30"></path><path d="M143.236 38.5023L139.672 32.8547L136.005 38.5023H129.678L136.302 28.8559L130.31 20.1054H136.676L139.776 25.013L142.9 20.1054H149.06L143.094 28.8559L149.654 38.5023H143.223H143.236Z" fill="#252A30"></path><defs><radialGradient id="paint0_radial_658_3222" cx="0" cy="0" r="1" gradientUnits="userSpaceOnUse" gradientTransform="translate(12.5 34.375) rotate(90) scale(15.625 11.7333)"><stop offset="0.0908445" stop-color="#C343E0"></stop><stop offset="0.213542" stop-color="#DF3796"></stop><stop offset="0.355545" stop-color="#EB718B"></stop><stop offset="0.500654" stop-color="#F5CD66"></stop><stop offset="0.64562" stop-color="#51C2CC"></stop><stop offset="0.791667" stop-color="#33B2DC"></stop><stop offset="0.914037" stop-color="#1871D7"></stop></radialGradient><linearGradient id="paint1_linear_658_3222" x1="6.875" y1="41.875" x2="21.25" y2="41.875" gradientUnits="userSpaceOnUse"><stop stop-color="#CD41CA"></stop><stop offset="0.443295" stop-color="#705BDC"></stop><stop offset="0.729004" stop-color="#248CDA"></stop><stop offset="0.893437" stop-color="#309CD9"></stop></linearGradient><linearGradient id="paint2_linear_658_3222" x1="13.75" y1="31.25" x2="22.5" y2="35" gradientUnits="userSpaceOnUse"><stop stop-color="#D9C97C"></stop><stop offset="0.197917" stop-color="#9EC89F"></stop><stop offset="0.633493" stop-color="#43BBD4"></stop><stop offset="0.976731" stop-color="#2F9CD9"></stop></linearGradient><linearGradient id="paint3_linear_658_3222" x1="10.625" y1="30.625" x2="-9.81184e-07" y2="35.625" gradientUnits="userSpaceOnUse"><stop stop-color="#F3AE7E"></stop><stop offset="0.346478" stop-color="#EB7587"></stop><stop offset="0.586066" stop-color="#DC4CA8"></stop><stop offset="0.903757" stop-color="#CA42CA"></stop></linearGradient><linearGradient id="paint4_linear_658_3222" x1="9.375" y1="13.125" x2="16.25" y2="13.125" gradientUnits="userSpaceOnUse"><stop offset="0.0989583" stop-color="#F3AE7D"></stop><stop offset="0.453125" stop-color="#F6CA68"></stop><stop offset="0.791667" stop-color="#D9C97B"></stop></linearGradient><clipPath id="clip0_658_3222"><rect width="25" height="50" fill="white"></rect></clipPath><clipPath id="clip1_658_3222"><rect width="25" height="50" fill="white"></rect></clipPath></defs></svg>