<svg width="835" height="182" viewBox="0 0 835 182" fill="none" xmlns="http://www.w3.org/2000/svg">
<path fill-rule="evenodd" clip-rule="evenodd" d="M135.2 34.8302C155.048 55.3609 157.791 59.0867 160.038 68.5548C164.95 89.2536 160.727 97.654 129.097 130.102C105.331 154.483 104.376 155.207 95.9045 155.207C91.1094 155.207 87.1841 154.506 87.1841 153.647C87.1841 152.789 102.695 136.43 121.652 117.293C143.566 95.1722 156.12 80.9884 156.12 78.3509C156.12 75.742 145.255 63.2387 126.831 44.6508C110.722 28.3971 98.001 14.3445 98.5646 13.4244C99.1283 12.5042 102.581 11.75 106.237 11.75C112.038 11.75 115.738 14.6991 135.2 34.8302ZM83.0276 17.0272C86.8759 18.7138 101.703 31.7745 115.975 46.0505C140.024 70.1 141.928 72.5675 141.928 79.6706C141.928 83.8862 141.183 87.8006 140.273 88.3682C139.365 88.9359 122.723 73.3135 103.293 53.6496C83.863 33.9858 66.5762 17.8982 64.8771 17.8982C63.178 17.8982 48.5818 31.2704 32.4406 47.6142C16.2994 63.958 2.39858 77.3303 1.54702 77.3303C0.695451 77.3303 0 73.3196 0 68.4175C0 59.8326 0.72587 58.7956 19.7685 40.1688C30.6401 29.5345 42.8682 19.2507 46.9395 17.3161C56.0229 13.0001 73.5266 12.8608 83.0276 17.0272ZM75.0189 35.8528C75.0189 36.7094 59.052 53.5308 39.537 73.2315C20.0219 92.9322 4.05509 109.917 4.05509 110.975C4.05509 112.03 17.7612 126.854 34.5107 143.913C51.2622 160.972 64.3398 175.563 63.5734 176.34C62.805 177.115 59.0196 177.75 55.1592 177.75C49.0705 177.75 45.7291 175.371 29.967 159.818C9.49699 139.617 2.60135 129.272 0.81306 116.082C-1.67878 97.7032 1.92821 91.18 31.0213 61.4475C56.913 34.9859 57.8132 34.2932 66.3045 34.2932C71.0976 34.2932 75.0189 34.9941 75.0189 35.8528ZM58.9101 135.85C78.34 155.514 95.5477 171.602 97.1474 171.602C98.7492 171.602 113.394 158.23 129.695 141.886C145.995 125.542 159.977 112.17 160.767 112.17C161.556 112.17 162.203 115.646 162.203 119.892C162.203 126.96 160.445 129.38 141.421 148.501C119.237 170.796 111.103 175.701 96.308 175.701C80.8886 175.701 73.5408 170.969 46.1265 143.374C22.2928 119.384 20.2754 116.76 20.2754 109.758C20.2754 105.581 21.0195 101.699 21.9298 101.132C22.8382 100.564 39.4802 116.187 58.9101 135.85Z" fill="url(#paint0_linear_9314_37165)"/>
<path d="M185.5 178.75V160.25H209V30.25H185.5V11.75H256V30.25H232.5V160.25H256V178.75H185.5Z" fill="url(#paint1_linear_9314_37165)"/>
<path d="M282.515 178.75V54.75H298.015L303.515 73.5C307.015 67.6667 311.932 62.75 318.265 58.75C324.599 54.75 333.015 52.75 343.515 52.75C358.515 52.75 369.099 57.1667 375.265 66C381.432 74.6667 384.515 86.0833 384.515 100.25V178.75H363.515V106.5C363.515 100.167 362.932 94.3333 361.765 89C360.599 83.5 358.015 79.0833 354.015 75.75C350.182 72.4167 344.265 70.75 336.265 70.75C326.099 70.75 318.099 74.25 312.265 81.25C306.432 88.0833 303.515 98.1667 303.515 111.5V178.75H282.515Z" fill="url(#paint2_linear_9314_37165)"/>
<path d="M418.74 178.75V71.5H397.74V54.75H418.74V36.25C418.74 27.75 419.573 21 421.24 16C422.907 11 426.157 7.5 430.99 5.5C435.823 3.33334 442.823 2.25 451.99 2.25H465.49V20H452.49C447.157 20 443.657 21.0833 441.99 23.25C440.49 25.4167 439.74 29.6667 439.74 36V54.75H465.49V71.5H439.74V178.75H418.74Z" fill="url(#paint3_linear_9314_37165)"/>
<path d="M503.127 31.25C498.96 31.25 495.293 29.75 492.127 26.75C489.127 23.5833 487.627 19.8333 487.627 15.5C487.627 11.1667 489.127 7.5 492.127 4.5C495.293 1.5 498.96 0 503.127 0C507.46 0 511.127 1.5 514.127 4.5C517.293 7.5 518.877 11.1667 518.877 15.5C518.877 19.8333 517.293 23.5833 514.127 26.75C511.127 29.75 507.46 31.25 503.127 31.25ZM492.627 178.75V71.5H475.377V54.75H513.627V178.75H492.627Z" fill="url(#paint4_linear_9314_37165)"/>
<path d="M596.457 181.75C583.457 181.75 572.457 178.917 563.457 173.25C554.457 167.417 547.54 159.667 542.707 150C538.04 140.167 535.707 129.167 535.707 117C535.707 103.833 538.374 92.5 543.707 83C549.04 73.3333 556.207 65.9167 565.207 60.75C574.374 55.4167 584.624 52.75 595.957 52.75C605.79 52.75 614.457 54.75 621.957 58.75C629.457 62.5833 635.624 67.8333 640.457 74.5C645.457 81 649.04 88.4167 651.207 96.75C653.54 105.083 654.374 113.667 653.707 122.5H558.207C558.54 132.833 560.79 141 564.957 147C569.29 153 574.374 157.25 580.207 159.75C586.04 162.083 591.457 163.25 596.457 163.25C603.457 163.25 609.29 162.167 613.957 160C618.79 157.667 622.624 154.667 625.457 151L645.707 157C641.207 164.167 634.79 170.083 626.457 174.75C618.124 179.417 608.124 181.75 596.457 181.75ZM558.457 105.75H631.457C631.457 99.9167 629.957 94.3333 626.957 89C624.124 83.6667 620.04 79.3333 614.707 76C609.54 72.5 603.29 70.75 595.957 70.75C589.79 70.75 583.957 71.9167 578.457 74.25C572.957 76.5833 568.374 80.3333 564.707 85.5C561.207 90.6667 559.124 97.4167 558.457 105.75Z" fill="url(#paint5_linear_9314_37165)"/>
<path d="M700.222 178.75C692.389 178.75 686.306 178 681.972 176.5C677.806 174.833 674.889 171.75 673.222 167.25C671.722 162.75 670.972 156.25 670.972 147.75V12H691.972V144.25C691.972 150.583 692.639 154.833 693.972 157C695.306 159.167 698.889 160.25 704.722 160.25H709.472V178.75H700.222Z" fill="url(#paint6_linear_9314_37165)"/>
<path d="M768.537 181.75C759.204 181.75 750.454 179.25 742.287 174.25C734.12 169.083 727.537 161.75 722.537 152.25C717.704 142.583 715.287 130.917 715.287 117.25C715.287 103.583 717.704 92 722.537 82.5C727.537 72.8333 734.12 65.5 742.287 60.5C750.454 55.3333 759.204 52.75 768.537 52.75C778.37 52.75 786.62 54.75 793.287 58.75C799.954 62.5833 805.12 67.75 808.787 74.25V11.75H829.787V132C829.787 136.167 829.954 142.333 830.287 150.5C830.62 158.5 831.87 167.917 834.037 178.75H814.287L808.787 160C805.12 166.667 799.954 172 793.287 176C786.62 179.833 778.37 181.75 768.537 181.75ZM774.037 163.75C784.704 163.75 793.204 159.667 799.537 151.5C806.037 143.333 809.287 131.917 809.287 117.25C809.287 102.417 806.037 91 799.537 83C793.204 74.8333 784.704 70.75 774.037 70.75C763.37 70.75 754.787 74.8333 748.287 83C741.954 91 738.787 102.417 738.787 117.25C738.787 131.917 741.954 143.333 748.287 151.5C754.787 159.667 763.37 163.75 774.037 163.75Z" fill="url(#paint7_linear_9314_37165)"/>
<defs>
<linearGradient id="paint0_linear_9314_37165" x1="834.037" y1="90.875" x2="-2.43832e-05" y2="90.8752" gradientUnits="userSpaceOnUse">
<stop stop-color="#0367A6"/>
<stop offset="1" stop-color="#61838C"/>
</linearGradient>
<linearGradient id="paint1_linear_9314_37165" x1="227.75" y1="119.75" x2="807.6" y2="121.577" gradientUnits="userSpaceOnUse">
<stop stop-color="#60828B"/>
<stop offset="0.760417" stop-color="#ED705C"/>
<stop offset="1" stop-color="#ECCC45"/>
</linearGradient>
<linearGradient id="paint2_linear_9314_37165" x1="227.75" y1="119.75" x2="807.6" y2="121.577" gradientUnits="userSpaceOnUse">
<stop stop-color="#60828B"/>
<stop offset="0.760417" stop-color="#ED705C"/>
<stop offset="1" stop-color="#ECCC45"/>
</linearGradient>
<linearGradient id="paint3_linear_9314_37165" x1="227.75" y1="119.75" x2="807.6" y2="121.577" gradientUnits="userSpaceOnUse">
<stop stop-color="#60828B"/>
<stop offset="0.760417" stop-color="#ED705C"/>
<stop offset="1" stop-color="#ECCC45"/>
</linearGradient>
<linearGradient id="paint4_linear_9314_37165" x1="227.75" y1="119.75" x2="807.6" y2="121.577" gradientUnits="userSpaceOnUse">
<stop stop-color="#60828B"/>
<stop offset="0.760417" stop-color="#ED705C"/>
<stop offset="1" stop-color="#ECCC45"/>
</linearGradient>
<linearGradient id="paint5_linear_9314_37165" x1="227.75" y1="119.75" x2="807.6" y2="121.577" gradientUnits="userSpaceOnUse">
<stop stop-color="#60828B"/>
<stop offset="0.760417" stop-color="#ED705C"/>
<stop offset="1" stop-color="#ECCC45"/>
</linearGradient>
<linearGradient id="paint6_linear_9314_37165" x1="227.75" y1="119.75" x2="807.6" y2="121.577" gradientUnits="userSpaceOnUse">
<stop stop-color="#60828B"/>
<stop offset="0.760417" stop-color="#ED705C"/>
<stop offset="1" stop-color="#ECCC45"/>
</linearGradient>
<linearGradient id="paint7_linear_9314_37165" x1="227.75" y1="119.75" x2="807.6" y2="121.577" gradientUnits="userSpaceOnUse">
<stop stop-color="#60828B"/>
<stop offset="0.760417" stop-color="#ED705C"/>
<stop offset="1" stop-color="#ECCC45"/>
</linearGradient>
</defs>
</svg>
