<?xml version="1.0" encoding="utf-8"?>
<!-- Generator: Adobe Illustrator 27.0.0, SVG Export Plug-In . SVG Version: 6.00 Build 0)  -->
<svg version="1.1" id="Layer_1" xmlns="http://www.w3.org/2000/svg" xmlns:xlink="http://www.w3.org/1999/xlink" x="0px" y="0px"
	 viewBox="0 0 107.9 23.9" style="enable-background:new 0 0 107.9 23.9;" xml:space="preserve">
<style type="text/css">
	.st0{fill:url(#SVGID_1_);}
	.st1{fill:#FFFFFF;}
	.st2{clip-path:url(#SVGID_00000058586723938244189070000015118333598089163657_);}
	.st3{fill:#101415;}
	.st4{fill-rule:evenodd;clip-rule:evenodd;fill:#101415;}
	.st5{fill-rule:evenodd;clip-rule:evenodd;fill:#FFFFFF;}
	.st6{clip-path:url(#SVGID_00000104683953151885145240000016174489765125705887_);fill:#FFFFFF;}
	.st7{fill:#0A0A39;}
	.st8{fill:#E02317;}
</style>
<g>
	<rect x="33" y="0.8" class="st7" width="3.8" height="17.4"/>
	<path class="st7" d="M38.5,13.1c0,3.8,2.9,5.5,6.2,5.5c3.3,0,6.2-1.8,6.2-5.5V5.5H47v7.3c0,1.7-1.1,2.4-2.3,2.4
		c-1.3,0-2.3-0.6-2.3-2.4V5.5h-3.8V13.1z"/>
	<path class="st7" d="M52.5,18.3h3.8v-7.2c0-1.5,0.9-2.5,2.1-2.5c1.2,0,1.9,0.9,1.9,2.4v7.3H64v-7.2c0-1.5,0.9-2.5,2.1-2.5
		c1.2,0,1.9,0.9,1.9,2.4v7.3h3.8v-7.8c0-3.3-1.6-5.3-4.5-5.3c-1.8,0-3.4,0.4-4.3,2c-0.6-1.3-1.7-2-3.5-2c-1.6,0-2.8,0.8-3.3,1.9V5.5
		h-3.8V18.3z"/>
	<path class="st8" d="M75.4,4.4c1.2,0,2.2-0.9,2.2-2.1c0-1.2-1-2.2-2.2-2.2c-1.2,0-2.2,0.9-2.2,2.2C73.2,3.4,74.2,4.4,75.4,4.4"/>
	<rect x="73.5" y="5.5" class="st7" width="3.8" height="12.8"/>
	<path class="st7" d="M88.9,11.9c0,1.8-1.5,3.1-3.3,3.1c-1.8,0-3.2-1.4-3.2-3.1c0-1.8,1.4-3.2,3.2-3.2C87.4,8.7,88.9,10.1,88.9,11.9
		 M92.4,16.1V5.5h-3.8v1.7c-0.4-1.1-1.9-1.9-3.8-1.9c-3.6,0-6.3,2.9-6.3,6.6c0,3.6,2.7,6.5,6.3,6.5c1.9,0,3.4-0.7,3.9-1.5v0.3
		c0,1-0.1,2.1-1.1,2.8c-0.6,0.4-1.6,0.7-2.6,0.7c-1.5,0-2.8-0.5-3.9-1.2L79.3,22c1.8,1.2,3.8,1.8,6.3,1.8c1.8,0,3.5-0.6,4.6-1.5
		C92.1,20.9,92.4,18.8,92.4,16.1"/>
	<path class="st7" d="M104,11.9c0,1.9-1.5,3.4-3.3,3.4c-1.9,0-3.3-1.5-3.3-3.4c0-1.9,1.4-3.3,3.3-3.3C102.5,8.5,104,10,104,11.9
		 M107.8,11.9c0-3.8-3.2-6.8-7.1-6.8c-4,0-7.1,3-7.1,6.8s3.1,6.8,7.1,6.8C104.6,18.6,107.8,15.6,107.8,11.9"/>
	<g>
		<defs>
			<path id="SVGID_00000127033105594450653150000002388120191643387520_" d="M18.5,14.6c-0.7-0.3-1.4-0.8-1.9-1.4L13,9.6l3.6-3.7
				c0.5-0.6,1.2-1.1,1.9-1.4c1.4-0.6,2.9-0.6,4.2,0c1.4,0.6,2.4,1.6,3,3c0.3,0.7,0.4,1.4,0.4,2.1c0,0.7-0.2,1.4-0.4,2.1
				c-0.9,2.1-3,3.4-5.1,3.4C19.9,15.1,19.2,14.9,18.5,14.6 M20.5,0.9L0.2,1L3.2,4h6.7l4.1,0l-0.8,0.8L4,4.9l3,3.1l3.2,0L8.7,9.6
				l1.6,1.6l-3.3,0l-3,3.1l9.3,0l0.8,0.8l-11,0l-3,3.1l20.4,0c0.1,0,0.2,0,0.2,0c0,0,0.1,0,0.1,0c1.2,0,2.3-0.2,3.3-0.7
				c3.2-1.4,5.3-4.5,5.3-8v0c0-3.5-2-6.6-5.3-8c-1-0.4-2.2-0.7-3.3-0.7c0,0-0.1,0-0.1,0C20.6,0.9,20.6,0.9,20.5,0.9"/>
		</defs>
		
			<linearGradient id="SVGID_00000098212775476511284040000003970372835419446439_" gradientUnits="userSpaceOnUse" x1="7.086615e-02" y1="9.5891" x2="29.3647" y2="9.5891">
			<stop  offset="0" style="stop-color:#FFC94F"/>
			<stop  offset="0.2025" style="stop-color:#FFC94F"/>
			<stop  offset="0.5958" style="stop-color:#E02317"/>
			<stop  offset="1" style="stop-color:#E02317"/>
		</linearGradient>
		
			<use xlink:href="#SVGID_00000127033105594450653150000002388120191643387520_"  style="overflow:visible;fill:url(#SVGID_00000098212775476511284040000003970372835419446439_);"/>
		<clipPath id="SVGID_00000158726401988306618310000012510465791032203946_">
			<use xlink:href="#SVGID_00000127033105594450653150000002388120191643387520_"  style="overflow:visible;"/>
		</clipPath>
	</g>
</g>
</svg>
