<svg width="1250" height="267" viewBox="0 0 1250 267" fill="none" xmlns="http://www.w3.org/2000/svg">
<path d="M1208.7 200.236L1196.14 174.733H1123.06L1112.47 196.219C1111.26 198.678 1108.76 200.236 1106.02 200.236H1069.77L1138.66 67.0117H1176.72C1179.41 67.0117 1181.88 68.5129 1183.12 70.9033L1250 200.236H1208.7ZM1136.38 147.137H1182.63L1159.6 99.9372L1136.38 147.137Z" fill="#1C1818"/>
<path d="M1003.21 67.0117H1040.91C1042.9 67.0117 1044.51 68.6231 1044.51 70.6108V200.236H1005.88V115.163L953.379 179.515C952.998 179.982 952.428 180.253 951.826 180.253C951.223 180.253 950.653 179.982 950.272 179.515L897.774 115.163V196.637C897.774 198.625 896.163 200.236 894.175 200.236H860.281V67.0117H899.216C901.43 67.0117 903.52 68.0301 904.884 69.7731L952.777 130.96L1003.21 67.0117Z" fill="#1C1818"/>
<path d="M741.509 204.34C688.79 204.34 654.722 178.456 654.722 133.35C654.722 88.244 688.79 62.3604 741.509 62.3604C794.228 62.3604 828.485 88.244 828.485 133.35C828.485 178.456 794.228 204.34 741.509 204.34ZM741.509 172.746C770.818 172.746 788.899 158.472 788.899 133.35C788.899 108.228 770.818 93.9536 741.509 93.9536C712.39 93.9536 694.119 108.228 694.119 133.35C694.119 158.472 712.199 172.746 741.509 172.746Z" fill="#1C1818"/>
<path d="M585.913 67.0117H619.807C621.795 67.0117 623.406 68.6231 623.406 70.6108V200.236H589.339L501.928 112.689V196.637C501.928 198.625 500.316 200.236 498.329 200.236H464.435V67.0117H502.534C504.46 67.0117 506.305 67.7834 507.658 69.1543L585.913 148.469V67.0117Z" fill="#1C1818"/>
<path d="M222.816 246.05L243.276 266.532L358.021 151.666C379.988 129.676 390.971 118.682 395.086 106.003C398.706 94.8507 398.706 82.8374 395.086 71.6851C390.971 59.0066 379.988 48.0116 358.021 26.0218L332.027 0L198.901 133.266V78.2797C198.901 65.7847 198.901 59.5372 197.491 53.6579C196.24 48.4453 194.179 43.4622 191.381 38.8915C188.225 33.7362 183.812 29.3185 174.986 20.4832L154.525 0.00131676L39.7801 114.867C17.8134 136.857 6.83002 147.852 2.71485 160.53C-0.904957 171.683 -0.904947 183.696 2.71486 194.848C6.83003 207.527 17.8134 218.522 39.7802 240.512L65.7746 266.533L198.901 133.267V188.254C198.901 200.749 198.901 206.996 200.311 212.876C201.561 218.088 203.623 223.071 206.421 227.642C209.576 232.797 213.99 237.215 222.816 246.05Z" fill="#008CFF"/>
</svg>
