<svg xmlns="http://www.w3.org/2000/svg" id="Warstwa_1" data-name="Warstwa 1" viewBox="0 0 3705 1006"><defs><style>.cls-1{fill:#72caf0;}.cls-2{fill:#f53f52;}.cls-3{fill:#161a38;}.cls-4{fill:#8e4ff6;}.cls-5{fill:#000;}</style></defs><path class="cls-1" d="M420.21,413.34V3A34.79,34.79,0,0,0,400,9.49l-383.53,274a34.72,34.72,0,0,0-11,12.95L294.7,503Z"/><path class="cls-2" d="M545.72,503,835,296.39a34.65,34.65,0,0,0-11-12.95L440.47,9.49A34.8,34.8,0,0,0,420.21,3V413.34Z"/><path class="cls-1" d="M420.21,592.64V1003a34.8,34.8,0,0,0,20.26-6.49L824,722.56a34.65,34.65,0,0,0,11-12.95L545.72,503Z"/><path class="cls-3" d="M545.72,503,835,709.61a34.81,34.81,0,0,0,3.58-15.33V311.72A34.81,34.81,0,0,0,835,296.39Z"/><path class="cls-4" d="M294.7,503,5.46,709.61a34.72,34.72,0,0,0,11,12.95L400,996.51a34.79,34.79,0,0,0,20.25,6.49V592.64Z"/><path class="cls-3" d="M5.46,296.39a34.67,34.67,0,0,0-3.58,15.33V694.28a34.67,34.67,0,0,0,3.58,15.33L294.7,503Z"/><path class="cls-5" d="M1479.51,296.39V707.86h-74.44L1218.76,450.42V707.86h-87.39V296.39h80.32l180.44,251v-251Z"/><path class="cls-5" d="M1542,549.13c0-96.29,73.56-167.64,171.61-167.64S1885.1,453,1885.1,549.13s-73.55,167.71-171.53,167.71S1542,644.83,1542,549.13Zm256.2,0c0-51.49-35.16-86.94-84.59-86.94s-84.74,35.52-84.74,86.94,35.09,87,84.59,87,84.59-35.61,84.59-87Z"/><path class="cls-5" d="M1925.78,549.13c0-96.29,73.55-167.64,171.61-167.64s171.38,71.5,171.38,167.64-73.55,167.71-171.53,167.71S1925.78,644.83,1925.78,549.13Zm256.2,0c0-51.49-35.16-86.94-84.59-86.94s-84.59,35.52-84.59,86.94,35.08,87,84.59,87S2182,600.54,2182,549.13Z"/><path class="cls-5" d="M2642.29,390.47V671c0,99.38-61.79,160.21-161.82,160.21-86,0-147.12-44.14-161.83-116.52H2404c9.71,28.62,43.32,43.11,75,43.11,43.4,0,79.44-28,79.44-74.51V671.53a158.88,158.88,0,1,1-91-289.82,154,154,0,0,1,105.56,40.46l13.83-31.48Zm-83.78,150.42a80.91,80.91,0,0,0-161.82,0c0,47.52,33.68,82.16,80.91,82.16s80.91-34.57,80.91-82.16Z"/><path class="cls-5" d="M3048,390v317.4h-67.31L2973.37,679a154,154,0,0,1-103,37.88c-95.62,0-166.53-72.09-166.53-168.15s71.2-167,166.68-167a155,155,0,0,1,104.37,38.55L2984,390ZM2964,548.69a86.5,86.5,0,1,0-86.43,86.94A84.3,84.3,0,0,0,2964,553.54C2964,551.92,2964,550.3,2964,548.69Z"/><path class="cls-5" d="M3324.6,631.81v76.42h-61c-69.8,0-112.69-43-112.69-113.35V459.46h-57.44v-18.9l125-133.21h16.4v82.82h87.54v69H3236.7V582.82c0,30.67,17.65,48.32,48.91,48.32Z"/><path class="cls-5" d="M3703.12,390v317.4h-67.3L3628.46,679a154,154,0,0,1-103,37.88c-95.62,0-166.53-72.09-166.53-168.15s71.5-167,167-167a154.51,154.51,0,0,1,104.23,38.77l9.2-30.31Zm-83.78,158.74a86.5,86.5,0,1,0-86.43,86.94,84.29,84.29,0,0,0,86.44-82.09C3619.4,551.92,3619.39,550.3,3619.34,548.69Z"/></svg>