<?xml version="1.0" encoding="UTF-8"?>
<svg xmlns="http://www.w3.org/2000/svg" xmlns:xlink="http://www.w3.org/1999/xlink" width="478.076" height="96.982" viewBox="0 0 239.038 48.491">
  <defs>
    <linearGradient id="a" x1="0.799" y1="0.426" x2="0.148" y2="0.426" gradientUnits="objectBoundingBox">
      <stop offset="0" stop-color="#19120e"></stop>
      <stop offset="1" stop-color="#989390"></stop>
    </linearGradient>
    <linearGradient id="b" x1="0.5" x2="0.5" y2="1" gradientUnits="objectBoundingBox">
      <stop offset="0" stop-color="#e9521f"></stop>
      <stop offset="1" stop-color="#ef9d7e"></stop>
    </linearGradient>
    <linearGradient id="c" x1="0.743" x2="0.743" y2="0.923" gradientUnits="objectBoundingBox">
      <stop offset="0" stop-color="#e94f1f"></stop>
      <stop offset="1" stop-color="#ef7d52"></stop>
    </linearGradient>
    <linearGradient id="d" x1="0.5" x2="0.5" y2="1" gradientUnits="objectBoundingBox">
      <stop offset="0" stop-color="#e94d1f"></stop>
      <stop offset="1" stop-color="#f08156"></stop>
    </linearGradient>
  </defs>
  <g transform="translate(-15 -2)">
    <path d="M22.673,182.353,15.6,178.246a1.191,1.191,0,0,1,.1-2.115L46.243,162.07a1.194,1.194,0,0,1,1.1.052l28.8,16.638a1.192,1.192,0,0,1-.1,2.116l-8.929,4.107L45.441,172.442a1.188,1.188,0,0,0-1.1-.051l-9.59,4.411a.6.6,0,0,0-.049,1.057l19.217,11.1a1.192,1.192,0,0,1-.1,2.121l-8.944,4.093L22.712,182.355a.017.017,0,0,0-.019,0A.022.022,0,0,1,22.673,182.353Z" transform="translate(0 -144.683)" fill="#fff"></path>
    <path d="M22.673,182.353,15.6,178.246a1.191,1.191,0,0,1,.1-2.115L46.243,162.07a1.194,1.194,0,0,1,1.1.052l28.8,16.638a1.192,1.192,0,0,1-.1,2.116l-8.929,4.107L45.441,172.442a1.188,1.188,0,0,0-1.1-.051l-9.59,4.411a.6.6,0,0,0-.049,1.057l19.217,11.1a1.192,1.192,0,0,1-.1,2.121l-8.944,4.093L22.712,182.355a.017.017,0,0,0-.019,0A.022.022,0,0,1,22.673,182.353Z" transform="translate(0 -144.683)" fill="url(#a)"></path>
    <path d="M162.369,108.87l-8.095,3.707a1.192,1.192,0,0,0-.1,2.116l15.144,8.767a1.792,1.792,0,0,1,.892,1.546l.01,22,9.984-4.57a1.789,1.789,0,0,0,1.043-1.624l-.012-20.886a1.791,1.791,0,0,0-.89-1.551l-16.333-9.424A1.786,1.786,0,0,0,162.369,108.87Z" transform="translate(-125.345 -96.515)" fill="url(#b)"></path>
    <path d="M395.117,2.161,387.025,5.87a1.192,1.192,0,0,0-.1,2.118l15.442,8.94a1.192,1.192,0,0,1,.594,1.032l.014,22.342L413.3,35.568a1.194,1.194,0,0,0,.7-1.085l-.014-21.269a1.787,1.787,0,0,0-.894-1.547L396.76,2.243A1.79,1.79,0,0,0,395.117,2.161Z" transform="translate(-335.86)" fill="url(#c)"></path>
    <path d="M1348.983,174.32H1336.46v18.4h12.881v-3.573h-8.787v-4.045h7.593v-3.574h-7.593v-3.626h8.787V174.32Z" transform="translate(-1195.243 -155.861)" fill="url(#d)"></path>
    <path d="M1111.968,174.32h-.358v12.2l-4.693-11.968-.089-.227h-5.669v18.4h4.069V180.507l4.692,11.99.089.227h5.682v-18.4h-3.723Z" transform="translate(-982.417 -155.861)" fill="url(#d)"></path>
    <path d="M867.835,172.812a8.756,8.756,0,0,0-12.194,0l.269.236-.009-.007-.261-.229c-1.441,1.648-2.133,4.04-2.133,7.119s.691,5.474,2.133,7.13l.27-.235-.266.231a8.79,8.79,0,0,0,12.194,0l-.268-.236.006,0,.263.231c1.45-1.656,2.146-4.053,2.146-7.131s-.7-5.471-2.146-7.119Zm-4.447.985-.1.344a3.4,3.4,0,0,1,1.22.631,3.042,3.042,0,0,1,.807,1.024l.318-.161-.319.162a3.043,3.043,0,0,1,.3,1.4v5.46a3.109,3.109,0,0,1-.3,1.4l.32.16-.317-.159a3.055,3.055,0,0,1-.807,1.024,3.434,3.434,0,0,1-1.22.631l.1.344-.1-.344a5.736,5.736,0,0,1-3.1,0,3.433,3.433,0,0,1-1.208-.632,3.187,3.187,0,0,1-.822-1.029,3.02,3.02,0,0,1-.3-1.4V177.2a3.02,3.02,0,0,1,.3-1.4,3.187,3.187,0,0,1,.822-1.029,3.4,3.4,0,0,1,1.2-.631h.006l-.1-.342.108.342a5.4,5.4,0,0,1,3.085,0h.007l.1-.343Z" transform="translate(-758.419 -152.261)" fill="url(#d)"></path>
    <path d="M1549.01,193.7v.18h11.228v-3.215h-7.491v-14.83h-3.736Zm16.123-.057-.081.237h4.028l.039-.127,1.1-3.645h5.762l1.129,3.646.039.126h4.029l-.08-.237-6-17.688-.041-.121h-3.846l-.041.121Zm20.968-17.808h-.3l.145.265,5.883,10.728v7.054h3.739v-7.055l5.882-10.728.146-.265h-4.183l-.05.1-3.637,7.032-3.638-7.031-.05-.1Zm21.825,17.866v.18h12.523v-3.215h-8.787v-4.4h7.59v-3.215h-7.593v-3.985h8.787v-3.226h-12.52Zm20.112,0v.18h3.735v-6.789h1.874l3.671,6.7.051.1h4.161l-.154-.268-3.938-6.877a5.3,5.3,0,0,0,2.666-1.761,5.532,5.532,0,0,0,1.041-3.5,5.718,5.718,0,0,0-1.413-4.243,5.951,5.951,0,0,0-4.316-1.4h-7.376V193.7Zm8.924-14.307a1.668,1.668,0,0,1,.307,1.146v1.815a1.754,1.754,0,0,1-.351,1.2,1.334,1.334,0,0,1-1.057.382h-4.088v-4.88h4.088A1.416,1.416,0,0,1,1636.961,179.39Zm-65.749,7.5,1.947-6.358,1.864,6.358Z" transform="translate(-1387.492 -157.227)" fill="#242424"></path>
  </g>
</svg>
