<svg xmlns="http://www.w3.org/2000/svg" width="119" height="22" viewBox="0 0 119 22"><defs><linearGradient x1="92.272%" y1="71.772%" x2="9.181%" y2="28.965%" id="99nmcmu7na"><stop stop-color="#B8F459" offset="0%"></stop><stop stop-color="#00DDA5" offset="100%"></stop></linearGradient></defs><g fill="none" fill-rule="evenodd"><path d="M40.678 1.085c4.313 0 7.962 3.378 7.962 8.294s-3.649 8.293-7.962 8.293c-1.568 0-3.106-.452-4.191-1.357l.038 1.208.023 1.203.026 2.163.003.355h-4.765v-7.45l.003-.123c.027-.376.136-.74.321-1.069l.099-.16 1.367-2.052-1.313-1.781a2.558 2.558 0 0 1-.479-1.191l.002-6.031h4.222l.03 1.448c1.086-1.146 2.835-1.75 4.614-1.75zm-.633 4.343c-2.171 0-3.77 1.538-3.77 3.95 0 2.413 1.599 3.951 3.77 3.951 2.202 0 3.83-1.538 3.83-3.95 0-2.413-1.628-3.95-3.83-3.95zM81.032 21.194l2.144-4.283h7.703l.01-.023-6.273-15.501h5.278l3.468 9.62 3.287-9.62h4.976l-6.082 17.122a4.113 4.113 0 0 1-3.787 2.735l-10.724-.05zM55.235 17.37V7.058c0-.965.422-1.388 1.387-1.388h2.568V1.387h-5.92a2.8 2.8 0 0 0-2.8 2.8v13.184h4.765zM66.108 17.37V1.388h-4.765v15.984zM78.049 17.37l5.82-15.983h-4.886l-3.226 9.62-3.227-9.62h-5.157l5.88 15.984zM109.143 1.085c1.779 0 3.528.604 4.614 1.75l.03-1.448h4.222v15.984h-4.222l-.03-1.448c-1.086 1.146-2.835 1.75-4.614 1.75-4.313 0-7.962-3.378-7.962-8.294s3.65-8.294 7.962-8.294zm.633 4.343c-2.202 0-3.83 1.538-3.83 3.95 0 2.413 1.628 3.951 3.83 3.951 2.171 0 3.77-1.538 3.77-3.95 0-2.413-1.599-3.95-3.77-3.95z" fill="#002141" fill-rule="nonzero"></path><path d="m21.75 0 .214.005a4.686 4.686 0 0 1 4.473 4.662l.008.286a5.545 5.545 0 0 0 1.021 2.91l1.449 2.033-1.569 2.435-.15.248a5.521 5.521 0 0 0-.73 2.764l-.004.23a4.495 4.495 0 0 1-4.49 4.284h-4.969v-4.424h4.969l.028-.006a.071.071 0 0 0 .038-.037l.005-.028.005-.36a9.945 9.945 0 0 1 1.39-4.76l.144-.233-.117-.183a9.969 9.969 0 0 1-1.452-5.14.263.263 0 0 0-.263-.263h-4.747V0h4.747zm-9.838 0v4.423H7.164a.263.263 0 0 0-.262.262A9.969 9.969 0 0 1 5.45 9.826l-.117.183.144.233a9.945 9.945 0 0 1 1.39 4.76l.005.36.005.028c.007.017.021.03.038.037l.028.006h4.969v4.424h-4.97a4.495 4.495 0 0 1-4.489-4.284l-.005-.23a5.521 5.521 0 0 0-.728-2.764l-.151-.248L0 9.896l1.448-2.032a5.545 5.545 0 0 0 1.022-2.91l.008-.287A4.686 4.686 0 0 1 6.951.005L7.164 0h4.748zm5.294 7.063 3.316 2.928a8.288 8.288 0 0 1-12.193.252l-.232-.252 3.315-2.928a3.864 3.864 0 0 0 5.65.155l.144-.155z" fill="url(#99nmcmu7na)" transform="translate(.073 .244)"></path></g></svg>