<svg width="244" height="76" viewBox="0 0 122 38" fill="none" xmlns="http://www.w3.org/2000/svg">
<g clip-path="url(#clip0_40000405_4510)">
<path d="M76.3546 11.0944C71.9987 11.0944 68.459 14.644 68.459 19C68.459 23.3561 72.004 26.9056 76.3546 26.9056C80.7051 26.9056 84.2502 23.3561 84.2502 19C84.2502 14.644 80.7051 11.0944 76.3546 11.0944ZM76.3546 23.5524C73.8481 23.5524 71.808 21.5096 71.808 19C71.808 16.4904 73.8481 14.4477 76.3546 14.4477C78.861 14.4477 80.9011 16.4904 80.9011 19C80.9011 21.5096 78.861 23.5524 76.3546 23.5524Z" fill="#7968FA"/>
<path d="M114.099 11.0944C109.743 11.0944 106.203 14.644 106.203 19C106.203 23.3561 109.748 26.9056 114.099 26.9056C118.449 26.9056 121.994 23.3561 121.994 19C121.994 14.644 118.449 11.0944 114.099 11.0944ZM114.099 23.5524C111.592 23.5524 109.552 21.5096 109.552 19C109.552 16.4904 111.592 14.4477 114.099 14.4477C116.605 14.4477 118.645 16.4904 118.645 19C118.645 21.5096 116.605 23.5524 114.099 23.5524Z" fill="#7968FA"/>
<path d="M62.0262 12.5428C60.7385 11.6302 59.1753 11.0891 57.4796 11.0891C53.1237 11.0891 49.584 14.6386 49.584 18.9947C49.584 23.3507 53.129 26.9003 57.4796 26.9003C59.17 26.9003 60.7385 26.3591 62.0262 25.4465V33.7978H65.3804V9.48141H62.0262V12.5428ZM57.4796 23.5523C54.9731 23.5523 52.933 21.5096 52.933 19C52.933 16.4903 54.9731 14.4476 57.4796 14.4476C59.986 14.4476 62.0262 16.4903 62.0262 19C62.0262 21.5096 59.986 23.5523 57.4796 23.5523Z" fill="#7968FA"/>
<path d="M99.7703 12.5429C98.4826 11.6303 96.9194 11.0891 95.2237 11.0891C90.8679 11.0891 87.3281 14.6386 87.3281 18.9947C87.3281 23.3507 90.8732 26.9003 95.2237 26.9003C96.9141 26.9003 98.4826 26.3591 99.7703 25.4465V28.4071H103.125V4.09074H99.7703V12.5429ZM95.229 23.5523C92.7226 23.5523 90.6824 21.5096 90.6824 19C90.6824 16.4904 92.7226 14.4476 95.229 14.4476C97.7355 14.4476 99.7756 16.4904 99.7756 19C99.7756 21.5096 97.7355 23.5523 95.229 23.5523Z" fill="#7968FA"/>
<path d="M18.2438 18.3686C18.8055 18.931 19.6375 19.2176 20.7185 19.2176C22.181 19.2176 23.1295 18.74 23.6224 17.7585C23.9244 17.1589 23.9986 16.4479 24.0198 15.7582H25.8109C25.8321 16.4479 25.9062 17.1589 26.2083 17.7585C26.6958 18.74 27.6496 19.2176 29.1122 19.2176C30.1932 19.2176 31.0251 18.931 31.5868 18.3686C32.3976 17.5568 32.3923 16.4161 32.387 15.928V15.8696C32.387 15.4451 32.6731 15.2435 32.6943 15.2329C32.7049 15.2276 32.7102 15.217 32.7208 15.2117H33.2295C33.4468 15.2117 33.627 15.0313 33.627 14.8138C33.627 14.5962 33.4468 14.4158 33.2295 14.4158H16.6064C16.3892 14.4158 16.209 14.5962 16.209 14.8138C16.209 15.0313 16.3892 15.2117 16.6064 15.2117H17.1151C17.1151 15.2117 17.131 15.2276 17.1363 15.2329C17.1469 15.2435 17.4437 15.4451 17.4437 15.8696V15.928C17.4437 16.4161 17.4384 17.5568 18.2438 18.3686Z" fill="#7968FA"/>
<path d="M45.344 28.2904C45.3334 28.248 45.3122 28.2002 45.291 28.1525C45.2857 28.1206 45.2698 28.0888 45.2539 28.057C45.2539 28.0464 45.2486 28.0357 45.2433 28.0304C45.2433 28.0198 45.2433 28.0145 45.2327 28.0039C44.4325 26.1097 40.6331 20.7085 34.1895 16.0447C34.004 16.1932 33.7867 16.3047 33.543 16.3524C33.543 16.4108 33.5377 16.4744 33.5324 16.5328C38.1002 19.7906 41.3326 23.425 43.0866 25.9134L38.7943 28.699C38.7943 28.699 38.7784 28.7202 38.7731 28.7255C36.0653 27.6643 31.948 26.1522 27.9472 25.1865C24.0047 24.2368 20.2477 23.5205 17.6299 25.1653C15.4149 26.5607 13.6715 29.7548 11.8646 35.7557C5.36264 32.9754 0.794857 26.513 0.794857 19C0.794857 16.7716 1.19759 14.6333 1.93415 12.6596C3.98488 11.6462 6.04092 10.8715 8.07575 10.3569C8.11284 10.4152 8.14994 10.4736 8.19233 10.532L9.77145 12.6808C9.85093 12.7869 9.97281 12.8453 10.0947 12.8453C10.1742 12.8453 10.259 12.8188 10.3278 12.7657C10.5027 12.6331 10.5451 12.389 10.4126 12.2086L8.83352 10.0598C8.56856 9.70427 8.40429 9.31164 8.346 8.93493C8.20823 8.01173 8.70634 7.7146 9.09847 7.57135C9.54889 7.40687 9.93572 7.41217 10.2696 7.60318C10.8101 7.90561 11.1121 8.6272 11.1704 8.93493C11.2658 9.41776 11.907 11.6621 11.9335 11.7576C11.9917 11.9698 12.2143 12.0919 12.4263 12.0335C12.6382 11.9751 12.7601 11.7523 12.6965 11.5401C12.5587 11.0572 12.3362 10.272 12.1719 9.65652C14.6678 9.42837 17.1371 9.57693 19.5217 10.1128H19.5323C19.7231 10.1553 19.9085 10.1977 20.0993 10.2455C20.4649 10.3357 20.82 10.4365 21.175 10.5373C21.4506 10.6169 21.7367 10.7018 22.0493 10.7973C24.222 11.4658 26.2462 12.3094 28.1221 13.2591H29.8177C27.6663 12.0707 25.3136 11.0095 22.7541 10.1871C23.1462 9.39123 23.3582 8.74393 23.3635 8.28232C23.3847 8.12315 23.4271 7.55013 23.0615 7.04077C22.7753 6.64284 22.3302 6.38816 21.7314 6.29265C20.2265 6.04859 19.5588 7.1575 19.4104 7.82072L19.2408 9.24798C16.8775 8.77045 14.4399 8.64312 11.9812 8.88188C11.9759 8.85004 11.9653 8.8129 11.96 8.79168C11.8699 8.34599 11.4883 7.38565 10.667 6.92404C10.1265 6.62161 9.51179 6.58978 8.83352 6.83915C7.85849 7.19994 7.40807 7.99051 7.57234 9.06758C7.59884 9.25859 7.65713 9.44959 7.72601 9.6406C5.96143 10.1022 4.18095 10.7654 2.40047 11.5878C2.65482 11.0148 2.94097 10.463 3.25362 9.92711C4.29753 9.49735 5.34144 9.12064 6.38005 8.8076C6.32177 7.37503 7.06893 6.25021 8.43609 5.74616C8.86531 5.58699 9.29453 5.5074 9.71316 5.5074C10.2537 5.5074 10.7677 5.64004 11.2446 5.90533C11.9917 6.32449 12.5005 6.99832 12.8025 7.65094C13.3377 7.6191 13.8782 7.60318 14.4081 7.60318C15.6905 7.60318 16.9782 7.69869 18.234 7.8897L18.2605 7.68808V7.62441L18.2817 7.56074C18.5626 6.3351 19.6171 5.09885 21.3287 5.09885C21.5247 5.09885 21.7261 5.11477 21.9275 5.14661C23.0721 5.33231 23.6973 5.91595 24.0206 6.37224C24.5823 7.1628 24.577 7.99581 24.5399 8.37783C24.524 8.70679 24.4551 9.07819 24.3173 9.49204C27.1894 10.5214 29.8019 11.8266 32.144 13.2698H33.2409C34.1047 13.2698 34.8042 13.9701 34.8042 14.835C34.8042 14.8986 34.7936 14.9623 34.7883 15.026C35.5725 15.5884 36.3197 16.1561 37.0245 16.7344C37.3212 16.9785 37.6126 17.2173 37.8988 17.4613C37.088 7.67746 28.9328 0 18.9759 0C18.5626 0 18.1545 0.0159173 17.7465 0.0424462C17.6352 0.047752 17.524 0.0583636 17.4074 0.0689751C17.0788 0.095504 16.7556 0.132645 16.4324 0.175091C16.3476 0.185702 16.2628 0.196314 16.178 0.206925C15.7859 0.265289 15.4043 0.334264 15.0175 0.413851C14.9168 0.435074 14.8214 0.461603 14.7261 0.482826C14.4293 0.551801 14.1326 0.626082 13.8411 0.705669C13.7298 0.737503 13.6239 0.764032 13.5126 0.801173C13.1469 0.912594 12.7813 1.02932 12.4263 1.16197C12.368 1.18319 12.315 1.20441 12.262 1.22564C11.9547 1.34236 11.6526 1.4697 11.3506 1.59704C11.2393 1.64479 11.128 1.69785 11.0167 1.7456C10.7412 1.87294 10.4656 2.01089 10.1954 2.15415C10.1212 2.19129 10.047 2.22843 9.97281 2.26557C9.64427 2.44066 9.32103 2.63167 9.00838 2.82798C8.913 2.88634 8.81762 2.95001 8.72223 3.01368C8.48378 3.16755 8.24532 3.32672 8.01216 3.4912C7.92208 3.55487 7.83199 3.61854 7.74191 3.68221C7.43986 3.90505 7.14842 4.1332 6.86227 4.37196C6.80398 4.41971 6.75099 4.46747 6.6927 4.51522C6.45424 4.72214 6.21578 4.92907 5.98793 5.14661C5.90844 5.22089 5.82895 5.29517 5.75477 5.36945C5.50041 5.61882 5.25136 5.86819 5.0076 6.13348C4.9917 6.15471 4.97051 6.17062 4.95461 6.19185C4.68966 6.47836 4.4406 6.78079 4.19685 7.08322C4.14386 7.14689 4.09617 7.21586 4.04317 7.27953C3.83121 7.55013 3.62985 7.82603 3.42848 8.10723C3.39669 8.14968 3.3649 8.19212 3.3331 8.23988C3.09994 8.57414 2.88268 8.91902 2.67072 9.2745C2.66012 9.29042 2.64952 9.30634 2.63893 9.32756C2.43756 9.66713 2.2521 10.012 2.07193 10.3622C2.06133 10.3834 2.05073 10.4046 2.03483 10.4259C0.741867 12.9992 0 15.912 0 19C0 28.9749 7.67302 37.1458 17.4339 37.931C17.5134 37.9363 17.5928 37.9416 17.6723 37.9469C18.1016 37.9735 18.5361 37.9947 18.9706 37.9947C25.6368 37.9947 31.4922 34.5512 34.8783 29.3463C32.6368 28.5451 30.0297 27.6962 27.4809 27.0807C25.5732 26.6244 23.39 26.131 21.5883 26.131C20.3536 26.131 19.3945 26.3538 18.6685 26.8154C16.2257 28.3541 14.4982 33.7129 13.698 36.4136C13.3271 36.3021 12.9562 36.1748 12.5958 36.0369C13.804 31.9939 15.4997 27.4256 18.0433 25.8232C20.4013 24.3429 23.9782 25.0327 27.7511 25.9453C33.0502 27.224 38.5877 29.4789 40.6702 30.3331C41.8307 30.8054 41.8996 30.8372 42.0691 30.6462L45.1638 28.7361C45.3175 28.6406 45.3864 28.4549 45.3334 28.2798L45.344 28.2904ZM20.1788 7.94275C20.2053 7.83133 20.4755 6.8816 21.5936 7.06199C22.6534 7.23708 22.5898 8.01703 22.5686 8.1709C22.5686 8.19212 22.5634 8.21865 22.5634 8.23988C22.5634 8.45211 22.4839 8.94555 21.9858 9.93773C21.8268 9.88997 21.6625 9.84222 21.4982 9.79447C21.069 9.67244 20.6716 9.56102 20.2901 9.46551C20.2 9.44429 20.1046 9.41776 20.0092 9.39654L20.1788 7.94275Z" fill="#7968FA"/>
</g>
<defs>
<clipPath id="clip0_40000405_4510">
<rect width="122" height="38" fill="white"/>
</clipPath>
</defs>
</svg>
