<svg width="308" height="96" viewBox="0 0 154 48" fill="none" xmlns="http://www.w3.org/2000/svg">
<g clip-path="url(#clip0)">
<path fill-rule="evenodd" clip-rule="evenodd" d="M86.2331 27.8333L90.0723 14.5234H95.1512L99.0267 27.8405L103.084 14.5234H109.632C107.229 21.4528 104.829 28.3822 102.422 35.3116H96.0019L93.8496 29.1457L93.8351 29.1057L92.6317 24.5867L91.4283 29.1057L91.4138 29.1457L89.2615 35.3116H82.8411L75.5918 14.5234H82.1831L86.2331 27.8333Z" fill="#050304"/>
<path fill-rule="evenodd" clip-rule="evenodd" d="M133.354 35.1542V7.10938H139.16V22.3715L145.264 15.8311H152.593L144.224 25L153.909 35.9431L147.012 35.8558L140.643 28.741L139.04 30.0353L139.16 35.6995H133.354V35.1542Z" fill="#050304"/>
<path fill-rule="evenodd" clip-rule="evenodd" d="M24.2862 16.2419C23.5846 16.4746 23.2028 17.2344 23.4391 17.9361C23.6718 18.6377 24.4317 19.0195 25.1333 18.7831C25.835 18.5505 26.2167 17.7906 25.9804 17.089C25.7477 16.3873 24.9879 16.0056 24.2862 16.2419Z" fill="#F2B500"/>
<path fill-rule="evenodd" clip-rule="evenodd" d="M42.8099 50.0013C35.1679 27.4862 16.5756 43.7117 1.61523 32.1797C17.1609 55.2437 31.4996 39.0037 42.8099 50.0013Z" fill="#F2B500"/>
<path fill-rule="evenodd" clip-rule="evenodd" d="M14.8046 1.11307C3.47255 4.88679 -2.66066 17.1314 1.11307 28.4635L1.13852 28.5362C3.03992 30.2303 6.22468 31.87 12.3761 30.2013C14.721 29.565 16.2698 29.176 14.132 27.1365C6.43191 19.7744 13.2995 7.91885 22.9338 9.80571C24.9624 10.202 25.824 10.8019 27.1656 11.8707C29.7614 13.9394 29.2742 14.5283 30.2994 15.3136C32.03 16.6406 33.9823 14.7901 36.0255 15.4881C38.3777 16.2952 37.3088 20.3889 33.3351 23.29C29.4487 26.1294 29.7068 25.5877 33.1461 27.7836C36.0582 29.645 37.7233 32.3899 38.2722 35.451C42.8785 29.8922 44.6018 22.1557 42.155 14.8046C38.3849 3.47255 26.1403 -2.66066 14.8046 1.11307Z" fill="#F2B500"/>
<path fill-rule="evenodd" clip-rule="evenodd" d="M61.5726 10.2695C69.1782 10.2695 75.3441 16.4355 75.3441 24.0374C75.3441 31.6431 69.1782 37.809 61.5726 37.809C53.967 37.809 47.8047 31.6431 47.8047 24.0374C47.8011 16.4318 53.967 10.2695 61.5726 10.2695ZM61.5726 16.0828C57.1808 16.0828 53.618 19.642 53.618 24.0374C53.618 28.4292 57.1772 31.9921 61.5726 31.9921C65.968 31.9921 69.5272 28.4328 69.5272 24.0374C69.5236 19.6457 65.9644 16.0828 61.5726 16.0828Z" fill="#050304"/>
<path fill-rule="evenodd" clip-rule="evenodd" d="M60.9805 29.4436L65.5104 25.6953L75.6827 39.0124L69.2005 39.9322L60.9805 29.4436Z" fill="#050304"/>
<path fill-rule="evenodd" clip-rule="evenodd" d="M118.855 14.4453C124.756 14.4453 129.536 19.2261 129.536 25.1266C129.536 31.0271 124.756 35.8079 118.855 35.8079C112.955 35.8079 108.174 31.0271 108.174 25.1266C108.174 19.2297 112.955 14.4453 118.855 14.4453ZM118.855 20.2004C116.132 20.2004 113.925 22.4072 113.925 25.1303C113.925 27.8533 116.132 30.0601 118.855 30.0601C121.578 30.0601 123.785 27.8533 123.785 25.1303C123.785 22.4072 121.578 20.2004 118.855 20.2004Z" fill="#050304"/>
<path d="M130.346 14.7422H124.529V35.5558H130.346V14.7422Z" fill="#050304"/>
</g>
<defs>
<clipPath id="clip0">
<rect width="154" height="48" fill="white"/>
</clipPath>
</defs>
</svg>
