<svg width="263" height="92" viewBox="0 0 263 92" fill="none" xmlns="http://www.w3.org/2000/svg">
<path d="M0.649902 48.1299L8.2999 42.7099C11.8799 47.6699 16.0299 50.1399 20.7299 50.1399C22.9799 50.1399 24.7499 49.6499 26.0199 48.6699C27.2999 47.6399 27.9399 46.2399 27.9399 44.4899C27.9399 43.0399 27.5099 41.9299 26.6399 41.1599C25.7699 40.3299 24.0599 39.3299 21.4999 38.1399L16.0499 35.6599C7.8599 31.9999 3.7699 27.0899 3.7699 20.9499C3.7699 16.6099 5.3599 13.1299 8.5299 10.4999C11.6999 7.81994 15.7199 6.46994 20.5799 6.46994C24.3699 6.46994 27.6899 7.34995 30.5599 9.09995C33.4299 10.7999 35.6799 13.1499 37.3099 16.1499L30.2499 21.6499C27.6399 17.7299 24.4199 15.7699 20.5799 15.7699C18.7399 15.7699 17.2299 16.2099 16.0499 17.0899C14.8699 17.9699 14.2899 19.1799 14.2899 20.7299C14.2899 22.0199 14.6999 23.0799 15.5199 23.8999C16.3899 24.6699 17.9499 25.5799 20.1999 26.6099L25.9599 29.1599C30.3099 31.1199 33.4799 33.2599 35.4799 35.5899C37.4799 37.8599 38.4699 40.6999 38.4699 44.1099C38.4699 48.6999 36.8099 52.4199 33.4799 55.2599C30.1499 58.0499 25.9099 59.4399 20.7399 59.4399C16.4899 59.4399 12.6599 58.4299 9.2299 56.4199C5.8499 54.3999 2.6499 51.6399 0.649902 48.1299ZM75.5699 25.0499C79.0999 28.8199 80.8599 33.5699 80.8599 39.2999C80.8599 45.0299 79.0999 49.8299 75.5699 53.6999C72.0899 57.5199 67.7199 59.4299 62.4499 59.4299C57.6899 59.4299 53.9099 57.8799 51.0899 54.7799V72.4299H40.7299V20.1699H50.2499V24.9699C52.8599 21.1999 56.9299 19.3199 62.4499 19.3199C67.7199 19.3299 72.0999 21.2399 75.5699 25.0499ZM70.3599 39.3799C70.3599 36.2299 69.4399 33.6799 67.5999 31.7199C65.7599 29.7599 63.4099 28.7799 60.5399 28.7799C57.7799 28.7799 55.4799 29.7099 53.6299 31.5699C51.8399 33.4299 50.9399 36.0099 50.9399 39.3099C50.9399 42.6099 51.8399 45.2199 53.6299 47.1299C55.4699 48.9899 57.7699 49.9199 60.5399 49.9199C63.3499 49.9199 65.6799 48.9399 67.5199 46.9799C69.4099 44.9999 70.3599 42.4699 70.3599 39.3799ZM120.31 42.8599H93.7099C94.3199 45.2899 95.5499 47.1699 97.3899 48.5099C99.2799 49.7999 101.61 50.4499 104.37 50.4499C108.1 50.4499 111.63 49.1599 114.96 46.5799L119.26 53.6999C114.71 57.5199 109.64 59.4299 104.07 59.4299C98.2399 59.5299 93.2799 57.6199 89.1799 53.6999C85.1399 49.7299 83.1699 44.9499 83.2699 39.3799C83.1699 33.8599 85.0899 29.1099 89.0299 25.1299C92.9699 21.1599 97.6799 19.2199 103.15 19.3199C108.37 19.3199 112.64 21.0199 115.96 24.4299C119.34 27.8399 121.02 32.0699 121.02 37.1299C121 38.9899 120.77 40.8999 120.31 42.8599ZM93.7099 35.5099H110.98C110.93 33.1899 110.11 31.3299 108.52 29.9399C106.99 28.4899 105.07 27.7699 102.76 27.7699C100.56 27.7699 98.6399 28.4699 97.0099 29.8599C95.3699 31.2499 94.2699 33.1299 93.7099 35.5099ZM122.61 39.2999C122.61 33.7299 124.58 28.9999 128.52 25.1299C132.46 21.2599 137.27 19.3199 142.95 19.3199C150.42 19.3199 155.92 22.4699 159.45 28.7699L152.24 34.4199C149.68 30.6999 146.64 28.8499 143.11 28.8499C140.19 28.8499 137.79 29.8599 135.9 31.8699C134.06 33.8299 133.14 36.3099 133.14 39.2999C133.14 42.3499 134.06 44.8699 135.9 46.8899C137.79 48.8499 140.2 49.8299 143.11 49.8299C146.64 49.8299 149.68 47.9999 152.24 44.3299L159.45 49.8999C157.76 52.8899 155.49 55.2399 152.62 56.9499C149.81 58.5999 146.58 59.4299 142.95 59.4299C137.37 59.5299 132.56 57.5999 128.52 53.6199C124.48 49.5999 122.51 44.8199 122.61 39.2999ZM186.13 49.7499V58.4999H181.63C176.77 58.4999 173.7 58.2199 171.04 55.7899C168.43 53.3599 167.13 49.7799 167.13 45.0299V28.9999H161.14V20.1699H167.13V10.4899H177.49V20.1699H186.19V28.9999H177.49V44.0999C177.49 46.2699 178.03 47.8199 179.1 48.7399C180.17 49.6799 182.83 49.7499 186.13 49.7499ZM212.83 20.1799L208.79 29.5199C205.62 29.5199 203.75 29.9799 201.7 31.9199C199.91 33.6199 199.4 36.1299 199.4 39.3799V58.4999H189.04V20.1799H198.56V25.7799C201.06 20.1799 206.69 20.1799 212.83 20.1799ZM239.61 20.1799H249.13V58.4999H239.46V54.0099C236.7 57.6199 232.68 59.4299 227.41 59.4299C222.09 59.4299 217.69 57.5499 214.21 53.7799C210.73 49.9599 208.99 45.1599 208.99 39.3799C208.99 33.5999 210.73 28.8199 214.21 25.0599C217.69 21.2399 222.09 19.3299 227.41 19.3299C232.78 19.3299 236.85 21.2099 239.61 24.9799V20.1799V20.1799ZM236.16 47.1199C238 45.2599 238.92 42.6799 238.92 39.3799C238.92 36.0799 238 33.4999 236.16 31.6399C234.32 29.7299 232.04 28.7799 229.33 28.7799C226.52 28.7799 224.16 29.7899 222.27 31.7999C220.43 33.7599 219.51 36.2899 219.51 39.3899C219.51 42.4899 220.43 45.0199 222.27 46.9799C224.16 48.9399 226.52 49.9199 229.33 49.9199C232.09 49.9099 234.37 48.9799 236.16 47.1199ZM252.48 58.4999V0.429932H262.84V58.4999H252.48Z" fill="#131313"/>
<path d="M91.8899 87.71H89.3399L88.7099 84.64H85.1199L84.5099 87.71H81.9399L85.7499 72.2H88.1199L91.8899 87.71ZM85.5999 82.44H88.2599L86.9299 75.95L85.5999 82.44Z" fill="#010101"/>
<path d="M101.8 72.0299C102.4 72.0299 102.91 72.1099 103.35 72.2799C103.79 72.4499 104.18 72.6999 104.53 73.0299C104.92 73.3899 105.22 73.8499 105.42 74.4099C105.62 74.9699 105.74 75.5999 105.77 76.2899H103.33C103.32 75.9999 103.28 75.7199 103.23 75.4599C103.18 75.1999 103.09 74.9699 102.96 74.7799C102.84 74.6099 102.69 74.4699 102.51 74.3699C102.33 74.2699 102.09 74.2199 101.8 74.2199C101.51 74.2199 101.27 74.2699 101.09 74.3799C100.91 74.4899 100.76 74.6299 100.64 74.7999C100.39 75.1799 100.24 75.7699 100.18 76.5899C100.12 77.3999 100.09 78.5199 100.09 79.9399C100.09 81.3599 100.12 82.4799 100.18 83.2899C100.24 84.0999 100.39 84.6999 100.64 85.0799C100.76 85.2499 100.9 85.3999 101.09 85.4999C101.27 85.6099 101.51 85.6599 101.8 85.6599C102.09 85.6599 102.33 85.6099 102.51 85.5099C102.69 85.4099 102.84 85.2699 102.96 85.0999C103.09 84.8999 103.18 84.6599 103.23 84.3999C103.28 84.1399 103.31 83.8599 103.33 83.5699H105.77C105.74 84.2699 105.62 84.8999 105.4 85.4799C105.18 86.0599 104.88 86.5199 104.48 86.8799C104.13 87.2099 103.75 87.4599 103.33 87.6199C102.91 87.7799 102.4 87.8599 101.81 87.8599C101.08 87.8599 100.48 87.7299 99.9999 87.4799C99.5199 87.2299 99.1199 86.9099 98.7999 86.5299C98.5399 86.2299 98.3399 85.8799 98.1899 85.5099C98.0399 85.1299 97.9299 84.6799 97.8499 84.1599C97.7699 83.6399 97.7199 83.0299 97.6999 82.3399C97.6799 81.6499 97.6699 80.8499 97.6699 79.9299C97.6699 79.0099 97.6799 78.2099 97.6999 77.5199C97.7199 76.8299 97.7699 76.2199 97.8499 75.6999C97.9299 75.1799 98.0399 74.7299 98.1899 74.3499C98.3399 73.9699 98.5399 73.6299 98.7999 73.3299C99.1199 72.9499 99.5199 72.6399 99.9999 72.3799C100.48 72.1499 101.08 72.0299 101.8 72.0299Z" fill="#010101"/>
<path d="M110.39 76.97C110.58 76.71 110.8 76.51 111.07 76.36C111.4 76.16 111.79 76.06 112.22 76.06C112.68 76.06 113.08 76.13 113.42 76.28C113.76 76.43 114.05 76.65 114.31 76.95C114.54 77.21 114.71 77.52 114.81 77.89C114.91 78.26 114.96 78.77 114.96 79.44V87.72H112.65V79.46C112.65 79.01 112.54 78.68 112.32 78.46C112.1 78.24 111.83 78.13 111.51 78.13C111.19 78.13 110.92 78.24 110.7 78.46C110.48 78.68 110.37 79.01 110.37 79.46V87.72H108.06V72.2H110.37V76.97H110.39Z" fill="#010101"/>
<path d="M120.78 76.0599C121.26 76.0599 121.7 76.1199 122.1 76.2499C122.5 76.3699 122.88 76.6199 123.24 76.9799C123.7 77.4399 124 78.1599 124.12 79.1299C124.24 80.0999 124.31 81.2699 124.31 82.6499H119.56C119.56 83.2999 119.58 83.8699 119.63 84.3399C119.67 84.8099 119.77 85.1599 119.91 85.3699C120 85.4999 120.12 85.6099 120.27 85.6999C120.42 85.7899 120.6 85.8299 120.8 85.8299C121.18 85.8299 121.47 85.6799 121.67 85.3899C121.77 85.2699 121.84 85.1199 121.89 84.9299C121.93 84.7399 121.96 84.5499 121.96 84.3399H124.27C124.24 84.8499 124.16 85.3199 124.02 85.7599C123.88 86.1999 123.64 86.5999 123.29 86.9799C122.98 87.3099 122.63 87.5499 122.22 87.6899C121.81 87.8299 121.34 87.8999 120.8 87.8999C120.29 87.8999 119.84 87.8399 119.44 87.6999C119.04 87.5699 118.67 87.3199 118.32 86.9599C118.07 86.7099 117.88 86.4099 117.74 86.0599C117.6 85.6999 117.5 85.3099 117.42 84.8799C117.35 84.4499 117.3 83.9899 117.28 83.4999C117.26 83.0099 117.25 82.4999 117.25 81.9799C117.25 80.9299 117.31 79.9699 117.42 79.0799C117.54 78.1999 117.83 77.4999 118.31 76.9899C118.66 76.6299 119.04 76.3799 119.45 76.2599C119.87 76.1199 120.31 76.0599 120.78 76.0599ZM120.78 78.0999C120.56 78.0999 120.38 78.1399 120.25 78.2199C120.12 78.2999 119.99 78.4099 119.89 78.5599C119.77 78.7299 119.69 78.9999 119.64 79.3699C119.59 79.7299 119.56 80.2599 119.56 80.9399H122C122 80.2599 121.97 79.7299 121.92 79.3699C121.87 79.0099 121.79 78.7399 121.67 78.5599C121.57 78.4099 121.45 78.2999 121.31 78.2199C121.17 78.1399 121 78.0999 120.78 78.0999Z" fill="#010101"/>
<path d="M129.84 76.0599C130.33 76.0599 130.78 76.1199 131.17 76.2299C131.56 76.3499 131.92 76.5599 132.26 76.8799C132.62 77.2299 132.88 77.6399 133.02 78.1099C133.17 78.5799 133.25 79.0699 133.28 79.5799H130.99C130.98 79.3899 130.95 79.2099 130.91 79.0199C130.87 78.8399 130.8 78.6699 130.68 78.5099C130.49 78.2299 130.21 78.0999 129.83 78.0999C129.66 78.0999 129.49 78.1399 129.33 78.2199C129.17 78.2999 129.04 78.4199 128.94 78.5799C128.78 78.8399 128.69 79.2499 128.66 79.8199C128.63 80.3899 128.62 81.0999 128.62 81.9499C128.62 82.7999 128.63 83.5199 128.66 84.0799C128.69 84.6399 128.78 85.0699 128.94 85.3399C129.04 85.4999 129.17 85.6199 129.33 85.6899C129.49 85.7599 129.66 85.7999 129.83 85.7999C130.21 85.7999 130.49 85.6699 130.68 85.4099C130.8 85.2499 130.87 85.0799 130.91 84.8999C130.95 84.7199 130.97 84.5299 130.99 84.3199H133.28C133.25 84.8699 133.16 85.3799 133 85.8499C132.84 86.3199 132.6 86.7099 132.28 87.0299C131.71 87.5999 130.9 87.8799 129.84 87.8799C129.29 87.8799 128.78 87.7899 128.32 87.6199C127.86 87.4499 127.46 87.1299 127.12 86.6599C126.76 86.1699 126.53 85.4999 126.44 84.6699C126.35 83.8399 126.31 82.9299 126.31 81.9599C126.31 80.9899 126.35 80.0899 126.44 79.2599C126.53 78.4299 126.75 77.7599 127.12 77.2599C127.45 76.7999 127.85 76.4799 128.32 76.3099C128.78 76.1399 129.29 76.0599 129.84 76.0599Z" fill="#010101"/>
<path d="M137.77 81.13L140.67 76.2299H143.09L140.24 80.78L143.25 87.71H140.7L138.76 82.8699L137.78 84.42V87.71H135.47V72.2H137.78V81.13H137.77Z" fill="#010101"/>
<path d="M153.41 72.2C154.82 72.2 155.83 72.58 156.46 73.34C157.09 74.1 157.4 75.3 157.4 76.92C157.4 78.55 157.09 79.74 156.46 80.49C155.84 81.25 154.82 81.6199 153.41 81.6199H151.95V87.7H149.51V72.2H153.41ZM151.95 74.3999V79.4299H153.32C153.97 79.4299 154.41 79.2099 154.63 78.7599C154.85 78.3199 154.96 77.7 154.96 76.92C154.96 76.14 154.85 75.52 154.63 75.07C154.41 74.62 153.98 74.39 153.32 74.39H151.95V74.3999Z" fill="#010101"/>
<path d="M162.75 76.0599C163.3 76.0599 163.81 76.1399 164.27 76.3099C164.73 76.4799 165.13 76.7899 165.47 77.2599C165.83 77.7699 166.06 78.4399 166.15 79.2599C166.24 80.0899 166.28 80.9899 166.28 81.9599C166.28 82.9299 166.24 83.8299 166.15 84.6599C166.06 85.4899 165.84 86.1599 165.47 86.6599C165.14 87.1199 164.74 87.4399 164.27 87.6199C163.81 87.7899 163.3 87.8799 162.75 87.8799C162.2 87.8799 161.69 87.7899 161.23 87.6199C160.77 87.4499 160.37 87.1299 160.03 86.6599C159.67 86.1499 159.44 85.4799 159.35 84.6599C159.26 83.8299 159.22 82.9299 159.22 81.9599C159.22 80.9899 159.26 80.0899 159.35 79.2599C159.44 78.4299 159.66 77.7599 160.03 77.2599C160.36 76.7999 160.76 76.4799 161.23 76.3099C161.69 76.1399 162.2 76.0599 162.75 76.0599ZM162.75 78.0999C162.58 78.0999 162.41 78.1399 162.25 78.2199C162.09 78.2999 161.96 78.4199 161.86 78.5799C161.7 78.8399 161.61 79.2499 161.58 79.8199C161.55 80.3899 161.54 81.0999 161.54 81.9499C161.54 82.7999 161.55 83.5199 161.58 84.0999C161.61 84.6699 161.7 85.0899 161.86 85.3499C161.96 85.5099 162.09 85.6299 162.25 85.6999C162.41 85.7699 162.58 85.8099 162.75 85.8099C162.92 85.8099 163.09 85.7699 163.25 85.6999C163.41 85.6299 163.54 85.5099 163.64 85.3499C163.8 85.0899 163.89 84.6699 163.92 84.0999C163.95 83.5299 163.96 82.8099 163.96 81.9499C163.96 81.0899 163.95 80.3799 163.92 79.8199C163.89 79.2499 163.8 78.8399 163.64 78.5799C163.54 78.4199 163.41 78.2999 163.25 78.2199C163.09 78.1399 162.93 78.0999 162.75 78.0999Z" fill="#010101"/>
<path d="M171.05 74.77H168.5V72.22H171.05V74.77ZM170.94 87.71H168.63V76.53H170.94V87.71Z" fill="#010101"/>
<path d="M177.76 76.0599C178.22 76.0599 178.62 76.1299 178.96 76.2799C179.3 76.4299 179.59 76.6499 179.85 76.9499C180.08 77.2099 180.25 77.5199 180.35 77.8899C180.45 78.2599 180.5 78.7699 180.5 79.4399V87.7199H178.19V79.4599C178.19 79.0099 178.08 78.6799 177.86 78.4599C177.64 78.2399 177.37 78.1299 177.05 78.1299C176.73 78.1299 176.46 78.2399 176.24 78.4599C176.02 78.6799 175.91 79.0099 175.91 79.4599V87.7199H173.6V76.2399H175.82V77.0899C175.92 76.9599 176.04 76.8299 176.17 76.6899C176.3 76.5499 176.44 76.4499 176.58 76.3699C176.94 76.1599 177.33 76.0599 177.76 76.0599Z" fill="#010101"/>
<path d="M185.91 76.5399H187.5V78.3099H185.91V84.0999C185.91 85.1299 186.45 85.6499 187.54 85.6499V87.7199C186.99 87.7199 186.48 87.6799 186.03 87.5999C185.57 87.5199 185.15 87.3299 184.76 87.0199C184.4 86.7299 184.11 86.3599 183.91 85.9199C183.71 85.4799 183.61 84.9099 183.61 84.2299V78.3099H182.43V76.5399H183.61V73.2899H185.92V76.5399H185.91Z" fill="#010101"/>
<path d="M197.78 72.0299C198.38 72.0299 198.89 72.1099 199.33 72.2799C199.77 72.4499 200.16 72.6999 200.51 73.0299C200.9 73.3899 201.2 73.8499 201.4 74.4099C201.6 74.9699 201.72 75.5999 201.75 76.2899H199.31C199.3 75.9999 199.26 75.7199 199.21 75.4599C199.16 75.1999 199.07 74.9699 198.94 74.7799C198.82 74.6099 198.67 74.4699 198.49 74.3699C198.31 74.2699 198.07 74.2199 197.78 74.2199C197.49 74.2199 197.25 74.2699 197.07 74.3799C196.89 74.4899 196.74 74.6299 196.62 74.7999C196.37 75.1799 196.22 75.7699 196.16 76.5899C196.1 77.3999 196.07 78.5199 196.07 79.9399C196.07 81.3599 196.1 82.4799 196.16 83.2899C196.22 84.0999 196.37 84.6999 196.62 85.0799C196.74 85.2499 196.88 85.3999 197.07 85.4999C197.25 85.6099 197.49 85.6599 197.78 85.6599C198.07 85.6599 198.31 85.6099 198.49 85.5099C198.67 85.4099 198.82 85.2699 198.94 85.0999C199.07 84.8999 199.16 84.6599 199.21 84.3999C199.26 84.1399 199.29 83.8599 199.31 83.5699H201.75C201.72 84.2699 201.6 84.8999 201.38 85.4799C201.16 86.0599 200.86 86.5199 200.46 86.8799C200.11 87.2099 199.73 87.4599 199.31 87.6199C198.89 87.7799 198.38 87.8599 197.79 87.8599C197.06 87.8599 196.46 87.7299 195.98 87.4799C195.5 87.2299 195.1 86.9099 194.78 86.5299C194.52 86.2299 194.32 85.8799 194.17 85.5099C194.02 85.1299 193.91 84.6799 193.83 84.1599C193.75 83.6399 193.7 83.0299 193.68 82.3399C193.66 81.6499 193.65 80.8499 193.65 79.9299C193.65 79.0099 193.66 78.2099 193.68 77.5199C193.7 76.8299 193.75 76.2199 193.83 75.6999C193.91 75.1799 194.02 74.7299 194.17 74.3499C194.32 73.9699 194.52 73.6299 194.78 73.3299C195.1 72.9499 195.5 72.6399 195.98 72.3799C196.45 72.1499 197.05 72.0299 197.78 72.0299Z" fill="#010101"/>
<path d="M207.13 76.0599C207.68 76.0599 208.19 76.1399 208.65 76.3099C209.11 76.4799 209.51 76.7899 209.85 77.2599C210.21 77.7699 210.44 78.4399 210.53 79.2599C210.62 80.0899 210.66 80.9899 210.66 81.9599C210.66 82.9299 210.62 83.8299 210.53 84.6599C210.44 85.4899 210.22 86.1599 209.85 86.6599C209.52 87.1199 209.12 87.4399 208.65 87.6199C208.19 87.7899 207.68 87.8799 207.13 87.8799C206.58 87.8799 206.07 87.7899 205.61 87.6199C205.15 87.4499 204.75 87.1299 204.41 86.6599C204.05 86.1499 203.82 85.4799 203.73 84.6599C203.64 83.8299 203.6 82.9299 203.6 81.9599C203.6 80.9899 203.64 80.0899 203.73 79.2599C203.82 78.4299 204.04 77.7599 204.41 77.2599C204.74 76.7999 205.14 76.4799 205.61 76.3099C206.07 76.1399 206.57 76.0599 207.13 76.0599ZM207.13 78.0999C206.96 78.0999 206.79 78.1399 206.63 78.2199C206.47 78.2999 206.34 78.4199 206.24 78.5799C206.08 78.8399 205.99 79.2499 205.96 79.8199C205.93 80.3899 205.92 81.0999 205.92 81.9499C205.92 82.7999 205.93 83.5199 205.96 84.0999C205.99 84.6699 206.08 85.0899 206.24 85.3499C206.34 85.5099 206.47 85.6299 206.63 85.6999C206.79 85.7699 206.96 85.8099 207.13 85.8099C207.3 85.8099 207.47 85.7699 207.63 85.6999C207.79 85.6299 207.92 85.5099 208.02 85.3499C208.18 85.0899 208.27 84.6699 208.3 84.0999C208.33 83.5299 208.34 82.8099 208.34 81.9499C208.34 81.0899 208.33 80.3799 208.3 79.8199C208.27 79.2499 208.18 78.8399 208.02 78.5799C207.92 78.4199 207.79 78.2999 207.63 78.2199C207.47 78.1399 207.3 78.0999 207.13 78.0999Z" fill="#010101"/>
<path d="M221.61 76.0599C222.15 76.0599 222.58 76.1299 222.91 76.2799C223.24 76.4299 223.53 76.6499 223.79 76.9499C224.02 77.2099 224.19 77.5199 224.3 77.8899C224.41 78.2599 224.46 78.7699 224.46 79.4399V87.7199H222.15V79.4599C222.15 79.0099 222.04 78.6799 221.81 78.4599C221.58 78.2399 221.31 78.1299 220.99 78.1299C220.67 78.1299 220.41 78.2399 220.2 78.4599C219.99 78.6799 219.88 79.0099 219.88 79.4599V87.7199H217.57V79.4599C217.57 79.0099 217.46 78.6799 217.24 78.4599C217.02 78.2399 216.75 78.1299 216.43 78.1299C216.11 78.1299 215.84 78.2399 215.62 78.4599C215.4 78.6799 215.29 79.0099 215.29 79.4599V87.7199H212.98V76.2399H215.2V77.0899C215.3 76.9599 215.42 76.8299 215.55 76.6899C215.68 76.5499 215.82 76.4499 215.96 76.3699C216.29 76.1699 216.68 76.0699 217.11 76.0699C217.57 76.0699 218 76.1799 218.4 76.3899C218.79 76.5999 219.11 76.8899 219.36 77.2499C219.51 77.0899 219.66 76.9299 219.83 76.7799C220 76.6299 220.17 76.4899 220.36 76.3799C220.53 76.2799 220.74 76.1999 220.97 76.1499C221.23 76.0799 221.44 76.0599 221.61 76.0599Z" fill="#010101"/>
<path d="M231.24 76.0599C231.68 76.0599 232.06 76.1299 232.38 76.2599C232.71 76.3899 233 76.6199 233.26 76.9599C233.64 77.4199 233.87 78.0599 233.95 78.8799C234.03 79.6899 234.07 80.7199 234.07 81.9699C234.07 83.2199 234.03 84.2499 233.95 85.0699C233.87 85.8899 233.64 86.5299 233.26 86.9999C233 87.3299 232.7 87.5699 232.38 87.6999C232.05 87.8299 231.67 87.8999 231.24 87.8999C230.8 87.8999 230.42 87.7999 230.09 87.5999C229.84 87.4399 229.62 87.2399 229.41 86.9899V91.7599H227.1V76.2499H229.32V77.0999C229.38 76.9799 229.49 76.8499 229.66 76.7099C229.83 76.5699 229.97 76.4599 230.08 76.3799C230.42 76.1599 230.81 76.0599 231.24 76.0599ZM230.54 78.0999C230.21 78.0999 229.94 78.2099 229.76 78.4299C229.64 78.5499 229.56 78.6899 229.5 78.8699C229.44 79.0399 229.41 79.2499 229.41 79.4999V84.4499C229.41 84.9299 229.53 85.2899 229.76 85.5199C229.96 85.7199 230.22 85.8299 230.54 85.8299C230.9 85.8299 231.19 85.6799 231.39 85.3899C231.46 85.2899 231.52 85.1599 231.58 84.9999C231.63 84.8399 231.67 84.6299 231.7 84.3599C231.73 84.0899 231.75 83.7599 231.75 83.3799C231.76 82.9999 231.76 82.5299 231.76 81.9699C231.76 81.4299 231.76 80.9699 231.75 80.5799C231.74 80.1899 231.72 79.8599 231.7 79.5999C231.68 79.3399 231.63 79.1299 231.58 78.9699C231.53 78.8099 231.47 78.6799 231.39 78.5799C231.18 78.2599 230.89 78.0999 230.54 78.0999Z" fill="#010101"/>
<path d="M240.74 87.7099V86.7299C240.64 86.8799 240.53 87.0199 240.41 87.1499C240.29 87.2799 240.17 87.3999 240.04 87.4899C239.87 87.6099 239.68 87.6999 239.47 87.7699C239.27 87.8399 239.02 87.8799 238.73 87.8799C238.25 87.8799 237.84 87.7999 237.51 87.6499C237.18 87.4999 236.86 87.2499 236.57 86.9199C236.11 86.3699 235.87 85.5099 235.87 84.3499C235.87 83.8299 235.96 83.3399 236.14 82.8999C236.32 82.4599 236.59 82.0799 236.93 81.7799C237.22 81.5299 237.56 81.3399 237.97 81.1999C238.37 81.0599 238.9 80.9899 239.57 80.9899H240.59V79.3999C240.59 78.5099 240.22 78.0699 239.48 78.0699C239.16 78.0699 238.91 78.1799 238.72 78.3999C238.49 78.6499 238.37 78.9999 238.37 79.4699H236.06C236.06 79.0099 236.13 78.5699 236.28 78.1499C236.42 77.7399 236.68 77.3499 237.04 76.9799C237.32 76.6999 237.67 76.4799 238.11 76.3099C238.55 76.1399 239 76.0499 239.46 76.0499C239.94 76.0499 240.39 76.1199 240.82 76.2499C241.25 76.3799 241.61 76.5999 241.9 76.8999C242.2 77.1999 242.45 77.5799 242.63 78.0099C242.81 78.4399 242.9 78.9699 242.9 79.5999V87.6999H240.74V87.7099ZM240.61 82.6299H239.85C239.6 82.6299 239.38 82.6499 239.18 82.6799C238.98 82.7199 238.81 82.8099 238.65 82.9699C238.5 83.0999 238.39 83.2899 238.31 83.5399C238.23 83.7899 238.19 84.0299 238.19 84.2599C238.19 85.3199 238.59 85.8499 239.39 85.8499C239.74 85.8499 240.03 85.7099 240.26 85.4399C240.49 85.1599 240.61 84.7899 240.61 84.3299V82.6299V82.6299Z" fill="#010101"/>
<path d="M249.69 76.0599C250.15 76.0599 250.55 76.1299 250.89 76.2799C251.23 76.4299 251.52 76.6499 251.78 76.9499C252.01 77.2099 252.18 77.5199 252.28 77.8899C252.38 78.2599 252.43 78.7699 252.43 79.4399V87.7199H250.12V79.4599C250.12 79.0099 250.01 78.6799 249.79 78.4599C249.57 78.2399 249.3 78.1299 248.98 78.1299C248.66 78.1299 248.39 78.2399 248.17 78.4599C247.95 78.6799 247.84 79.0099 247.84 79.4599V87.7199H245.53V76.2399H247.75V77.0899C247.85 76.9599 247.97 76.8299 248.1 76.6899C248.23 76.5499 248.37 76.4499 248.51 76.3699C248.87 76.1599 249.26 76.0599 249.69 76.0599Z" fill="#010101"/>
<path d="M258.93 89.1699C258.79 89.7499 258.58 90.2099 258.31 90.5499C258.04 90.8899 257.72 91.1499 257.35 91.3199C256.98 91.4899 256.57 91.6099 256.11 91.6599C255.65 91.7099 255.16 91.7399 254.64 91.7399V89.6899C254.89 89.6899 255.12 89.6799 255.34 89.6499C255.56 89.6199 255.75 89.5699 255.93 89.4899C256.1 89.4099 256.26 89.2899 256.39 89.1399C256.52 88.9899 256.62 88.7699 256.69 88.4999L256.89 87.6899L254.04 76.2299H256.59L258.12 84.0499L259.62 76.2299H262.17L258.93 89.1699Z" fill="#010101"/>
</svg>
