<svg width="233" height="27" viewBox="0 0 233 27" fill="none" xmlns="http://www.w3.org/2000/svg">
<path d="M10.7378 26.6582H17.7788L36.0855 10.3476V0H29.2205L10.7378 15.6091V26.6582Z" fill="#00FFC3"/>
<path d="M0 18.9416H6.865L10.7376 15.6093V5.26172H3.87256L0 8.76938V18.9416Z" fill="#00FFC3"/>
<path d="M36.0854 20.5197H42.9504L46.823 17.1874V6.83984H39.958L36.0854 10.3475V20.5197Z" fill="#00FFC3"/>
<path d="M62.0338 18.1389C62.1599 19.7041 62.7903 20.9663 63.9251 21.9257C65.0852 22.8598 66.5856 23.3268 68.4266 23.3268C70.0405 23.3268 71.3393 22.986 72.3228 22.3043C73.3315 21.5975 73.8359 20.6255 73.8359 19.3885C73.8359 18.5049 73.5585 17.8107 73.0037 17.3058C72.4741 16.7756 71.7428 16.3717 70.8097 16.094C69.8766 15.8163 68.5653 15.5259 66.8757 15.223C65.1608 14.9201 63.6856 14.5288 62.4499 14.0491C61.2394 13.5442 60.2433 12.7868 59.4615 11.777C58.705 10.7672 58.3267 9.4418 58.3267 7.80084C58.3267 6.28611 58.7176 4.93548 59.4993 3.74895C60.3063 2.56241 61.4159 1.64095 62.8281 0.984571C64.2656 0.32819 65.9048 0 67.7457 0C69.6371 0 71.3267 0.353436 72.8145 1.06031C74.3024 1.76718 75.4751 2.73913 76.3325 3.97616C77.1899 5.21318 77.6564 6.62693 77.7321 8.21739H73.4576C73.3063 6.85414 72.7137 5.75596 71.6797 4.92286C70.6458 4.08976 69.3344 3.67321 67.7457 3.67321C66.2074 3.67321 64.9717 4.01403 64.0386 4.69565C63.1308 5.35203 62.6768 6.28611 62.6768 7.4979C62.6768 8.35624 62.9416 9.03787 63.4712 9.54278C64.026 10.0477 64.7573 10.4264 65.6652 10.6788C66.573 10.9313 67.8718 11.209 69.5614 11.5119C71.2762 11.8149 72.7515 12.2188 73.9872 12.7237C75.2229 13.2286 76.2316 13.9734 77.0134 14.9579C77.7951 15.9425 78.186 17.2426 78.186 18.8583C78.186 20.4236 77.7699 21.8247 76.9377 23.0617C76.1055 24.2987 74.9455 25.2707 73.4576 25.9776C71.9697 26.6592 70.2801 27 68.3888 27C66.2956 27 64.4547 26.6213 62.866 25.864C61.2772 25.1066 60.0289 24.0589 59.1211 22.7209C58.2384 21.3576 57.7845 19.8051 57.7593 18.0631L62.0338 18.1389Z" fill="#141C24"/>
<path d="M81.7128 10.9818H78.3462V7.38429H81.7128V1.96914H85.836V7.38429H90.4888V10.9818H85.836V21.0926C85.836 21.8499 85.9873 22.3927 86.2899 22.7209C86.5926 23.0238 87.1095 23.1753 87.8409 23.1753H90.9427V26.7728H87.0086C85.1677 26.7728 83.8185 26.3436 82.9611 25.4853C82.1289 24.6269 81.7128 23.3015 81.7128 21.5091V10.9818Z" fill="#141C24"/>
<path d="M110.314 23.2132V26.7728H108.158C106.897 26.7728 105.989 26.5077 105.434 25.9776C104.88 25.4474 104.602 24.6774 104.602 23.6676C103.14 25.8892 101.009 27 98.2094 27C96.0406 27 94.3006 26.4951 92.9892 25.4853C91.6779 24.4755 91.0222 23.087 91.0222 21.3198C91.0222 19.3254 91.7283 17.798 93.1405 16.7377C94.5527 15.6522 96.608 15.1094 99.3064 15.1094H104.186V13.9355C104.186 12.8499 103.808 12.0042 103.051 11.3983C102.295 10.7672 101.248 10.4516 99.9116 10.4516C98.7263 10.4516 97.7428 10.7167 96.9611 11.2468C96.2045 11.7518 95.7506 12.4334 95.5993 13.2917H91.5896C91.7913 11.3478 92.6488 9.84572 94.1618 8.78541C95.6749 7.69986 97.6546 7.15708 100.101 7.15708C102.698 7.15708 104.703 7.76297 106.115 8.97475C107.528 10.1865 108.234 11.9285 108.234 14.2006V21.8499C108.234 22.7588 108.662 23.2132 109.52 23.2132H110.314ZM104.186 18.1389H99.1172C97.8563 18.1389 96.8854 18.3913 96.2045 18.8962C95.5236 19.3759 95.1832 20.0954 95.1832 21.0547C95.1832 21.8878 95.4984 22.5568 96.1289 23.0617C96.7845 23.5666 97.6672 23.8191 98.7768 23.8191C100.466 23.8191 101.778 23.3647 102.711 22.4558C103.669 21.547 104.161 20.3352 104.186 18.8205V18.1389Z" fill="#141C24"/>
<path d="M112.653 10.9818H109.286V7.38429H112.653V1.96914H116.776V7.38429H121.429V10.9818H116.776V21.0926C116.776 21.8499 116.927 22.3927 117.23 22.7209C117.533 23.0238 118.05 23.1753 118.781 23.1753H121.883V26.7728H117.949C116.108 26.7728 114.759 26.3436 113.901 25.4853C113.069 24.6269 112.653 23.3015 112.653 21.5091V10.9818Z" fill="#141C24"/>
<path d="M121.815 17.1164C121.815 15.122 122.206 13.3801 122.988 11.8906C123.795 10.3759 124.905 9.21459 126.317 8.40673C127.754 7.57363 129.393 7.15708 131.234 7.15708C133.101 7.15708 134.74 7.53576 136.152 8.29313C137.589 9.05049 138.712 10.1234 139.519 11.5119C140.351 12.9004 140.779 14.5288 140.805 16.3969C140.805 16.9018 140.767 17.4194 140.691 17.9495H126.09V18.1767C126.191 19.8682 126.72 21.2062 127.679 22.1907C128.637 23.1753 129.91 23.6676 131.499 23.6676C132.76 23.6676 133.819 23.3773 134.677 22.7966C135.534 22.1907 136.102 21.345 136.379 20.2595H140.464C140.111 22.2286 139.153 23.8443 137.589 25.1066C136.051 26.3689 134.122 27 131.802 27C129.784 27 128.019 26.5961 126.506 25.7882C125.018 24.9551 123.858 23.7938 123.026 22.3043C122.219 20.8149 121.815 19.0856 121.815 17.1164ZM136.644 14.9579C136.467 13.5442 135.9 12.446 134.941 11.6634C134.008 10.8555 132.823 10.4516 131.386 10.4516C130.049 10.4516 128.889 10.8682 127.906 11.7013C126.947 12.5091 126.392 13.5947 126.241 14.9579H136.644Z" fill="#141C24"/>
<path d="M165.329 7.15708C167.447 7.15708 169.174 7.85133 170.511 9.23983C171.848 10.6031 172.516 12.7994 172.516 15.8289V26.7728H168.43V15.8668C168.43 14.1753 168.09 12.8878 167.409 12.0042C166.728 11.1206 165.719 10.6788 164.383 10.6788C162.971 10.6788 161.848 11.1837 161.016 12.1935C160.209 13.1781 159.806 14.5414 159.806 16.2833V26.7728H155.683V15.8668C155.683 14.1501 155.33 12.8626 154.623 12.0042C153.943 11.1206 152.934 10.6788 151.597 10.6788C150.21 10.6788 149.101 11.1964 148.268 12.2314C147.462 13.2665 147.058 14.655 147.058 16.3969V26.7728H142.973V7.38429H146.528L146.982 9.92146C148.369 8.10379 150.261 7.18233 152.656 7.15708C154.018 7.15708 155.216 7.44741 156.25 8.02805C157.284 8.6087 158.078 9.49229 158.633 10.6788C159.314 9.56802 160.209 8.70968 161.319 8.10379C162.429 7.47265 163.765 7.15708 165.329 7.15708Z" fill="#141C24"/>
<path d="M174.366 17.1164C174.366 15.122 174.757 13.3801 175.538 11.8906C176.345 10.3759 177.455 9.21459 178.867 8.40673C180.305 7.57363 181.944 7.15708 183.785 7.15708C185.651 7.15708 187.29 7.53576 188.702 8.29313C190.14 9.05049 191.262 10.1234 192.069 11.5119C192.901 12.9004 193.33 14.5288 193.355 16.3969C193.355 16.9018 193.317 17.4194 193.242 17.9495H178.64V18.1767C178.741 19.8682 179.271 21.2062 180.229 22.1907C181.187 23.1753 182.461 23.6676 184.05 23.6676C185.31 23.6676 186.37 23.3773 187.227 22.7966C188.084 22.1907 188.652 21.345 188.929 20.2595H193.015C192.662 22.2286 191.703 23.8443 190.14 25.1066C188.601 26.3689 186.672 27 184.352 27C182.335 27 180.569 26.5961 179.056 25.7882C177.569 24.9551 176.408 23.7938 175.576 22.3043C174.769 20.8149 174.366 19.0856 174.366 17.1164ZM189.194 14.9579C189.018 13.5442 188.45 12.446 187.492 11.6634C186.559 10.8555 185.374 10.4516 183.936 10.4516C182.6 10.4516 181.44 10.8682 180.456 11.7013C179.498 12.5091 178.943 13.5947 178.792 14.9579H189.194Z" fill="#141C24"/>
<path d="M205.736 7.15708C208.031 7.15708 209.897 7.86396 211.335 9.2777C212.798 10.6914 213.529 12.9635 213.529 16.094V26.7728H209.406V16.3212C209.406 14.4783 209.015 13.0771 208.233 12.1178C207.451 11.1585 206.304 10.6788 204.791 10.6788C203.177 10.6788 201.903 11.2468 200.97 12.3829C200.062 13.4937 199.608 15.0337 199.608 17.0028V26.7728H195.523V7.38429H199.079L199.533 9.92146C200.995 8.07854 203.063 7.15708 205.736 7.15708Z" fill="#141C24"/>
<path d="M217.358 10.9818H213.991V7.38429H217.358V1.96914H221.481V7.38429H226.134V10.9818H221.481V21.0926C221.481 21.8499 221.632 22.3927 221.935 22.7209C222.237 23.0238 222.754 23.1753 223.486 23.1753H226.588V26.7728H222.654C220.813 26.7728 219.463 26.3436 218.606 25.4853C217.774 24.6269 217.358 23.3015 217.358 21.5091V10.9818Z" fill="#141C24"/>
<path d="M227.489 24.425C227.489 23.6676 227.728 23.0491 228.207 22.5694C228.712 22.0898 229.342 21.8499 230.099 21.8499C230.855 21.8499 231.486 22.0898 231.99 22.5694C232.494 23.0491 232.747 23.6676 232.747 24.425C232.747 25.1823 232.494 25.8008 231.99 26.2805C231.486 26.7602 230.855 27 230.099 27C229.342 27 228.712 26.7602 228.207 26.2805C227.728 25.8008 227.489 25.1823 227.489 24.425Z" fill="#141C24"/>
</svg>
