<svg class="stoke-logo-svg" xmlns="http://www.w3.org/2000/svg" viewBox="0 0 104 32" xmlns:xlink="http://www.w3.org/1999/xlink" width="158" height="48"> <g id="stoke-logo" fill="none" fill-rule="evenodd"> <path id="logo-dark-part" fill="currentColor" d="M9.59 17.222c-2.353-.16-3.496-.838-3.496-2.076 0-1.182 1.24-1.86 3.4-1.86 2.04 0 3.512.565 4.77 1.832l.184.184 3.07-3.853-.178-.167c-2.178-2.04-4.475-2.873-7.927-2.873-5.98 0-8.656 3.47-8.656 6.91 0 5.382 5.31 6.611 8.48 6.866 3.113.19 3.738.902 3.738 1.99 0 .474-.183.906-.545 1.284-.619.647-1.703 1.044-2.81 1.007-2.097-.041-5.29-1.214-6.704-2.896l-.203-.242L0 27.527l.136.152c3.075 3.42 6.477 3.88 9.399 3.88 4.388 0 8.817-2.243 8.817-7.255 0-5.742-4.682-6.8-8.762-7.082M33.548 25.04c-.734.386-1.593.615-2.297.615-1.527 0-2.368-.972-2.368-2.739v-8.855h5.587V9.059h-5.546V2.963l-5.46 2.075v4.021H19.71v5.002h3.752v8.855c0 2.655.698 4.706 2.072 6.096 1.213 1.224 2.933 1.866 4.995 1.866.132 0 .266-.003.4-.008 1.539-.044 2.756-.31 4.203-.917l.211-.088L33.8 24.91l-.252.132zM80.399 9.561L80.399 8.92 73.963 8.92 67.422 16.825 67.422.239 61.853.239 61.853 30.197 67.422 30.197 67.422 21.222 75.089 30.197 81.564 30.197 81.564 29.47 72.124 18.946zM87.943 17.271c.735-2.327 2.617-3.652 5.213-3.652 2.713 0 4.468 1.325 4.858 3.652H87.943zm12.857-5.625c-1.78-2.117-4.48-3.237-7.805-3.237-6.43 0-10.751 4.608-10.751 11.467 0 7.206 4.258 11.682 11.113 11.682 3.403 0 6.728-1.362 8.678-3.554l.164-.184-3.47-3.708-.168.188c-1.111 1.247-3.47 1.92-5.125 1.92-3.05 0-5.176-1.542-5.618-4.045h15.386l.02-.234c.382-4.398-.457-7.958-2.424-10.295z"></path> <path id="logo-green-part" fill="#11C893" d="M47.905 26.085c-2.546 0-4.61-2.11-4.61-4.714 0-2.603 1.97-4.714 4.61-4.714 2.546 0 4.61 2.111 4.61 4.714 0 2.604-2.064 4.714-4.61 4.714m7.519-13.256c-.587 2.697-3.129 3.191-3.693 1.136-.307-1.12.348-2.664.512-3.861.615-4.507-2.08-7.328-5.483-9.184 2.965 6.816-9.377 10.973-9.377 19.462 0 6.172 4.716 11.176 10.536 11.176 5.818 0 10.535-5.004 10.535-11.176 0-1.144-.112-2.165-.39-3.12-.47-1.614-1.44-3.338-2.64-4.433"></path> </g> </svg>