<svg xmlns="http://www.w3.org/2000/svg" width="234" height="66" viewBox="0 0 234 66" fill="none"><path d="M219.027 37.1825L218.819 38.5699C218.819 38.8474 218.681 39.0555 218.611 39.1249C218.473 39.2637 218.265 39.2636 218.058 39.1943C217.919 39.1943 217.712 39.1249 217.435 39.1249C217.158 39.1249 216.881 39.0555 216.674 39.0555C215.843 39.0555 215.012 39.1249 214.251 39.333C213.49 39.5411 212.867 39.8186 212.382 40.2348V55.4269C212.382 55.7044 212.313 55.9125 212.175 56.0513C212.036 56.19 211.829 56.2594 211.552 56.2594H209.822C209.545 56.2594 209.337 56.19 209.199 56.0513C209.06 55.9125 208.991 55.7044 208.991 55.4269V37.2519C208.991 36.9744 209.06 36.7663 209.199 36.6276C209.337 36.4888 209.545 36.4195 209.822 36.4195H211.067C211.344 36.4195 211.552 36.4888 211.69 36.6276C211.829 36.7663 211.898 36.9744 211.967 37.2519L212.106 38.3618C212.867 37.5294 213.697 36.9744 214.597 36.6969C215.497 36.4195 216.397 36.2114 217.296 36.2807C217.504 36.2807 217.781 36.2807 217.988 36.3501C218.196 36.3501 218.335 36.4195 218.473 36.4195C218.75 36.4888 218.888 36.5582 218.957 36.6969C219.096 36.6969 219.096 36.9051 219.027 37.1825ZM197.71 38.6393C196.326 38.7087 195.288 39.0555 194.526 39.7492C193.765 40.4429 193.211 41.206 192.934 42.0385C192.588 42.8709 192.45 43.5646 192.45 44.0502H202.139C202.139 43.8421 202.209 43.5646 202.209 43.3565C202.209 41.8304 201.793 40.7204 201.032 39.888C200.201 39.0555 199.094 38.6393 197.71 38.6393ZM198.194 56.8837C195.011 56.8837 192.658 55.9819 191.204 54.1783C189.681 52.3746 188.92 49.7386 188.989 46.3394C188.989 44.5358 189.266 42.8709 189.889 41.3448C190.512 39.7492 191.412 38.5006 192.727 37.5294C194.042 36.5582 195.634 36.0726 197.641 36.0032C200.271 36.0032 202.278 36.6969 203.593 38.015C204.908 39.333 205.531 41.206 205.531 43.5646C205.531 44.0502 205.531 44.4664 205.461 44.8826C205.392 45.2989 205.392 45.5764 205.323 45.7845C205.254 46.0619 205.185 46.2701 205.046 46.4088C204.908 46.5475 204.7 46.6169 204.423 46.6169H192.381C192.381 49.3223 193.004 51.2647 194.249 52.444C195.495 53.6233 197.225 54.1783 199.44 54.1089C200.201 54.1089 200.963 54.0395 201.724 53.9008C202.485 53.762 203.108 53.6233 203.662 53.4152C203.939 53.3458 204.146 53.3458 204.285 53.4152C204.423 53.4846 204.492 53.6927 204.562 53.9008L204.769 55.0801C204.839 55.3576 204.769 55.5657 204.7 55.7044C204.562 55.8432 204.423 55.9819 204.146 56.0513C203.316 56.3288 202.485 56.5369 201.516 56.6756C200.478 56.8143 199.371 56.8837 198.194 56.8837ZM173.071 39.8186V55.5657C173.071 55.8432 173.002 56.0513 172.863 56.19C172.725 56.3288 172.517 56.3981 172.24 56.3981H170.51C170.233 56.3981 170.026 56.3288 169.887 56.19C169.749 56.0513 169.68 55.8432 169.68 55.5657V38.9168C169.68 38.3618 169.887 37.9456 170.441 37.7375C171.548 37.2519 172.863 36.8357 174.317 36.4888C175.77 36.142 177.224 36.0032 178.677 35.9339C180.061 35.9339 181.238 36.0726 182.276 36.4195C183.314 36.7663 184.145 37.46 184.698 38.4312C185.252 39.4024 185.598 40.8592 185.598 42.6628V55.4963C185.598 55.7738 185.529 55.9819 185.39 56.1206C185.252 56.2594 185.044 56.3288 184.768 56.3288H183.107C182.83 56.3288 182.622 56.2594 182.484 56.1206C182.345 55.9819 182.276 55.7738 182.276 55.4963V43.2871C182.276 41.4141 181.861 40.1655 181.099 39.6105C180.338 38.9862 179.369 38.7087 178.193 38.7781C177.293 38.7781 176.393 38.8474 175.424 39.0555C174.732 39.1943 173.832 39.4718 173.071 39.8186ZM166.219 54.2476L166.427 55.1495C166.496 55.4269 166.496 55.635 166.358 55.8432C166.288 55.9819 166.081 56.1206 165.804 56.2594C165.389 56.3981 164.904 56.5369 164.42 56.6062C163.935 56.6756 163.312 56.745 162.62 56.745C160.475 56.745 159.091 56.3288 158.329 55.4963C157.637 54.6639 157.291 53.2071 157.291 51.2647V39.1249H155.838C155.561 39.1249 155.353 39.0555 155.215 38.9168C155.076 38.7781 155.007 38.5699 155.007 38.2925V37.2519C155.007 36.9744 155.076 36.7663 155.215 36.6276C155.353 36.4888 155.561 36.4195 155.838 36.4195H157.291V31.7717C157.291 31.4942 157.36 31.2861 157.499 31.1473C157.637 31.0086 157.845 30.9392 158.122 30.9392H159.852C160.129 30.9392 160.336 31.0086 160.475 31.1473C160.613 31.2861 160.682 31.4942 160.682 31.7717V36.4195H166.358C166.634 36.4195 166.842 36.4888 166.911 36.6276C166.981 36.7663 167.05 36.9744 166.981 37.2519L166.773 38.2925C166.704 38.5699 166.634 38.7781 166.496 38.9168C166.358 39.0555 166.15 39.1249 165.873 39.1249H160.682V51.6809C160.613 52.3746 160.752 52.9296 160.959 53.4152C161.167 53.9008 161.79 54.1089 162.828 54.1089C163.312 54.1089 163.797 54.0395 164.212 53.9702C164.627 53.9008 165.043 53.8314 165.458 53.6927C165.735 53.6233 165.942 53.6233 166.081 53.6927C166.219 53.7621 166.15 53.9702 166.219 54.2476ZM152.377 37.1825L152.17 38.5699C152.17 38.8474 152.031 39.0555 151.962 39.1249C151.823 39.2637 151.616 39.2636 151.408 39.1943C151.27 39.1943 151.062 39.1249 150.785 39.1249C150.508 39.1249 150.232 39.0555 150.024 39.0555C149.193 39.0555 148.363 39.1249 147.602 39.333C146.84 39.5411 146.217 39.8186 145.733 40.2348V55.4269C145.733 55.7044 145.664 55.9125 145.525 56.0513C145.387 56.19 145.179 56.2594 144.902 56.2594H143.172C142.895 56.2594 142.688 56.19 142.549 56.0513C142.411 55.9125 142.342 55.7044 142.342 55.4269V37.2519C142.342 36.9744 142.411 36.7663 142.549 36.6276C142.688 36.4888 142.895 36.4195 143.172 36.4195H144.418C144.695 36.4195 144.902 36.4888 145.041 36.6276C145.179 36.7663 145.248 36.9744 145.318 37.2519L145.456 38.3618C146.217 37.5294 147.048 36.9744 147.948 36.6969C148.847 36.4195 149.747 36.2114 150.647 36.2807C150.855 36.2807 151.131 36.2807 151.339 36.3501C151.547 36.3501 151.685 36.4195 151.823 36.4195C152.1 36.4888 152.239 36.5582 152.308 36.6969C152.377 36.6969 152.377 36.9051 152.377 37.1825ZM135.005 53.6927V47.8656C134.521 47.7268 133.967 47.5881 133.344 47.5187C132.721 47.4494 132.168 47.38 131.545 47.38C130.23 47.38 129.053 47.6575 128.015 48.2124C126.977 48.7674 126.492 49.8079 126.423 51.1954C126.492 52.5134 126.977 53.3458 127.946 53.7621C128.915 54.1783 129.953 54.3864 131.13 54.3864C131.822 54.3864 132.514 54.317 133.206 54.1783C133.898 54.0395 134.521 53.9008 135.005 53.6927ZM138.327 43.1484V54.6639C138.327 54.9413 138.258 55.1495 138.12 55.2882C137.981 55.4269 137.774 55.5657 137.497 55.635C136.943 55.8432 135.974 56.0513 134.659 56.3288C133.344 56.6062 131.891 56.745 130.299 56.745C129.122 56.745 127.946 56.6062 126.839 56.2594C125.731 55.9125 124.831 55.3576 124.139 54.5251C123.447 53.6927 123.101 52.5828 123.032 51.1954C123.032 49.5998 123.447 48.4205 124.139 47.5187C124.901 46.6169 125.8 45.9926 126.977 45.6457C128.154 45.2989 129.33 45.0908 130.645 45.0908C131.476 45.0908 132.237 45.1601 132.929 45.2989C133.69 45.4376 134.313 45.5764 134.936 45.7151V43.2871C135.005 41.8997 134.729 40.7898 134.175 40.0961C133.621 39.333 132.514 38.9862 130.853 38.9862C130.022 38.9862 129.122 39.0555 128.223 39.2636C127.323 39.4024 126.492 39.6105 125.8 39.8186C125.524 39.888 125.316 39.888 125.177 39.8186C125.039 39.7492 124.901 39.5411 124.831 39.2636L124.624 38.2231C124.555 37.9456 124.555 37.7375 124.555 37.5988C124.624 37.46 124.762 37.3213 125.039 37.2519C125.87 36.9744 126.908 36.6969 128.084 36.4888C129.261 36.2807 130.368 36.142 131.337 36.142C133.829 36.142 135.559 36.6969 136.666 37.8762C137.774 38.9168 138.327 40.7204 138.327 43.1484ZM120.886 46.0619C120.886 48.0043 120.61 49.8773 120.056 51.5422C119.502 53.2071 118.533 54.5251 117.149 55.5657C115.765 56.6062 113.896 57.0918 111.543 57.1612C110.851 57.1612 110.09 57.0918 109.398 56.9531C108.705 56.8143 108.013 56.6062 107.39 56.3981V64.3063C107.39 64.5838 107.321 64.7919 107.183 64.9307C107.044 65.0694 106.837 65.1388 106.56 65.1388H104.899C104.622 65.1388 104.414 65.0694 104.276 64.9307C104.138 64.7919 104.068 64.5838 104.068 64.3063V38.5006C104.068 38.2231 104.138 38.015 104.207 37.8069C104.345 37.5988 104.484 37.46 104.76 37.3907C105.868 37.0438 107.044 36.6969 108.429 36.4888C109.744 36.2114 111.059 36.142 112.374 36.0726C113.965 36.0726 115.35 36.3501 116.595 36.9051C117.841 37.46 118.81 38.5006 119.571 39.9574C120.471 41.4835 120.817 43.4952 120.886 46.0619ZM107.39 39.5411V53.4152C108.013 53.6927 108.705 53.9008 109.467 54.0395C110.228 54.1783 110.989 54.2476 111.681 54.2476C113.827 54.1783 115.35 53.3458 116.249 51.8197C117.149 50.2935 117.564 48.3512 117.495 46.0619C117.495 43.2178 116.941 41.2754 115.973 40.2348C115.004 39.1943 113.689 38.7087 112.166 38.7087C111.474 38.7087 110.713 38.7781 109.882 38.9168C109.052 39.0555 108.221 39.2636 107.39 39.5411ZM220.895 54.6639L221.311 53.4846C221.38 53.2071 221.518 53.0683 221.657 52.999C221.795 52.9296 222.003 52.9296 222.28 53.0683C222.764 53.2071 223.318 53.4152 224.079 53.5539C224.84 53.6927 225.671 53.8314 226.64 53.8314C228.024 53.8314 228.993 53.4846 229.685 52.9296C230.308 52.3746 230.654 51.7503 230.654 50.9872C230.585 49.8773 230.1 49.0449 229.131 48.4899C228.162 47.9349 227.124 47.5187 225.878 47.1025C224.633 46.6863 223.525 46.1313 222.626 45.2989C221.657 44.5358 221.172 43.3565 221.103 41.6916C221.103 39.888 221.726 38.4312 222.972 37.3907C224.217 36.3501 225.878 35.7951 228.024 35.7951C229.131 35.7951 230.1 35.9339 230.931 36.142C231.692 36.3501 232.246 36.4888 232.453 36.5582C232.73 36.6276 232.869 36.7663 232.938 36.9744C233.007 37.1825 233.007 37.3907 232.938 37.5988L232.661 38.5699C232.592 38.8474 232.523 38.9862 232.315 39.0555C232.177 39.1249 231.969 39.1249 231.761 39.1249C231.554 39.0555 231.069 38.9862 230.446 38.8474C229.823 38.7087 229.062 38.6393 228.232 38.6393C227.193 38.6393 226.294 38.7781 225.463 39.1943C224.702 39.6105 224.287 40.3042 224.217 41.3448C224.287 42.4547 224.771 43.2178 225.74 43.7727C226.709 44.2583 227.816 44.7439 229.062 45.1601C230.308 45.5764 231.415 46.1313 232.384 46.8944C233.353 47.6575 233.838 48.8368 233.907 50.4323C233.907 52.0972 233.284 53.5539 232.107 54.7332C230.931 55.9819 229.062 56.6062 226.501 56.6756C225.394 56.6756 224.356 56.5369 223.456 56.3288C222.556 56.1206 221.795 55.8432 221.241 55.5657C221.034 55.4269 220.895 55.2882 220.826 55.1495C220.826 55.0801 220.826 54.872 220.895 54.6639Z" fill="#000022"></path><path d="M37.696 52.8602C31.8823 58.5486 27.3145 62.8495 21.4316 62.8495C9.66583 62.8495 7.93558 43.4952 7.31268 30.9392C4.54427 29.8986 1.29139 28.4418 0.668496 27.9562C-0.577289 26.9851 -0.0236069 25.5977 1.84507 25.8751C2.53717 25.9445 5.30559 26.4995 7.31268 26.5688C7.24347 16.7183 9.25057 8.1857 9.73505 7.14514C10.0119 6.52081 10.3579 5.89648 11.8806 5.89648C14.995 5.89648 19.7705 8.32444 20.8087 9.22625C21.7776 10.0587 22.2621 10.5443 21.6392 11.9317C20.3934 14.7065 19.0092 21.6435 18.4555 26.4301C23.1618 26.3607 28.145 24.904 29.1831 24.5571C30.2905 24.2102 30.8442 24.7652 31.0518 25.5283C31.3287 26.7769 30.9134 31.7716 28.9063 32.9509C27.8681 33.5752 26.1379 34.4077 17.9711 33.4365C17.2098 45.9232 19.4937 52.3052 21.224 54.9413C22.2621 56.6062 22.885 57.5774 24.8229 56.8837C27.8681 55.8431 33.751 51.4728 36.5194 48.3511C35.4813 42.8015 34.72 38.778 34.8584 28.5112C35.066 14.8453 37.2115 7.21451 38.2497 3.88474C39.1494 0.554962 40.5336 0 41.8486 0C43.7865 0 54.9986 2.01174 56.1752 13.0416C56.798 18.5912 52.507 31.286 45.8628 42.3853C46.6241 47.7962 47.9391 52.3052 48.4928 53.9701C49.531 57.2305 50.9152 57.6467 53.1299 56.3287C56.798 54.2476 60.4662 48.2818 60.4662 48.2818C57.4902 39.0555 58.5975 30.3148 59.9125 28.9968C60.4662 28.3725 60.8815 28.3725 61.6428 28.4418C63.0962 28.6499 64.8956 29.1355 66.5567 29.8292C67.5948 30.2455 68.5638 30.7311 69.3943 31.3554C70.4325 32.1185 70.7093 32.8815 70.7093 34.0608C70.7093 35.5176 69.5327 38.9168 68.4254 41.7609C68.0793 47.3799 71.4706 54.0395 73.3393 56.2593C74.3083 57.3693 74.9311 57.2999 75.9693 56.2593C83.3056 48.9755 83.3748 37.1131 81.1601 31.841C81.0217 31.4941 80.8832 31.286 80.3988 31.1473C78.8069 30.5923 78.4609 29.413 79.5682 28.9968C81.2293 28.3725 85.7972 28.4418 90.2266 30.9392C99.7084 36.2113 84.8282 62.8495 74.3775 62.8495C69.948 62.8495 65.3109 59.1729 62.2657 52.9989C58.0438 58.6873 54.3757 62.8495 49.1157 62.8495C44.5478 62.8495 40.2568 59.7279 37.696 52.8602ZM49.6002 10.9605C49.3925 9.98933 48.6312 9.85059 48.1468 10.7524C46.7626 13.3191 44.7555 22.1985 45.1015 35.587C48.8389 27.1932 50.4307 14.3597 49.6002 10.9605Z" fill="#04D3D3"></path></svg>