<svg width="200" height="64" viewBox="0 0 100 34" fill="none" xmlns="http://www.w3.org/2000/svg">
<path d="M39.7938 11.385C38.1177 9.53328 36.0348 8.61185 33.5538 8.61185C30.2989 8.61185 28.07 10.6452 27.5173 11.4204V0H23.5062V27.2398H27.5173V24.7856C28.07 25.5609 30.2193 27.5942 33.5538 27.5942C36.0348 27.5942 38.1177 26.6684 39.7938 24.8211C41.4875 22.9694 42.3455 20.7367 42.3455 18.0964C42.3455 15.4694 41.4875 13.2323 39.7938 11.385ZM36.7246 22.265C35.7031 23.3902 34.4117 23.9484 32.8153 23.9484C29.5958 23.9484 27.1811 21.4942 27.1811 18.0964C27.1811 14.3797 29.9142 12.2444 32.8153 12.2444C34.3941 12.2444 35.6987 12.7982 36.7246 13.9278C37.7462 15.053 38.2504 16.4352 38.2504 18.0964C38.2681 19.7576 37.7506 21.1531 36.7246 22.265Z" fill="#252525"/>
<path d="M60.1545 11.5667C58.4253 9.59976 56.1611 8.60745 53.344 8.60745C50.5446 8.60745 48.2937 9.51559 46.5689 11.3142C44.8398 13.095 43.9863 15.3499 43.9863 18.1053C43.9863 20.8607 44.8575 23.1333 46.6043 24.9319C48.3467 26.7127 50.5977 27.6076 53.3131 27.6076C55.5419 27.6076 57.4568 27.0361 59.0312 25.8932C60.6056 24.7502 61.6802 23.2883 62.233 21.5031H58.0406C57.218 23.1997 55.6923 24.0592 53.4457 24.0592C51.8669 24.0592 50.5623 23.5896 49.5363 22.6283C48.5148 21.6847 47.9752 20.493 47.9266 19.0799H62.4364C62.6354 16.0232 61.8836 13.5026 60.1545 11.5667ZM48.0593 16.2447C48.329 14.8847 48.9128 13.8392 49.8371 13.0994C50.7923 12.3419 51.9156 11.9742 53.2246 11.9742C54.4142 11.9742 55.4535 12.3463 56.3601 13.0684C57.2667 13.7728 57.8548 14.836 58.1379 16.2447H48.0593Z" fill="#252525"/>
<path d="M95.9933 8.96185V11.2477C95.4405 10.4725 93.0569 8.60745 89.8197 8.60745C87.3387 8.60745 85.2558 9.53331 83.5443 11.3806C81.8683 13.2323 81.028 15.465 81.028 18.1053C81.028 20.7278 81.8683 22.9827 83.5443 24.83C85.2381 26.6817 87.3343 27.6031 89.8197 27.6031C93.2072 27.6031 95.4228 25.7381 95.9933 24.9629V27.231H100V8.96185H95.9933ZM90.5405 23.944C88.9617 23.944 87.6571 23.3902 86.6311 22.2606C85.6096 21.1354 85.1054 19.7532 85.1054 18.092C85.1054 16.4263 85.6096 15.0486 86.6311 13.9234C87.6527 12.7982 88.9441 12.24 90.5405 12.24C94.1625 12.24 96.1437 15.2347 96.1437 18.092C96.1437 20.9493 94.4809 23.944 90.5405 23.944Z" fill="#252525"/>
<path d="M64.652 30.3187C68.2429 30.3187 69.0124 28.3695 69.7156 26.4691L61.7818 8.96628H66.1954L71.7676 21.8929L77.384 8.96185H81.8285L73.3066 27.8778C72.2673 30.1991 70.3701 34 64.652 34V30.3187Z" fill="#252525"/>
<path d="M20.5829 27.1158C20.1186 27.1069 19.6675 27.0582 19.2297 26.974C18.7919 26.8899 18.3717 26.7702 17.9693 26.6285C17.1644 26.345 16.4303 25.9596 15.7537 25.5299C15.0771 25.0957 14.4579 24.6129 13.883 24.0901C13.3081 23.5674 12.7774 23.0092 12.2865 22.42C11.7957 21.8264 11.3446 21.2062 10.9333 20.5506C10.5264 19.8949 10.1594 19.1994 9.84981 18.4596C9.54467 17.7198 9.29702 16.9269 9.16877 16.0497C9.13781 15.8282 9.11128 15.6067 9.10243 15.3764C9.08916 15.146 9.08474 14.9068 9.09801 14.672C9.12012 14.2024 9.19088 13.7284 9.31028 13.2721C9.54909 12.3551 9.99133 11.4824 10.6149 10.7382C10.9289 10.3661 11.2871 10.025 11.6895 9.73261C12.092 9.44023 12.5342 9.19215 13.0074 9.00609C13.4806 8.82004 13.9803 8.696 14.48 8.64284C14.7321 8.61626 14.9842 8.6074 15.2318 8.61183C15.4795 8.61626 15.7272 8.63841 15.9704 8.67385C16.4613 8.74473 16.9477 8.87763 17.4077 9.06811C17.8676 9.2586 18.301 9.50668 18.699 9.80349C19.4906 10.3927 20.123 11.1723 20.552 12.0406C20.9809 12.9045 21.2021 13.8569 21.2286 14.7916C21.233 14.8492 21.233 14.9068 21.233 14.9688C21.233 15.0264 21.233 15.0884 21.2286 15.1505C21.2286 15.2745 21.2197 15.3897 21.2109 15.5093C21.1932 15.7441 21.1623 15.97 21.1225 16.1915C21.0473 16.6345 20.9367 17.0509 20.8085 17.4496C20.6802 17.8483 20.5299 18.2293 20.3618 18.5925C20.1982 18.9602 20.0169 19.3102 19.8223 19.6513C19.4375 20.3335 19.0086 20.9714 18.5442 21.5783C18.0799 22.1852 17.5801 22.7611 17.045 23.3016C16.5099 23.842 15.9439 24.3559 15.338 24.8299C14.7321 25.3039 14.0865 25.7425 13.3966 26.1279C12.7067 26.5133 11.9681 26.85 11.1765 27.1025C10.3849 27.3506 9.53582 27.5189 8.64693 27.5411C7.76687 27.5632 6.89124 27.448 6.04657 27.2C5.20189 26.9519 4.38818 26.5709 3.64964 26.0615C2.91552 25.552 2.26101 24.9141 1.73033 24.1876C1.19964 23.4611 0.801627 22.6592 0.531862 21.8353C0.394768 21.4233 0.288631 21.0069 0.209028 20.5904C0.129425 20.174 0.0763567 19.7576 0.0498225 19.3456C0.0365553 19.1418 0.0277106 18.9336 0.0232882 18.7299L0.0188658 18.5792V18.1894L0.0144434 17.1661C0.00559867 14.4328 -0.00324609 11.7039 0.00117629 8.97066H3.98132C3.98574 11.7039 3.98132 14.4328 3.96805 17.1661L3.96363 18.1894V18.6723C3.96363 18.8096 3.96805 18.9469 3.97689 19.0798C3.99458 19.3501 4.02554 19.6114 4.06976 19.8684C4.11841 20.1253 4.1759 20.3734 4.25108 20.6082C4.5518 21.5606 5.1046 22.3403 5.86525 22.8896C6.24558 23.1643 6.67897 23.3769 7.1389 23.5187C7.59882 23.6604 8.08971 23.7357 8.57175 23.7269C9.04936 23.7224 9.55351 23.6427 10.0621 23.4876C10.5707 23.337 11.0881 23.1155 11.5878 22.8409C12.092 22.5662 12.5828 22.2473 13.0516 21.8796C13.5204 21.5163 13.9715 21.1132 14.3916 20.679C15.2363 19.8196 15.9704 18.8362 16.5276 17.8084C16.8062 17.299 17.0318 16.7718 17.1954 16.2712C17.275 16.0187 17.3369 15.7751 17.3767 15.5403C17.3988 15.4251 17.4077 15.3144 17.4165 15.208C17.4165 15.1549 17.4254 15.1017 17.4209 15.053C17.4209 15.0264 17.4209 15.0043 17.4209 14.9777C17.4209 14.9511 17.4209 14.9245 17.4209 14.8979C17.4077 14.4682 17.3148 14.0607 17.1423 13.6974C16.9743 13.3342 16.7266 13.0196 16.4303 12.7893C16.134 12.5545 15.7891 12.4039 15.4264 12.3507C15.3336 12.3374 15.2407 12.3286 15.1478 12.3286C15.055 12.3286 14.9665 12.333 14.8781 12.3419C14.7056 12.364 14.5375 12.4039 14.3739 12.4703C14.0511 12.6032 13.7504 12.8336 13.5027 13.1392C13.255 13.4449 13.0737 13.8259 12.972 14.229C12.9234 14.4328 12.8924 14.641 12.8836 14.8492C12.8791 14.9555 12.8791 15.0574 12.888 15.1682C12.8924 15.2789 12.9057 15.3941 12.9189 15.5137C12.9543 15.7529 13.0074 16.001 13.0782 16.2579C13.1533 16.5149 13.2418 16.7762 13.3435 17.0376C13.5513 17.5604 13.8123 18.0831 14.1174 18.5881C14.4226 19.0931 14.7631 19.5848 15.1434 20.0456C15.5237 20.5063 15.9306 20.9404 16.364 21.3347C16.8018 21.7289 17.2617 22.0833 17.7349 22.3802C18.2081 22.6814 18.699 22.9162 19.181 23.0801C19.4198 23.1643 19.6631 23.2218 19.893 23.2573C20.1274 23.2972 20.353 23.3149 20.5741 23.306V27.1158H20.5829Z" fill="#252525"/>
</svg>
