<svg xmlns="http://www.w3.org/2000/svg" viewBox="0 0 470 158" width="470" height="158"><style>.a{fill:#f26912}.b{fill:#0d1f32}</style><path class="a" d="m174.8 127.4c-0.1 2.8-1.6 4.8-4.1 5.4-2.6 0.6-4.9-0.5-6-3-1.9-4.9-3.8-9.8-5.7-14.7q-3.1-8.2-6.3-16.5-3.1-8.3-6.3-16.7-2.7-6.9-5.3-13.8-3.2-8.5-6.5-16.9c-2.1-5.5-4.2-11-6.3-16.5-0.7-1.9-1.8-3.9-0.8-6.2 1-2.4 2.6-3.5 5.1-3.5 2.3 0 4 1.3 4.9 3.6 3.7 9.6 7.3 19.3 11 28.9 3.4 8.9 6.9 17.7 10.3 26.6 3.1 8.1 6.1 16.2 9.2 24.3 2 5.4 4.2 10.9 6.3 16.4 0.3 0.8 0.4 1.7 0.5 2.6z"/><path class="a" d="m210.9 31.2c-0.3 0.9-0.8 2.4-1.4 3.9q-4 9.9-8 19.9c-2.6 6.3-5.2 12.6-7.7 18.9-2.3 5.6-4.5 11.2-6.7 16.7-0.9 2.2-1.6 4.5-3.9 5.7-2.2 1.1-4.4 0.9-6.3-0.7-1.8-1.5-2.6-4-1.7-6.1 3.2-8 6.5-15.9 9.7-23.9 3.6-9 7.1-18 10.7-26.9q2-5 4.1-10c1.2-2.9 3.7-4.2 6.9-3.6 2.2 0.5 4.2 3 4.3 6.1z"/><path class="a" d="m25 64.6q0-16.9 0-33.8c0-2.5 1.8-4.9 4-5.5 2.6-0.8 5 0 6.2 2.5 0.6 1.2 0.7 2.7 0.7 4.1q0.1 25.1 0.1 50.2c0 4.5-0.1 9 0 13.5 0.1 10.3 4.4 18.2 13.2 23.3 2.5 1.4 5.4 2.2 8.1 3.2 3.1 1.2 4.3 4 3.4 7.2-0.8 2.7-3.4 4.2-6.4 3.5-12.3-2.7-21-10-26.2-21.6-2.1-4.7-3.1-9.7-3.1-14.9q0-15.8 0-31.7z"/><path class="a" d="m109.1 96.3c-0.1 5.2-1.1 10.2-3.2 14.9-5.2 11.6-13.8 18.9-26.1 21.6-3 0.7-5.7-0.8-6.4-3.5-1-3.2 0.3-6 3.3-7.2 2.7-1 5.7-1.8 8.2-3.2 8.8-5.1 13-13 13.2-23.3 0-4.5 0-9 0-13.5 0-16.7 0-33.5 0-50.2 0-1.4 0.1-2.9 0.7-4.1 1.2-2.5 3.6-3.3 6.3-2.5 2.2 0.6 4 3 4 5.5q0 16.9 0 33.8 0 15.9 0 31.7z"/><path class="b" d="m271.4 36.1h-37c-3 0-5.5-2.5-5.5-5.6 0-3 2.5-5.5 5.5-5.5h37c3 0 5.5 2.5 5.5 5.5 0 3.1-2.5 5.6-5.5 5.6z"/><path class="b" d="m271.4 133h-37c-3 0-5.5-2.5-5.5-5.5 0-3.1 2.5-5.6 5.5-5.6h37c3 0 5.5 2.5 5.5 5.6 0 3-2.5 5.5-5.5 5.5z"/><path class="b" d="m247.3 90.5h-12.9c-3.1 0-5.5-2.4-5.5-5.5 0-3.1 2.4-5.5 5.5-5.5h12.9c3.1 0 5.6 2.4 5.6 5.5 0 3.1-2.5 5.5-5.6 5.5z"/><path class="b" d="m439.5 36.1h-37c-3.1 0-5.5-2.5-5.5-5.6 0-3 2.4-5.5 5.5-5.5h37c3 0 5.5 2.5 5.5 5.5 0 3.1-2.5 5.6-5.5 5.6z"/><path class="b" d="m439.5 133h-37c-3.1 0-5.5-2.5-5.5-5.5 0-3.1 2.5-5.6 5.5-5.6h37c3 0 5.5 2.5 5.5 5.6 0 3-2.5 5.5-5.5 5.5z"/><path class="b" d="m439.5 90.5h-13c-3 0-5.5-2.4-5.5-5.5 0-3.1 2.5-5.5 5.5-5.5h13c3 0 5.5 2.4 5.5 5.5 0 3.1-2.5 5.5-5.5 5.5z"/><path class="b" d="m342.3 108.5c-0.1 6.3 0 12.6-0.1 18.8 0 4.2-3.8 6.7-7.8 5.3-2.2-0.7-3.7-3-3.8-5.7 0-9.9-0.2-19.9 0.1-29.8 0.2-4.6-1.2-8.4-3.6-12.3-8.4-13.4-16.6-27-24.8-40.6-2.2-3.6-4.5-7.2-6.7-10.9-1.5-2.6-0.6-5.9 2.2-7.5 2.4-1.5 6.2-0.8 7.7 1.7 4.2 6.7 8.3 13.5 12.5 20.3 7.5 12.4 15.1 24.9 22.7 37.3 1 1.8 1.6 3.5 1.6 5.5-0.1 6-0.1 11.9-0.1 17.9q0.1 0 0 0z"/><path class="b" d="m356.9 45.1c3.8-5.7 7.5-11.5 11.2-17.3 1.4-2 4.1-3.1 6.3-2.6 2.5 0.6 4.5 2.7 4.6 5.2 0 1.3-0.4 2.7-1.1 3.8-7.3 11.4-14.6 22.8-22 34.2-1.7 2.6-4 3.5-6.9 2.9-2-0.5-4-2.4-4.1-4.6-0.1-1.5 0.3-3.2 1.1-4.4 3.5-5.8 7.3-11.5 10.9-17.2z"/><filter id="f0"/><g filter="url(#f0)"/></svg>