<svg width="60" height="60" viewBox="0 0 60 60" fill="none" xmlns="http://www.w3.org/2000/svg">
<g clip-path="url(#clip0_1158_32813)">
<path d="M44 0H16C7.16344 0 0 7.16344 0 16V44C0 52.8366 7.16344 60 16 60H44C52.8366 60 60 52.8366 60 44V16C60 7.16344 52.8366 0 44 0Z" fill="#7022FB"/>
<path d="M39.0647 34.0594C39.0647 34.0594 39.6052 33.6487 41.8513 31.9615C43.9114 30.4178 45.567 30.7852 46.9397 31.8819C47.2749 32.1483 47.2913 32.6537 46.9823 32.9462L36.6984 42.6286C36.4161 42.8944 36.0439 43.0386 35.6601 43.0386H23.6038C22.7097 43.0386 21.8527 43.4115 21.2402 44.0604L18.2915 47.2007" stroke="white" stroke-width="1.94678" stroke-linecap="round" stroke-linejoin="round"/>
<path d="M41.3988 21.896C41.3988 26.9205 37.3267 30.9926 32.3022 30.9926C27.2776 30.9926 23.2055 26.9205 23.2055 21.896C23.2055 16.8714 27.2776 12.7993 32.3022 12.7993C37.3267 12.7993 41.3988 16.8714 41.3988 21.896Z" stroke="white" stroke-width="1.94678" stroke-linecap="round" stroke-linejoin="round"/>
<path d="M35.0592 19.4953C34.1542 17.0891 30.0821 17.3768 30.056 19.8839C30.0402 21.0074 31.3545 21.5231 32.4566 21.6941C36.4594 22.3279 35.3579 26.091 32.4566 25.9523C30.2585 25.8458 29.6192 24.355 29.5554 23.9986" stroke="white" stroke-width="1.94678" stroke-linecap="round" stroke-linejoin="round"/>
<path d="M32.4992 15.8167V17.839" stroke="white" stroke-width="1.94678" stroke-linecap="round" stroke-linejoin="round"/>
<path d="M32.4992 25.9516V27.9739" stroke="white" stroke-width="1.94678" stroke-linecap="round" stroke-linejoin="round"/>
<path d="M27.6182 38.5463H35.9808C36.2362 38.5463 36.4436 38.3279 36.4223 38.0724C36.2197 35.2405 34.1816 34.9748 33.5423 34.9748H29.3535C27.3998 33.6652 26.1809 33.394 23.8922 33.394C21.1564 33.394 18.9576 34.7193 16.1902 38.1954L12.8048 41.3837" stroke="white" stroke-width="1.94678" stroke-linecap="round" stroke-linejoin="round"/>
</g>
<defs>
<clipPath id="clip0_1158_32813">
<rect width="60" height="60" fill="white"/>
</clipPath>
</defs>
</svg>
