<svg width="60" height="60" viewBox="0 0 60 60" fill="none" xmlns="http://www.w3.org/2000/svg">
<g clip-path="url(#clip0_1158_32826)">
<path d="M44 0H16C7.16344 0 0 7.16344 0 16V44C0 52.8366 7.16344 60 16 60H44C52.8366 60 60 52.8366 60 44V16C60 7.16344 52.8366 0 44 0Z" fill="#7022FB"/>
<path d="M14.0402 34.2146V22.6513C14.0402 21.9584 14.6019 21.3974 15.2941 21.3974H26.8573V25.4894C26.8573 25.7243 27.1203 25.8582 27.314 25.7256C27.7184 25.4482 28.2081 25.2862 28.7361 25.2862C30.1885 25.2862 31.3552 26.5153 31.2494 27.991C31.1602 29.2374 30.1459 30.2427 28.8982 30.3203C28.309 30.3574 27.7596 30.1912 27.314 29.8863C27.1196 29.7531 26.8566 29.887 26.8566 30.1225V34.2146" stroke="white" stroke-width="1.94678" stroke-linecap="round" stroke-linejoin="round"/>
<path d="M26.8581 47.0325H15.2948C14.6019 47.0325 14.0409 46.4707 14.0409 45.7786V34.2153H18.1329C18.3678 34.2153 18.5017 33.9523 18.3691 33.7586C18.0917 33.3542 17.9296 32.8646 17.9296 32.3365C17.9296 30.8841 19.1588 29.7174 20.6345 29.8232C21.8809 29.9125 22.8862 30.9267 22.9638 32.1744C23.0009 32.7636 22.8347 33.3123 22.5298 33.758C22.3966 33.9523 22.5298 34.2153 22.766 34.2153H26.8581" stroke="white" stroke-width="1.94678" stroke-linecap="round" stroke-linejoin="round"/>
<path d="M26.858 34.2146V38.3066C26.858 38.5415 26.595 38.6754 26.4007 38.5428C25.9536 38.2366 25.4022 38.0704 24.811 38.1089C23.5646 38.1899 22.5517 39.1959 22.4652 40.4422C22.3622 41.9152 23.5268 43.143 24.9785 43.143C25.5059 43.143 25.9962 42.981 26.4007 42.7035C26.5943 42.571 26.8573 42.7049 26.8573 42.9397V47.0318H38.4206C39.1134 47.0318 39.6745 46.4701 39.6745 45.7779V34.2146H35.5825C35.3469 34.2146 35.2137 34.4776 35.3462 34.6719C35.6518 35.1176 35.8173 35.6663 35.7802 36.2561C35.7019 37.5032 34.6973 38.5181 33.451 38.6074C31.9753 38.7131 30.7461 37.5464 30.7461 36.0941C30.7461 35.566 30.9081 35.0764 31.1856 34.6719C31.3188 34.4783 31.1842 34.2153 30.9493 34.2153H26.8573" stroke="white" stroke-width="1.94678" stroke-linecap="round" stroke-linejoin="round"/>
<path d="M32.8934 22.1898L36.5611 24.0041C36.7719 24.1085 36.7753 24.4037 36.57 24.5184C36.1422 24.7581 35.7796 25.1255 35.5454 25.5986C34.9013 26.9006 35.4864 28.491 36.8557 29.0506C38.0127 29.5237 39.3635 29.0595 39.9863 27.9759C40.2809 27.4637 40.3757 26.8985 40.2994 26.3636C40.2665 26.1308 40.5027 25.9543 40.7135 26.058L44.3812 27.8722L49.508 17.508C49.815 16.8872 49.5609 16.1346 48.9401 15.8276L38.5758 10.7007L36.7616 14.3684C36.6572 14.5792 36.8337 14.8154 37.0665 14.7825C37.552 14.7131 38.0629 14.7852 38.536 15.0194C39.838 15.6635 40.3379 17.2827 39.5894 18.5586C38.957 19.6367 37.6014 20.0872 36.4491 19.6044C35.9046 19.3758 35.4857 18.9843 35.222 18.5126C35.1073 18.3073 34.8121 18.3107 34.7077 18.5215L32.8934 22.1892V22.1898Z" stroke="white" stroke-width="1.94678" stroke-linecap="round" stroke-linejoin="round"/>
</g>
<defs>
<clipPath id="clip0_1158_32826">
<rect width="60" height="60" fill="white"/>
</clipPath>
</defs>
</svg>
