<svg width="25" height="24" viewBox="0 0 25 24" fill="none" xmlns="http://www.w3.org/2000/svg">
<path d="M17.7372 0H6.26859C2.8151 0 0.00463867 2.81163 0.00463867 6.26512V17.7337C0.00463867 21.1884 2.8151 23.9988 6.26859 23.9988H17.7372C21.1918 23.9988 24.0012 21.1872 24.0012 17.7337V6.26512C24.0012 2.81047 21.1907 0 17.7372 0ZM7.53371 19.9023H4.37673V9.48372H7.53371V19.9023ZM5.95464 7.77558C4.93836 7.77558 4.1151 6.95233 4.1151 5.93605C4.1151 4.91977 4.93836 4.09651 5.95464 4.09651C6.97092 4.09651 7.79417 4.91977 7.79417 5.93605C7.79417 6.95233 6.97092 7.77558 5.95464 7.77558ZM19.8884 19.9023H16.7314V14.4872C16.7314 12.8977 16.0942 11.7756 15.0686 11.7756C13.2895 11.7756 12.7767 12.9116 12.7767 15.2698V19.9023H9.61976V12.7163C9.61976 11.6186 9.61976 10.2907 9.59534 9.32907H12.6558C12.7232 9.67442 12.7663 10.4512 12.7779 10.8547C13.236 9.96163 14.2232 9.02093 16.5395 9.02093C19.0651 9.02093 19.8884 10.8453 19.8884 14.1256V19.9023Z" fill="#7022FB"/>
</svg>
