<svg width="60" height="60" viewBox="0 0 60 60" fill="none" xmlns="http://www.w3.org/2000/svg">
<g clip-path="url(#clip0_1158_32821)">
<path d="M44 0H16C7.16344 0 0 7.16344 0 16V44C0 52.8366 7.16344 60 16 60H44C52.8366 60 60 52.8366 60 44V16C60 7.16344 52.8366 0 44 0Z" fill="#7022FB"/>
<path d="M26.6273 20.3131C28.3206 20.3131 29.6933 18.9382 29.6933 17.2422C29.6933 15.5462 28.3206 14.1713 26.6273 14.1713C24.9339 14.1713 23.5612 15.5462 23.5612 17.2422C23.5612 18.9382 24.9339 20.3131 26.6273 20.3131Z" stroke="white" stroke-width="1.94678" stroke-linecap="round" stroke-linejoin="round"/>
<path d="M19.6278 29.773L19.6051 29.8445" stroke="white" stroke-width="1.94678" stroke-linecap="round" stroke-linejoin="round"/>
<path d="M26.8484 25.9365L30.3862 28.9737H36.1359" stroke="white" stroke-width="1.94678" stroke-linecap="round" stroke-linejoin="round"/>
<path d="M26.8484 25.9365L25.3549 24.6544" stroke="white" stroke-width="1.94678" stroke-linecap="round" stroke-linejoin="round"/>
<path d="M36.136 28.9737C36.9298 28.9737 37.5732 28.3289 37.5732 27.5337C37.5732 26.7385 36.9298 26.0937 36.136 26.0937" stroke="white" stroke-width="1.94678" stroke-linecap="round" stroke-linejoin="round"/>
<path d="M35.7968 12.5226V26.0937" stroke="white" stroke-width="1.94678" stroke-linecap="round" stroke-linejoin="round"/>
<path d="M35.8229 29.1433L36.1285 37.9852" stroke="white" stroke-width="1.94678" stroke-linecap="round" stroke-linejoin="round"/>
<path d="M22.4351 21.4977C22.3946 21.5519 22.3623 21.6124 22.3252 21.6694" stroke="white" stroke-width="1.94678" stroke-linecap="round" stroke-linejoin="round"/>
<path d="M22.3251 21.6694C22.1741 21.9056 22.0457 22.1597 21.9688 22.4433L19.6278 29.7731" stroke="white" stroke-width="1.94678" stroke-linecap="round" stroke-linejoin="round"/>
<path d="M22.3485 21.5979L22.3252 21.6693" stroke="white" stroke-width="1.94678" stroke-linecap="round" stroke-linejoin="round"/>
<path d="M36.136 26.0937H31.8236C31.8236 26.0937 27.5111 21.0548 25.4902 20.4319C25.4799 20.4285 25.4696 20.4292 25.4586 20.4271C24.2919 20.1319 23.1101 20.5899 22.4351 21.497" stroke="white" stroke-width="1.94678" stroke-linecap="round" stroke-linejoin="round"/>
<path d="M26.8485 25.9365L25.4764 30.0477L29.8157 32.2094C30.4838 32.5425 30.8842 33.2456 30.8299 33.9893L30.365 40.3784" stroke="white" stroke-width="1.94678" stroke-linecap="round" stroke-linejoin="round"/>
<path d="M19.6051 29.8445C18.812 32.068 19.5818 33.5856 21.1914 33.9955C23.5612 34.5991 27.2405 35.2124 27.2405 35.2124L27.3518 41.5375" stroke="white" stroke-width="1.94678" stroke-linecap="round" stroke-linejoin="round"/>
<path d="M19.3017 31.4431L19.6052 37.6124L16.4938 45.714" stroke="white" stroke-width="1.94678" stroke-linecap="round" stroke-linejoin="round"/>
<path d="M23.1986 34.5992V37.7339C23.1986 38.1253 23.0922 38.5092 22.891 38.845L20.2493 44.2699" stroke="white" stroke-width="1.94678" stroke-linecap="round" stroke-linejoin="round"/>
<path d="M16.4938 45.714L11.9094 47.4774" stroke="white" stroke-width="1.94678" stroke-linecap="round" stroke-linejoin="round"/>
<path d="M35.8256 38.2784L30.3657 40.3784" stroke="white" stroke-width="1.94678" stroke-linecap="round" stroke-linejoin="round"/>
<path d="M27.3518 41.5382L20.2493 44.2699" stroke="white" stroke-width="1.94678" stroke-linecap="round" stroke-linejoin="round"/>
<path d="M48.0907 47.4774L36.4388 38.2784" stroke="white" stroke-width="1.94678" stroke-linecap="round" stroke-linejoin="round"/>
<path d="M35.7837 15.5893C39.2831 11.5269 42.7894 18.9871 46.3025 14.9239C46.2709 16.9682 46.24 19.0118 46.2084 21.0561C42.7578 25.0506 39.314 17.7277 35.8778 21.7215" stroke="white" stroke-width="1.94678" stroke-linecap="round" stroke-linejoin="round"/>
</g>
<defs>
<clipPath id="clip0_1158_32821">
<rect width="60" height="60" fill="white"/>
</clipPath>
</defs>
</svg>
