<svg width="60" height="60" viewBox="0 0 60 60" fill="none" xmlns="http://www.w3.org/2000/svg">
<g clip-path="url(#clip0_1158_33157)">
<path d="M44 0H16C7.16344 0 0 7.16344 0 16V44C0 52.8366 7.16344 60 16 60H44C52.8366 60 60 52.8366 60 44V16C60 7.16344 52.8366 0 44 0Z" fill="#7022FB"/>
<path d="M45.7807 34.9026C46.1357 32.712 44.6497 30.6485 42.4605 30.2928C40.2713 29.9371 38.2085 31.4245 37.8534 33.615C37.4984 35.8056 38.9844 37.8691 41.1736 38.2248C43.3628 38.5805 45.4256 37.0931 45.7807 34.9026Z" stroke="white" stroke-width="1.94678" stroke-linecap="round" stroke-linejoin="round"/>
<path d="M18.183 38.2769C20.4011 38.2769 22.1988 36.4778 22.1988 34.2591C22.1988 32.0404 20.4011 30.2412 18.183 30.2412C15.965 30.2412 14.1672 32.0404 14.1672 34.2591C14.1672 36.4778 15.965 38.2769 18.183 38.2769Z" stroke="white" stroke-width="1.94678" stroke-linecap="round" stroke-linejoin="round"/>
<path d="M32.9072 17.4638C32.9072 16.3843 32.0317 15.5088 30.9522 15.5088H20.1869C19.082 15.5088 18.1831 16.4365 18.1831 17.5648V26.2233L20.1869 23.7656H30.9034C32.0083 23.7656 32.9072 22.8379 32.9072 21.7096V17.4638Z" stroke="white" stroke-width="1.94678" stroke-linecap="round" stroke-linejoin="round"/>
<path d="M27.0928 18.3732C27.0928 19.5015 27.9917 20.4292 29.0965 20.4292H39.8131L41.8169 22.8869V14.2283C41.8169 13.1001 40.918 12.1724 39.8131 12.1724H32.6653H29.0478C27.9683 12.1724 27.0928 13.0479 27.0928 14.1274V18.3732Z" stroke="white" stroke-width="1.94678" stroke-linecap="round" stroke-linejoin="round"/>
<path d="M25.5457 45.6432C25.5457 41.5746 22.2495 38.2764 18.1836 38.2764C14.1177 38.2764 10.8215 41.5746 10.8215 45.6432H25.5463H25.5457Z" stroke="white" stroke-width="1.94678" stroke-linecap="round" stroke-linejoin="round"/>
<path d="M49.179 45.6432C49.179 41.5746 45.8828 38.2764 41.8169 38.2764C37.751 38.2764 34.4548 41.5746 34.4548 45.6432H49.1796H49.179Z" stroke="white" stroke-width="1.94678" stroke-linecap="round" stroke-linejoin="round"/>
</g>
<defs>
<clipPath id="clip0_1158_33157">
<rect width="60" height="60" fill="white"/>
</clipPath>
</defs>
</svg>
