<svg width="24" height="24" viewBox="0 0 24 24" fill="none" xmlns="http://www.w3.org/2000/svg">
<path d="M17.7349 0H6.26627C2.81278 0 0.00231934 2.81163 0.00231934 6.26512V17.7337C0.00231934 21.1884 2.81278 23.9988 6.26627 23.9988H17.7349C21.1895 23.9988 23.9988 21.1872 23.9988 17.7337V6.26512C23.9988 2.81047 21.1884 0 17.7349 0ZM20.3616 7.02791C20.0116 7.51744 19.6267 7.95698 19.1814 8.36279C18.7035 8.79767 18.7884 9.09302 18.7407 9.68721C18.6698 10.5802 18.486 11.443 18.1942 12.2895C17.6209 13.9535 16.5849 15.4314 15.2488 16.5698C12.0465 19.3 7.10581 19.4163 3.59302 17.2395C6.18023 17.35 7.34069 16.8174 8.6872 15.8221C7.33371 15.6267 6.11976 15.2651 5.45581 13.4093C6.10581 13.5872 6.56976 13.5012 6.96744 13.3895C5.7186 12.993 4.25348 12.3884 4.25348 9.98837C4.78255 10.3058 5.49767 10.443 5.80813 10.3988C4.12674 9.23023 3.98953 7.27674 4.75464 5.82093C5.83604 7.43488 9.83255 9.69884 11.6512 9.3C11.4488 7.66744 12.3279 6.01395 13.9465 5.46163C14.8593 5.15116 15.7651 5.17326 16.6639 5.52442C17.0139 5.66279 17.3674 5.8907 17.636 6.15581C17.6826 6.20116 17.7139 6.23488 17.7756 6.24767C17.8151 6.25581 17.8558 6.25233 17.8942 6.24186C18.5232 6.06395 19.5081 5.6314 19.7837 5.47558C19.8919 5.41395 19.2267 6.99535 18.3174 7.38023C18.7256 7.28837 19.6884 6.99651 20.0826 6.83023C20.1605 6.79767 20.25 6.77674 20.3128 6.8C20.4035 6.82791 20.443 6.91512 20.3605 7.02674L20.3616 7.02791Z" fill="white"/>
</svg>
