<svg width="1400" height="157" viewBox="0 0 1400 157" fill="none" xmlns="http://www.w3.org/2000/svg">
<path d="M1033.6 125.5V78.3C1033.6 64.6 1029.2 59.5 1020.2 59.5C1010.3 59.5 1005.7 65.5 1005.7 77V125.4H979.5V77.1C979.5 65.7 975.4 59.4 966.4 59.4C956.1 59.4 951.6 66 951.6 78.2V125.4H925.4V37.8H949.9V47.1H950.2C954.8 38.9 963.1 34.8 974.3 34.8C985.7 34.8 994 40.5 999.5 50.4C1005.8 40.5 1015.3 34.8 1027.3 34.8C1046.9 34.8 1059.8 46.8 1059.8 71.2V125.3H1033.6V125.5ZM1234.8 81.3C1234.8 94.2001 1225.2 103.9 1212.4 103.9C1199.8 103.9 1190.5 94.6001 1190.5 81.3C1190.5 68.5 1200.3 59.4 1212.6 59.4C1225.5 59.4 1234.8 69.2001 1234.8 81.3ZM1259.6 125.5V8.80005H1233.4V45.4C1226 38 1217.8 35 1207.7 35C1182.1 35 1164.3 55.4 1164.3 81.5C1164.3 108 1181.7 128.4 1208.2 128.4C1220.7 128.4 1229.5 124.1 1234.4 116.1H1234.7V125.6H1259.6V125.5ZM1270.7 125.5H1296.9V37.9H1270.7V125.5ZM1270.7 28.7H1296.9V8.80005H1270.7V28.7ZM1373.8 81.7C1373.8 94.3 1364.2 104.1 1351.9 104.1C1339.8 104.1 1330.1 94.2 1330.1 82C1330.1 69.4 1339.6 59.4 1351.6 59.4C1363.9 59.4 1373.8 69.4 1373.8 81.7ZM1400 125.5V37.9H1373.8V47.2H1373.5C1368.5 39.2 1358.5 34.9 1347.8 34.9C1322.7 34.9 1303.9 55.7 1303.9 81.6C1303.9 108.1 1321.9 128.5 1347.8 128.5C1359.3 128.5 1369.7 123.8 1373.5 116H1373.8V125.5H1400ZM1112.8 57.1C1103.3 57.1 1095.1 62.8 1093 72.1H1132.9C1130.8 63.1 1122.9 57.1 1112.8 57.1ZM1151 107.7C1142 121 1128.5 128.6 1113.3 128.6C1088 128.6 1066.8 108.2 1066.8 82.1C1066.8 56.8 1087.1 34.9 1112.9 34.9C1139.2 34.9 1159.3 55.6 1159.3 82.9C1159.3 85.4 1159.1 87.5 1158.7 89.9H1092.9C1094.3 99.9 1102.7 106.5 1113.5 106.5C1120.6 106.5 1125.2 103.8 1129.5 98.3L1151 107.7ZM918.5 112.8C918.5 104.7 912 98.2 903.9 98.2C895.8 98.2 889.3 104.7 889.3 112.8C889.3 120.9 895.8 127.4 903.9 127.4C912 127.4 918.5 120.8 918.5 112.8Z" fill="#7022FB"/>
<path d="M340.4 128.5C313.6 128.5 293.1 108.7 293.1 81.8C293.1 54.6 314.2 35.1 340.4 35.1C366.8 35.1 387.7 54.9 387.7 81.5C387.7 109 366.8 128.5 340.4 128.5ZM361.4 81.8C361.4 70.1 352.5 59.6 340.2 59.6C328.6 59.6 319.3 69.7001 319.3 81.8C319.3 93.8 328.5 104 340.4 104C352.7 104 361.4 93.5 361.4 81.8Z" fill="black"/>
<path d="M449.7 125.8V77C449.7 65.1 445.6 59.6 435.9 59.6C425.3 59.6 420.9 65.5 420.9 77.3V125.7H394.6V37.8H419.1V47.1H419.4C424.9 38.1 432.7 34.8 443.3 34.8C459.1 34.8 475.9 43.7 475.9 69.6V125.6H449.7V125.8Z" fill="black"/>
<path d="M580.9 125.8V37.9H605.6V47.2H605.9C610.5 37.9 617.8 34.9 627.9 34.9V61.4C612.2 61.6 607.2 67.4 607.2 77.4V125.8H580.9Z" fill="black"/>
<path d="M549.4 92.4H549.1C545.1 100 539 104.1 530.1 104.1C517.9 104.1 509.2 94.6 509.2 81.8C509.2 69.5 517.4 59.5 529.5 59.5C538.4 59.5 545.2 63.5 549 71.6L572.2 61.5C564.5 45.1 548.2 35 528.9 35C503.6 35 482.8 55.4 482.8 81.7C482.8 107.7 503.4 128.7 529.3 128.7C548.2 128.7 564.5 118.7 572.3 102.4L549.4 92.4Z" fill="black"/>
<path d="M263.2 92.4H263C259 100 252.9 104.1 244 104.1C231.8 104.1 223.1 94.6 223.1 81.8C223.1 69.5 231.3 59.5 243.4 59.5C252.3 59.5 259.1 63.5 262.9 71.6L286.1 61.5C278.4 45.1 262.1 35 242.8 35C217.5 35 196.7 55.4 196.7 81.7C196.7 107.7 217.3 128.7 243.2 128.7C262.1 128.7 278.4 118.7 286.2 102.4L263.2 92.4Z" fill="black"/>
<path d="M692.6 98.3C688.3 103.8 683.7 106.5 676.6 106.5C665.8 106.5 657.4 99.8 656 89.9H721.9C722.4 87.5 722.5 85.5 722.5 82.9C722.5 55.7 702.4 34.9 676.1 34.9C650.3 34.9 630 56.7 630 82.1C630 108.2 651.2 128.6 676.5 128.6C691.7 128.6 705.2 121 714.2 107.6L692.6 98.3ZM676.2 57.1C686.3 57.1 694.2 63.1 696.3 72.1H656.4C658.4 62.8 666.7 57.1 676.2 57.1Z" fill="black"/>
<path d="M767.2 128.7C743.6 128.7 729.5 114.9 729.5 91.7V20.5H755.1V39.1H785.6V60.9H755.1V91C755.1 100.2 760.5 105.7 769.5 105.7C774.7 105.7 781.1 104 785 101.6L785.6 101.2V124.3L785.4 124.4C780.5 127.5 772.5 128.7 767.2 128.7Z" fill="black"/>
<path d="M854.5 98.3C850.2 103.8 845.6 106.5 838.5 106.5C827.7 106.5 819.3 99.8 817.9 89.9H883.8C884.3 87.5 884.4 85.5 884.4 82.9C884.4 55.7 864.3 34.9 838 34.9C812.2 34.9 791.9 56.7 791.9 82.1C791.9 108.2 813.1 128.6 838.4 128.6C853.6 128.6 867.1 121 876.1 107.6L854.5 98.3ZM838 57.1C848.1 57.1 856 63.1 858.1 72.1H818.2C820.3 62.8 828.5 57.1 838 57.1Z" fill="black"/>
<path d="M49.9 89.4L5.69995 107.7C6.49995 109.7 7.39995 111.6 8.29995 113.5L52.6999 95.1C51.5999 93.3 50.6 91.4 49.9 89.4Z" fill="#613DEB"/>
<path d="M47.9 78.4C47.9 77.9 47.9 77.5 47.9 77H0C0 77.5 0 77.9 0 78.4C0 80.6 0.0999992 82.8 0.299999 85H48.6C48.1 82.9 47.9 80.7 47.9 78.4Z" fill="#613DEB"/>
<path d="M79.3 47C91.3 47 101.7 53.8 107 63.7L149.6 45.2C137.2 18.7 110.4 0.3 79.3 0C79 0 78.8 0 78.5 0C73.9 0 69.3 0.400012 64.9 1.20001V35.7L50.5 5.20001C46.5 6.70001 42.6 8.60001 39 10.7L59.3 53.9L25.1 21C22.4 23.5 19.8 26.3 17.5 29.2L52.2 62.6C57.7 53.2 67.7 47 79.3 47Z" fill="#613DEB"/>
<path d="M51.1 64.5L6.9 46.2C5.6 49.1 4.4 52.1 3.5 55.2L48.2 73.7C48.7 70.4 49.7 67.3 51.1 64.5Z" fill="#613DEB"/>
<path d="M79.3 109.8C78.8 109.8 78.2 109.8 77.7 109.8V156.9C78 156.9 78.2 156.9 78.5 156.9C78.8 156.9 79 156.9 79.3 156.9C110.4 156.6 137.2 138.2 149.6 111.7L107 93.1C101.7 103 91.3 109.8 79.3 109.8Z" fill="#613DEB"/>
<path d="M66 106.9L47.9 150.7C48.9 151.1 49.9 151.5 50.9 151.9L69 108.1C68 107.7 67 107.3 66 106.9Z" fill="#613DEB"/>
<path d="M56.2 99.7L22.4 133.2C23.5 134.3 24.7 135.5 25.8 136.5L59.7 102.9C58.5 102 57.3 100.9 56.2 99.7Z" fill="#613DEB"/>
</svg>
