<svg width="16" height="16" viewBox="0 0 16 16" fill="none" xmlns="http://www.w3.org/2000/svg">
<path d="M10.35 9.20833C9.9 10.05 9.025 10.575 8.075 10.575C8.03333 10.575 7.98333 10.575 7.94167 10.575L7.575 10.5583L7.23333 10.4417C7.15 10.4167 7.06667 10.3833 6.99167 10.3417L6.71667 10.2167L6.475 10.025C6.375 9.94167 6.275 9.85 6.18333 9.75833L6.01667 9.58333L5.89167 9.38333C5.8 9.23333 5.71667 9.075 5.65833 8.91667L5.59167 8.74167L5.55 8.55833C5.50833 8.375 5.49167 8.2 5.49167 8.01667C5.49167 7.975 5.49167 7.94167 5.49167 7.9V7.75833L5.51667 7.625C5.55833 7.36667 5.63333 7.10833 5.75 6.875L5.79167 6.79167L5.84167 6.70833C6.3 5.925 7.15833 5.44167 8.05833 5.44167C9.01667 5.44167 9.88333 5.96667 10.3333 6.80833L10.525 7.175L15.4167 5.05L15.225 4.63333C13.95 1.84167 11.1333 0.0333333 8.08333 0C8.08333 0 8.01667 0 8 0C7.54167 0 7.08333 0.0416667 6.61667 0.125L6.25 0.191667V1.9L5.54167 0.383333L5.15833 0.533333C4.75 0.683333 4.35833 0.875 3.98333 1.09167L3.63333 1.3L4.74167 3.65L2.875 1.85833L2.56667 2.14167C2.29167 2.4 2.025 2.68333 1.79167 2.975L1.53333 3.29167L3.91667 5.575L0.9 4.325L0.725 4.71667C0.583333 5.025 0.466667 5.33333 0.375 5.63333L0.258333 6.01667L3.65 7.425H0.00833333V7.86667L0 7.91667C0 7.95 0 7.975 0 8.00833C0 8.21667 0.00833333 8.44167 0.0333333 8.68333L0.0666667 9.09167H4.03333L0.416667 10.575L0.583333 10.9833C0.666667 11.1833 0.758333 11.3833 0.85 11.575L1.03333 11.9417L4.95833 10.3167L1.98333 13.2667L2.29167 13.5833C2.41667 13.7083 2.525 13.8167 2.64167 13.925L2.95833 14.2083L6.23333 10.9583L4.48333 15.1833L4.89167 15.3583C4.99167 15.4 5.09167 15.4417 5.19167 15.475L5.59167 15.625L7.48333 11.0583V15.975H7.925C7.925 15.975 7.98333 15.975 8.00833 15.975C8.03333 15.975 8.09167 15.975 8.09167 15.975C11.15 15.9417 13.9583 14.1333 15.2583 11.3667L15.45 10.95L10.5583 8.825L10.3667 9.19167L10.35 9.20833Z" fill="#7022FB"/>
</svg>
