<?xml version="1.0" encoding="utf-8"?>
<!-- Generator: Adobe Illustrator 27.2.0, SVG Export Plug-In . SVG Version: 6.00 Build 0)  -->
<svg version="1.1" id="Layer_1" xmlns="http://www.w3.org/2000/svg" xmlns:xlink="http://www.w3.org/1999/xlink" x="0px" y="0px"
	 viewBox="0 0 1500 1500" style="enable-background:new 0 0 1500 1500;" xml:space="preserve">
<style type="text/css">
	.st0{fill:#FFFFFF;}
</style>
<g>
	<path class="st0" d="M566.6,831.4L241.7,966c5.9,14.6,12.3,28.9,19.3,42.8l326.6-135.3C579.2,860.3,572.2,846.2,566.6,831.4z"/>
	<path class="st0" d="M551.9,750.4c0-3.4,0.1-6.7,0.3-10.1H200.1c-0.1,3.4-0.3,6.7-0.3,10.1c0,16.4,0.8,32.6,2.2,48.6h355.1
		C553.8,783.3,551.9,767.1,551.9,750.4z"/>
	<path class="st0" d="M782.9,519.5c88.4,0,165.1,49.7,203.9,122.6l313.1-136c-91.2-194.9-288.1-330.4-517-332.6v0
		c-2,0-3.9-0.1-5.9-0.1c-34.1,0-67.4,3.1-99.8,8.8v253.8L571.4,211.1c-29.5,11.2-57.8,24.9-84.7,40.6l149.6,317.8l-251.8-242
		c-20.1,18.7-38.9,38.7-56.1,60.1l255.6,245.6C624.1,565.1,698.1,519.5,782.9,519.5z"/>
	<path class="st0" d="M575.8,648.2l-325-134.6c-9.6,21.3-18.1,43.3-25.1,65.9l328.9,136.2C558.2,691.7,565.5,669.1,575.8,648.2z"/>
	<path class="st0" d="M782.9,981.3c-3.9,0-7.9-0.1-11.7-0.3v346.4c2,0,3.9,0.1,5.9,0.1s3.9-0.1,5.9-0.1v0
		c228.9-2.3,425.8-137.8,517-332.6l-313.1-136C948,931.6,871.2,981.3,782.9,981.3z"/>
	<path class="st0" d="M685.5,959.8L552.1,1282c7.2,3,14.5,5.9,21.8,8.6l133.4-322.1C699.9,966,692.6,963.1,685.5,959.8z"/>
	<path class="st0" d="M613.6,907.4l-248.8,246.7c8.2,8.4,16.6,16.6,25.3,24.5l249.3-247.3C630.3,924,621.6,916,613.6,907.4z"/>
</g>
</svg>
